<?xml version="1.0" encoding="UTF-8"?>
<svg width="25px" height="32px" viewBox="0 0 25 32" version="1.1" xmlns="http://www.w3.org/2000/svg" xmlns:xlink="http://www.w3.org/1999/xlink">
    <title>Combined Shape</title>
    <g id="Page-1" stroke="none" stroke-width="1" fill="none" fill-rule="evenodd">
        <g id="logo" fill="#4472EE" fill-rule="nonzero">
            <g id="Group">
                <path d="M4.04599516,9.74386813 L0,9.74386813 L0,24.8160687 L0,24.8160687 L4.04599516,24.8160687 L4.04599516,24.8160687 L4.04599516,9.74386813 Z M10.7735281,7.19024824 L6.72753294,7.19024824 L6.72753294,32 L6.72753294,32 L10.7735281,32 L10.7735281,32 L10.7735281,7.19024824 Z M24.228594,7.1839313 L20.1825988,7.1839313 L20.1825988,7.1839313 L20.1825988,22.2561319 L20.1825988,22.2561319 L24.228594,22.2561319 L24.228594,22.2561319 L24.228594,7.1839313 Z M17.501061,0 L13.4550659,0 L13.4550659,0 L13.4550659,24.8081725 L13.4550659,24.8081725 L17.501061,24.8081725 L17.501061,24.8081725 L17.501061,0 Z" id="Combined-Shape"></path>
            </g>
        </g>
    </g>
</svg>