<?xml version="1.0" encoding="UTF-8"?>
<svg width="110px" height="25px" viewBox="0 0 110 25" version="1.1" xmlns="http://www.w3.org/2000/svg" xmlns:xlink="http://www.w3.org/1999/xlink">
    <title>Combined Shape</title>
    <g id="Page-1" stroke="none" stroke-width="1" fill="none" fill-rule="evenodd">
        <g id="logo" fill="#FFFFFF" fill-rule="nonzero">
            <g id="Group" transform="translate(0.000000, 0.000000)">
                <path d="M70.6217243,4.59240981 C67.9054434,4.59240981 65.653457,5.50994423 64.1579233,6.96125944 L64.1579233,0 L60.171939,0 L60.171939,18.4075408 L64.1579233,18.4075408 L64.1579233,16.3276909 C65.5950254,17.7000444 67.7775255,18.5591472 70.6217243,18.5591472 C76.2927503,18.5591472 79.0800967,15.4322657 79.0800967,11.5757785 C79.0785175,7.71929132 76.1553571,4.59240981 70.6217243,4.59240981 Z M70.6217243,15.0974683 L68.4202734,15.0974683 C65.5618615,15.0974683 64.1563441,13.5213937 64.1563441,11.5773577 C64.1563441,9.63332182 65.6297685,8.0572472 68.4202734,8.0572472 L70.6217243,8.0572472 C73.4122292,8.0572472 74.8856537,9.63332182 74.8856537,11.5773577 C74.8856537,13.5213937 73.4801362,15.0974683 70.6217243,15.0974683 Z M15.1069437,7.10339042 C13.6761585,5.62522825 11.4273306,4.68874303 8.4583724,4.68874303 C2.78734639,4.68874303 0,7.81562454 0,11.6721117 C0,15.5285989 2.92316044,18.6554804 8.4583724,18.6554804 C11.2883581,18.6554804 13.6161477,17.6605636 15.1069437,16.1018605 L15.1069437,18.9760647 L15.0974683,18.9760647 L15.0974683,19.5319548 C15.0974683,20.5884617 14.2320486,21.5059962 13.1755416,21.4759907 L6.79859843,21.4854661 L6.79859843,24.7655332 L15.0974683,24.7402655 C17.202586,24.7402655 18.9081577,23.0346938 18.9081577,20.9295761 L18.9081577,19.2540098 L18.9081577,18.9760647 L18.9081577,4.83877017 L15.1069437,4.83877017 L15.1069437,7.10339042 Z M10.6582441,15.1922223 L8.4583724,15.1922223 C5.66786754,15.1922223 4.19444307,13.6161477 4.19444307,11.6721117 C4.19444307,9.7280758 5.59996052,8.15200118 8.4583724,8.15200118 L10.6582441,8.15200118 C13.516656,8.15200118 14.9221734,9.7280758 14.9221734,11.6721117 C14.9221734,13.6161477 13.448749,15.1922223 10.6582441,15.1922223 Z M54.690421,6.96125944 C53.1948872,5.508365 50.9429009,4.59240981 48.2266199,4.59240981 C42.6929872,4.59240981 39.7682475,7.71929132 39.7682475,11.5757785 C39.7682475,15.4322657 42.5555939,18.5591472 48.2266199,18.5591472 C51.0708187,18.5591472 53.2548981,17.7000444 54.690421,16.3276909 L54.690421,18.4075408 L58.6764053,18.4075408 L58.6764053,0 L54.690421,0 L54.690421,6.96125944 Z M50.4280709,15.0974683 L48.2266199,15.0974683 C45.3682081,15.0974683 43.9626906,13.5213937 43.9626906,11.5773577 C43.9626906,9.63332182 45.4361151,8.0572472 48.2266199,8.0572472 L50.4280709,8.0572472 C53.2185757,8.0572472 54.6920002,9.63332182 54.6920002,11.5773577 C54.690421,13.5213937 53.2864828,15.0974683 50.4280709,15.0974683 Z M109.557716,8.05566797 L109.557716,4.76770468 L103.142871,4.76770468 L103.142871,0.938064452 L99.3321818,2.20776785 L99.3321818,14.397868 L99.3321818,14.5731629 C99.3321818,16.6782806 101.037754,18.3838523 103.142871,18.3838523 L109.557716,18.2069782 L109.557716,14.9269111 L105.071115,15.0500913 C104.014608,15.0785175 103.142871,14.2304693 103.142871,13.1739624 L103.142871,8.05566797 L109.557716,8.05566797 Z M90.0226028,4.76770468 L87.8874796,4.76770468 C82.4928194,4.76770468 79.6423037,7.81562454 79.6423037,11.5757785 C79.6423037,15.3359325 82.3585846,18.3838523 87.8874796,18.3838523 L90.0226028,18.3838523 C95.5499186,18.3838523 98.2677787,15.3359325 98.2677787,11.5757785 C98.2677787,7.81562454 95.417263,4.76770468 90.0226028,4.76770468 Z M90.0557667,15.0974683 L87.8543157,15.0974683 C84.9959039,15.0974683 83.5903864,13.5213937 83.5903864,11.5773577 C83.5903864,9.63332182 85.0638109,8.0572472 87.8543157,8.0572472 L90.0557667,8.0572472 C92.8462715,8.0572472 94.319696,9.63332182 94.319696,11.5773577 C94.319696,13.5213937 92.9141786,15.0974683 90.0557667,15.0974683 Z M30.4507723,4.76770468 L28.3156492,4.76770468 C22.920989,4.76770468 20.0704733,7.81562454 20.0704733,11.5757785 C20.0704733,15.3359325 22.7867542,18.3838523 28.3156492,18.3838523 L30.4507723,18.3838523 C35.9780881,18.3838523 38.6959483,15.3359325 38.6959483,11.5757785 C38.6959483,7.81562454 35.8454326,4.76770468 30.4507723,4.76770468 Z M30.4839362,15.0974683 L28.2824853,15.0974683 C25.4240734,15.0974683 24.018556,13.5213937 24.018556,11.5773577 C24.018556,9.63332182 25.4919805,8.0572472 28.2824853,8.0572472 L30.4839362,8.0572472 C33.2744411,8.0572472 34.7478656,9.63332182 34.7478656,11.5773577 C34.7478656,13.5213937 33.3423481,15.0974683 30.4839362,15.0974683 Z" id="Combined-Shape"></path>
            </g>
        </g>
    </g>
</svg>