<?xml version="1.0" encoding="UTF-8"?>
<svg width="500px" height="400px" viewBox="0 0 500 400" version="1.1" xmlns="http://www.w3.org/2000/svg" xmlns:xlink="http://www.w3.org/1999/xlink">
    <title>coupon</title>
    <g id="Page-1" stroke="none" stroke-width="1" fill="none" fill-rule="evenodd">
        <g id="coupon-svgrepo-com" fill="#09244B" fill-rule="nonzero">
            <path d="M425,0 C464.943125,0 497.5916,31.223098 499.872688,70.593191 L500,75 L500,120.428 C500,135.587231 491.191715,147.384402 480.6008,153.665807 L477.92,155.12 C461.3275,163.3075 450,180.355 450,200 C450,218.241785 459.76708,234.24389 474.44726,242.992205 L477.92,244.88 C488.75923,250.226923 498.401303,261.26994 499.82056,275.85397 L500,279.5725 L500,325 C500,364.943125 468.778065,397.5916 429.406932,399.872687 L425,400 L75,400 C35.0580802,400 2.40848525,368.778065 0.12731775,329.406932 L0,325 L0,279.5725 C0,264.41327 8.808284,252.615458 19.3988058,246.334153 L22.0795,244.88 C38.67275,236.6925 50,219.645 50,200 C50,181.758215 40.2331365,165.75611 25.5523855,157.007795 L22.0795,155.12 C11.2407308,149.772846 1.59869525,138.73045 0.17944,124.146518 L0,120.428 L0,75 C0,35.0580802 31.223098,2.40848525 70.593191,0.12731775 L75,0 L425,0 Z M425,50 L75,50 C62.1792142,50 51.6123368,59.6511073 50.168195,72.0844937 L50,75 L50,113.3835 C79.8475,130.64675 100,162.95 100,200 C100,235.1 81.9129918,265.939085 54.6306708,283.767983 L50,286.6175 L50,325 C50,337.82125 59.6511073,348.38773 72.0844937,349.831813 L75,350 L425,350 C437.82125,350 448.38773,340.349325 449.831813,327.915597 L450,325 L450,286.6175 C420.1525,269.3525 400,237.05 400,200 C400,164.9 418.087007,134.060241 445.36933,116.232974 L450,113.38375 L450,75 C450,62.1792142 440.349325,51.6123368 427.915597,50.168195 L425,50 Z M200,125 C212.82125,125 223.38773,134.651107 224.831813,147.084494 L225,150 L225,250 C225,263.8075 213.8075,275 200,275 C187.179214,275 176.612337,265.349325 175.168195,252.915598 L175,250 L175,150 C175,136.193 186.193,125 200,125 Z" id="coupon"></path>
        </g>
    </g>
</svg>