<svg width="182" height="40" viewBox="0 0 182 40" fill="none" xmlns="http://www.w3.org/2000/svg">
  <path d="M5.01381 12.1785H0V31.0216H5.01381V12.1785Z" fill="#4472EE"/>
  <path d="M13.3506 8.98828H8.33679V40H13.3506V8.98828Z" fill="#4472EE"/>
  <path d="M30.0241 8.97839H25.0103V27.8215H30.0241V8.97839Z" fill="#4472EE"/>
  <path d="M21.6873 0H16.6735V31.0117H21.6873V0Z" fill="#4472EE"/>
  <path d="M133.75 10.2615C130.384 10.2615 127.594 11.4085 125.74 13.2228V4.52075H120.801V27.5313H125.74V24.9314C127.519 26.6469 130.226 27.7208 133.75 27.7208C140.778 27.7208 144.232 23.812 144.232 18.9912C144.23 14.1684 140.608 10.2615 133.75 10.2615ZM133.75 23.3915H131.022C127.48 23.3915 125.739 21.4214 125.739 18.9912C125.739 16.561 127.564 14.5908 131.022 14.5908H133.75C137.208 14.5908 139.034 16.561 139.034 18.9912C139.032 21.4214 137.293 23.3915 133.75 23.3915Z" fill="#1E1E1E"/>
  <path d="M64.9564 13.4004C63.1834 11.5526 60.3966 10.382 56.7175 10.382C49.6899 10.382 46.2358 14.2908 46.2358 19.1116C46.2358 23.9324 49.8582 27.8412 56.7175 27.8412C60.2244 27.8412 63.109 26.5975 64.9564 24.6491V28.242H64.9447V28.9369C64.9447 30.2576 63.8722 31.4046 62.563 31.3671L54.6607 31.3789V35.4792L64.9447 35.4476C67.5533 35.4476 69.6669 33.3155 69.6669 30.684V28.5894V28.242V10.5695H64.9564V13.4004ZM59.4436 23.512H56.7155C53.2575 23.512 51.4316 21.5418 51.4316 19.1116C51.4316 16.6814 53.1734 14.7112 56.7155 14.7112H59.4436C62.9857 14.7112 64.7274 16.6814 64.7274 19.1116C64.7274 21.5418 62.9016 23.512 59.4436 23.512Z" fill="#1E1E1E"/>
  <path d="M114.008 13.2228C112.155 11.4065 109.364 10.2615 105.998 10.2615C99.1411 10.2615 95.5167 14.1703 95.5167 18.9912C95.5167 23.812 98.9708 27.7208 105.998 27.7208C109.523 27.7208 112.229 26.6469 114.008 24.9314V27.5313H118.948V4.52075H114.008V13.2228ZM108.724 23.3915H105.996C102.454 23.3915 100.713 21.4214 100.713 18.9912C100.713 16.561 102.538 14.5908 105.996 14.5908H108.724C112.182 14.5908 114.008 16.561 114.008 18.9912C114.008 21.4214 112.269 23.3915 108.724 23.3915Z" fill="#1E1E1E"/>
  <path d="M182 14.5889V10.4807H174.051V5.69342L169.328 7.28063V22.519V22.7381C169.328 25.3697 171.442 27.5017 174.051 27.5017L182 27.2806V23.1803L176.44 23.3343C175.131 23.3699 174.051 22.3097 174.051 20.989V14.5889H182Z" fill="#1E1E1E"/>
  <path d="M157.792 10.4807H155.146C148.461 10.4807 144.929 14.2907 144.929 18.9912C144.929 23.6916 148.295 27.5017 155.146 27.5017H157.792C164.642 27.5017 168.01 23.6916 168.01 18.9912C168.01 14.2907 164.477 10.4807 157.792 10.4807ZM157.833 23.3915H155.105C151.563 23.3915 149.821 21.4213 149.821 18.9912C149.821 16.561 151.647 14.5908 155.105 14.5908H157.833C161.291 14.5908 163.117 16.561 163.117 18.9912C163.117 21.4213 161.375 23.3915 157.833 23.3915Z" fill="#1E1E1E"/>
  <path d="M83.9705 10.4807H81.3247C74.6396 10.4807 71.1072 14.2907 71.1072 18.9912C71.1072 23.6916 74.4733 27.5017 81.3247 27.5017H83.9705C90.82 27.5017 94.188 23.6916 94.188 18.9912C94.188 14.2907 90.6556 10.4807 83.9705 10.4807ZM84.0116 23.3915H81.2836C77.7414 23.3915 75.9997 21.4213 75.9997 18.9912C75.9997 16.561 77.8256 14.5908 81.2836 14.5908H84.0116C87.4696 14.5908 89.2955 16.561 89.2955 18.9912C89.2955 21.4213 87.5538 23.3915 84.0116 23.3915Z" fill="#1E1E1E"/>
</svg>
