<?xml version="1.0" encoding="UTF-8"?>
<svg width="14px" height="14px" viewBox="0 0 14 14" version="1.1" xmlns="http://www.w3.org/2000/svg" xmlns:xlink="http://www.w3.org/1999/xlink">
    <title>Arrow 5</title>
    <g id="Page-1" stroke="none" stroke-width="1" fill="none" fill-rule="evenodd">
        <g id="Arrow-5">
            <rect id="Rectangle" fill="#D8D8D8" x="0" y="0" width="14" height="14"></rect>
            <path d="M1,7.5 C0.723858,7.5 0.5,7.27614 0.5,7 C0.5,6.72386 0.723858,6.5 1,6.5 L1,7.5 Z M13.3536,6.64645 C13.5488,6.84171 13.5488,7.15829 13.3536,7.35355 L10.1716,10.53553 C9.97631,10.7308 9.65973,10.7308 9.46447,10.53553 C9.2692,10.34027 9.2692,10.02369 9.46447,9.82843 L12.2929,7 L9.46447,4.17157 C9.2692,3.976311 9.2692,3.659728 9.46447,3.464466 C9.65973,3.269204 9.97631,3.269204 10.1716,3.464466 L13.3536,6.64645 Z M1,6.5 L13,6.5 L13,7.5 L1,7.5 L1,6.5 Z" id="Shape" fill="#000000" fill-rule="nonzero"></path>
        </g>
    </g>
</svg>