<?xml version="1.0" encoding="UTF-8"?>
<svg width="18px" height="18px" viewBox="0 0 18 18" version="1.1" xmlns="http://www.w3.org/2000/svg" xmlns:xlink="http://www.w3.org/1999/xlink">
    <title>Attach</title>
    <g id="Page-1" stroke="none" stroke-width="1" fill="none" fill-rule="evenodd">
        <g id="Attach">
            <rect id="Rectangle" fill="#D8D8D8" x="0" y="0" width="18" height="18"></rect>
            <path d="M6.33333,4.95 C6.60947237,4.95 6.83333,5.17385763 6.83333,5.45 C6.83333,5.72614237 6.60947237,5.95 6.33333,5.95 L4.55556,5.95 C2.86802237,5.95 1.5,7.31802237 1.5,9.00556 C1.5,10.6930953 2.86802003,12.06111 4.55556,12.06111 L6.33333,12.06111 C6.60947237,12.06111 6.83333,12.2849676 6.83333,12.56111 C6.83333,12.8372524 6.60947237,13.06111 6.33333,13.06111 L4.55556,13.06111 C2.31573615,13.06111 0.5,11.2453809 0.5,9.00556 C0.5,6.76573763 2.31573763,4.95 4.55556,4.95 L6.33333,4.95 Z M13.4444,4.95 C15.6842418,4.95 17.5,6.76573704 17.5,9.00556 C17.5,11.2453815 15.6842433,13.06111 13.4444,13.06111 L11.6667,13.06111 C11.3905576,13.06111 11.1667,12.8372524 11.1667,12.56111 C11.1667,12.2849676 11.3905576,12.06111 11.6667,12.06111 L13.4444,12.06111 C15.131962,12.06111 16.5,10.6930933 16.5,9.00556 C16.5,7.3180244 15.1319597,5.95 13.4444,5.95 L11.6667,5.95 C11.3905576,5.95 11.1667,5.72614237 11.1667,5.45 C11.1667,5.17385763 11.3905576,4.95 11.6667,4.95 L13.4444,4.95 Z M11.6667,8.50556 C11.9428424,8.50556 12.1667,8.72941763 12.1667,9.00556 C12.1667,9.28170237 11.9428424,9.50556 11.6667,9.50556 L6.33333,9.50556 C6.05718763,9.50556 5.83333,9.28170237 5.83333,9.00556 C5.83333,8.72941763 6.05718763,8.50556 6.33333,8.50556 L11.6667,8.50556 Z" id="Shape" fill="#262628" fill-rule="nonzero"></path>
        </g>
    </g>
</svg>