<?xml version="1.0" encoding="UTF-8"?>
<svg width="32px" height="32px" viewBox="0 0 32 32" version="1.1" xmlns="http://www.w3.org/2000/svg" xmlns:xlink="http://www.w3.org/1999/xlink">
    <title>Group 642</title>
    <g id="Page-1" stroke="none" stroke-width="1" fill="none" fill-rule="evenodd">
        <g id="Group-642">
            <rect id="Rectangle" fill="#D8D8D8" x="0" y="0" width="32" height="32"></rect>
            <path d="M10.91463,11.41986 L10.96908,11.42894 C11.2073,11.47658 11.4421,11.53443 11.6735,11.60249 C11.7348,11.61951 11.7972,11.63652 11.8584,11.65581 C12.0524,11.71706 12.2441,11.78739 12.4324,11.86226 C13.5162,12.29748 14.4972,12.9543 15.3125,13.79063 L15.3533,13.83147 C15.5851,14.071 15.8025,14.324 16.0044,14.5892 C16.0555,14.6561 16.1031,14.7253 16.1519,14.7934 C16.2801,14.9738 16.4026,15.1586 16.516,15.3481 C16.8897,15.9737 17.1795,16.6457 17.3781,17.3468 C17.4099,17.4602 17.4394,17.5736 17.4666,17.6871 C17.5029,17.8402 17.5346,17.9945 17.563,18.1499 C17.58,18.2486 17.597,18.3461 17.6106,18.446 C17.6333,18.607 17.6503,18.7692 17.664,18.9337 C17.6719,19.0233 17.6844,19.1129 17.6844,19.2037 C17.6912,19.3413 17.6946001,19.4767 17.6946001,19.6098 C17.6946001,20.1506 17.6419,20.6901 17.5369,21.2206 C17.4881,21.4712 17.428,21.7117 17.3554,21.9601 C17.2828,22.2086 17.1977,22.4513 17.1036,22.6884 C16.8124,23.4207 16.419,24.1081 15.9352,24.7302 C15.7613,24.9533 15.5775,25.1662 15.3839,25.3688 C15.1833,25.5788 14.972,25.7783 14.751,25.9666 C13.6768,26.881 12.3884,27.508 11.0061,27.7892 C9.62374,28.0704 8.19271,27.9965 6.84672,27.5744 C5.50072,27.1523 4.28373,26.3959 3.30948,25.3757 C2.33523,24.3556 1.635542,23.1051 1.275827,21.7411 C0.9161115,20.3771 0.9081053,18.9442 1.252564,17.5763 C1.597023,16.2084 2.2827,14.9501 3.24549,13.91917 C4.20829,12.88821 5.41676,12.1182 6.75796,11.68112 C8.09915,11.24403 9.52927,11.15414 10.91463,11.41986 Z M7.32842,13.32199 C7.13224,13.32199 6.94368,13.39797 6.8023,13.53399 C6.66091,13.67 6.57771,13.85549 6.57012,14.0515 L6.57012,14.8104 L5.81124,14.8104 C5.6152,14.818 5.42972,14.9012 5.2937,15.0426 C5.15768,15.184 5.08171,15.3725 5.08171,15.5687 C5.08171,15.7649 5.15768,15.9535 5.2937,16.0948 C5.42972,16.2362 5.6152,16.3194 5.81124,16.327 L6.57012,16.327 L6.57012,22.9062 L5.81124,22.9062 C5.60998,22.9062 5.41695,22.9861 5.27463,23.1284 C5.13232,23.2708 5.05238,23.4638 5.05238,23.6651 C5.05238,23.8663 5.13232,24.0593 5.27463,24.2017 C5.41695,24.344 5.60998,24.4239 5.81124,24.4239 L6.57012,24.4239 L6.57012,25.1817 C6.56618,25.2837 6.58287,25.3855 6.6192,25.481 C6.65553,25.5764 6.71075,25.6635 6.78155,25.7371 C6.85236,25.8107 6.93728,25.8693 7.03125,25.9093 C7.12522,25.9493 7.2263,25.9699 7.32842,25.9699 C7.43055,25.9699 7.53162,25.9493 7.62559,25.9093 C7.71956,25.8693 7.8045,25.8107 7.87531,25.7371 C7.94611,25.6635 8.00133,25.5764 8.03766,25.481 C8.07399,25.3855 8.09068,25.2837 8.08673,25.1817 L8.08673,24.4239 L9.60787,24.4239 L9.60787,25.1817 C9.60393,25.2837 9.62062,25.3855 9.65695,25.481 C9.69328,25.5764 9.7485,25.6635 9.8193,25.7371 C9.89011,25.8107 9.97505,25.8693 10.06902,25.9093 C10.16299,25.9493 10.26406,25.9699 10.36619,25.9699 C10.46831,25.9699 10.56938,25.9493 10.66335,25.9093 C10.75732,25.8693 10.84225,25.8107 10.91306,25.7371 C10.98386,25.6635 11.0391,25.5764 11.0754,25.481 C11.1117,25.3855 11.1284,25.2837 11.1245,25.1817 L11.1245,24.3423 C11.2941,24.3033 11.46,24.2494 11.6202,24.1812 C11.8576,24.0809 12.0777,23.9439 12.2724,23.7751 C12.4673,23.6069 12.6316,23.4061 12.7579,23.1818 C12.9339,22.8678 13.0403,22.5196 13.0699,22.1609 C13.0928,21.9041 13.0806,21.6454 13.0336,21.3918 C12.945,20.9319 12.7586,20.4979 12.4846,20.1202 L12.4301,20.0476 C12.3109,19.8931 12.1776,19.75 12.032,19.62 C12.2009,19.4702 12.353,19.3024 12.4857,19.1198 C12.505,19.0937 12.522,19.0664 12.5402,19.0404 C12.6662,18.8545 12.7719,18.6556 12.8555,18.4471 C12.9532,18.2035 13.0195,17.9485 13.0529,17.6882 C13.0619,17.6451 13.0665,17.602 13.0665,17.5589 C13.0807,17.3985 13.0807,17.2372 13.0665,17.0768 C13.0531,16.9278 13.0269,16.7801 12.9882,16.6356 C12.8923,16.2537 12.7011,15.9024 12.4324,15.6147 C12.2252,15.3968 11.9789,15.2198 11.7064,15.0929 L11.6735,15.0781 C11.4962,14.9977 11.3111,14.9358 11.1211,14.8932 L11.1211,14.0527 C11.1135,13.85662 11.0303,13.67114 10.88891,13.53512 C10.74753,13.3991 10.55897,13.32313 10.36278,13.32313 C10.16659,13.32313 9.97803,13.3991 9.83665,13.53512 C9.69527,13.67114 9.61206,13.85662 9.60448,14.0527 L9.60448,14.8115 L8.08673,14.8115 L8.08673,14.0515 C8.07915,13.85549 7.99593,13.67 7.85455,13.53399 C7.71317,13.39797 7.52461,13.32199 7.32842,13.32199 Z M30.3878,21.0266 L30.3878,22.5149 C30.3878,23.1195 29.4837,23.8318 28.0295,24.3752 C26.2735,25.0354 23.922,25.3961 21.4095,25.3961 C20.1176,25.4008 18.8275,25.2976 17.5527,25.0876 C18.0046,24.4106 18.3714,23.6807 18.6451,22.9142 C19.5634,23.0106 20.4861,23.0587 21.4095,23.0582 C24.099,23.0582 26.6377,22.6635 28.5604,21.9454 C29.2046,21.7146 29.8183,21.4061 30.3878,21.0266 Z M10.28639,20.3767 L10.36239,20.3983 C10.56147,20.451 10.74887,20.5406 10.91481,20.6626 C11.1282,20.8171 11.2989,21.0233 11.411,21.2617 C11.523,21.5002 11.5728,21.7631 11.5557,22.026 C11.5481,22.2063 11.4845,22.3796 11.3737,22.522 C11.2629,22.6643 11.1104,22.7685 10.93751,22.8201 C10.75215,22.8798 10.55823,22.9085 10.36353,22.9051 L8.08691,22.9051 L8.08691,20.3767 L10.28639,20.3767 Z M30.3844,17.1724 L30.3844,18.6663 C30.3735,18.8646 30.2978,19.0539 30.1689,19.2051 C29.8195,19.6645 29.064,20.1387 28.0261,20.5266 C26.2702,21.1868 23.9187,21.5475 21.4061,21.5475 C20.5701,21.5475 19.7795,21.5055 19.041,21.4341 C19.1521,20.8355 19.2079,20.2279 19.2078,19.6191 C19.2078,19.4796 19.1987,19.3424 19.1987,19.204 L19.1987,19.1121 C19.9179,19.1722 20.6574,19.204 21.4095,19.204 C23.6113,19.204 25.7223,18.9374 27.468,18.4462 C27.8503,18.3385 28.2201,18.2205 28.5604,18.0912 C28.8797,17.9726 29.1929,17.8378 29.4985,17.6874 C29.8058,17.5372 30.1019,17.3651 30.3844,17.1724 Z M10.36353,16.3315 C10.55022,16.329 10.73617,16.3554 10.91481,16.4097 C11.0933,16.4585 11.2517,16.5628 11.3669,16.7076 C11.4822,16.8524 11.5483,17.0302 11.5557,17.2151 C11.5695,17.3798 11.5546,17.5456 11.5115,17.7051 C11.4157,18.0535 11.2056,18.3596 10.91481,18.574 C10.74893,18.6963 10.56154,18.7864 10.36239,18.8395 C10.33744,18.8463 10.31247,18.8542 10.28639,18.8599 L8.08691,18.8599 L8.08691,16.3315 L10.36353,16.3315 Z M30.3878,13.31763 L30.3878,14.8036 C30.3765,15.0019 30.3008,15.191 30.1723,15.3424 C29.8229,15.8018 29.0674,16.276 28.0295,16.6639 C26.2736,17.3241 23.9221,17.6848 21.4095,17.6848 C20.5554,17.6848 19.75,17.6451 18.9968,17.5714 C18.8345,16.8029 18.5801,16.0568 18.2391,15.3492 L18.137,15.145 C19.2224,15.2824 20.3154,15.3506 21.4095,15.3492 C23.6113,15.3492 25.7212,15.0827 27.468,14.5904 C27.8503,14.4837 28.2201,14.3658 28.5604,14.2364 C28.8809,14.118 29.1951,13.98317 29.5019,13.83261 C29.809,13.68203 30.105,13.50994 30.3878,13.31763 Z M30.3925,9.23608 L30.3925,10.94894 C30.3811,11.1472 30.3055,11.33636 30.1769,11.48775 C29.8276,11.94716 29.0721,12.42131 28.0342,12.80812 C26.2782,13.46717 23.9267,13.82903 21.4142,13.82903 C19.9403,13.83682 18.4692,13.70004 17.022,13.42066 C16.4232,12.68111 15.721,12.03165 14.9371,11.49229 C14.5232,11.2062 14.0878,10.95249 13.6349,10.73341 C13.2465,10.54615 12.8464,10.38436 12.437,10.24905 L12.437,9.24063 C12.8653,9.53003 13.3213,9.77625 13.7982,9.97568 C13.9468,10.0392 14.0999,10.10045 14.2599,10.16057 C14.8989,10.39519 15.553,10.58656 16.2178,10.73341 C19.6416,11.45335 23.1777,11.45335 26.6015,10.73341 C27.2666,10.58672 27.9211,10.39534 28.5605,10.16057 C28.7193,10.10272 28.8736,10.04714 29.0312,9.97114 C29.508,9.77147 29.964,9.52526 30.3925,9.23608 Z M21.4098,4 C25.7827,4 28.8896,5.08443 29.9695,6.11894 C30.2429,6.38098 30.3881,6.63507 30.3881,6.87668 C30.3881,7.1183 30.2417,7.37693 29.9752,7.63555 C29.5759,8.0235 28.9032,8.41031 28.0298,8.737 C26.2738,9.39719 23.9223,9.75791 21.4098,9.75791 C17.038,9.75791 13.9311,8.67461 12.8512,7.63896 C12.5778,7.37693 12.4326,7.1217 12.4326,6.88009 C12.4326,6.63847 12.5789,6.37985 12.8444,6.12235 C13.2448,5.73441 13.9175,5.34646 14.7909,5.02091 C16.5469,4.361854 18.8972,4 21.4098,4 Z" id="Combined-Shape" fill="#FFFFFF" fill-rule="nonzero"></path>
        </g>
    </g>
</svg>