<?xml version="1.0" encoding="UTF-8"?>
<svg width="8px" height="8px" viewBox="0 0 8 8" version="1.1" xmlns="http://www.w3.org/2000/svg" xmlns:xlink="http://www.w3.org/1999/xlink">
    <title>XCircle</title>
    <g id="Page-1" stroke="none" stroke-width="1" fill="none" fill-rule="evenodd">
        <g id="XCircle">
            <rect id="Rectangle" fill="#D8D8D8" x="0" y="0" width="8" height="8"></rect>
            <path d="M1.53033009,0.469669914 L4,2.939 L6.46966991,0.469669914 C6.76256313,0.176776695 7.23743687,0.176776695 7.53033009,0.469669914 C7.8232233,0.762563133 7.8232233,1.23743687 7.53033009,1.53033009 L5.061,4 L7.53033009,6.46966991 C7.8232233,6.76256313 7.8232233,7.23743687 7.53033009,7.53033009 C7.23743687,7.8232233 6.76256313,7.8232233 6.46966991,7.53033009 L4,5.061 L1.53033009,7.53033009 C1.23743687,7.8232233 0.762563133,7.8232233 0.469669914,7.53033009 C0.176776695,7.23743687 0.176776695,6.76256313 0.469669914,6.46966991 L2.939,4 L0.469669914,1.53033009 C0.176776695,1.23743687 0.176776695,0.762563133 0.469669914,0.469669914 C0.762563133,0.176776695 1.23743687,0.176776695 1.53033009,0.469669914 Z" id="Shape" fill="#4572EE" fill-rule="nonzero"></path>
        </g>
    </g>
</svg>