<?xml version="1.0" encoding="UTF-8"?>
<svg width="10px" height="11px" viewBox="0 0 10 11" version="1.1" xmlns="http://www.w3.org/2000/svg" xmlns:xlink="http://www.w3.org/1999/xlink">
    <title>New Tab</title>
    <g id="Page-1" stroke="none" stroke-width="1" fill="none" fill-rule="evenodd">
        <g id="New-Tab" transform="translate(0.366120, 0.941974)" fill="#FFFFFF" fill-rule="nonzero">
            <path d="M0.254362934,9.2302261 C0.592089934,9.5680261 1.13965993,9.5672261 1.45073993,9.2561261 L4.75135993,5.9555261 L8.02140993,9.2255261 C8.34840993,9.5526261 8.89606993,9.5624261 9.22823993,9.2302261 C9.55513993,8.9033661 9.55054993,8.3504361 9.22354993,8.0234361 L5.95349993,4.7533861 L9.25410993,1.4527661 C9.57045993,1.1364161 9.56596993,0.594116101 9.22823993,0.256386101 C8.89586993,-0.0759748994 8.34821993,-0.0858338994 8.03185993,0.230516101 L4.73124993,3.5311361 L1.46119993,0.261086101 C1.14490993,-0.0551998994 0.581260934,-0.0705078994 0.254362934,0.256386101 C-0.0778070656,0.588566101 -0.0572270656,1.1469361 0.259055934,1.4632261 L3.52910993,4.7332761 L0.228491934,8.0338861 C-0.0825890656,8.3449661 -0.0780020656,8.8979061 0.254362934,9.2302261 Z" id="Path"></path>
        </g>
    </g>
</svg>