<?xml version="1.0" encoding="UTF-8"?>
<svg width="18px" height="18px" viewBox="0 0 18 18" version="1.1" xmlns="http://www.w3.org/2000/svg" xmlns:xlink="http://www.w3.org/1999/xlink">
    <title>Crown</title>
    <g id="Page-1" stroke="none" stroke-width="1" fill="none" fill-rule="evenodd">
        <g id="Crown">
            <rect id="Rectangle" fill="#D8D8D8" x="0" y="0" width="18" height="18"></rect>
            <path d="M1.16,3.77111 L1.51355,3.41756 C1.37055,3.27456 1.155495,3.23178 0.968658,3.30917 C0.781821,3.38656 0.66,3.56888 0.66,3.77111 L1.16,3.77111 Z M16.84,3.77111 L17.34,3.77111 C17.34,3.56888 17.2182,3.38656 17.0313,3.30917 C16.8445,3.23178 16.6294,3.27456 16.4864,3.41756 L16.84,3.77111 Z M12.4844,8.12667 L12.0684,8.40402 C12.1515,8.52866 12.2861,8.60947 12.4352,8.62423 C12.5842,8.63899 12.7321,8.58614 12.838,8.48022 L12.4844,8.12667 Z M9,2.9 L9.41603,2.62265 C9.32329,2.483551 9.16718,2.4 9,2.4 C8.83282,2.4 8.67671,2.483551 8.58397,2.62265 L9,2.9 Z M5.51556,8.12667 L5.162,8.48022 C5.26792,8.58614 5.41576,8.63899 5.56482,8.62423 C5.71389,8.60947 5.84849,8.52866 5.93158,8.40402 L5.51556,8.12667 Z M0.66,3.77111 L0.66,13.0956 L1.66,13.0956 L1.66,3.77111 L0.66,3.77111 Z M3.16,15.5956 L14.84,15.5956 L14.84,14.5956 L3.16,14.5956 L3.16,15.5956 Z M17.34,13.0956 L17.34,3.77111 L16.34,3.77111 L16.34,13.0956 L17.34,13.0956 Z M16.4864,3.41756 L12.1309,7.77311 L12.838,8.48022 L17.1936,4.12466 L16.4864,3.41756 Z M12.9005,7.84932 L9.41603,2.62265 L8.58397,3.17735 L12.0684,8.40402 L12.9005,7.84932 Z M8.58397,2.62265 L5.09953,7.84932 L5.93158,8.40402 L9.41603,3.17735 L8.58397,2.62265 Z M5.86911,7.77311 L1.51355,3.41756 L0.806447,4.12466 L5.162,8.48022 L5.86911,7.77311 Z M14.84,15.5956 C16.2207,15.5956 17.34,14.4763 17.34,13.0956 L16.34,13.0956 C16.34,13.924 15.6684,14.5956 14.84,14.5956 L14.84,15.5956 Z M0.66,13.0956 C0.66,14.4763 1.77929,15.5956 3.16,15.5956 L3.16,14.5956 C2.33157,14.5956 1.66,13.924 1.66,13.0956 L0.66,13.0956 Z" id="Shape" fill="#262628" fill-rule="nonzero"></path>
        </g>
    </g>
</svg>