<?xml version="1.0" encoding="UTF-8"?>
<svg width="16px" height="16px" viewBox="0 0 16 16" version="1.1" xmlns="http://www.w3.org/2000/svg" xmlns:xlink="http://www.w3.org/1999/xlink">
    <title>dots-horizontal</title>
    <g id="Page-1" stroke="none" stroke-width="1" fill="none" fill-rule="evenodd">
        <g id="dots-horizontal">
            <rect id="Rectangle" fill="#D8D8D8" x="0" y="0" width="16" height="16"></rect>
            <path d="M7.99985,6.6666825 C7.26345971,6.6666825 6.6664825,7.26365971 6.6664825,8.00005 C6.6664825,8.73644622 7.26346563,9.3333675 7.99985,9.3333675 C8.73624029,9.3333675 9.3331675,8.73644029 9.3331675,8.00005 C9.3331675,7.26366563 8.73624622,6.6666825 7.99985,6.6666825 Z M12.6665,6.6666825 C11.9301038,6.6666825 11.3331825,7.26366563 11.3331825,8.00005 C11.3331825,8.73644029 11.9301097,9.3333675 12.6665,9.3333675 C13.4028903,9.3333675 13.9998175,8.73644029 13.9998175,8.00005 C13.9998175,7.26366563 13.4028962,6.6666825 12.6665,6.6666825 Z M3.33317,6.6666825 C2.59678365,6.6666825 1.9998375,7.26366576 1.9998375,8.00005 C1.9998375,8.73644016 2.59678958,9.3333675 3.33317,9.3333675 C4.06955042,9.3333675 4.6665025,8.73644016 4.6665025,8.00005 C4.6665025,7.26366576 4.06955635,6.6666825 3.33317,6.6666825 Z" id="Combined-Shape" fill="#909199" fill-rule="nonzero"></path>
        </g>
    </g>
</svg>