<?xml version="1.0" encoding="UTF-8"?>
<svg width="18px" height="18px" viewBox="0 0 18 18" version="1.1" xmlns="http://www.w3.org/2000/svg" xmlns:xlink="http://www.w3.org/1999/xlink">
    <title>Gift</title>
    <g id="Page-1" stroke="none" stroke-width="1" fill="none" fill-rule="evenodd">
        <g id="Gift">
            <rect id="Rectangle" fill="#D8D8D8" x="0" y="0" width="18" height="18"></rect>
            <path d="M11.1761,0.66 C12.6548276,0.66 13.8535,1.85870284 13.8535,3.33742 C13.8535,3.97242876 13.6324478,4.55580158 13.2630926,5.0147826 L14.8374,5.01484 C16.2181332,5.01484 17.3374,6.13411842 17.3374,7.51484 L17.3374,8.12774 C17.3374,9.19395176 16.5931095,10.0863361 15.5957708,10.3136533 L15.5955,14.8374 C15.5955,16.2181424 14.4762424,17.3374 13.0955,17.3374 L4.90194,17.3374 C3.52121842,17.3374 2.40194,16.2181332 2.40194,14.8374 L2.40098941,10.313502 C1.40396013,10.0859417 0.66,9.19372401 0.66,8.12774 L0.66,7.51484 C0.66,6.13412763 1.77928763,5.01484 3.16,5.01484 L4.73429323,5.0147764 C4.36493056,4.55579433 4.14387,3.97242241 4.14387,3.33742 C4.14387,1.85871763 5.34258763,0.66 6.82129,0.66 C7.71872173,0.66 8.51302567,1.10152794 8.99882512,1.77920709 C9.48438697,1.10153004 10.278683,0.66 11.1761,0.66 Z M8.498,10.369 L3.401,10.369 L3.40194,14.8374 C3.40194,15.6658461 4.07350085,16.3374 4.90194,16.3374 L8.498,16.337 L8.498,10.369 Z M14.595,10.369 L9.498,10.369 L9.498,16.337 L13.0955,16.3374 C13.9239576,16.3374 14.5955,15.6658576 14.5955,14.8374 L14.595,10.369 Z M8.498,6.014 L3.16,6.01484 C2.33157237,6.01484 1.66,6.68641237 1.66,7.51484 L1.66,8.12774 C1.66,8.7707784 2.14870033,9.29966863 2.77495834,9.36326804 L2.90194,9.36968 L8.498,9.369 L8.498,6.014 Z M14.8374,6.01484 L9.498,6.014 L9.498,9.369 L15.0955,9.36968 C15.7813659,9.36968 16.3374,8.81363932 16.3374,8.12774 L16.3374,7.51484 C16.3374,6.68640085 15.6658461,6.01484 14.8374,6.01484 Z M11.1761,1.66 C10.2984662,1.66 9.57824836,2.33403304 9.50486707,3.1926857 L9.49871,3.33742 L9.498,5.014 L11.1761,5.01484 C12.1025333,5.01484 12.8535,4.2638519 12.8535,3.33742 C12.8535,2.4109819 12.1025372,1.66 11.1761,1.66 Z M6.82129,1.66 C5.89487237,1.66 5.14387,2.41100237 5.14387,3.33742 C5.14387,4.26383143 5.89487618,5.01484 6.82129,5.01484 L8.498,5.014 L8.49871,3.33742 C8.49871,2.41100237 7.74770763,1.66 6.82129,1.66 Z" id="Shape" fill="#262628" fill-rule="nonzero"></path>
        </g>
    </g>
</svg>