<?xml version="1.0" encoding="UTF-8"?>
<svg width="18px" height="18px" viewBox="0 0 18 18" version="1.1" xmlns="http://www.w3.org/2000/svg" xmlns:xlink="http://www.w3.org/1999/xlink">
    <title>Group</title>
    <g id="Page-1" stroke="none" stroke-width="1" fill="none" fill-rule="evenodd">
        <g id="Group">
            <rect id="Rectangle" fill="#D8D8D8" x="0" y="0" width="18" height="18"></rect>
            <path d="M9,9.92727 C10.2959035,9.92727 11.5088516,10.2012087 12.3881571,10.6796573 L12.6,10.803 L12.617841,10.7988716 C13.0431867,10.6947061 13.5090726,10.64 13.9891,10.64 C15.8043268,10.64 17.34,11.4078552 17.34,12.5655 C17.34,13.7230672 15.8042971,14.4909 13.9891,14.4909 C13.5026411,14.4909 13.0306436,14.4347038 12.6006043,14.3277979 C11.7104407,14.8821382 10.4039132,15.2036 9,15.2036 C7.59607063,15.2036 6.28960452,14.8821502 5.39912965,14.327466 L5.63220603,14.2637085 C5.14244101,14.4121359 4.58681338,14.4909 4.01091,14.4909 C2.19570433,14.4909 0.66,13.7230683 0.66,12.5655 C0.66,11.4078541 2.19567466,10.64 4.01091,10.64 C4.49738108,10.64 4.96932315,10.6961866 5.3992824,10.8031004 C6.28770317,10.2492253 7.59506279,9.92727 9,9.92727 Z M9,10.92727 C7.6876044,10.92727 6.49446638,11.2439587 5.79140437,11.7429049 C5.79113468,11.742836 5.78512579,11.747361 5.77898717,11.7517727 C5.4042869,12.0210593 5.22364,12.3043879 5.22364,12.5655 C5.22364,12.8265103 5.40430314,13.1098557 5.77902054,13.3792013 L5.78,13.38 L5.93675456,13.4843136 C6.65230641,13.9273274 7.77411452,14.2036 9,14.2036 C10.3189684,14.2036 11.5175391,13.8837551 12.2191002,13.3805434 C12.5957293,13.1098475 12.7764,12.8265066 12.7764,12.5655 C12.7764,12.3053882 12.597122,12.0232299 12.2253011,11.7548682 C11.5196813,11.2477274 10.3201318,10.92727 9,10.92727 Z M13.9891,11.64 C13.824805,11.64 13.6630653,11.647614 13.5055968,11.6624184 C13.6822932,11.9422838 13.7764,12.2456515 13.7764,12.5655 C13.7764,12.8852948 13.6822947,13.1886296 13.5077336,13.4678233 C13.6631094,13.4832864 13.8248335,13.4909 13.9891,13.4909 C15.3228719,13.4909 16.34,12.9823483 16.34,12.5655 C16.34,12.1485603 15.3229041,11.64 13.9891,11.64 Z M4.01091,11.64 C2.6770975,11.64 1.66,12.1485598 1.66,12.5655 C1.66,12.9823487 2.67712969,13.4909 4.01091,13.4909 C4.17517156,13.4909 4.33689014,13.4832866 4.49435117,13.4684837 C4.31773925,13.1886183 4.22364,12.885288 4.22364,12.5655 C4.22364,12.2456584 4.31774074,11.942295 4.49229539,11.6630914 C4.33693418,11.6476138 4.1752,11.64 4.01091,11.64 Z M9,2.8 C7.54297763,2.8 6.36182,3.98115763 6.36182,5.43818 C6.36182,6.89520928 7.54297453,8.07636 9,8.07636 C10.4570417,8.07636 11.6382,6.8952131 11.6382,5.43818 C11.6382,3.98115381 10.4570386,2.8 9,2.8 Z M9,3.8 C9.90475526,3.8 10.6382,4.53344001 10.6382,5.43818 C10.6382,6.34292618 9.90475907,7.07636 9,7.07636 C8.09525856,7.07636 7.36182,6.34292381 7.36182,5.43818 C7.36182,4.53344237 8.09526237,3.8 9,3.8 Z M13.9891,5.65091 C12.9256681,5.65091 12.0636,6.51295718 12.0636,7.57636 C12.0636,8.63977073 12.925666,9.50182 13.9891,9.50182 C15.0524549,9.50182 15.9145,8.63974984 15.9145,7.57636 C15.9145,6.51297807 15.0524528,5.65091 13.9891,5.65091 Z M13.9891,6.65091 C14.5001626,6.65091 14.9145,7.06525739 14.9145,7.57636 C14.9145,8.0874716 14.5001636,8.50182 13.9891,8.50182 C13.4779464,8.50182 13.0636,8.08748164 13.0636,7.57636 C13.0636,7.06524736 13.4779474,6.65091 13.9891,6.65091 Z M4.01091,5.65091 C2.94750971,5.65091 2.08545,6.51296554 2.08545,7.57636 C2.08545,8.63976237 2.94750763,9.50182 4.01091,9.50182 C5.07431155,9.50182 5.93636,8.6397632 5.93636,7.57636 C5.93636,6.51296471 5.07430946,5.65091 4.01091,5.65091 Z M4.01091,6.65091 C4.52202363,6.65091 4.93636,7.06524838 4.93636,7.57636 C4.93636,8.08748062 4.52202463,8.50182 4.01091,8.50182 C3.49979237,8.50182 3.08545,8.08747763 3.08545,7.57636 C3.08545,7.06525137 3.49979338,6.65091 4.01091,6.65091 Z" id="Combined-Shape" fill="#262628" fill-rule="nonzero"></path>
        </g>
    </g>
</svg>