<?xml version="1.0" encoding="UTF-8"?>
<svg width="16px" height="16px" viewBox="0 0 16 16" version="1.1" xmlns="http://www.w3.org/2000/svg" xmlns:xlink="http://www.w3.org/1999/xlink">
    <title>hat</title>
    <g id="Page-1" stroke="none" stroke-width="1" fill="none" fill-rule="evenodd">
        <g id="hat" transform="translate(-0.000000, 0.000002)">
            <rect id="Rectangle" fill="#D8D8D8" x="0" y="0" width="16" height="16"></rect>
            <path d="M8.06172823,1.70792203 L8.18438644,1.72315444 L8.27123988,1.74299655 C8.34812956,1.76376049 8.40440683,1.79016931 8.53669249,1.85630458 L14.9648425,5.07038458 C15.4562065,5.31606694 15.4562065,6.01726845 14.9648425,6.26295081 L13.3327055,7.07892203 L13.3329649,10.8068725 C13.3308489,11.0887487 13.318736,11.1872138 13.2603537,11.3565855 C13.1957873,11.5432884 13.0907038,11.7133557 12.9524531,11.8544034 C12.8938833,11.9141716 12.8304464,11.9659588 12.7593386,12.0138496 L12.6671826,12.0720345 C12.6190058,12.1002351 12.5625279,12.1300218 12.4745615,12.1745511 L8.66509533,14.079076 L8.47325333,14.1669887 C8.39436309,14.198796 8.33210353,14.2155671 8.24635501,14.2316454 C8.08357537,14.2623018 7.91650557,14.2623018 7.75424744,14.2317434 C7.61088986,14.2048628 7.5332277,14.1761586 7.33493206,14.0790461 L3.44712939,12.1344164 C3.35444826,12.0862332 3.30397756,12.0564457 3.24075315,12.0138692 C3.16962034,11.965967 3.10616308,11.9141644 3.04745792,11.8542504 C2.90919489,11.7130677 2.80403014,11.5429018 2.73961161,11.356164 C2.6813299,11.1872687 2.66922242,11.0888337 2.6671062,10.806901 L2.66670547,7.07892203 L1.03522882,6.262951 C0.576621987,6.03364758 0.546048198,5.40753571 0.943507454,5.1253245 L1.03522882,5.07038439 L7.4634161,1.85629076 C7.62874553,1.77363549 7.6753395,1.75303898 7.79188285,1.72794949 L7.93835272,1.70792203 L8.06172823,1.70792203 Z M11.9997055,7.74492203 L8.53666485,9.47704464 C8.37133541,9.5596999 8.32474145,9.58029641 8.2081981,9.6053859 L8.06172867,9.62541345 C7.97955759,9.63049183 7.89691805,9.62541411 7.8156945,9.61018095 L7.72884107,9.59033884 C7.6519514,9.56957491 7.59567419,9.54316612 7.46338882,9.477031 L3.99970547,7.74592203 L4.00107382,10.9177647 L4.22115212,11.0319144 L8.00037047,12.9206677 L11.9989556,10.917788 C12.0050349,10.9141446 12.0100847,10.910937 12.0145196,10.9079502 L11.9991492,10.8623164 L11.9997055,7.74492203 Z M8.00037047,3.0786827 L2.82437047,5.6666827 L8.00037047,8.2536827 L13.1753705,5.6666827 L8.00037047,3.0786827 Z" id="Combined-Shape" fill="#FFFFFF" fill-rule="nonzero"></path>
        </g>
    </g>
</svg>