<?xml version="1.0" encoding="UTF-8"?>
<svg width="22px" height="22px" viewBox="0 0 22 22" version="1.1" xmlns="http://www.w3.org/2000/svg" xmlns:xlink="http://www.w3.org/1999/xlink">
    <title>Group 420</title>
    <g id="Page-1" stroke="none" stroke-width="1" fill="none" fill-rule="evenodd">
        <g id="Group-420">
            <rect id="Rectangle" fill="#D8D8D8" x="0" y="0" width="22" height="22"></rect>
            <path d="M10.99996,0.25 C16.9370569,0.25 21.74996,5.06291975 21.74996,11 C21.74996,16.9370469 16.9370402,21.75 10.99996,21.75 C5.06295314,21.75 0.25,16.9370203 0.25,11 C0.25,5.06294642 5.06293645,0.25 10.99996,0.25 Z M10.99996,1.75 C5.89136427,1.75 1.75,5.89137285 1.75,11 C1.75,16.108595 5.89138212,20.25 10.99996,20.25 C16.1086107,20.25 20.24996,16.1086221 20.24996,11 C20.24996,5.89134571 16.1086286,1.75 10.99996,1.75 Z M10.55486,14.9854 C11.18516,14.9854 11.72266,15.5044 11.72266,16.1532 C11.72266,16.8019 11.18516,17.321 10.55486,17.321 C9.92466,17.321 9.38708,16.8019 9.38708,16.1532 C9.38708,15.5044 9.92466,14.9854 10.55486,14.9854 Z M10.98126,4.67906 C12.83486,4.67906 14.24366,6.01369 14.24366,7.77466 C14.24366,8.81271 13.78026,9.62831 12.48266,10.7776 C11.44466,11.7044 11.18516,12.1122 11.18516,12.7054 L11.18516,12.9093 C11.18516,13.3171 10.90706,13.6137 10.51776,13.6137 C10.14706,13.6137 9.83196,13.3171 9.83196,12.9278 L9.83196,12.6683 C9.83196,11.8156 10.22126,11.1668 11.31486,10.1473 C12.48266,9.05368 12.76076,8.62734 12.76076,7.86734 C12.76076,6.79223 11.98216,5.99515 10.94416,5.99515 C10.09146,5.99515 9.38708,6.4771 9.03488,7.32979 C8.90513,7.64491 8.66415,7.81173 8.40464,7.81173 C8.03391,7.81173 7.75586,7.51515 7.75586,7.16296 C7.75586,6.99613 7.79294,6.88491 7.83001,6.79223 C8.34903,5.4576 9.49826,4.67906 10.98126,4.67906 Z" id="Combined-Shape" fill="#4572EE" fill-rule="nonzero"></path>
        </g>
    </g>
</svg>