<?xml version="1.0" encoding="UTF-8"?>
<svg width="16px" height="16px" viewBox="0 0 16 16" version="1.1" xmlns="http://www.w3.org/2000/svg" xmlns:xlink="http://www.w3.org/1999/xlink">
    <title>home</title>
    <g id="Page-1" stroke="none" stroke-width="1" fill="none" fill-rule="evenodd">
        <g id="home" transform="translate(-0.000000, 0.000002)">
            <rect id="Rectangle" fill="#D8D8D8" x="0" y="0" width="16" height="16"></rect>
            <path d="M3.93754422,14.6666627 C3.09507056,14.6650674 2.78882197,14.6338641 2.42521886,14.4486333 C2.04893261,14.2568005 1.74303764,13.9509288 1.55132042,13.5746628 C1.3795398,13.2375321 1.33944507,12.9174526 1.33420893,12.2387717 L1.33480161,6.73557473 C1.33928328,6.45242368 1.35605985,6.29627942 1.40736497,6.1129845 C1.47294382,5.87871859 1.58070454,5.65838694 1.72535625,5.46281316 C1.76177122,5.41357752 1.80079004,5.36658048 1.84326029,5.32055668 C1.93739968,5.21854052 2.01518678,5.14812252 2.19546055,5.00474874 L6.93583931,1.31643299 C7.27584142,1.05198852 7.36707466,0.988958121 7.56458885,0.91821323 L7.65155742,0.890897864 C7.74283282,0.866187107 7.83607952,0.851360653 7.92972047,0.846418502 L8.06934271,0.845442782 L8.21024908,0.861244956 L8.34300047,0.890230195 L8.43541209,0.91821323 C8.58354774,0.971271898 8.67190035,1.01999116 8.85025736,1.15259776 L13.5856474,4.83314858 C14.0200148,5.17092925 14.1278177,5.26423246 14.2744713,5.46264641 C14.4192388,5.65825503 14.5270214,5.87866254 14.5925435,6.11283277 C14.6592171,6.35079295 14.6666655,6.49284193 14.6666655,7.0433677 L14.6650613,12.2657848 C14.6575485,13.0068466 14.6186495,13.2410809 14.4486458,13.5747701 C14.2568459,13.9510219 13.9510247,14.2568431 13.5746325,14.4487146 C13.187455,14.6459687 12.9341286,14.6666627 11.8666913,14.6666627 Z M5.33320893,13.3324428 L5.33379437,8.89961 L5.33945418,8.63417075 C5.35129227,8.36978673 5.3850618,8.24502602 5.47865767,8.061338 C5.60648895,7.81045511 5.81045768,7.60649156 6.06134537,7.47864765 C6.32376223,7.3449365 6.46591388,7.3333227 7.06667047,7.3333227 L9.10037817,7.33378159 L9.36581742,7.3394414 C9.63020144,7.35127949 9.75496215,7.38504902 9.93865017,7.47864489 C10.1895412,7.6064803 10.3935079,7.81044701 10.5213405,8.06133259 C10.6550517,8.32374946 10.6666655,8.4659011 10.6666655,9.0666577 L10.6662089,13.3314428 L12.1736048,13.3323007 C12.6645751,13.3284506 12.8386482,13.3131139 12.9383981,13.2745014 L12.969228,13.2607524 C13.0947762,13.1967523 13.1967551,13.0947734 13.2606836,12.9693657 C13.3095565,12.8734361 13.3280242,12.7191274 13.3323032,12.1736024 L13.3324992,6.81542567 C13.3310136,6.65883381 13.3273267,6.57899772 13.3197175,6.526089 L13.3085936,6.47233465 C13.2867374,6.39422252 13.2508694,6.32087509 13.2024844,6.25549741 C13.1686156,6.20967499 13.118202,6.16237337 12.9464656,6.02618767 L8.24557931,2.3689024 L8.00000047,2.1822302 C7.99330914,2.18705681 7.98519568,2.19296731 7.97535172,2.20022553 L3.23288801,5.88564744 C2.95418253,6.10242247 2.87733343,6.16604374 2.82313642,6.2247755 L2.79733924,6.25566961 C2.74912105,6.32086216 2.71319923,6.39430928 2.69134076,6.4723938 C2.67436118,6.53305582 2.66761564,6.62584925 2.66680934,6.89038046 L2.66751893,12.2335185 C2.67115271,12.7027809 2.6932053,12.8788285 2.73932327,12.969338 C2.80322675,13.0947556 2.90521726,13.1967383 3.03062566,13.2606722 C3.13220783,13.3124214 3.32575836,13.332142 3.93872859,13.3332235 L5.33320893,13.3324428 Z M8.93333047,8.6666527 L6.66800047,8.6679877 L6.66666547,9.0666577 L6.66620893,13.3324428 L9.33320893,13.3314428 L9.33100047,8.6679877 L8.93333047,8.6666527 Z" id="Combined-Shape" fill="#4572EE" fill-rule="nonzero"></path>
        </g>
    </g>
</svg>