<?xml version="1.0" encoding="UTF-8"?>
<svg width="18px" height="18px" viewBox="0 0 18 18" version="1.1" xmlns="http://www.w3.org/2000/svg" xmlns:xlink="http://www.w3.org/1999/xlink">
    <title>Home</title>
    <g id="Page-1" stroke="none" stroke-width="1" fill="none" fill-rule="evenodd">
        <g id="Home">
            <rect id="Rectangle" fill="#D8D8D8" x="0" y="0" width="18" height="18"></rect>
            <path d="M7.35008712,1.45176041 L1.85008837,6.28312932 C1.30974809,6.75778175 1,7.44215722 1,8.16136825 L1,14.6679383 C1,16.0486714 2.11927842,17.1679382 3.5,17.1679382 L5.125,17.1679382 C6.50572158,17.1679382 7.625,16.0486714 7.625,14.6679383 L7.625,12.8958383 C7.625,12.136469 8.24062397,11.5208382 9,11.5208382 L9.12729386,11.5261095 C9.82034717,11.5800594 10.375,12.176564 10.375,12.8958383 L10.375,14.6679383 C10.375,16.0486806 11.4942576,17.1679382 12.875,17.1679382 L14.5,17.1679382 C15.8807424,17.1679382 17,16.0486806 17,14.6679383 L17,8.16136825 C17,7.44214329 16.6902408,6.75776541 16.149869,6.28311825 L10.6499129,1.45176041 C9.70617523,0.622746529 8.29382477,0.622746529 7.35008712,1.45176041 Z M9.98994712,2.20305609 L15.4899173,7.03442629 C15.8141487,7.31922188 16,7.72983926 16,8.16136825 L16,14.6679383 C16,15.4963959 15.3284576,16.1679382 14.5,16.1679382 L12.875,16.1679382 C12.0465424,16.1679382 11.375,15.4963959 11.375,14.6679383 L11.375,12.8958383 C11.375,11.6531968 10.4172893,10.6232213 9.18506609,10.5279669 L9.01923578,10.5212084 C7.68833675,10.5208383 6.625,11.5841868 6.625,12.8958383 L6.625,14.6679383 C6.625,15.4963844 5.95343915,16.1679382 5.125,16.1679382 L3.5,16.1679382 C2.67156085,16.1679382 2,15.4963844 2,14.6679383 L2,8.16136825 C2,7.72984303 2.18584909,7.31921722 2.51005196,7.03442689 L8.01005163,2.20305718 C8.57629523,1.70564797 9.42370477,1.70564797 9.98994712,2.20305609 Z" id="Path" fill="#4572EE" fill-rule="nonzero"></path>
        </g>
    </g>
</svg>