<?xml version="1.0" encoding="UTF-8"?>
<svg width="16px" height="16px" viewBox="0 0 16 16" version="1.1" xmlns="http://www.w3.org/2000/svg" xmlns:xlink="http://www.w3.org/1999/xlink">
    <title>info-circle</title>
    <g id="Page-1" stroke="none" stroke-width="1" fill="none" fill-rule="evenodd">
        <g id="info-circle" transform="translate(-0.000000, 0.000002)">
            <rect id="Rectangle" fill="#D8D8D8" x="0" y="0" width="16" height="16"></rect>
            <path d="M8.00004047,0.666702695 C12.050101,0.666702695 15.3333655,3.94996038 15.3333655,8.0000377 C15.3333655,12.0500866 12.0500894,15.3333627 8.00004047,15.3333627 C3.94996316,15.3333627 0.666705472,12.0500982 0.666705472,8.0000377 C0.666705472,3.94994878 3.94995156,0.666702695 8.00004047,0.666702695 Z M8.00003547,2.0000327 C4.68632938,2.0000327 2.00003547,4.68632661 2.00003547,8.0000327 C2.00003547,11.313721 4.6863416,14.0000327 8.00003547,14.0000327 C11.3137116,14.0000327 14.0000355,11.3137088 14.0000355,8.0000327 C14.0000355,4.68633882 11.3137238,2.0000327 8.00003547,2.0000327 Z M8.00004047,7.3333727 C8.36822938,7.3333727 8.66670547,7.63184878 8.66670547,8.0000377 L8.66670547,10.6666977 C8.66670547,11.0348866 8.36822938,11.3333727 8.00004047,11.3333727 C7.63185156,11.3333727 7.33337547,11.0348866 7.33337547,10.6666977 L7.33337547,8.0000377 C7.33337547,7.63184878 7.63185156,7.3333727 8.00004047,7.3333727 Z M7.99732312,5.33337258 C8.33203762,5.33203384 8.61012932,5.57759344 8.65903616,5.8988753 L8.66670559,6.00732035 C8.66817875,6.37550629 8.37090376,6.67517866 8.00271782,6.67666281 C7.66800333,6.67800155 7.38991162,6.43244195 7.34100479,6.11116009 L7.33333536,6.00271504 C7.33186219,5.6345291 7.62913718,5.33485673 7.99732312,5.33337258 Z" id="Combined-Shape" fill="#FFFFFF" fill-rule="nonzero"></path>
        </g>
    </g>
</svg>