<?xml version="1.0" encoding="UTF-8"?>
<svg width="16px" height="16px" viewBox="0 0 16 16" version="1.1" xmlns="http://www.w3.org/2000/svg" xmlns:xlink="http://www.w3.org/1999/xlink">
    <title>info-square</title>
    <g id="Page-1" stroke="none" stroke-width="1" fill="none" fill-rule="evenodd">
        <g id="info-square" transform="translate(-0.000000, 0.000002)">
            <rect id="Rectangle" fill="#D8D8D8" x="0" y="0" width="16" height="16"></rect>
            <path d="M10.8112405,1.3349977 C13.1206186,1.3349977 14.6650005,2.99356589 14.6650005,5.3509177 L14.6650005,10.6490777 C14.6650005,13.0065179 13.1204899,14.6649977 10.8106005,14.6649977 L5.18811047,14.6649977 C2.87879762,14.6649977 1.33500047,13.006536 1.33500047,10.6490777 L1.33500047,5.3509177 C1.33500047,2.99551653 2.88277218,1.3349977 5.18811047,1.3349977 L10.8112405,1.3349977 Z M10.8112405,2.6649977 L5.18811047,2.6649977 C3.63902199,2.6649977 2.66500047,3.70997162 2.66500047,5.3509177 L2.66500047,10.6490777 C2.66500047,12.2924441 3.63547285,13.3349977 5.18811047,13.3349977 L10.8106005,13.3349977 C12.3639588,13.3349977 13.3350005,12.292303 13.3350005,10.6490777 L13.3350005,5.3509177 C13.3350005,3.7077435 12.3640439,2.6649977 10.8112405,2.6649977 Z M7.99306047,6.9308277 C8.36032983,6.9308277 8.65806047,7.22855834 8.65806047,7.5958277 L8.65806047,10.4622077 C8.65806047,10.8294771 8.36032983,11.1272077 7.99306047,11.1272077 C7.62579111,11.1272077 7.32806047,10.8294771 7.32806047,10.4622077 L7.32806047,7.5958277 C7.32806047,7.22855834 7.62579111,6.9308277 7.99306047,6.9308277 Z M7.99306047,4.9308277 C8.36032983,4.9308277 8.65806047,5.22855834 8.65806047,5.5958277 C8.65806047,5.96726705 8.36032983,6.2649977 7.99306047,6.2649977 C7.62579111,6.2649977 7.32806047,5.96726705 7.32806047,5.5999977 C7.32806047,5.22855834 7.62579111,4.9308277 7.99306047,4.9308277 Z" id="Combined-Shape" fill="#FFFFFF" fill-rule="nonzero"></path>
        </g>
    </g>
</svg>