<svg width="16" height="16" viewBox="0 0 16 16" fill="none" xmlns="http://www.w3.org/2000/svg">
<path fill-rule="evenodd" clip-rule="evenodd" d="M8 0C3.58172 0 0 3.58172 0 8C0 12.4183 3.58172 16 8 16C12.4183 16 16 12.4183 16 8C16 3.58172 12.4183 0 8 0Z" fill="white"/>
<path d="M7.17977 6.56494C6.8399 6.56494 6.56438 6.84046 6.56438 7.18033C6.56438 7.52019 6.8399 7.79571 7.17977 7.79571C7.29306 7.79571 7.3849 7.88755 7.3849 8.00084V12.1034C7.3849 12.4433 7.66041 12.7188 8.00028 12.7188C8.34015 12.7188 8.61567 12.4433 8.61567 12.1034V7.18033C8.61567 6.84046 8.34015 6.56494 8.00028 6.56494H7.17977Z" fill="#4572EE"/>
<circle cx="8.00008" cy="3.8981" r="0.615385" fill="#4572EE"/>
</svg>
