<?xml version="1.0" encoding="UTF-8"?>
<svg width="14px" height="14px" viewBox="0 0 14 14" version="1.1" xmlns="http://www.w3.org/2000/svg" xmlns:xlink="http://www.w3.org/1999/xlink">
    <title>info</title>
    <g id="Page-1" stroke="none" stroke-width="1" fill="none" fill-rule="evenodd">
        <g id="info">
            <path d="M7,0 C3.13401,0 0,3.13401 0,7 C0,10.866 3.13401,14 7,14 C10.866,14 14,10.866 14,7 C14,3.13401 10.866,0 7,0 Z" id="Path" fill="#4572EE" opacity="0"></path>
            <path d="M6.28211,5.74371 C5.98473,5.74371 5.74365,5.98479 5.74365,6.28217 C5.74365,6.57956 5.98473,6.82064 6.28211,6.82064 C6.38124,6.82064 6.4616,6.901 6.4616,7.00012 L6.4616,10.5899 C6.4616,10.8873 6.70268,11.1283 7.00006,11.1283 C7.29745,11.1283 7.53852,10.8873 7.53852,10.5899 L7.53852,6.28217 C7.53852,5.98479 7.29745,5.74371 7.00006,5.74371 L6.28211,5.74371 Z M7.00013,3.948752 C7.29751435,3.948752 7.538592,3.70767435 7.538592,3.41029 C7.538592,3.11290565 7.29751435,2.871828 7.00013,2.871828 C6.70274565,2.871828 6.461668,3.11290565 6.461668,3.41029 C6.461668,3.70767435 6.70274565,3.948752 7.00013,3.948752 Z" id="Combined-Shape" fill="#FFFFFF" fill-rule="nonzero"></path>
        </g>
    </g>
</svg>