<?xml version="1.0" encoding="UTF-8"?>
<svg width="18px" height="18px" viewBox="0 0 18 18" version="1.1" xmlns="http://www.w3.org/2000/svg" xmlns:xlink="http://www.w3.org/1999/xlink">
    <title>Lightbulb</title>
    <g id="Page-1" stroke="none" stroke-width="1" fill="none" fill-rule="evenodd">
        <g id="Lightbulb">
            <rect id="Rectangle" fill="#D8D8D8" x="0" y="0" width="18" height="18"></rect>
            <path d="M12.48968,10.5806 L12.01818,10.4142 L12.48968,10.5806 Z M5.52194,10.5806 L5.99343,10.4142 L5.52194,10.5806 Z M9.50581,9.70968 C9.50581,9.43353 9.28195,9.20968 9.00581,9.20968 C8.72966,9.20968 8.50581,9.43353 8.50581,9.70968 L9.50581,9.70968 Z M4.28,6.22581 C4.28,3.61582 6.39582,1.5 9.00581,1.5 L9.00581,0.5 C5.84353,0.5 3.28,3.06353 3.28,6.22581 L4.28,6.22581 Z M9.00581,1.5 C11.6158,1.5 13.7316,3.61582 13.7316,6.22581 L14.7316,6.22581 C14.7316,3.06353 12.16808,0.5 9.00581,0.5 L9.00581,1.5 Z M5.8929,13.1935 L5.8929,14.0645 L6.8929,14.0645 L6.8929,13.1935 L5.8929,13.1935 Z M12.11871,14.0645 L12.11871,13.1935 L11.11871,13.1935 L11.11871,14.0645 L12.11871,14.0645 Z M13.7316,6.22581 C13.7316,7.58225 13.4456,8.21159 13.1367,8.66692 C12.9534,8.93719 12.7991,9.10187 12.57506,9.40142 C12.37034,9.67509 12.1674,9.99146 12.01818,10.4142 L12.9612,10.7471 C13.0651,10.4526 13.2065,10.2268 13.3758,10.0004 C13.5258,9.79993 13.7754,9.5067 13.9643,9.22833 C14.3998,8.58638 14.7316,7.7555 14.7316,6.22581 L13.7316,6.22581 Z M12.01818,10.4142 C11.72803,11.2363 11.50892,11.8936 11.36213,12.3461 C11.28873,12.5724 11.23341,12.7475 11.19631,12.8664 C11.17776,12.9258 11.16377,12.9712 11.15436,13.002 C11.14965,13.0174 11.14609,13.0291 11.14367,13.0371 C11.14246,13.041 11.14154,13.0441 11.14091,13.0462 C11.14059,13.0472 11.14034,13.0481 11.14017,13.0486 C11.14008,13.0489 11.14002,13.0491 11.13996,13.0493 C11.13994,13.0494 11.13992,13.0495 11.1399,13.0495 C11.1398799,13.0496 11.1398799,13.0496 11.1398799,13.0496 C11.1398799,13.0496 11.1398799,13.0496 11.61871,13.1935 C12.09755,13.3375 12.09755,13.3375 12.09754,13.3375 C12.09755,13.3375 12.09754,13.3375 12.09754,13.3375 C12.09754,13.3375 12.09755,13.3375 12.09756,13.3374 C12.09758,13.3374 12.09762,13.3372 12.09768,13.337 C12.09779,13.3367 12.09798,13.3361 12.09823,13.3352 C12.09874,13.3335 12.09954,13.3309 12.10063,13.3273 C12.10279,13.3201 12.10611,13.3093 12.11056,13.2947 C12.11946,13.2656 12.13293,13.2219 12.15094,13.1642 C12.18696,13.0487 12.24114,12.8772 12.31333,12.6547 C12.45772,12.2096 12.6741,11.5604 12.9612,10.7471 L12.01818,10.4142 Z M6.3929,13.1935 C6.87175,13.0496 6.87173,13.0496 6.87173,13.0496 C6.87173,13.0496 6.87173,13.0496 6.87171,13.0495 C6.87169,13.0495 6.87167,13.0494 6.87165,13.0493 C6.8716,13.0491 6.87153,13.0489 6.87144,13.0486 C6.87127,13.0481 6.87102,13.0472 6.8707,13.0462 C6.87007,13.0441 6.86915,13.041 6.86794,13.0371 C6.86552,13.0291 6.86196,13.0174 6.85725,13.002 C6.84784,12.9712 6.83385,12.9258 6.8153,12.8664 C6.77821,12.7475 6.72288,12.5724 6.64948,12.3461 C6.50269,11.8936 6.28358,11.2363 5.99343,10.4142 L5.05044,10.7471 C5.33752,11.5604 5.55389,12.2096 5.69828,12.6547 C5.77047,12.8772 5.82465,13.0487 5.86067,13.1642 C5.87868,13.2219 5.89215,13.2656 5.90105,13.2947 C5.90551,13.3093 5.90882,13.3201 5.91099,13.3273 C5.91207,13.3309 5.91287,13.3335 5.91338,13.3352 C5.91364,13.3361 5.91382,13.3367 5.91393,13.337 C5.91399,13.3372 5.91403,13.3374 5.91405,13.3374 C5.91406,13.3375 5.91407,13.3375 5.91407,13.3375 C5.91407,13.3375 5.91407,13.3375 5.91407,13.3375 C5.91406,13.3375 5.91406,13.3375 6.3929,13.1935 Z M5.99343,10.4142 C5.84422,9.99146 5.64128,9.67509 5.43655,9.40142 C5.21246,9.10187 5.05824,8.93719 4.87489,8.66692 C4.56599,8.21159 4.28,7.58225 4.28,6.22581 L3.28,6.22581 C3.28,7.7555 3.611847,8.58638 4.04735,9.22833 C4.2362,9.5067 4.48582,9.79993 4.63581,10.0004 C4.80516,10.2268 4.94652,10.4526 5.05044,10.7471 L5.99343,10.4142 Z M11.61871,12.6935 L9.00581,12.6935 L9.00581,13.6935 L11.61871,13.6935 L11.61871,12.6935 Z M9.00581,12.6935 L6.3929,12.6935 L6.3929,13.6935 L9.00581,13.6935 L9.00581,12.6935 Z M9.50581,13.1935 L9.50581,9.70968 L8.50581,9.70968 L8.50581,13.1935 L9.50581,13.1935 Z M9.00581,17.1774 C10.72501,17.1774 12.11871,15.7837 12.11871,14.0645 L11.11871,14.0645 C11.11871,15.2314 10.17273,16.1774 9.00581,16.1774 L9.00581,17.1774 Z M5.8929,14.0645 C5.8929,15.7837 7.2866,17.1774 9.00581,17.1774 L9.00581,16.1774 C7.83888,16.1774 6.8929,15.2314 6.8929,14.0645 L5.8929,14.0645 Z" id="Shape" fill="#262628" fill-rule="nonzero"></path>
        </g>
    </g>
</svg>