<?xml version="1.0" encoding="UTF-8"?>
<svg width="16px" height="16px" viewBox="0 0 16 16" version="1.1" xmlns="http://www.w3.org/2000/svg" xmlns:xlink="http://www.w3.org/1999/xlink">
    <title>link</title>
    <g id="Page-1" stroke="none" stroke-width="1" fill="none" fill-rule="evenodd">
        <g id="link" transform="translate(-0.000000, 0.000002)">
            <rect id="Rectangle" fill="#D8D8D8" x="0" y="0" width="16" height="16"></rect>
            <path d="M6.7046535,5.33006938 L6.94985634,5.34008533 C7.52197598,5.38105301 8.07858738,5.54458704 8.58194599,5.81959465 C9.08529383,6.09459638 9.52361915,6.47464515 9.86718252,6.93394966 C10.0877198,7.22878248 10.0274913,7.64657248 9.73265851,7.86710974 C9.43782569,8.087647 9.02003569,8.02741855 8.79949843,7.73258573 C8.57045405,7.42637987 8.27823576,7.1730128 7.94267496,6.98968074 C7.60710377,6.80634299 7.23603383,6.69732158 6.85460974,6.670009 C6.47320837,6.64268947 6.09038763,6.69772023 5.73212035,6.83136647 C5.37383629,6.96502196 5.04849502,7.17415582 4.77808381,7.44467104 L2.78620086,9.43641176 C2.30046075,9.93932717 2.03166022,10.6129752 2.03774034,11.3121085 C2.04381242,12.0113184 2.32427557,12.6802021 2.81867237,13.1745829 C3.31312369,13.6690102 3.98197243,13.9494781 4.68113741,13.9555579 C5.38031505,13.9616378 6.05392389,13.6928436 6.54860713,13.2151944 L7.68860713,12.0751944 C7.94895601,11.8148455 8.37106494,11.8148455 8.63141381,12.0751944 C8.89176269,12.3355432 8.89176269,12.7576522 8.63141381,13.018001 L7.48315453,14.1661181 C6.72874345,14.8947649 5.71832699,15.2979575 4.66954354,15.2888375 C3.62078669,15.2797178 2.6175384,14.8590263 1.87588476,14.1174087 C1.13425739,13.3758053 0.713568671,12.372494 0.704460681,11.3236952 C0.695340284,10.2749696 1.09853533,9.26451185 1.83527713,8.50186435 L3.83518648,6.50195502 C4.24067929,6.09630621 4.72868936,5.7826066 5.26610516,5.58212721 C5.64997113,5.43893177 6.05262647,5.35590279 6.45987024,5.33508115 L6.7046535,5.33006938 Z M11.3304897,0.711047832 C12.3792781,0.720155732 13.3824949,1.14083141 14.1240771,1.88243766 C14.8657622,2.62403874 15.2864197,3.62728177 15.2955403,4.67613076 C15.3046602,5.72491421 14.9014677,6.73533068 14.1647038,7.49800104 L12.1648084,9.49789642 C11.7593417,9.90354312 11.2713099,10.2172617 10.7339241,10.4177314 C10.1965078,10.6182244 9.62221987,10.70079 9.05014974,10.659789 C8.47803634,10.6188089 7.9214213,10.4552716 7.41807496,10.1802707 C6.91471506,9.90526242 6.47639098,9.52521777 6.13283342,9.06590904 C5.91229986,8.77107346 5.97253354,8.35328421 6.26736913,8.13275065 C6.56220471,7.91221708 6.97999396,7.97245077 7.20052752,8.26728635 C7.42956185,8.57348676 7.72177399,8.82684647 8.05734599,9.01018465 C8.3929107,9.19351886 8.76399444,9.30254576 9.14543896,9.32986838 C9.5267812,9.35719967 9.90961814,9.30215902 10.2678891,9.16849946 C10.6261524,9.03485077 10.9515055,8.82570596 11.2218971,8.55519435 L13.2137801,6.56345363 C13.6995464,6.06051111 13.9683406,5.38690228 13.9622607,4.68772463 C13.9561802,3.98847261 13.6757532,3.3196711 13.1812895,2.82526341 C12.686884,2.33084195 12.0180917,2.05039939 11.3189036,2.04432749 C10.6197117,2.03824756 9.94609968,2.30703498 9.45003678,2.78604407 L8.30336678,3.92604407 C8.0422596,4.18563242 7.62015246,4.18440118 7.3605641,3.923294 C7.10097574,3.66218682 7.10220699,3.24007968 7.36331417,2.98049133 L8.51687417,1.83373982 C9.27129493,1.10510722 10.2817082,0.701927993 11.3304897,0.711047832 Z" id="Shape" fill="#FFFFFF" fill-rule="nonzero"></path>
        </g>
    </g>
</svg>