<?xml version="1.0" encoding="UTF-8"?>
<svg width="32px" height="32px" viewBox="0 0 32 32" version="1.1" xmlns="http://www.w3.org/2000/svg" xmlns:xlink="http://www.w3.org/1999/xlink">
    <title>lock</title>
    <g id="Page-1" stroke="none" stroke-width="1" fill="none" fill-rule="evenodd">
        <g id="lock" fill-rule="nonzero">
            <rect id="Rectangle" fill="#D8D8D8" x="0" y="0" width="32" height="32"></rect>
            <path d="M17.6571,0.5 C21.0892,0.5 23.8714,3.31335 23.8714,6.78378 L23.8714,12.2297 L25.9429,12.2297 C28.4597,12.2297 30.5,14.2928 30.5,16.8378 L30.5,26.8919 C30.5,29.4369 28.4597,31.5 25.9429,31.5 L6.05714,31.5 C3.5403,31.5 1.5,29.4369 1.5,26.8919 L1.5,16.8378 C1.5,14.2928 3.5403,12.2297 6.05714,12.2297 L8.12857,12.2297 L8.12857,6.78378 C8.12857,3.31335 10.9108,0.5 14.3429,0.5 Z M16,18.9324 C15.3136,18.9324 14.7571,19.4951 14.7571,20.1892 L14.7571,23.5405 C14.7571,24.2346 15.3136,24.7973 16,24.7973 C16.6864,24.7973 17.2429,24.2346 17.2429,23.5405 L17.2429,20.1892 C17.2429,19.4951 16.6864,18.9324 16,18.9324 Z M17.6571,3.01351 L14.3429,3.01351 C12.2836,3.01351 10.61429,4.70152 10.61429,6.78378 L10.61429,12.2297 L21.3857,12.2297 L21.3857,6.78378 C21.3857,4.70152 19.7164,3.01351 17.6571,3.01351 Z" id="Shape" fill="#262628"></path>
        </g>
    </g>
</svg>