<?xml version="1.0" encoding="UTF-8"?>
<svg width="18px" height="18px" viewBox="0 0 18 18" version="1.1" xmlns="http://www.w3.org/2000/svg" xmlns:xlink="http://www.w3.org/1999/xlink">
    <title>Medal</title>
    <g id="Page-1" stroke="none" stroke-width="1" fill="none" fill-rule="evenodd">
        <g id="Medal">
            <rect id="Rectangle" fill="#D8D8D8" x="0" y="0" width="18" height="18"></rect>
            <path d="M8.77778,0.5 C12.2477814,0.5 15.0556,3.37978758 15.0556,6.92593 C15.0556,8.78812449 14.2758405,10.5193638 12.9527765,11.725118 L12.744,11.906 L12.7444,17 C12.7444,17.4485135 12.1994986,17.6701852 11.8863954,17.3490454 L8.777,14.16 L5.66911208,17.349048 C5.37688144,17.6487752 4.88273285,17.4756556 4.81814517,17.0865842 L4.81111,17 L4.811,11.906 C3.35964551,10.6921625 2.5,8.88124011 2.5,6.92593 C2.5,3.3797808 5.3077851,0.5 8.77778,0.5 Z M5.81065203,12.5902703 L5.811,15.77 L8.19505294,13.3245179 C7.35204496,13.2449575 6.54388992,12.9935467 5.81065203,12.5902703 Z M9.3595125,13.3246116 L11.744,15.77 L11.7448899,12.590266 C11.0113794,12.9937029 10.2028811,13.2451547 9.3595125,13.3246116 Z M8.77778,1.5 C5.86581556,1.5 3.5,3.92647852 3.5,6.92593 C3.5,8.57145726 4.2167418,10.092735 5.4219291,11.1139682 L5.61624679,11.2710046 C6.52238685,11.9690604 7.62142627,12.3519 8.77778,12.3519 C9.93413453,12.3519 11.0331614,11.9690599 11.9392553,11.2710107 C13.2613907,10.2525124 14.0556,8.65804901 14.0556,6.92593 C14.0556,3.92648738 11.6897532,1.5 8.77778,1.5 Z" id="Shape" fill="#262628" fill-rule="nonzero"></path>
        </g>
    </g>
</svg>