<?xml version="1.0" encoding="UTF-8"?>
<svg width="16px" height="16px" viewBox="0 0 16 16" version="1.1" xmlns="http://www.w3.org/2000/svg" xmlns:xlink="http://www.w3.org/1999/xlink">
    <title>bank-note-01</title>
    <g id="Page-1" stroke="none" stroke-width="1" fill="none" fill-rule="evenodd">
        <g id="bank-note-01">
            <rect id="Rectangle" fill="#D8D8D8" x="0" y="0" width="16" height="16"></rect>
            <path d="M11.3335,1.9999575 C12.8032332,1.9999575 13.8530578,2.18966016 14.5573104,2.50029431 C14.6994884,2.56301059 14.7895594,2.62211454 14.9207677,2.74730237 C15.04591,2.8667563 15.1952748,3.09591977 15.2542169,3.25886533 C15.3100843,3.41353279 15.3305954,3.5392908 15.3332003,3.70943274 L15.3326614,11.2909477 C15.3280809,11.8739106 15.3004354,12.0864725 15.1517742,12.34125 C14.9796389,12.6361796 14.7649304,12.8135506 14.4426144,12.9270132 C14.1828532,13.0183612 14.0418751,13.0248615 13.4413927,12.9172806 L12.895838,12.814748 C12.3992322,12.7193542 11.8767246,12.6666175 11.3335,12.6666175 C10.7295021,12.6666175 10.3170628,12.7429709 9.20473721,13.0735406 L8.21169294,13.3752403 C6.75425409,13.8142329 5.81463506,13.9999575 4.66683,13.9999575 C3.19706447,13.9999575 2.14720539,13.8102504 1.44308746,13.4996384 L1.42186945,13.4902011 L1.33770417,13.4486507 C1.24549327,13.3980756 1.17030079,13.339192 1.07962486,13.2526831 C0.95438053,13.1331553 0.80492596,12.903833 0.746141242,12.7410712 C0.690263661,12.5864037 0.669749773,12.4606387 0.667045981,12.2904871 L0.667045981,4.83060691 C0.669115919,4.15416302 0.690000919,3.93043158 0.848534263,3.65874114 C1.02064601,3.36376826 1.23542611,3.1863288 1.55757393,3.07296808 C1.83037783,2.97696934 1.97222249,2.97458984 2.65252525,3.09962003 L3.10450351,3.18516709 C3.60098168,3.28055723 4.12353816,3.3332925 4.66683,3.3332925 L4.80871587,3.33173007 C5.34142456,3.3194246 5.77236043,3.23046873 6.79564724,2.92636231 L7.55412112,2.69610575 C9.14776279,2.20575404 10.1252918,1.9999575 11.3335,1.9999575 Z M11.3335,3.3332925 C10.2917236,3.3332925 9.42204816,3.51638293 7.94623638,3.97047925 L7.60244925,4.07580649 C6.18204916,4.50866902 5.63638036,4.64024164 4.92247821,4.66285591 L4.66703667,4.6666275 L4.39814368,4.66291408 C3.86376631,4.64812763 3.34755083,4.58958687 2.85292234,4.49455211 C2.4668887,4.42037954 2.29756176,4.38905461 2.16650798,4.36952732 L2.013995,4.349125 L2.00581634,4.48377535 L2.00080255,4.74595592 L1.999995,12.279625 C2.00402587,12.2834414 2.00599893,12.2864729 2.007495,12.290625 L2.06195063,12.3136232 C2.56247588,12.5137873 3.34794541,12.6515214 4.475693,12.6654653 L4.66683,12.6666325 C5.70861269,12.6666325 6.57829639,12.483539 8.05410483,12.0294388 L8.55799172,11.8754814 C9.91272834,11.4654826 10.4327973,11.3494019 11.1612273,11.3349108 L11.3335,11.3332825 C11.9638229,11.3332825 12.5702012,11.3944843 13.1473799,11.5053554 C13.4983744,11.5727885 13.6702045,11.6048019 13.7970039,11.624736 L13.985995,11.650125 L13.9945289,11.5161373 L13.9995425,11.2539476 L13.9999485,3.71997271 C13.9963606,3.71656909 13.9943782,3.71351946 13.992495,3.709125 L13.938402,3.68629351 C13.437824,3.48612877 12.6523668,3.34840269 11.5246344,3.33445968 L11.3335,3.3332925 Z M4.000165,6.6666325 C4.36835529,6.6666325 4.6668325,6.96510971 4.6668325,7.3333 L4.6668325,9.99995 C4.6668325,10.3681403 4.36835529,10.6666175 4.000165,10.6666175 C3.63197471,10.6666175 3.3334975,10.3681403 3.3334975,9.99995 L3.3334975,7.3333 C3.3334975,6.96510971 3.63197471,6.6666325 4.000165,6.6666325 Z M8.00015,5.6666325 C9.28882947,5.6666325 10.3335175,6.71129888 10.3335175,7.99995 C10.3335175,9.28863694 9.28884365,10.3332675 8.00015,10.3332675 C6.71149553,10.3332675 5.6668325,9.28862612 5.6668325,7.99995 C5.6668325,6.71130971 6.71150971,5.6666325 8.00015,5.6666325 Z M12.00015,5.3332825 C12.3683403,5.3332825 12.6668175,5.63175971 12.6668175,5.99995 L12.6668175,8.6666 C12.6668175,9.03479029 12.3683403,9.3332675 12.00015,9.3332675 C11.6319597,9.3332675 11.3334825,9.03479029 11.3334825,8.6666 L11.3334825,5.99995 C11.3334825,5.63175971 11.6319597,5.3332825 12.00015,5.3332825 Z M8.00015,6.9999675 C7.44789029,6.9999675 7.0001675,7.44769029 7.0001675,7.99995 C7.0001675,8.55223935 7.44786993,8.9999325 8.00015,8.9999325 C8.55247543,8.9999325 9.0001825,8.55224398 9.0001825,7.99995 C9.0001825,7.44768565 8.55245507,6.9999675 8.00015,6.9999675 Z" id="Combined-Shape" fill="#909199" fill-rule="nonzero"></path>
        </g>
    </g>
</svg>