<?xml version="1.0" encoding="UTF-8"?>
<svg width="12px" height="12px" viewBox="0 0 12 12" version="1.1" xmlns="http://www.w3.org/2000/svg" xmlns:xlink="http://www.w3.org/1999/xlink">
    <title>Pencil</title>
    <g id="Page-1" stroke="none" stroke-width="1" fill="none" fill-rule="evenodd">
        <g id="Pencil">
            <rect id="Rectangle" fill="#D8D8D8" x="0" y="0" width="12" height="12"></rect>
            <path d="M1,11.5 C0.723857625,11.5 0.5,11.2761424 0.5,11 L0.5,9.38235 L0.5,8.59313 C0.5,7.93008493 0.763393442,7.29419728 1.23223661,6.82536661 L1.94056661,6.11703661 L6.46997661,1.58762661 L6.99693774,1.06065548 C7.97325004,0.0843494307 9.5561641,0.0843498173 10.5324404,1.06064358 L10.9393647,1.46753793 C11.9156118,2.44384748 11.9156118,4.02674252 10.93934,5.00307681 L10.4123542,5.53002261 L5.88296089,10.0594359 L5.17464753,10.7677393 C4.70581822,11.2366061 4.06992936,11.5 3.40687,11.5 L2.61765,11.5 L1,11.5 Z M2.294,7.17742662 L1.93933868,7.5324781 C1.65803459,7.8137747 1.5,8.19530372 1.5,8.59313 L1.5,9.17542662 L2.824,10.4994266 L3.40687,10.5 C3.75497662,10.5 4.09059176,10.3790074 4.3575069,10.1602937 L4.46752911,10.0606441 L4.821,9.70542662 L2.294,7.17742662 Z M6.823,2.64842662 L3.001,6.47042662 L5.529,8.99842662 L9.351,5.17642662 L6.823,2.64842662 Z M9.82534344,1.76776022 C9.23957521,1.18198149 8.28982927,1.18198126 7.70404675,1.76776004 L7.531,1.94142662 L10.059,4.46942662 L10.2322353,4.29596793 C10.7813787,3.74678939 10.8157001,2.87771136 10.3352197,2.28856545 L10.2322596,2.17464642 L9.82534344,1.76776022 Z" id="Shape" fill="#FFFFFF" fill-rule="nonzero"></path>
        </g>
    </g>
</svg>