<?xml version="1.0" encoding="UTF-8"?>
<svg width="12px" height="12px" viewBox="0 0 12 12" version="1.1" xmlns="http://www.w3.org/2000/svg" xmlns:xlink="http://www.w3.org/1999/xlink">
    <title>X</title>
    <g id="Page-1" stroke="none" stroke-width="1" fill="none" fill-rule="evenodd">
        <g id="X">
            <rect id="Rectangle" fill="#D8D8D8" x="0" y="0" width="12" height="12"></rect>
            <path d="M6.002643,1.26 C6.27878537,1.26 6.502643,1.48385763 6.502643,1.76 L6.502,5.502 L10.245283,5.50264 C10.5214254,5.50264 10.745283,5.72649763 10.745283,6.00264 C10.745283,6.27878237 10.5214254,6.50264 10.245283,6.50264 L6.502,6.502 L6.502643,10.24528 C6.502643,10.5214224 6.27878537,10.74528 6.002643,10.74528 C5.72650063,10.74528 5.502643,10.5214224 5.502643,10.24528 L5.502,6.502 L1.76,6.50264 C1.48385763,6.50264 1.26,6.27878237 1.26,6.00264 C1.26,5.72649763 1.48385763,5.50264 1.76,5.50264 L5.502,5.502 L5.502643,1.76 C5.502643,1.48385763 5.72650063,1.26 6.002643,1.26 Z" id="Shape" fill="#4572EE" fill-rule="nonzero"></path>
        </g>
    </g>
</svg>