<?xml version="1.0" encoding="UTF-8"?>
<svg width="16px" height="16px" viewBox="0 0 16 16" version="1.1" xmlns="http://www.w3.org/2000/svg" xmlns:xlink="http://www.w3.org/1999/xlink">
    <title>refresh</title>
    <g id="Page-1" stroke="none" stroke-width="1" fill="none" fill-rule="evenodd">
        <g id="refresh" transform="translate(-0.000000, 0.000002)">
            <rect id="Rectangle" fill="#D8D8D8" x="0" y="0" width="16" height="16"></rect>
            <path d="M10.0000005,7.3333327 C9.63181156,7.3333327 9.33333547,7.03485661 9.33333547,6.6666677 C9.33333547,6.29847878 9.63181156,6.0000027 10.0000005,6.0000027 L12.6458516,5.99950585 C12.4409796,5.74236777 12.2341013,5.48959704 12.0294635,5.2479245 L11.7455673,4.91849601 L11.6082315,4.76372349 C11.4296951,4.56465595 11.2615688,4.38581016 11.1059344,4.23006827 C10.1116587,3.23510585 8.76836362,2.6666627 7.33337047,2.6666627 C4.38785576,2.6666627 2.00003547,5.05448023 2.00003547,7.9999977 C2.00003547,10.9455088 4.38785938,13.3333327 7.33337047,13.3333327 C9.72495441,13.3333327 11.8052069,11.7451005 12.4583755,9.48181647 C12.560466,9.12806429 12.9299995,8.92405221 13.2837517,9.02614272 C13.6375039,9.12823323 13.841516,9.49776674 13.7394254,9.85151892 C12.9226241,12.6818041 10.3228738,14.6666627 7.33337047,14.6666627 C3.65148156,14.6666627 0.666705472,11.6818866 0.666705472,7.9999977 C0.666705472,4.31810206 3.65147828,1.3333327 7.33337047,1.3333327 C9.1257804,1.3333327 10.8071954,2.04485831 12.0490665,3.28758712 C12.2229046,3.46154528 12.4071756,3.65756515 12.6008345,3.87349419 C12.7453735,4.03465478 12.8943471,4.20602531 13.0470069,4.38631303 L13.3323705,4.7289977 L13.3333355,2.6666677 C13.3333355,2.29847878 13.6318116,2.0000027 14.0000005,2.0000027 C14.3681894,2.0000027 14.6666655,2.29847878 14.6666655,2.6666677 L14.6666655,6.6666677 C14.6666655,6.769532 14.6433686,6.86695504 14.6017633,6.95394831 L14.5537662,7.03798647 L14.5089127,7.09735316 L14.4558441,7.15322341 L14.3944455,7.20412037 L14.3433298,7.23817901 L14.2603025,7.28059728 L14.2005103,7.302655 L14.1568616,7.31477718 L14.0985153,7.32610433 C14.0673419,7.33072166 14.0354652,7.33318109 14.0030418,7.3333327 L10.0000005,7.3333327 Z" id="Shape" fill="#FFFFFF" fill-rule="nonzero"></path>
        </g>
    </g>
</svg>