<?xml version="1.0" encoding="UTF-8"?>
<svg width="18px" height="18px" viewBox="0 0 18 18" version="1.1" xmlns="http://www.w3.org/2000/svg" xmlns:xlink="http://www.w3.org/1999/xlink">
    <title>Reset</title>
    <g id="Page-1" stroke="none" stroke-width="1" fill="none" fill-rule="evenodd">
        <g id="Reset">
            <rect id="Rectangle" fill="#D8D8D8" x="0" y="0" width="18" height="18"></rect>
            <path d="M15.94,9 L15.6627,9.41603 C15.8924,9.5692 16.2028,9.50711 16.356,9.27735 L15.94,9 Z M13.884,7.02842 C13.6543,6.87524 13.3438,6.93733 13.1906,7.16709 C13.0375,7.39686 13.0996,7.70729 13.3293,7.86047 L13.884,7.02842 Z M17.9116,6.94402 C18.0648,6.71425 18.0027,6.40382 17.7729,6.25064 C17.5431,6.09747 17.2327,6.15955 17.0795,6.38932 L17.9116,6.94402 Z M15.6094,12.3347 C15.7329,12.0877 15.6328,11.7874 15.3858,11.6639 C15.1388,11.5404 14.8385,11.6405 14.715,11.8875 L15.6094,12.3347 Z M8.94,15.5 C5.35015,15.5 2.44,12.5899 2.44,9 L1.44,9 C1.44,13.1421 4.79786,16.5 8.94,16.5 L8.94,15.5 Z M2.44,9 C2.44,5.41015 5.35015,2.5 8.94,2.5 L8.94,1.5 C4.79786,1.5 1.44,4.85786 1.44,9 L2.44,9 Z M8.94,2.5 C12.5299,2.5 15.44,5.41015 15.44,9 L16.44,9 C16.44,4.85786 13.0821,1.5 8.94,1.5 L8.94,2.5 Z M16.2174,8.58397 L13.884,7.02842 L13.3293,7.86047 L15.6627,9.41603 L16.2174,8.58397 Z M16.356,9.27735 L17.9116,6.94402 L17.0795,6.38932 L15.524,8.72265 L16.356,9.27735 Z M8.94,16.5 C10.58305,16.5 11.9458,16.0878 13.0576,15.3466 C14.1663,14.6074 14.9964,13.5607 15.6094,12.3347 L14.715,11.8875 C14.1613,12.9949 13.4359,13.8926 12.5029,14.5145 C11.5731,15.1344 10.40806,15.5 8.94,15.5 L8.94,16.5 Z" id="Shape" fill="#09090B" fill-rule="nonzero"></path>
        </g>
    </g>
</svg>