<?xml version="1.0" encoding="UTF-8"?>
<svg width="16px" height="16px" viewBox="0 0 16 16" version="1.1" xmlns="http://www.w3.org/2000/svg" xmlns:xlink="http://www.w3.org/1999/xlink">
    <title>rocket-02</title>
    <g id="Page-1" stroke="none" stroke-width="1" fill="none" fill-rule="evenodd">
        <g id="rocket-02">
            <rect id="Rectangle" fill="#D8D8D8" x="0" y="0" width="16" height="16"></rect>
            <path d="M4.00188493,9.99229976 C4.52415405,10.0084181 5.02209194,10.2169041 5.40822878,10.5855527 C6.18010098,11.3476567 6.20993473,12.6009877 5.51030555,13.4287453 C5.11422061,13.9002749 4.48878615,14.2506015 3.68839155,14.5289558 C3.26326162,14.6768039 2.81317537,14.7947901 2.36382927,14.8869308 C2.16148605,14.9284222 1.99158662,14.9583958 1.86567358,14.9779568 L1.75485017,14.9940879 C1.31926585,15.0523241 0.947483987,14.6805456 1.00571628,14.2449607 C1.01633405,14.1655385 1.03392662,14.0528981 1.05913372,13.9137193 L1.11286838,13.6359788 C1.20500533,13.1866305 1.32298803,12.7365421 1.47083281,12.3114101 C1.74918262,11.511007 2.09950732,10.8855667 2.57021409,10.4901741 C2.96980101,10.1534165 3.47967546,9.97611038 4.00188493,9.99229976 Z M14.6706345,0.66664032 C15.0372041,0.668913708 15.3331675,0.966718286 15.3331675,1.333295 C15.3331675,4.20850016 14.2292413,6.90357635 11.4322419,8.94447748 C11.4467992,9.00761723 11.4626222,9.07757078 11.4784065,9.15132733 C11.5838336,9.64396457 11.6488618,10.1378897 11.652966,10.6096184 C11.6590113,11.3044647 11.5336509,11.9010755 11.2206226,12.3706166 C10.8995687,12.8505715 10.3722309,13.2142269 9.69574916,13.5063327 C9.34918192,13.6559809 8.98323115,13.7773612 8.61796674,13.8741345 L8.44148156,13.9190465 C8.3046641,13.9523681 8.19452626,13.9755248 8.11891136,13.9892497 C7.70974125,14.0635181 7.3331825,13.7491557 7.3331825,13.3333 L7.33268304,10.2754623 L5.72368304,8.66646233 L2.666505,8.6666175 C2.25064734,8.6666175 1.93628449,8.29005542 2.0105562,7.88088393 L2.03160081,7.77407772 C2.05298893,7.6721 2.08410214,7.5387367 2.12567332,7.38183115 C2.22244752,7.01656815 2.34382749,6.65061882 2.49347358,6.30405306 C2.78557548,5.62757351 3.1492206,5.10023823 3.63003618,4.77859793 C4.09871187,4.46614964 4.69532075,4.34078827 5.39016271,4.3468317 C5.86189775,4.35093464 6.35582939,4.41596358 6.84847284,4.52139255 C6.92545899,4.53786809 6.9983018,4.55438577 7.06651166,4.57061862 C7.87133561,3.42991102 8.92700326,2.486674 10.1538722,1.81187937 C11.5371298,1.05109305 13.0920024,0.656849978 14.6706345,0.66664032 Z M3.96066211,11.3249974 C3.76689106,11.3189901 3.57772162,11.3847728 3.42863026,11.5104205 C3.18222009,11.7174051 2.93651667,12.1560633 2.73018847,12.7493662 C2.65431196,12.9675513 2.58668364,13.1970349 2.52719277,13.4311978 L2.514005,13.4854517 L2.56859655,13.4726049 C2.72470439,13.4329431 2.87873258,13.3896646 3.02871988,13.3427368 L3.250425,13.2696038 C3.84372321,13.0632717 4.28237892,12.8175661 4.49067211,12.5696028 C4.74980776,12.2630079 4.73874531,11.7982687 4.47956263,11.5422309 C4.33927353,11.4083438 4.15450063,11.3309796 3.96066211,11.3249974 Z M10.2272093,9.69912873 L10.1256971,9.75627621 C9.65170468,10.0133951 9.16455773,10.2457758 8.66623122,10.45243 L8.66635,12.46915 L8.73160444,12.4486725 C8.80634259,12.4234081 8.88026696,12.3969004 8.95299211,12.3691588 L9.16718447,12.2822405 C9.62945962,12.0826295 9.96296906,11.8526393 10.1117991,11.6301494 C10.2502107,11.4225321 10.3236137,11.0731947 10.3196814,10.6212183 C10.3171601,10.3314211 10.2837419,10.0184976 10.2272093,9.69912873 Z M13.97435,2.02612983 L13.9496382,2.02764505 C12.9248968,2.11380713 11.9251083,2.39888183 11.0068647,2.86851882 L10.7964357,2.98016631 C9.61251276,3.63134006 8.61484896,4.57458132 7.89460297,5.72611643 C7.46436501,6.39810792 7.09249742,7.10544736 6.78295521,7.84032067 L8.15968304,9.21746233 L8.20455337,9.20034069 C8.93368823,8.89477384 9.63640145,8.52885572 10.3052496,8.10631112 L10.2952301,8.11293145 C12.6830492,6.5118919 13.7573442,4.4415861 13.9626751,2.17202327 L13.97435,2.02612983 Z M5.3785664,5.68011627 C4.92659203,5.6761852 4.57725478,5.74958906 4.37051084,5.88741639 C4.14716412,6.03682405 3.91717767,6.37033594 3.71756765,6.83261331 C3.65716645,6.97249661 3.60166481,7.11871852 3.55113575,7.26819553 L3.530505,7.33279778 L5.55068304,7.33246233 L5.57119286,7.28249329 C5.79040654,6.766142 6.03757895,6.26259138 6.31095312,5.77507209 L6.56944827,5.82520523 C6.15792213,5.7371359 5.74931864,5.6833409 5.3785664,5.68011627 Z" id="Combined-Shape" fill="#909199" fill-rule="nonzero"></path>
        </g>
    </g>
</svg>