<?xml version="1.0" encoding="UTF-8"?>
<svg width="20px" height="20px" viewBox="0 0 20 20" version="1.1" xmlns="http://www.w3.org/2000/svg" xmlns:xlink="http://www.w3.org/1999/xlink">
    <title>Combined Shape</title>
    <g id="Page-1" stroke="none" stroke-width="1" fill="none" fill-rule="evenodd">
        <g id="Icon" fill="#909199" fill-rule="nonzero">
            <path d="M9,0 C13.9705782,0 18,4.02942873 18,9 C18,11.1247884 17.2636938,13.0775944 16.0323143,14.6171849 L19.7071068,18.2928932 C20.0976311,18.6834175 20.0976311,19.3165825 19.7071068,19.7071068 C19.3165825,20.0976311 18.6834175,20.0976311 18.2928932,19.7071068 L14.6171849,16.0323143 C13.0775944,17.2636938 11.1247884,18 9,18 C4.02942873,18 0,13.9705782 0,9 C0,4.02943525 4.02943525,0 9,0 Z M9,2 C5.13400475,2 2,5.13400475 2,9 C2,12.866008 5.13399746,16 9,16 C10.8904855,16 12.6059263,15.2505953 13.8654599,14.0326485 C13.8886352,14.0004394 13.9147502,13.9710363 13.9428932,13.9428932 L14.0326485,13.8654599 C15.2505953,12.6059263 16,10.8904855 16,9 C16,5.13399746 12.866008,2 9,2 Z" id="Combined-Shape"></path>
        </g>
    </g>
</svg>