<?xml version="1.0" encoding="UTF-8"?>
<svg width="20px" height="20px" viewBox="0 0 20 20" version="1.1" xmlns="http://www.w3.org/2000/svg" xmlns:xlink="http://www.w3.org/1999/xlink">
    <title>Settings</title>
    <g id="Page-1" stroke="none" stroke-width="1" fill="none" fill-rule="evenodd">
        <g id="Settings">
            <rect id="Rectangle" fill="#D8D8D8" x="0" y="0" width="20" height="20"></rect>
            <path d="M10.6883,0.25 C11.8269213,0.25 12.75,1.17306415 12.75,2.3117 L12.75,2.71976 L12.765165,2.75974222 L12.8309034,2.78216765 C12.8625271,2.78973348 12.8827459,2.78451193 12.8901866,2.77707326 L13.2085554,2.45872448 C14.0476519,1.61958184 15.4081481,1.61958184 16.2472218,2.45870167 L17.2121191,3.42356893 C17.988026,4.19944375 17.988026,5.45740019 17.2121301,6.23328009 L17.1676442,6.27776598 C17.0311062,6.41431125 16.9967573,6.65379698 17.0846138,6.85551968 L17.1259229,6.94104893 C17.2327523,7.13625581 17.4071747,7.25 17.5725,7.25 L17.6883,7.25 C18.8269213,7.25 19.75,8.17306415 19.75,9.3117 L19.75,10.6883 C19.75,11.8269136 18.8269136,12.75 17.6883,12.75 L17.4312,12.75 C17.3307227,12.75 17.2174768,12.8322118 17.17652,12.9273003 L17.1438075,13.0176677 C17.1103136,13.1376857 17.1353102,13.2461711 17.1991301,13.3099699 L17.2862301,13.3970699 C18.0212233,14.1320631 18.0212233,15.3237369 17.2862301,16.0587301 L16.0587301,17.2862301 C15.3237369,18.0212233 14.1320631,18.0212233 13.3970699,17.2862301 L13.3098823,17.1990425 C13.2369746,17.1261107 13.1043547,17.1045086 13.0068732,17.1437823 L12.9279632,17.1804518 C12.813515,17.2432702 12.75,17.3423823 12.75,17.4312 L12.75,17.6883 C12.75,18.8269136 11.8269136,19.75 10.6883,19.75 L9.3117,19.75 C8.17306415,19.75 7.25,18.8269213 7.25,17.6883 L7.25,17.5725 C7.25,17.3903782 7.11077465,17.1975399 6.91931515,17.1124139 L6.81955577,17.0733609 C6.60616107,17.0038223 6.40070739,17.0447093 6.2777205,17.1676897 L6.23327558,17.2121246 C5.4573911,17.9880251 4.1994289,17.9880251 3.42356091,17.2121411 L2.45868079,16.247301 C1.61957831,15.4081063 1.61957831,14.0476401 2.45869326,13.2085866 L2.77702071,12.8902391 L2.7951653,12.856787 L2.76922985,12.7973686 C2.75100617,12.7638013 2.72923693,12.75 2.71977,12.75 L2.3117,12.75 C1.17306415,12.75 0.25,11.8269213 0.25,10.6883 L0.25,9.3117 C0.25,8.17305644 1.17305644,7.25 2.3117,7.25 L2.56877,7.25 C2.669239,7.25 2.78248924,7.1677793 2.82347927,7.07263278 L2.85618831,6.98228891 C2.88967538,6.86230527 2.86466532,6.75375549 2.80089991,6.68999009 L2.52423991,6.41333009 C1.6489267,5.53801687 1.6489267,4.11884313 2.52423991,3.24352991 L3.24351991,2.52424991 C4.11884389,1.64892594 5.53802114,1.64892594 6.4133205,2.52424033 L6.68999885,2.80090868 C6.7629544,2.87386664 6.89563459,2.89547825 6.99305268,2.85622406 L7.07198061,2.8195404 C7.18648251,2.75668746 7.25,2.65757792 7.25,2.56876 L7.25,2.3117 C7.25,1.17305644 8.17305644,0.25 9.3117,0.25 L10.6883,0.25 Z M10.6883,1.75 L9.3117,1.75 C9.00148356,1.75 8.75,2.00148356 8.75,2.3117 L8.75,2.56876 C8.75,3.22668827 8.37144937,3.81735989 7.7575842,4.15306652 L7.60535277,4.22495904 C6.92787545,4.50624428 6.14676603,4.3790133 5.6293395,3.86156967 L5.35266536,3.58490553 C5.06313886,3.29537406 4.59371611,3.29537406 4.30418009,3.58491009 L3.58490009,4.30419009 C3.2953733,4.59371687 3.2953733,5.06314313 3.58490009,5.35266991 L3.86156009,5.62932991 C4.32103975,6.08880958 4.47562498,6.75974707 4.28739118,7.42903358 L4.22496641,7.60533501 C3.94373886,8.28272241 3.30011383,8.75 2.56877,8.75 L2.3117,8.75 C2.00148356,8.75 1.75,9.00148356 1.75,9.3117 L1.75,10.6883 C1.75,10.9984995 2.00149658,11.25 2.3117,11.25 L2.71977,11.25 C3.29627686,11.25 3.81424095,11.5783798 4.1086829,12.1238411 L4.17427934,12.2687152 C4.40018116,12.8482549 4.27925054,13.5092144 3.83776674,13.9508134 L3.51935067,14.2692495 C3.26602169,14.5225599 3.26602169,14.9332937 3.51935909,15.1866589 L4.48421558,16.1514754 C4.6743111,16.3415749 4.9825089,16.3415749 5.1726695,16.1514103 L5.21713402,16.1069558 C5.756104,15.5680145 6.55406769,15.4092129 7.31932539,15.6595538 L7.48841118,15.7250586 C8.23570468,16.0534095 8.75,16.7657498 8.75,17.5725 L8.75,17.6883 C8.75,17.9984995 9.00149658,18.25 9.3117,18.25 L10.6883,18.25 C10.9984864,18.25 11.25,17.9984864 11.25,17.6883 L11.25,17.4312 C11.25,16.7732833 11.628548,16.1825775 12.2424159,15.8468971 L12.394647,15.7750144 C13.0722028,15.4937422 13.8533047,15.6209735 14.3706301,16.1384699 L14.4577301,16.2255699 C14.6069369,16.3747767 14.8488631,16.3747767 14.9980699,16.2255699 L16.2255699,14.9980699 C16.3747767,14.8488631 16.3747767,14.6069369 16.2255699,14.4577301 L16.1385575,14.3707177 C15.6789546,13.9112666 15.5243564,13.2403112 15.7125912,12.5709648 L15.7750039,12.3946724 C16.0561782,11.7172823 16.6998544,11.25 17.4312,11.25 L17.6883,11.25 C17.9984864,11.25 18.25,10.9984864 18.25,10.6883 L18.25,9.3117 C18.25,9.00149658 17.9984995,8.75 17.6883,8.75 L17.5725,8.75 C16.8326605,8.75 16.1691788,8.31733086 15.7950882,7.63229488 L15.7250506,7.48839289 C15.3843904,6.71302863 15.5138742,5.81024714 16.1069699,5.21711991 L16.1514754,5.17261442 C16.341574,4.98251981 16.341574,4.67433625 16.1514782,4.48424833 L15.1865554,3.51935552 C14.9332519,3.26603816 14.5225481,3.26603816 14.2692134,3.51938674 L13.9507609,3.83781929 C13.5651425,4.22333699 13.008705,4.3670375 12.432329,4.22733057 L12.2687796,4.17430444 C11.6662626,3.93951012 11.25,3.36944204 11.25,2.71976 L11.25,2.3117 C11.25,2.00149658 10.9984995,1.75 10.6883,1.75 Z M10,6.25 C12.0710982,6.25 13.75,7.9289211 13.75,10 C13.75,12.0711136 12.0711136,13.75 10,13.75 C7.9289211,13.75 6.25,12.0710982 6.25,10 C6.25,7.92893644 7.92893644,6.25 10,6.25 Z M10,7.75 C8.75736356,7.75 7.75,8.75736356 7.75,10 C7.75,11.2426672 8.75734436,12.25 10,12.25 C11.2426864,12.25 12.25,11.2426864 12.25,10 C12.25,8.75734436 11.2426672,7.75 10,7.75 Z" id="Shape" fill="#FFFFFF" fill-rule="nonzero"></path>
        </g>
    </g>
</svg>