<?xml version="1.0" encoding="UTF-8"?>
<svg width="12px" height="12px" viewBox="0 0 12 12" version="1.1" xmlns="http://www.w3.org/2000/svg" xmlns:xlink="http://www.w3.org/1999/xlink">
    <title>SignIn (1)</title>
    <g id="Page-1" stroke="none" stroke-width="1" fill="none" fill-rule="evenodd">
        <g id="SignIn-(1)">
            <rect id="Rectangle" fill="#D8D8D8" x="0" y="0" width="12" height="12"></rect>
            <path d="M7.7,1.6 C7.9209139,1.43431458 8.23431458,1.4790861 8.4,1.7 L11.4,5.7 L11.409,5.715 L11.4208042,5.72970473 L11.425,5.738 L11.4317353,5.74764043 L11.437,5.76 L11.4474808,5.77673391 L11.455,5.796 L11.4609289,5.80602747 L11.4687187,5.8255338 L11.472,5.841 L11.4796547,5.85834172 L11.482,5.871 L11.4871587,5.88736117 L11.489,5.904 L11.492,5.924 L11.496804,5.94284645 L11.496,5.953 L11.4992112,5.97172885 L11.499,5.985 L11.5,6 L11.499,6.015 L11.4992112,6.02827115 L11.496,6.046 L11.496804,6.05715355 L11.492,6.074 L11.4919443,6.08987563 L11.489,6.095 L11.4871587,6.11263883 L11.482,6.128 L11.4796547,6.14165828 L11.472,6.158 L11.4687187,6.1744662 L11.462,6.186 L11.455,6.203 L11.4474808,6.22326609 L11.437,6.239 L11.4317353,6.25235957 L11.425,6.261 L11.4208042,6.27029527 L11.412,6.281 L11.4,6.3 L8.4,10.3 C8.23431458,10.5209139 7.9209139,10.5656854 7.7,10.4 C7.4790861,10.2343146 7.43431458,9.9209139 7.6,9.7 L10,6.5 L1,6.5 C0.754540111,6.5 0.55039163,6.32312484 0.508055669,6.08987563 L0.5,6 C0.5,5.72385763 0.723857625,5.5 1,5.5 L10,5.5 L7.6,2.3 C7.45272407,2.10363209 7.47173511,1.83418821 7.6329329,1.66036991 L7.7,1.6 Z" id="Shape" fill="#FFFFFF" fill-rule="nonzero"></path>
        </g>
    </g>
</svg>