<?xml version="1.0" encoding="UTF-8"?>
<svg width="18px" height="18px" viewBox="0 0 18 18" version="1.1" xmlns="http://www.w3.org/2000/svg" xmlns:xlink="http://www.w3.org/1999/xlink">
    <title>SignIn</title>
    <g id="Page-1" stroke="none" stroke-width="1" fill="none" fill-rule="evenodd">
        <g id="SignIn">
            <rect id="Rectangle" fill="#D8D8D8" x="0" y="0" width="18" height="18"></rect>
            <path d="M13,0.5 C14.3807332,0.5 15.5,1.61927842 15.5,3 L15.5,15 C15.5,16.3807424 14.3807424,17.5 13,17.5 L7,17.5 C6.72385763,17.5 6.5,17.2761424 6.5,17 C6.5,16.7238576 6.72385763,16.5 7,16.5 L13,16.5 C13.8284576,16.5 14.5,15.8284576 14.5,15 L14.5,3 C14.5,2.17156085 13.8284461,1.5 13,1.5 L7,1.5 C6.72385763,1.5 6.5,1.27614237 6.5,1 C6.5,0.723857625 6.72385763,0.5 7,0.5 L13,0.5 Z M8.4,4.7 L11.4262021,8.7383029 L11.4770169,8.84969752 L11.499081,8.96953486 L11.4949772,9.07135495 L11.4735474,9.16089751 L11.4481653,9.22189294 L11.4,9.3 L8.4,13.3 C8.23431458,13.5209139 7.9209139,13.5656854 7.7,13.4 C7.4790861,13.2343146 7.43431458,12.9209139 7.6,12.7 L10,9.5 L1,9.5 C0.723857625,9.5 0.5,9.27614237 0.5,9 C0.5,8.72385763 0.723857625,8.5 1,8.5 L10,8.5 L7.6,5.3 C7.43431458,5.0790861 7.4790861,4.76568542 7.7,4.6 C7.9209139,4.43431458 8.23431458,4.4790861 8.4,4.7 Z" id="Shape" fill="#262628" fill-rule="nonzero"></path>
        </g>
    </g>
</svg>