<?xml version="1.0" encoding="UTF-8"?>
<svg width="18px" height="18px" viewBox="0 0 18 18" version="1.1" xmlns="http://www.w3.org/2000/svg" xmlns:xlink="http://www.w3.org/1999/xlink">
    <title>StickyNote</title>
    <g id="Page-1" stroke="none" stroke-width="1" fill="none" fill-rule="evenodd">
        <g id="StickyNote">
            <rect id="Rectangle" fill="#D8D8D8" x="0" y="0" width="18" height="18"></rect>
            <path d="M12.9355,1.5 C14.8684584,1.5 16.4355,3.0670236 16.4355,5 L16.4325088,9.02274672 L16.4185929,9.09701288 L16.3894407,9.17767448 L16.3554999,9.23914314 L16.2890534,9.32129339 L9.28133238,16.3249889 L9.21639413,16.3693957 L9.16206927,16.3963342 L9.09696587,16.4186026 L9.03359749,16.4311697 L8.96774,16.4355 L5,16.4355 C3.0670236,16.4355 1.5,14.8684584 1.5,12.9355 L1.5,5 C1.5,3.06700763 3.06700763,1.5 5,1.5 L12.9355,1.5 Z M12.9355,2.5 L5,2.5 C3.61929237,2.5 2.5,3.61929237 2.5,5 L2.5,12.9355 C2.5,14.3161762 3.61931093,15.4355 5,15.4355 L8.467,15.435 L8.46774,11.9677 C8.46774,10.0347476 10.0347476,8.46774 11.9677,8.46774 L15.435,8.467 L15.4355,5 C15.4355,3.61931093 14.3161762,2.5 12.9355,2.5 Z M14.728,9.467 L11.9677,9.46774 C10.5870324,9.46774 9.46774,10.5870324 9.46774,11.9677 L9.467,14.728 L14.728,9.467 Z" id="Shape" fill="#262628" fill-rule="nonzero"></path>
        </g>
    </g>
</svg>