<?xml version="1.0" encoding="UTF-8"?>
<svg width="20px" height="20px" viewBox="0 0 20 20" version="1.1" xmlns="http://www.w3.org/2000/svg" xmlns:xlink="http://www.w3.org/1999/xlink">
    <title>Group 281</title>
    <g id="Page-1" stroke="none" stroke-width="1" fill="none" fill-rule="evenodd">
        <g id="Group-281">
            <rect id="Rectangle" fill="#D8D8D8" x="0" y="0" width="20" height="20"></rect>
            <path d="M14.9661071,14.9760798 C15.4502071,14.4950798 16.3960071,14.6444798 16.5734071,15.3033798 L16.6446071,15.5682798 C16.8204071,16.2214798 16.2223071,16.8196798 15.5691071,16.6438798 L15.2835071,16.5669798 C14.6275071,16.3904798 14.4842071,15.4549798 14.9661071,14.9760798 Z M3.44541713,15.3033798 C3.62274713,14.6444798 4.56857713,14.4950798 5.05263713,14.9760798 C5.53455713,15.4549798 5.39131713,16.3904798 4.73528713,16.5669798 L4.44972713,16.6438798 C3.79649713,16.8195798 3.19835713,16.2214798 3.37414713,15.5682798 Z M10.0093871,4.13749975 C13.2400071,4.13749975 15.8688071,6.76621975 15.8688071,9.99687975 C15.8688071,13.2275798 13.2400071,15.8562798 10.0093871,15.8562798 C6.77872713,15.8562798 4.15001713,13.2275798 4.15001713,9.99687975 C4.15001713,6.76621975 6.77872713,4.13749975 10.0093871,4.13749975 Z M15.5633071,3.36934975 C16.2192071,3.19133975 16.8206071,3.79274975 16.6426071,4.44867975 L16.5706071,4.71417975 C16.3926071,5.36994975 15.4567071,5.51469975 14.9764071,5.03408975 C14.4964071,4.55383975 14.6415071,3.61950975 15.2967071,3.44167975 Z M3.37507713,4.43578975 C3.19913713,3.78414975 3.79647713,3.18731975 4.44796713,3.36380975 L4.72551713,3.43899975 C5.37740713,3.61559975 5.51914713,4.54518975 5.04158713,5.02276975 C4.56167713,5.50270975 3.62379713,5.35695975 3.44687713,4.70170975 Z M10.7729071,1.35697975 C10.4383071,0.76100475 9.58039713,0.76100875 9.24584713,1.35697975 L9.09912713,1.61835975 C8.77031713,2.20408975 9.33763713,2.96562975 10.0093471,2.96562975 C10.6811071,2.96562975 11.2484071,2.20406975 10.9196071,1.61832975 L10.7729071,1.35697975 Z M2.97809713,9.99687975 C2.97809713,9.32350975 2.21033713,8.75542975 1.62458713,9.08758975 L1.36340713,9.23569975 C0.772197125,9.57095975 0.772198125,10.4227798 1.36340713,10.7580798 L1.62459713,10.9061798 C2.21036713,11.2383798 2.97809713,10.6702798 2.97809713,9.99687975 Z M10.0093971,17.0281798 C9.32936713,17.0281798 8.75979713,17.7993798 9.09594713,18.3905798 L9.24193713,18.6472798 C9.58043713,19.2425798 10.4384071,19.2425798 10.7769071,18.6472798 L10.9228071,18.3905798 C11.2590071,17.7993798 10.6895071,17.0281798 10.0093971,17.0281798 Z M18.6352071,10.7740798 C19.2348071,10.4345798 19.2348071,9.57067975 18.6351071,9.23122975 L18.3874071,9.09098975 C17.7953071,8.75584975 17.0405071,9.31655975 17.0405071,9.99687975 C17.0405071,10.6812798 17.8006071,11.2465798 18.3961071,10.9093798 L18.6352071,10.7740798 Z" id="Combined-Shape" fill="#4572EE" fill-rule="nonzero"></path>
        </g>
    </g>
</svg>