<?xml version="1.0" encoding="UTF-8"?>
<svg width="16px" height="16px" viewBox="0 0 16 16" version="1.1" xmlns="http://www.w3.org/2000/svg" xmlns:xlink="http://www.w3.org/1999/xlink">
    <title>telegram</title>
    <g id="Page-1" stroke="none" stroke-width="1" fill="none" fill-rule="evenodd">
        <g id="telegram" transform="translate(-0.000000, 0.000002)">
            <rect id="Rectangle" fill="#D8D8D8" x="0" y="0" width="16" height="16"></rect>
            <path d="M1.92805047,6.8162877 C5.55193047,5.2374277 7.96841047,4.1965377 9.17750047,3.6936377 C12.6297005,2.2577477 13.3470005,2.0083177 13.8146005,2 C13.9174005,1.9982777 14.1474005,2.0237577 14.2963005,2.1446077 C14.4221005,2.2466577 14.4567005,2.3845077 14.4732005,2.4812577 C14.4898005,2.5780077 14.5104005,2.7984077 14.4940005,2.9706177 C14.3069005,4.9362477 13.4974005,9.7062877 13.0856005,11.9077977 C12.9114005,12.8393977 12.5683005,13.1516977 12.2361005,13.1822977 C11.5142005,13.2486977 10.9660005,12.7051977 10.2669005,12.2468977 C9.17277047,11.5296977 8.55468047,11.0832977 7.49268047,10.3833977 C6.26536047,9.5746277 7.06098047,9.1300977 7.76043047,8.4036277 C7.94348047,8.2135077 11.1241005,5.3204577 11.1857005,5.0580177 C11.1934005,5.0251877 11.2005005,4.9028377 11.1279005,4.8382377 C11.0552005,4.7736277 10.9479005,4.7957277 10.8705005,4.8132977 C10.7607005,4.8381977 9.01293047,5.9934377 5.62703047,8.2790077 C5.13092047,8.6196777 4.68156047,8.7856577 4.27895047,8.7769677 C3.83510047,8.7673777 2.98131047,8.5260077 2.34661047,8.3196877 C1.56812047,8.0666377 0.949393472,7.9328377 1.00327047,7.5030777 C1.03133047,7.2792277 1.33959047,7.0502977 1.92805047,6.8162877 Z" id="Path" fill="#FFFFFF"></path>
        </g>
    </g>
</svg>