<?xml version="1.0" encoding="UTF-8"?>
<svg width="18px" height="18px" viewBox="0 0 18 18" version="1.1" xmlns="http://www.w3.org/2000/svg" xmlns:xlink="http://www.w3.org/1999/xlink">
    <title>Ticket</title>
    <g id="Page-1" stroke="none" stroke-width="1" fill="none" fill-rule="evenodd">
        <g id="Ticket">
            <rect id="Rectangle" fill="#D8D8D8" x="0" y="0" width="18" height="18"></rect>
            <path d="M1,1 L1.27735,0.583975 C1.12392,0.481689 0.92665,0.472153 0.764071,0.559163 C0.601492,0.646172 0.5,0.815602 0.5,1 L1,1 Z M4,3 L3.72265,3.41603 C3.8906,3.52799 4.1094,3.52799 4.27735,3.41603 L4,3 Z M7,1 L7.27735,0.583975 C7.1094,0.472008 6.8906,0.472008 6.72265,0.583975 L7,1 Z M10,3 L9.72265,3.41603 C9.8906,3.52799 10.1094,3.52799 10.2774,3.41603 L10,3 Z M13,1 L13.5,1 C13.5,0.815602 13.3985,0.646172 13.2359,0.559163 C13.0733,0.472153 12.8761,0.481689 12.7226,0.583975 L13,1 Z M17,9 L17.5,9 C17.5,8.72386 17.2761,8.5 17,8.5 L17,9 Z M5,5.5 C4.72386,5.5 4.5,5.72386 4.5,6 C4.5,6.27614 4.72386,6.5 5,6.5 L5,5.5 Z M9,6.5 C9.27614,6.5 9.5,6.27614 9.5,6 C9.5,5.72386 9.27614,5.5 9,5.5 L9,6.5 Z M5,9.5 C4.72386,9.5 4.5,9.72386 4.5,10 C4.5,10.2761 4.72386,10.5 5,10.5 L5,9.5 Z M9,10.5 C9.27614,10.5 9.5,10.2761 9.5,10 C9.5,9.72386 9.27614,9.5 9,9.5 L9,10.5 Z M5,13.5 C4.72386,13.5 4.5,13.7239 4.5,14 C4.5,14.2761 4.72386,14.5 5,14.5 L5,13.5 Z M9,14.5 C9.27614,14.5 9.5,14.2761 9.5,14 C9.5,13.7239 9.27614,13.5 9,13.5 L9,14.5 Z M0.72265,1.41603 L3.72265,3.41603 L4.27735,2.583975 L1.27735,0.583975 L0.72265,1.41603 Z M4.27735,3.41603 L7.27735,1.41603 L6.72265,0.583975 L3.72265,2.583975 L4.27735,3.41603 Z M6.72265,1.41603 L9.72265,3.41603 L10.2774,2.583975 L7.27735,0.583975 L6.72265,1.41603 Z M10.2774,3.41603 L13.2774,1.41603 L12.7226,0.583975 L9.72265,2.583975 L10.2774,3.41603 Z M13,16.5 L5,16.5 L5,17.5 L13,17.5 L13,16.5 Z M1.5,13 L1.5,1 L0.5,1 L0.5,13 L1.5,13 Z M12.5,1 L12.5,9 L13.5,9 L13.5,1 L12.5,1 Z M12.5,9 L12.5,17 L13.5,17 L13.5,9 L12.5,9 Z M13,9.5 L17,9.5 L17,8.5 L13,8.5 L13,9.5 Z M16.5,9 L16.5,13 L17.5,13 L17.5,9 L16.5,9 Z M5,6.5 L9,6.5 L9,5.5 L5,5.5 L5,6.5 Z M5,10.5 L9,10.5 L9,9.5 L5,9.5 L5,10.5 Z M5,14.5 L9,14.5 L9,13.5 L5,13.5 L5,14.5 Z M16.5,13 C16.5,14.933 14.933,16.5 13,16.5 L13,17.5 C15.4853,17.5 17.5,15.4853 17.5,13 L16.5,13 Z M5,16.5 C3.067,16.5 1.5,14.933 1.5,13 L0.5,13 C0.5,15.4853 2.51472,17.5 5,17.5 L5,16.5 Z" id="Shape" fill="#262628" fill-rule="nonzero"></path>
        </g>
    </g>
</svg>