<?xml version="1.0" encoding="UTF-8"?>
<svg width="18px" height="18px" viewBox="0 0 18 18" version="1.1" xmlns="http://www.w3.org/2000/svg" xmlns:xlink="http://www.w3.org/1999/xlink">
    <title>TransactionHorizontal</title>
    <g id="Page-1" stroke="none" stroke-width="1" fill="none" fill-rule="evenodd">
        <g id="TransactionHorizontal">
            <rect id="Rectangle" fill="#D8D8D8" x="0" y="0" width="18" height="18"></rect>
            <path d="M13.7979509,0.646664124 L17.3535554,4.2022186 L17.3910407,4.24410995 L17.4332528,4.30600515 L17.4761888,4.40286857 L17.4921193,4.46688497 L17.5,4.55577 L17.4936843,4.63432183 L17.4834867,4.68355566 L17.4612534,4.74909685 L17.4105072,4.84136566 L17.3535514,4.90932538 L13.7979514,8.46488538 C13.6026882,8.66014643 13.2861057,8.66014465 13.0908446,8.4648814 C12.8955836,8.26961816 12.8955854,7.95303567 13.0908486,7.75777462 L15.792,5.05522 L1.88889,5.05577 C1.61274763,5.05577 1.38889,4.83191237 1.38889,4.55577 C1.38889,4.27962763 1.61274763,4.05577 1.88889,4.05577 L15.792,4.05522 L13.0908491,1.35377588 C12.8955856,1.1585151 12.8955834,0.841932614 13.0908441,0.646669095 C13.2861049,0.451405577 13.6026874,0.451403351 13.7979509,0.646664124 Z M0.507869235,12.6446167 L0.500391294,12.575639 L0.50283096,12.5022784 L0.516787508,12.4269728 L0.537792237,12.3647634 L0.566741131,12.306056 L0.60150006,12.2537109 L0.646443626,12.2022496 L4.20200562,8.6466676 C4.39726721,8.45140491 4.7138497,8.45140402 4.9091124,8.64666562 C5.10437509,8.84192721 5.10437598,9.1585097 4.90911438,9.3537724 L2.207,12.05522 L16.1111,12.0558 C16.3872424,12.0558 16.6111,12.2796576 16.6111,12.5558 C16.6111,12.8319424 16.3872424,13.0558 16.1111,13.0558 L2.207,13.05522 L4.90911041,15.7577436 C5.1043742,15.9530041 5.10437687,16.2695866 4.90911637,16.4648504 C4.71385588,16.6601142 4.39727339,16.6601169 4.20200959,16.4648564 L0.608963645,12.8674655 L0.556376455,12.78667 L0.522958827,12.7060186 L0.507869235,12.6446167 Z" id="Shape" fill="#262628" fill-rule="nonzero"></path>
        </g>
    </g>
</svg>