<?xml version="1.0" encoding="UTF-8"?>
<svg width="16px" height="16px" viewBox="0 0 16 16" version="1.1" xmlns="http://www.w3.org/2000/svg" xmlns:xlink="http://www.w3.org/1999/xlink">
    <title>user-01</title>
    <g id="Page-1" stroke="none" stroke-width="1" fill="none" fill-rule="evenodd">
        <g id="user-01">
            <rect id="Rectangle" fill="#D8D8D8" x="0" y="0" width="16" height="16"></rect>
            <path d="M9.81162762,9.66676209 L10.3281925,9.66951151 C11.0419755,9.67784448 11.2988058,9.70849976 11.634139,9.81019372 C12.6994442,10.133379 13.533121,10.9670558 13.8563259,12.0324259 L13.8977726,12.1810916 C13.9879857,12.5403915 13.9998175,12.9028385 13.9998175,14 C13.9998175,14.3681903 13.7013403,14.6666675 13.33315,14.6666675 C12.9649597,14.6666675 12.6664825,14.3681903 12.6664825,14 L12.6640256,13.3960709 C12.6580401,12.8409856 12.6393951,12.6310411 12.5900167,12.4526034 L12.5803937,12.419439 C12.386479,11.7802442 11.8862558,11.280021 11.2471259,11.0861259 L11.1800423,11.0675953 C10.9734469,11.0162737 10.7022067,11.0024315 9.9197247,11.0003236 L6.07993303,11.0003236 C5.21053273,11.0026658 4.97225363,11.0194943 4.75260982,11.0861075 C4.11340442,11.2800209 3.61319215,11.7802363 3.41929425,12.4194127 L3.40076088,12.4864918 C3.34943169,12.6930748 3.33558696,12.9643091 3.33347867,13.7467791 L3.3331725,14 C3.3331725,14.3681903 3.03469529,14.6666675 2.666505,14.6666675 C2.29831471,14.6666675 1.9998375,14.3681903 1.9998375,14 L2.00245287,13.3571889 C2.01046916,12.6290074 2.04076996,12.3706206 2.1433706,12.0323713 C2.46654043,10.9670552 3.30021406,10.1333765 4.36559149,9.81017689 L4.51425297,9.76872961 C4.85721397,9.68261565 5.20306105,9.66792013 6.1880245,9.66676209 L9.81162762,9.66676209 Z M7.99985,1.3333325 C5.97480632,1.3333325 4.3331675,2.97495809 4.3331675,5 C4.3331675,7.02503846 5.97480788,8.6666675 7.99985,8.6666675 C10.0248903,8.6666675 11.6665175,7.02504029 11.6665175,5 C11.6665175,2.97495626 10.0248918,1.3333325 7.99985,1.3333325 Z M7.99985,2.6666675 C9.28851161,2.6666675 10.3331825,3.71133719 10.3331825,5 C10.3331825,6.28865971 9.28850971,7.3333325 7.99985,7.3333325 C6.7111864,7.3333325 5.6665025,6.28865581 5.6665025,5 C5.6665025,3.71134108 6.7111845,2.6666675 7.99985,2.6666675 Z" id="Combined-Shape" fill="#909199" fill-rule="nonzero"></path>
        </g>
    </g>
</svg>