<svg width="20" height="20" viewBox="0 0 20 20" fill="none" xmlns="http://www.w3.org/2000/svg">
<path d="M3 11V11C1.89543 11 1 10.1046 1 9V8C1 6.89543 1.89543 6 3 6H10M3 11V17C3 18.1046 3.89543 19 5 19H10M3 11H17M17 11V11C18.1046 11 19 10.1046 19 9V8C19 6.89543 18.1046 6 17 6H10M17 11V17C17 18.1046 16.1046 19 15 19H10M10 19V6M10 6V3.5M10 3.5C10 2.11929 8.88071 1 7.5 1C6.11929 1 5 2.11929 5 3.5C5 4.88071 6.11929 6 7.5 6M10 3.5C10 2.11929 11.1193 1 12.5 1C13.8807 1 15 2.11929 15 3.5C15 4.88071 13.8807 6 12.5 6" stroke="url(#paint0_linear_322_6562)" stroke-width="1.5" stroke-linecap="round" stroke-linejoin="round"/>
<defs>
<linearGradient id="paint0_linear_322_6562" x1="1" y1="22.0158" x2="17.4152" y2="23.6398" gradientUnits="userSpaceOnUse">
<stop stop-color="#1F3A99"/>
<stop offset="1" stop-color="#88019E"/>
</linearGradient>
</defs>
</svg>
