<svg width="27" height="20" viewBox="0 0 27 20" fill="none" xmlns="http://www.w3.org/2000/svg">
<path d="M18.9198 13.6998C19.5995 13.4937 20.397 13.375 21.25 13.375C23.7353 13.375 25.75 14.3824 25.75 15.625C25.75 16.8676 23.7353 17.875 21.25 17.875C20.397 17.875 19.5995 17.7563 18.9198 17.5502M18.9198 13.6998C17.7005 12.8235 15.6717 12.25 13.375 12.25C11.0783 12.25 9.04949 12.8235 7.83022 13.6998M18.9198 13.6998C19.6796 14.2458 20.125 14.9094 20.125 15.625C20.125 16.3406 19.6796 17.0042 18.9198 17.5502M18.9198 17.5502C17.7005 18.4265 15.6717 19 13.375 19C11.0783 19 9.04949 18.4265 7.83022 17.5502M7.83022 13.6998C7.15053 13.4937 6.35298 13.375 5.5 13.375C3.01472 13.375 1 14.3824 1 15.625C1 16.8676 3.01472 17.875 5.5 17.875C6.35298 17.875 7.15053 17.7563 7.83022 17.5502M7.83022 13.6998C7.07043 14.2458 6.625 14.9094 6.625 15.625C6.625 16.3406 7.07043 17.0042 7.83022 17.5502M16.75 4.375C16.75 6.23896 15.239 7.75 13.375 7.75C11.511 7.75 10 6.23896 10 4.375C10 2.51104 11.511 1 13.375 1C15.239 1 16.75 2.51104 16.75 4.375ZM23.5 7.75C23.5 8.99264 22.4926 10 21.25 10C20.0074 10 19 8.99264 19 7.75C19 6.50736 20.0074 5.5 21.25 5.5C22.4926 5.5 23.5 6.50736 23.5 7.75ZM7.75 7.75C7.75 8.99264 6.74264 10 5.5 10C4.25736 10 3.25 8.99264 3.25 7.75C3.25 6.50736 4.25736 5.5 5.5 5.5C6.74264 5.5 7.75 6.50736 7.75 7.75Z" stroke="#4572EE" stroke-width="1.5" stroke-linecap="round" stroke-linejoin="round"/>
</svg>
