<svg width="31" height="30" viewBox="0 0 31 30" fill="none" xmlns="http://www.w3.org/2000/svg">
<g clip-path="url(#clip0_1780_1158)">
<path d="M19.9283 10.5875C19.0679 10.1927 18.1452 9.90179 17.1804 9.7352C17.1629 9.73198 17.1453 9.74002 17.1363 9.75609C17.0176 9.96714 16.8862 10.2425 16.7941 10.4589C15.7565 10.3036 14.7242 10.3036 13.7078 10.4589C13.6157 10.2377 13.4795 9.96714 13.3603 9.75609C13.3513 9.74055 13.3337 9.73252 13.3162 9.7352C12.3519 9.90126 11.4293 10.1921 10.5683 10.5875C10.5608 10.5907 10.5544 10.5961 10.5502 10.603C8.80003 13.2177 8.32059 15.7682 8.55579 18.287C8.55685 18.2993 8.56377 18.3111 8.57335 18.3186C9.72806 19.1666 10.8466 19.6814 11.9443 20.0226C11.9619 20.028 11.9805 20.0215 11.9917 20.0071C12.2514 19.6524 12.4829 19.2785 12.6813 18.8853C12.693 18.8623 12.6819 18.835 12.6579 18.8259C12.2908 18.6866 11.9412 18.5168 11.6048 18.3239C11.5782 18.3084 11.5761 18.2703 11.6006 18.2521C11.6714 18.1991 11.7421 18.1439 11.8097 18.0882C11.822 18.078 11.839 18.0759 11.8534 18.0823C14.0627 19.091 16.4546 19.091 18.6379 18.0823C18.6523 18.0754 18.6693 18.0775 18.6821 18.0877C18.7497 18.1434 18.8204 18.1991 18.8917 18.2521C18.9162 18.2703 18.9146 18.3084 18.888 18.3239C18.5517 18.5205 18.2021 18.6866 17.8344 18.8253C17.8105 18.8344 17.7998 18.8623 17.8115 18.8853C18.0143 19.278 18.2457 19.6519 18.5006 20.0065C18.5113 20.0215 18.5304 20.028 18.548 20.0226C19.6511 19.6814 20.7696 19.1666 21.9243 18.3186C21.9344 18.3111 21.9408 18.2998 21.9419 18.2875C22.2234 15.3755 21.4704 12.846 19.9459 10.6035C19.9421 10.5961 19.9358 10.5907 19.9283 10.5875ZM13.0113 16.7533C12.3461 16.7533 11.798 16.1426 11.798 15.3926C11.798 14.6427 12.3355 14.032 13.0113 14.032C13.6924 14.032 14.2351 14.648 14.2245 15.3926C14.2245 16.1426 13.687 16.7533 13.0113 16.7533ZM17.497 16.7533C16.8319 16.7533 16.2838 16.1426 16.2838 15.3926C16.2838 14.6427 16.8212 14.032 17.497 14.032C18.1782 14.032 18.7209 14.648 18.7103 15.3926C18.7103 16.1426 18.1782 16.7533 17.497 16.7533Z" fill="#5F70BE"/>
</g>
<defs>
<clipPath id="clip0_1780_1158">
<rect width="13.5" height="13.5" fill="white" transform="translate(8.5 8.25)"/>
</clipPath>
</defs>
</svg>
