<svg width="31" height="30" viewBox="0 0 31 30" fill="none" xmlns="http://www.w3.org/2000/svg">
<path fill-rule="evenodd" clip-rule="evenodd" d="M8.92805 14.5663C12.5519 12.9874 14.9684 11.9465 16.1775 11.4436C19.6297 10.0078 20.347 9.75832 20.8146 9.75009C20.9174 9.74828 21.1474 9.77376 21.2963 9.89461C21.4221 9.99666 21.4567 10.1345 21.4732 10.2313C21.4898 10.328 21.5104 10.5484 21.494 10.7206C21.3069 12.6862 20.4974 17.4563 20.0856 19.6578C19.9114 20.5894 19.5683 20.9017 19.2361 20.9323C18.5142 20.9987 17.966 20.4552 17.2669 19.9969C16.1728 19.2797 15.5547 18.8333 14.4927 18.1334C13.2654 17.3246 14.061 16.8801 14.7604 16.1536C14.9435 15.9635 18.1241 13.0705 18.1857 12.808C18.1934 12.7752 18.2005 12.6528 18.1279 12.5882C18.0552 12.5236 17.9479 12.5457 17.8705 12.5633C17.7607 12.5882 16.0129 13.7434 12.627 16.029C12.1309 16.3697 11.6816 16.5357 11.2789 16.527C10.8351 16.5174 9.98131 16.276 9.34661 16.0697C8.56812 15.8166 7.94939 15.6828 8.00327 15.2531C8.03133 15.0292 8.33959 14.8003 8.92805 14.5663Z" fill="#37AEE2"/>
</svg>
