<?xml version="1.0" encoding="UTF-8"?>
<svg width="30px" height="30px" viewBox="0 0 30 30" version="1.1" xmlns="http://www.w3.org/2000/svg" xmlns:xlink="http://www.w3.org/1999/xlink">
    <title>twitter</title>
    <g id="Page-1" stroke="none" stroke-width="1" fill="none" fill-rule="evenodd">
        <g id="twitter" transform="translate(8.250000, 9.515261)" fill="#55ACEE" fill-rule="nonzero">
            <path d="M4.247,10.9691396 C9.34,10.9691396 12.1265,6.74853851 12.1265,3.08953851 C12.1265,2.97093851 12.1239,2.84963851 12.1186,2.73093851 C12.6607,2.33893851 13.1285,1.85343851 13.5,1.29713851 C12.9952,1.52173851 12.4592,1.66843851 11.9103,1.73223851 C12.4882,1.38583851 12.9209,0.841638506 13.1282,0.200528506 C12.5846,0.522738506 11.99,0.750038506 11.3701,0.872638506 C10.9523,0.428788506 10.4001,0.134908506 9.7986,0.036438506 C9.1971,-0.062031494 8.5799,0.040378506 8.0425,0.327838506 C7.505,0.615338506 7.0773,1.07183851 6.8253,1.62673851 C6.5733,2.18173851 6.5112,2.80423851 6.6485,3.39803851 C5.5477,3.34283851 4.4707,3.05683851 3.4875,2.55873851 C2.5043,2.06053851 1.6367,1.36133851 0.94104,0.506338506 C0.58747,1.11593851 0.47928,1.83733851 0.63845,2.52383851 C0.79763,3.21033851 1.21222,3.81043851 1.798,4.20223851 C1.35823,4.18833851 0.92811,4.06993851 0.54316,3.85683851 L0.54316,3.89113851 C0.54277,4.53083851 0.76393,5.15103851 1.16905,5.64613851 C1.57417,6.14123851 2.1382,6.48073851 2.7654,6.60693851 C2.358,6.71843851 1.9305,6.73463851 1.51585,6.65443851 C1.69282,7.20463851 2.0371,7.68573851 2.5007,8.03083851 C2.9644,8.37593851 3.5241,8.56763851 4.1019,8.57923851 C3.121,9.34973851 1.9092,9.76773851 0.66182,9.76573851 C0.4406,9.76543851 0.2196,9.75183851 0,9.72513851 C1.26723,10.5381385 2.7414,10.9699385 4.247,10.9691396 Z" id="Path"></path>
        </g>
    </g>
</svg>