<svg width="30" height="30" viewBox="0 0 30 30" fill="none" xmlns="http://www.w3.org/2000/svg">
<g clip-path="url(#clip0_1780_1154)">
<path d="M12.497 20.4844C17.59 20.4844 20.3765 16.2638 20.3765 12.6048C20.3765 12.4862 20.3739 12.3649 20.3686 12.2462C20.9107 11.8542 21.3785 11.3687 21.75 10.8124C21.2452 11.037 20.7092 11.1837 20.1603 11.2475C20.7382 10.9011 21.1709 10.3569 21.3782 9.71579C20.8346 10.038 20.24 10.2653 19.6201 10.3879C19.2023 9.94405 18.6501 9.65017 18.0486 9.5517C17.4471 9.45323 16.8299 9.55564 16.2925 9.8431C15.755 10.1306 15.3273 10.5871 15.0753 11.142C14.8233 11.697 14.7612 12.3195 14.8985 12.9133C13.7977 12.8581 12.7207 12.5721 11.7375 12.074C10.7543 11.5758 9.8867 10.8766 9.19104 10.0216C8.83747 10.6312 8.72928 11.3526 8.88845 12.0391C9.04763 12.7256 9.46222 13.3257 10.048 13.7175C9.60823 13.7036 9.17811 13.5852 8.79316 13.3721V13.4064C8.79277 14.0461 9.01393 14.6663 9.41905 15.1614C9.82417 15.6565 10.3882 15.996 11.0154 16.1222C10.608 16.2337 10.1805 16.2499 9.76585 16.1697C9.94282 16.7199 10.2871 17.201 10.7507 17.5461C11.2144 17.8912 11.7741 18.0829 12.3519 18.0945C11.371 18.865 10.1592 19.283 8.91182 19.281C8.6906 19.2807 8.4696 19.2671 8.25 19.2404C9.51723 20.0534 10.9914 20.4852 12.497 20.4844Z" fill="#55ACEE"/>
</g>
<defs>
<clipPath id="clip0_1780_1154">
<rect width="13.5" height="13.5" fill="white" transform="translate(8.25 8.25)"/>
</clipPath>
</defs>
</svg>
