<svg width="438" height="315" viewBox="0 0 438 315" fill="none" xmlns="http://www.w3.org/2000/svg">
<g opacity="0.7">
<path d="M76.4863 283.715L112.864 262.693L150.134 258.857L179.627 275.893L205.772 274.85L228.428 261.766" stroke="#2A49F9" stroke-width="0.53" stroke-miterlimit="10"/>
<path d="M149.496 266.239L178.155 282.776L208.831 281.548L248.117 258.857" stroke="#2A49F9" stroke-width="0.53" stroke-miterlimit="10"/>
<path d="M230.734 262.09C230.271 262.319 229.762 262.438 229.245 262.438C228.729 262.438 228.219 262.319 227.756 262.09C227.578 262.027 227.424 261.91 227.316 261.754C227.202 261.604 227.141 261.421 227.142 261.233C227.139 261.041 227.2 260.853 227.316 260.7C227.424 260.547 227.578 260.434 227.756 260.375C228.217 260.139 228.727 260.016 229.245 260.016C229.763 260.016 230.273 260.139 230.734 260.375C230.912 260.434 231.066 260.547 231.175 260.7C231.29 260.853 231.351 261.041 231.348 261.233C231.349 261.421 231.288 261.604 231.175 261.754C231.067 261.91 230.913 262.027 230.734 262.09V262.09Z" fill="#2A49F9"/>
<path d="M249.276 259.773C248.813 260.001 248.304 260.12 247.787 260.12C247.271 260.12 246.761 260.001 246.298 259.773C246.12 259.709 245.966 259.592 245.858 259.436C245.744 259.286 245.683 259.103 245.684 258.915C245.681 258.723 245.742 258.535 245.858 258.382C245.966 258.23 246.12 258.116 246.298 258.057C246.759 257.821 247.269 257.698 247.787 257.698C248.305 257.698 248.815 257.821 249.276 258.057C249.454 258.116 249.608 258.23 249.717 258.382C249.832 258.535 249.893 258.723 249.89 258.915C249.891 259.103 249.83 259.286 249.717 259.436C249.609 259.592 249.455 259.709 249.276 259.773V259.773Z" fill="#2A49F9"/>
<path d="M209.874 281.791C209.411 282.02 208.901 282.139 208.385 282.139C207.868 282.139 207.359 282.02 206.896 281.791C206.717 281.728 206.563 281.611 206.455 281.455C206.342 281.305 206.28 281.122 206.281 280.934C206.279 280.742 206.34 280.554 206.455 280.401C206.564 280.248 206.718 280.135 206.896 280.076C207.357 279.84 207.867 279.717 208.385 279.717C208.903 279.717 209.413 279.84 209.874 280.076C210.051 280.135 210.206 280.248 210.314 280.401C210.43 280.554 210.491 280.742 210.488 280.934C210.489 281.122 210.428 281.305 210.314 281.455C210.206 281.611 210.052 281.728 209.874 281.791Z" fill="#2A49F9"/>
<path d="M207.545 274.85C207.084 275.086 206.573 275.209 206.056 275.209C205.538 275.209 205.027 275.086 204.567 274.85C204.392 274.779 204.24 274.663 204.126 274.514C204.019 274.356 203.963 274.171 203.964 273.98C203.964 273.794 204.021 273.613 204.126 273.459C204.234 273.303 204.388 273.185 204.567 273.123C205.027 272.887 205.538 272.764 206.056 272.764C206.573 272.764 207.084 272.887 207.545 273.123C207.725 273.182 207.88 273.301 207.985 273.459C208.097 273.612 208.158 273.797 208.158 273.986C208.158 274.176 208.097 274.361 207.985 274.514C207.874 274.666 207.721 274.783 207.545 274.85V274.85Z" fill="#2A49F9"/>
<path d="M151.93 259.773C151.467 260.001 150.957 260.12 150.44 260.12C149.924 260.12 149.414 260.001 148.951 259.773C148.773 259.709 148.619 259.592 148.511 259.436C148.397 259.286 148.336 259.103 148.337 258.915C148.334 258.723 148.396 258.535 148.511 258.382C148.619 258.23 148.774 258.116 148.951 258.057C149.412 257.821 149.923 257.698 150.44 257.698C150.958 257.698 151.469 257.821 151.93 258.057C152.107 258.116 152.261 258.23 152.37 258.382C152.485 258.535 152.546 258.723 152.544 258.915C152.545 259.103 152.484 259.286 152.37 259.436C152.262 259.592 152.108 259.709 151.93 259.773V259.773Z" fill="#2A49F9"/>
<path d="M150.76 266.737C150.299 266.973 149.788 267.096 149.271 267.096C148.753 267.096 148.242 266.973 147.781 266.737C147.607 266.667 147.455 266.551 147.341 266.401C147.234 266.244 147.178 266.058 147.179 265.868C147.179 265.682 147.236 265.5 147.341 265.347C147.448 265.191 147.603 265.073 147.781 265.011C148.242 264.775 148.753 264.652 149.271 264.652C149.788 264.652 150.299 264.775 150.76 265.011C150.94 265.07 151.095 265.189 151.2 265.347C151.312 265.5 151.373 265.684 151.373 265.874C151.373 266.064 151.312 266.248 151.2 266.401C151.089 266.554 150.936 266.67 150.76 266.737Z" fill="#2A49F9"/>
<path d="M78.9198 284.109C78.4567 284.338 77.9471 284.457 77.4306 284.457C76.9141 284.457 76.4045 284.338 75.9415 284.109C75.7631 284.046 75.6091 283.928 75.5011 283.773C75.3875 283.623 75.3264 283.44 75.3272 283.252C75.3247 283.06 75.3858 282.872 75.5011 282.719C75.6097 282.566 75.764 282.453 75.9415 282.394C76.4024 282.158 76.9128 282.035 77.4306 282.035C77.9484 282.035 78.4588 282.158 78.9198 282.394C79.0973 282.453 79.2515 282.566 79.3602 282.719C79.4754 282.872 79.5365 283.06 79.534 283.252C79.5348 283.44 79.4738 283.623 79.3602 283.773C79.2522 283.928 79.0981 284.046 78.9198 284.109V284.109Z" fill="#2A49F9"/>
<path d="M308.391 312.687L272.013 291.665L234.744 287.829L205.25 304.865L179.105 303.81L156.449 290.738" stroke="#2A49F9" stroke-width="0.53" stroke-miterlimit="10"/>
<path d="M236.517 295.2L207.869 311.749L177.182 310.52L137.907 287.829" stroke="#2A49F9" stroke-width="0.53" stroke-miterlimit="10"/>
<path d="M154.746 291.062C155.209 291.291 155.719 291.41 156.235 291.41C156.752 291.41 157.261 291.291 157.724 291.062C157.903 290.999 158.057 290.882 158.165 290.726C158.278 290.576 158.34 290.393 158.339 290.205C158.341 290.013 158.28 289.825 158.165 289.672C158.056 289.52 157.902 289.406 157.724 289.347C157.264 289.111 156.753 288.988 156.235 288.988C155.717 288.988 155.207 289.111 154.746 289.347C154.569 289.406 154.414 289.52 154.306 289.672C154.191 289.825 154.129 290.013 154.132 290.205C154.131 290.393 154.192 290.576 154.306 290.726C154.414 290.882 154.568 290.999 154.746 291.062V291.062Z" fill="#2A49F9"/>
<path d="M136.204 288.745C136.667 288.974 137.177 289.093 137.693 289.093C138.21 289.093 138.719 288.974 139.183 288.745C139.361 288.682 139.515 288.564 139.623 288.409C139.736 288.259 139.798 288.075 139.797 287.887C139.799 287.695 139.738 287.508 139.623 287.354C139.514 287.202 139.36 287.088 139.183 287.03C138.722 286.794 138.211 286.671 137.693 286.671C137.175 286.671 136.665 286.794 136.204 287.03C136.027 287.088 135.872 287.202 135.764 287.354C135.649 287.508 135.587 287.695 135.59 287.887C135.589 288.075 135.65 288.259 135.764 288.409C135.872 288.564 136.026 288.682 136.204 288.745V288.745Z" fill="#2A49F9"/>
<path d="M175.607 311.922C176.07 312.151 176.579 312.27 177.096 312.27C177.612 312.27 178.122 312.151 178.585 311.922C178.763 311.859 178.917 311.742 179.025 311.586C179.139 311.436 179.2 311.253 179.199 311.065C179.202 310.873 179.14 310.685 179.025 310.532C178.917 310.38 178.762 310.266 178.585 310.207C178.124 309.971 177.613 309.848 177.096 309.848C176.578 309.848 176.067 309.971 175.607 310.207C175.429 310.266 175.275 310.38 175.166 310.532C175.051 310.685 174.99 310.873 174.992 311.065C174.991 311.253 175.053 311.436 175.166 311.586C175.274 311.742 175.428 311.859 175.607 311.922V311.922Z" fill="#2A49F9"/>
<path d="M179.419 305.328C180.578 305.328 181.528 304.784 181.528 304.111C181.528 303.439 180.578 302.895 179.419 302.895C178.26 302.895 177.31 303.439 177.31 304.111C177.31 304.784 178.248 305.328 179.419 305.328Z" fill="#2A49F9"/>
<path d="M233.55 288.745C234.013 288.974 234.522 289.093 235.039 289.093C235.556 289.093 236.065 288.974 236.528 288.745C236.707 288.682 236.861 288.564 236.969 288.409C237.082 288.259 237.143 288.075 237.142 287.887C237.145 287.695 237.084 287.508 236.969 287.354C236.86 287.202 236.706 287.088 236.528 287.03C236.067 286.794 235.557 286.671 235.039 286.671C234.521 286.671 234.011 286.794 233.55 287.03C233.372 287.088 233.218 287.202 233.109 287.354C232.994 287.508 232.933 287.695 232.936 287.887C232.935 288.075 232.996 288.259 233.109 288.409C233.217 288.564 233.372 288.682 233.55 288.745V288.745Z" fill="#2A49F9"/>
<path d="M234.709 296.857C235.17 297.093 235.68 297.216 236.198 297.216C236.716 297.216 237.226 297.093 237.687 296.857C237.866 296.794 238.02 296.676 238.128 296.521C238.241 296.371 238.302 296.187 238.302 295.999C238.304 295.807 238.243 295.62 238.128 295.466C238.019 295.314 237.865 295.2 237.687 295.142C237.226 294.906 236.716 294.783 236.198 294.783C235.68 294.783 235.17 294.906 234.709 295.142C234.532 295.2 234.377 295.314 234.269 295.466C234.153 295.62 234.092 295.807 234.095 295.999C234.094 296.187 234.155 296.371 234.269 296.521C234.377 296.676 234.531 296.794 234.709 296.857V296.857Z" fill="#2A49F9"/>
<path d="M307.719 314.24C308.182 314.469 308.691 314.588 309.208 314.588C309.724 314.588 310.234 314.469 310.697 314.24C310.876 314.177 311.03 314.059 311.138 313.904C311.251 313.754 311.312 313.571 311.311 313.383C311.314 313.191 311.253 313.003 311.138 312.85C311.029 312.697 310.875 312.584 310.697 312.525C310.236 312.289 309.726 312.166 309.208 312.166C308.69 312.166 308.18 312.289 307.719 312.525C307.541 312.584 307.387 312.697 307.278 312.85C307.163 313.003 307.102 313.191 307.105 313.383C307.104 313.571 307.165 313.754 307.278 313.904C307.386 314.059 307.54 314.177 307.719 314.24V314.24Z" fill="#2A49F9"/>
<path d="M178.584 261.696L142.218 240.686L104.937 236.838L75.4434 253.874L49.2989 252.819L26.6543 239.747" stroke="#2A49F9" stroke-width="0.53" stroke-miterlimit="10"/>
<path d="M105.586 244.197L76.9266 260.746L46.2278 259.518L6.95312 236.838" stroke="#2A49F9" stroke-width="0.53" stroke-miterlimit="10"/>
<path d="M24.9512 240.071C25.4143 240.3 25.9238 240.419 26.4404 240.419C26.9569 240.419 27.4665 240.3 27.9295 240.071C28.1099 240.012 28.265 239.894 28.3699 239.735C28.4835 239.585 28.5446 239.402 28.5438 239.214C28.5463 239.022 28.4852 238.834 28.3699 238.681C28.2613 238.529 28.1071 238.415 27.9295 238.356C27.4686 238.12 26.9582 237.997 26.4404 237.997C25.9225 237.997 25.4122 238.12 24.9512 238.356C24.7737 238.415 24.6195 238.529 24.5109 238.681C24.3956 238.834 24.3345 239.022 24.337 239.214C24.3361 239.402 24.3973 239.585 24.5109 239.735C24.6158 239.894 24.7709 240.012 24.9512 240.071V240.071Z" fill="#2A49F9"/>
<path d="M5.25006 237.754C5.71312 237.983 6.22267 238.102 6.7392 238.102C7.25573 238.102 7.76532 237.983 8.22837 237.754C8.40872 237.694 8.56384 237.576 8.66875 237.418C8.78235 237.268 8.84343 237.084 8.84258 236.896C8.84512 236.704 8.784 236.517 8.66875 236.363C8.56012 236.211 8.40588 236.097 8.22837 236.039C7.76743 235.803 7.25702 235.68 6.7392 235.68C6.22138 235.68 5.711 235.803 5.25006 236.039C5.07255 236.097 4.91831 236.211 4.80968 236.363C4.69443 236.517 4.63328 236.704 4.63582 236.896C4.63497 237.084 4.69608 237.268 4.80968 237.418C4.91459 237.576 5.06971 237.694 5.25006 237.754V237.754Z" fill="#2A49F9"/>
<path d="M44.6524 260.931C45.1155 261.16 45.625 261.279 46.1415 261.279C46.6581 261.279 47.1677 261.16 47.6307 260.931C47.8091 260.868 47.9631 260.751 48.0711 260.595C48.1847 260.445 48.2458 260.262 48.2449 260.074C48.2475 259.882 48.1863 259.694 48.0711 259.541C47.9625 259.389 47.8082 259.275 47.6307 259.216C47.1698 258.98 46.6594 258.857 46.1415 258.857C45.6237 258.857 45.1133 258.98 44.6524 259.216C44.4749 259.275 44.3207 259.389 44.212 259.541C44.0968 259.694 44.0356 259.882 44.0382 260.074C44.0373 260.262 44.0984 260.445 44.212 260.595C44.32 260.751 44.4741 260.868 44.6524 260.931V260.931Z" fill="#2A49F9"/>
<path d="M46.9698 253.99C47.4328 254.219 47.9424 254.338 48.4589 254.338C48.9755 254.338 49.485 254.219 49.9481 253.99C50.1243 253.923 50.2773 253.806 50.3885 253.654C50.5037 253.5 50.5648 253.313 50.5623 253.12C50.5632 252.932 50.5021 252.749 50.3885 252.599C50.2773 252.447 50.1243 252.33 49.9481 252.263C49.4872 252.027 48.9767 251.904 48.4589 251.904C47.9411 251.904 47.4307 252.027 46.9698 252.263C46.7935 252.33 46.6406 252.447 46.5294 252.599C46.4158 252.749 46.3547 252.932 46.3555 253.12C46.353 253.313 46.4142 253.5 46.5294 253.654C46.6406 253.806 46.7935 253.923 46.9698 253.99V253.99Z" fill="#2A49F9"/>
<path d="M102.597 237.754C103.06 237.983 103.569 238.102 104.086 238.102C104.602 238.102 105.112 237.983 105.575 237.754C105.755 237.694 105.911 237.576 106.015 237.418C106.129 237.268 106.19 237.084 106.189 236.896C106.192 236.704 106.131 236.517 106.015 236.363C105.907 236.211 105.753 236.097 105.575 236.039C105.114 235.803 104.604 235.68 104.086 235.68C103.568 235.68 103.058 235.803 102.597 236.039C102.419 236.097 102.265 236.211 102.156 236.363C102.041 236.517 101.98 236.704 101.982 236.896C101.982 237.084 102.043 237.268 102.156 237.418C102.261 237.576 102.416 237.694 102.597 237.754V237.754Z" fill="#2A49F9"/>
<path d="M103.755 245.877C104.218 246.106 104.728 246.225 105.244 246.225C105.761 246.225 106.27 246.106 106.733 245.877C106.909 245.81 107.062 245.694 107.174 245.541C107.289 245.388 107.35 245.2 107.347 245.008C107.348 244.82 107.287 244.637 107.174 244.487C107.062 244.335 106.909 244.218 106.733 244.151C106.272 243.915 105.762 243.792 105.244 243.792C104.726 243.792 104.216 243.915 103.755 244.151C103.579 244.218 103.426 244.335 103.315 244.487C103.201 244.637 103.14 244.82 103.141 245.008C103.138 245.2 103.199 245.388 103.315 245.541C103.426 245.694 103.579 245.81 103.755 245.877V245.877Z" fill="#2A49F9"/>
<path d="M176.765 262.09C177.228 262.319 177.737 262.438 178.254 262.438C178.77 262.438 179.28 262.319 179.743 262.09C179.921 262.027 180.075 261.91 180.183 261.754C180.297 261.604 180.358 261.421 180.357 261.233C180.36 261.041 180.299 260.853 180.183 260.7C180.075 260.547 179.921 260.434 179.743 260.375C179.282 260.139 178.772 260.016 178.254 260.016C177.736 260.016 177.226 260.139 176.765 260.375C176.587 260.434 176.433 260.547 176.324 260.7C176.209 260.853 176.148 261.041 176.15 261.233C176.15 261.421 176.211 261.604 176.324 261.754C176.432 261.91 176.586 262.027 176.765 262.09V262.09Z" fill="#2A49F9"/>
</g>
<g opacity="0.7">
<path d="M435.868 190.981L399.491 169.982L362.221 166.146L332.727 183.182L306.583 182.127L283.927 169.043" stroke="#2A49F9" stroke-width="0.53" stroke-miterlimit="10"/>
<path d="M363.994 173.517L335.358 190.066L304.659 188.826L265.385 166.146" stroke="#2A49F9" stroke-width="0.53" stroke-miterlimit="10"/>
<path d="M282.223 169.38C282.686 169.608 283.195 169.728 283.712 169.728C284.228 169.728 284.738 169.608 285.201 169.38C285.381 169.32 285.537 169.202 285.641 169.044C285.755 168.893 285.816 168.71 285.815 168.522C285.818 168.33 285.757 168.143 285.641 167.989C285.533 167.837 285.379 167.723 285.201 167.664C284.74 167.428 284.23 167.305 283.712 167.305C283.194 167.305 282.684 167.428 282.223 167.664C282.045 167.723 281.891 167.837 281.782 167.989C281.667 168.143 281.606 168.33 281.608 168.522C281.608 168.71 281.669 168.893 281.782 169.044C281.887 169.202 282.042 169.32 282.223 169.38V169.38Z" fill="#2A49F9"/>
<path d="M263.681 167.062C264.144 167.291 264.653 167.41 265.17 167.41C265.686 167.41 266.196 167.291 266.659 167.062C266.839 167.002 266.995 166.884 267.099 166.726C267.213 166.576 267.274 166.392 267.273 166.204C267.276 166.012 267.215 165.825 267.099 165.671C266.991 165.519 266.837 165.405 266.659 165.347C266.198 165.111 265.688 164.988 265.17 164.988C264.652 164.988 264.142 165.111 263.681 165.347C263.503 165.405 263.349 165.519 263.24 165.671C263.125 165.825 263.064 166.012 263.066 166.204C263.066 166.392 263.127 166.576 263.24 166.726C263.345 166.884 263.5 167.002 263.681 167.062V167.062Z" fill="#2A49F9"/>
<path d="M303.083 190.251C303.546 190.48 304.056 190.599 304.572 190.599C305.089 190.599 305.598 190.48 306.061 190.251C306.24 190.188 306.395 190.071 306.504 189.917C306.613 189.762 306.672 189.577 306.672 189.388C306.672 189.198 306.613 189.014 306.504 188.859C306.395 188.704 306.24 188.587 306.061 188.524C305.6 188.288 305.09 188.165 304.572 188.165C304.054 188.165 303.544 188.288 303.083 188.524C302.26 188.895 302.26 189.695 303.083 190.251Z" fill="#2A49F9"/>
<path d="M305.4 183.286C305.864 183.515 306.373 183.634 306.89 183.634C307.406 183.634 307.916 183.515 308.379 183.286C308.559 183.227 308.714 183.108 308.819 182.95C308.933 182.8 308.994 182.617 308.993 182.429C308.996 182.237 308.934 182.049 308.819 181.896C308.711 181.743 308.556 181.63 308.379 181.571C307.918 181.335 307.407 181.212 306.89 181.212C306.372 181.212 305.861 181.335 305.4 181.571C305.223 181.63 305.069 181.743 304.96 181.896C304.845 182.049 304.784 182.237 304.786 182.429C304.785 182.617 304.846 182.8 304.96 182.95C305.065 183.108 305.22 183.227 305.4 183.286V183.286Z" fill="#2A49F9"/>
<path d="M361.027 167.062C361.49 167.291 362 167.41 362.517 167.41C363.033 167.41 363.543 167.291 364.006 167.062C364.186 167.002 364.341 166.884 364.446 166.726C364.56 166.576 364.621 166.392 364.62 166.204C364.622 166.012 364.561 165.825 364.446 165.671C364.338 165.519 364.183 165.405 364.006 165.347C363.545 165.111 363.034 164.988 362.517 164.988C361.999 164.988 361.488 165.111 361.027 165.347C360.85 165.405 360.696 165.519 360.587 165.671C360.472 165.825 360.411 166.012 360.413 166.204C360.412 166.392 360.473 166.576 360.587 166.726C360.692 166.884 360.847 167.002 361.027 167.062Z" fill="#2A49F9"/>
<path d="M362.187 175.174C362.65 175.403 363.159 175.522 363.676 175.522C364.192 175.522 364.702 175.403 365.165 175.174C365.345 175.115 365.5 174.996 365.605 174.838C365.719 174.688 365.78 174.505 365.779 174.316C365.782 174.124 365.721 173.937 365.605 173.783C365.497 173.631 365.342 173.518 365.165 173.459C364.704 173.223 364.194 173.1 363.676 173.1C363.158 173.1 362.648 173.223 362.187 173.459C362.009 173.518 361.855 173.631 361.746 173.783C361.631 173.937 361.57 174.124 361.572 174.316C361.571 174.505 361.633 174.688 361.746 174.838C361.851 174.996 362.006 175.115 362.187 175.174V175.174Z" fill="#2A49F9"/>
<path d="M434.037 191.398C434.5 191.627 435.01 191.746 435.526 191.746C436.043 191.746 436.552 191.627 437.016 191.398C437.196 191.339 437.351 191.221 437.456 191.062C437.569 190.912 437.631 190.729 437.63 190.541C437.632 190.349 437.571 190.161 437.456 190.008C437.347 189.856 437.193 189.742 437.016 189.683C436.555 189.447 436.044 189.324 435.526 189.324C435.008 189.324 434.498 189.447 434.037 189.683C433.86 189.742 433.705 189.856 433.597 190.008C433.482 190.161 433.42 190.349 433.423 190.541C433.422 190.729 433.483 190.912 433.597 191.062C433.702 191.221 433.857 191.339 434.037 191.398V191.398Z" fill="#2A49F9"/>
<path d="M258.431 222.271L294.808 201.272L332.078 197.436L361.583 214.472" stroke="#2A49F9" stroke-width="0.53" stroke-miterlimit="10"/>
<path d="M330.282 205.548L358.942 222.097" stroke="#2A49F9" stroke-width="0.53" stroke-miterlimit="10"/>
<path d="M332.716 198.352C332.255 198.588 331.744 198.711 331.227 198.711C330.709 198.711 330.198 198.588 329.737 198.352C329.557 198.292 329.402 198.174 329.297 198.016C329.183 197.866 329.122 197.682 329.123 197.494C329.121 197.302 329.182 197.115 329.297 196.961C329.406 196.809 329.56 196.695 329.737 196.637C330.198 196.401 330.709 196.278 331.227 196.278C331.744 196.278 332.255 196.401 332.716 196.637C333.539 197.123 333.539 197.877 332.716 198.352Z" fill="#2A49F9"/>
<path d="M332.716 206.464C332.253 206.693 331.743 206.812 331.227 206.812C330.71 206.812 330.2 206.693 329.737 206.464C329.557 206.404 329.402 206.286 329.297 206.128C329.183 205.978 329.122 205.795 329.123 205.606C329.121 205.414 329.182 205.227 329.297 205.073C329.406 204.921 329.56 204.807 329.737 204.749C330.198 204.513 330.709 204.39 331.227 204.39C331.744 204.39 332.255 204.513 332.716 204.749C332.893 204.807 333.047 204.921 333.156 205.073C333.271 205.227 333.332 205.414 333.33 205.606C333.331 205.795 333.27 205.978 333.156 206.128C333.051 206.286 332.896 206.404 332.716 206.464Z" fill="#2A49F9"/>
<path d="M259.694 223.859C259.231 224.088 258.722 224.207 258.205 224.207C257.689 224.207 257.179 224.088 256.716 223.859C256.542 223.789 256.389 223.672 256.276 223.523C256.169 223.366 256.112 223.18 256.113 222.99C256.114 222.803 256.17 222.622 256.276 222.468C256.383 222.312 256.537 222.195 256.716 222.132C257.177 221.896 257.687 221.773 258.205 221.773C258.723 221.773 259.233 221.896 259.694 222.132C259.875 222.192 260.03 222.31 260.135 222.468C260.247 222.621 260.307 222.806 260.307 222.995C260.307 223.185 260.247 223.37 260.135 223.523C260.024 223.675 259.871 223.792 259.694 223.859Z" fill="#2A49F9"/>
<path d="M261.907 243.131L298.273 222.132L335.554 218.296L365.048 235.332" stroke="#2A49F9" stroke-width="0.53" stroke-miterlimit="10"/>
<path d="M334.917 226.408L363.576 242.957" stroke="#2A49F9" stroke-width="0.53" stroke-miterlimit="10"/>
<path d="M337.363 219.212C336.898 219.441 336.386 219.56 335.868 219.56C335.35 219.56 334.838 219.441 334.373 219.212C334.193 219.152 334.038 219.034 333.933 218.876C333.819 218.726 333.758 218.542 333.759 218.354C333.756 218.162 333.817 217.975 333.933 217.821C334.041 217.669 334.196 217.555 334.373 217.497C334.836 217.261 335.348 217.137 335.868 217.137C336.388 217.137 336.9 217.261 337.363 217.497C337.54 217.555 337.695 217.669 337.803 217.821C337.919 217.975 337.98 218.162 337.977 218.354C337.978 218.542 337.917 218.726 337.803 218.876C337.698 219.034 337.543 219.152 337.363 219.212Z" fill="#2A49F9"/>
<path d="M336.192 227.324C335.729 227.553 335.22 227.672 334.703 227.672C334.187 227.672 333.677 227.553 333.214 227.324C333.034 227.264 332.878 227.146 332.774 226.988C332.66 226.838 332.599 226.655 332.6 226.466C332.597 226.274 332.658 226.087 332.774 225.933C332.882 225.781 333.036 225.667 333.214 225.609C333.675 225.373 334.185 225.25 334.703 225.25C335.221 225.25 335.731 225.373 336.192 225.609C336.37 225.667 336.524 225.781 336.633 225.933C336.748 226.087 336.809 226.274 336.806 226.466C336.807 226.655 336.746 226.838 336.633 226.988C336.528 227.146 336.373 227.264 336.192 227.324Z" fill="#2A49F9"/>
<path d="M264.342 244.707C263.881 244.943 263.37 245.066 262.852 245.066C262.335 245.066 261.824 244.943 261.363 244.707C261.183 244.648 261.028 244.529 260.923 244.371C260.809 244.221 260.748 244.038 260.749 243.85C260.747 243.658 260.808 243.47 260.923 243.317C261.032 243.164 261.186 243.051 261.363 242.992C261.824 242.756 262.335 242.633 262.852 242.633C263.37 242.633 263.881 242.756 264.342 242.992C264.519 243.051 264.673 243.164 264.782 243.317C264.897 243.47 264.958 243.658 264.956 243.85C264.957 244.038 264.896 244.221 264.782 244.371C264.677 244.529 264.522 244.648 264.342 244.707V244.707Z" fill="#2A49F9"/>
</g>
<g opacity="0.7">
<path d="M71.8506 123.267L108.228 144.266L145.498 148.102L175.003 131.078L201.147 132.121L223.792 145.217" stroke="#2A49F9" stroke-width="0.53" stroke-miterlimit="10"/>
<path d="M144.86 139.816L173.52 123.267L204.207 124.507L243.482 147.187" stroke="#2A49F9" stroke-width="0.53" stroke-miterlimit="10"/>
<path d="M226.087 144.487C225.626 144.251 225.115 144.128 224.598 144.128C224.08 144.128 223.569 144.251 223.109 144.487C222.93 144.549 222.776 144.667 222.668 144.823C222.563 144.976 222.506 145.158 222.506 145.344C222.505 145.534 222.561 145.72 222.668 145.877C222.782 146.027 222.934 146.143 223.109 146.213C223.572 146.442 224.081 146.561 224.598 146.561C225.114 146.561 225.624 146.442 226.087 146.213C226.263 146.146 226.416 146.03 226.527 145.877C226.639 145.724 226.7 145.54 226.7 145.35C226.7 145.16 226.639 144.976 226.527 144.823C226.422 144.665 226.267 144.546 226.087 144.487V144.487Z" fill="#2A49F9"/>
<path d="M244.641 146.804C244.18 146.568 243.669 146.445 243.151 146.445C242.633 146.445 242.123 146.568 241.662 146.804C241.485 146.863 241.33 146.977 241.222 147.129C241.107 147.283 241.045 147.47 241.048 147.662C241.047 147.85 241.108 148.033 241.222 148.184C241.327 148.342 241.482 148.46 241.662 148.52C242.125 148.748 242.635 148.868 243.151 148.868C243.668 148.868 244.177 148.748 244.641 148.52C244.821 148.46 244.976 148.342 245.081 148.184C245.194 148.033 245.256 147.85 245.255 147.662C245.257 147.47 245.196 147.283 245.081 147.129C244.972 146.977 244.818 146.863 244.641 146.804V146.804Z" fill="#2A49F9"/>
<path d="M205.239 123.627C204.778 123.391 204.268 123.268 203.75 123.268C203.232 123.268 202.722 123.391 202.261 123.627C202.083 123.686 201.929 123.799 201.82 123.951C201.705 124.105 201.644 124.292 201.647 124.484C201.646 124.673 201.707 124.856 201.82 125.006C201.925 125.164 202.08 125.283 202.261 125.342C202.724 125.571 203.233 125.69 203.75 125.69C204.266 125.69 204.776 125.571 205.239 125.342C205.419 125.283 205.575 125.164 205.68 125.006C205.793 124.856 205.854 124.673 205.853 124.484C205.856 124.292 205.795 124.105 205.68 123.951C205.571 123.799 205.417 123.686 205.239 123.627V123.627Z" fill="#2A49F9"/>
<path d="M202.921 130.58C202.46 130.344 201.949 130.221 201.432 130.221C200.914 130.221 200.403 130.344 199.942 130.58C199.765 130.639 199.611 130.752 199.502 130.905C199.387 131.058 199.326 131.246 199.328 131.438C199.327 131.626 199.388 131.809 199.502 131.959C199.607 132.117 199.762 132.236 199.942 132.295C200.405 132.524 200.915 132.643 201.432 132.643C201.948 132.643 202.458 132.524 202.921 132.295C203.101 132.236 203.256 132.117 203.361 131.959C203.475 131.809 203.536 131.626 203.535 131.438C203.537 131.246 203.476 131.058 203.361 130.905C203.253 130.752 203.098 130.639 202.921 130.58Z" fill="#2A49F9"/>
<path d="M147.295 146.804C146.834 146.568 146.323 146.445 145.806 146.445C145.288 146.445 144.777 146.568 144.316 146.804C144.139 146.863 143.985 146.977 143.876 147.129C143.761 147.283 143.7 147.47 143.702 147.662C143.701 147.85 143.762 148.033 143.876 148.184C143.981 148.342 144.136 148.46 144.316 148.52C144.78 148.748 145.289 148.868 145.806 148.868C146.322 148.868 146.832 148.748 147.295 148.52C147.475 148.46 147.63 148.342 147.735 148.184C147.849 148.033 147.91 147.85 147.909 147.662C147.912 147.47 147.85 147.283 147.735 147.129C147.627 146.977 147.472 146.863 147.295 146.804V146.804Z" fill="#2A49F9"/>
<path d="M146.136 138.692C145.675 138.456 145.164 138.333 144.646 138.333C144.129 138.333 143.618 138.456 143.157 138.692C142.98 138.751 142.826 138.865 142.717 139.017C142.602 139.17 142.541 139.358 142.543 139.55C142.542 139.738 142.603 139.921 142.717 140.071C142.822 140.23 142.977 140.348 143.157 140.407C143.62 140.636 144.13 140.755 144.646 140.755C145.163 140.755 145.673 140.636 146.136 140.407C146.316 140.348 146.471 140.23 146.576 140.071C146.69 139.921 146.751 139.738 146.75 139.55C146.752 139.358 146.691 139.17 146.576 139.017C146.467 138.865 146.313 138.751 146.136 138.692V138.692Z" fill="#2A49F9"/>
<path d="M74.285 121.309C73.8241 121.073 73.3137 120.95 72.7958 120.95C72.278 120.95 71.7676 121.073 71.3067 121.309C71.1292 121.368 70.975 121.481 70.8663 121.633C70.7511 121.787 70.6899 121.975 70.6925 122.167C70.6916 122.355 70.7527 122.538 70.8663 122.688C70.9712 122.846 71.1264 122.965 71.3067 123.024C71.7698 123.253 72.2793 123.372 72.7958 123.372C73.3124 123.372 73.822 123.253 74.285 123.024C74.4654 122.965 74.6205 122.846 74.7254 122.688C74.839 122.538 74.9001 122.355 74.8992 122.167C74.9018 121.975 74.8406 121.787 74.7254 121.633C74.6168 121.481 74.4625 121.368 74.285 121.309V121.309Z" fill="#2A49F9"/>
<path d="M303.744 93.1365L267.379 114.135L230.097 117.995L200.604 100.947L174.459 101.99L151.814 115.086" stroke="#2A49F9" stroke-width="0.53" stroke-miterlimit="10"/>
<path d="M231.905 110.833L203.246 94.2953L172.547 95.5237L133.261 118.203" stroke="#2A49F9" stroke-width="0.53" stroke-miterlimit="10"/>
<path d="M150.11 114.356C150.571 114.12 151.082 113.997 151.6 113.997C152.117 113.997 152.628 114.12 153.089 114.356C153.266 114.414 153.421 114.528 153.529 114.68C153.644 114.834 153.705 115.021 153.703 115.213C153.704 115.401 153.643 115.585 153.529 115.735C153.424 115.893 153.269 116.011 153.089 116.071C152.626 116.3 152.116 116.419 151.6 116.419C151.083 116.419 150.573 116.3 150.11 116.071C149.93 116.011 149.775 115.893 149.67 115.735C149.556 115.585 149.495 115.401 149.496 115.213C149.494 115.021 149.555 114.834 149.67 114.68C149.779 114.528 149.933 114.414 150.11 114.356V114.356Z" fill="#2A49F9"/>
<path d="M131.568 116.673C132.029 116.437 132.54 116.314 133.058 116.314C133.575 116.314 134.086 116.437 134.547 116.673C134.724 116.732 134.879 116.846 134.987 116.998C135.102 117.152 135.163 117.339 135.161 117.531C135.162 117.719 135.101 117.902 134.987 118.053C134.882 118.211 134.727 118.329 134.547 118.389C134.084 118.617 133.574 118.737 133.058 118.737C132.541 118.737 132.031 118.617 131.568 118.389C131.388 118.329 131.233 118.211 131.128 118.053C131.014 117.902 130.953 117.719 130.954 117.531C130.952 117.339 131.013 117.152 131.128 116.998C131.237 116.846 131.391 116.732 131.568 116.673V116.673Z" fill="#2A49F9"/>
<path d="M170.971 94.6547C171.432 94.4187 171.942 94.2957 172.46 94.2957C172.978 94.2957 173.488 94.4187 173.949 94.6547C174.127 94.7133 174.281 94.827 174.389 94.9791C174.505 95.1328 174.566 95.3202 174.563 95.5122C174.564 95.7004 174.503 95.8837 174.389 96.0337C174.285 96.192 174.129 96.3104 173.949 96.3698C173.486 96.5987 172.976 96.7177 172.46 96.7177C171.943 96.7177 171.434 96.5987 170.971 96.3698C170.79 96.3104 170.635 96.192 170.53 96.0337C170.417 95.8837 170.356 95.7004 170.357 95.5122C170.354 95.3202 170.415 95.1328 170.53 94.9791C170.639 94.827 170.793 94.7133 170.971 94.6547V94.6547Z" fill="#2A49F9"/>
<path d="M173.288 101.608C173.749 101.372 174.259 101.249 174.777 101.249C175.295 101.249 175.806 101.372 176.266 101.608C176.444 101.667 176.598 101.78 176.707 101.932C176.822 102.086 176.883 102.273 176.881 102.465C176.882 102.654 176.82 102.837 176.707 102.987C176.602 103.145 176.447 103.264 176.266 103.323C175.806 103.559 175.295 103.682 174.777 103.682C174.259 103.682 173.749 103.559 173.288 103.323C173.108 103.264 172.953 103.145 172.848 102.987C172.734 102.837 172.673 102.654 172.674 102.465C172.671 102.273 172.733 102.086 172.848 101.932C172.956 101.78 173.111 101.667 173.288 101.608V101.608Z" fill="#2A49F9"/>
<path d="M228.915 116.673C229.376 116.437 229.886 116.314 230.404 116.314C230.922 116.314 231.433 116.437 231.893 116.673C232.071 116.732 232.225 116.846 232.334 116.998C232.449 117.152 232.51 117.339 232.508 117.531C232.508 117.719 232.447 117.902 232.334 118.053C232.229 118.211 232.074 118.329 231.893 118.389C231.43 118.617 230.921 118.737 230.404 118.737C229.888 118.737 229.378 118.617 228.915 118.389C228.735 118.329 228.58 118.211 228.475 118.053C228.361 117.902 228.3 117.719 228.301 117.531C228.298 117.339 228.359 117.152 228.475 116.998C228.583 116.846 228.738 116.732 228.915 116.673V116.673Z" fill="#2A49F9"/>
<path d="M230.073 109.72C230.534 109.484 231.045 109.361 231.562 109.361C232.08 109.361 232.591 109.484 233.052 109.72C233.229 109.779 233.383 109.892 233.492 110.045C233.607 110.198 233.668 110.386 233.666 110.578C233.667 110.766 233.606 110.949 233.492 111.099C233.387 111.257 233.232 111.376 233.052 111.435C232.591 111.671 232.08 111.794 231.562 111.794C231.045 111.794 230.534 111.671 230.073 111.435C229.893 111.376 229.738 111.257 229.633 111.099C229.519 110.949 229.458 110.766 229.459 110.578C229.457 110.386 229.518 110.198 229.633 110.045C229.742 109.892 229.896 109.779 230.073 109.72V109.72Z" fill="#2A49F9"/>
<path d="M303.083 92.3369C303.544 92.101 304.054 91.9779 304.572 91.9779C305.09 91.9779 305.6 92.101 306.061 92.3369C306.239 92.3956 306.393 92.5092 306.502 92.6614C306.617 92.815 306.678 93.0025 306.676 93.1945C306.676 93.3827 306.615 93.5659 306.502 93.716C306.397 93.8743 306.242 93.9926 306.061 94.0521C305.598 94.2809 305.089 94.4 304.572 94.4C304.056 94.4 303.546 94.2809 303.083 94.0521C302.903 93.9926 302.748 93.8743 302.643 93.716C302.529 93.5659 302.468 93.3827 302.469 93.1945C302.466 93.0025 302.527 92.815 302.643 92.6614C302.751 92.5092 302.906 92.3956 303.083 92.3369V92.3369Z" fill="#2A49F9"/>
<path d="M173.96 144.127L137.583 165.126L100.313 168.962L70.8193 151.927L44.6632 152.981L22.0186 166.077" stroke="#2A49F9" stroke-width="0.53" stroke-miterlimit="10"/>
<path d="M100.928 161.835L72.2686 145.286L41.5929 146.515L2.30664 169.206" stroke="#2A49F9" stroke-width="0.53" stroke-miterlimit="10"/>
<path d="M20.2809 165.347C20.7398 165.111 21.2483 164.988 21.7643 164.988C22.2802 164.988 22.7888 165.111 23.2476 165.347C23.4283 165.405 23.5862 165.519 23.6996 165.671C23.8116 165.824 23.872 166.009 23.872 166.198C23.872 166.388 23.8116 166.573 23.6996 166.726C23.5904 166.885 23.4314 167.003 23.2476 167.062C22.7888 167.298 22.2802 167.421 21.7643 167.421C21.2483 167.421 20.7398 167.298 20.2809 167.062C20.1108 166.992 19.9654 166.873 19.863 166.72C19.7607 166.568 19.7061 166.388 19.7061 166.204C19.7061 166.02 19.7607 165.841 19.863 165.688C19.9654 165.535 20.1108 165.416 20.2809 165.347Z" fill="#2A49F9"/>
<path d="M0.614319 167.664C1.07526 167.428 1.58563 167.305 2.10346 167.305C2.62128 167.305 3.13169 167.428 3.59263 167.664C3.77014 167.723 3.92438 167.837 4.03301 167.989C4.14826 168.143 4.20937 168.33 4.20684 168.522C4.20768 168.71 4.14661 168.893 4.03301 169.044C3.9281 169.202 3.77298 169.32 3.59263 169.38C3.12957 169.608 2.61999 169.728 2.10346 169.728C1.58692 169.728 1.07737 169.608 0.614319 169.38C0.433969 169.32 0.278852 169.202 0.173937 169.044C0.0603396 168.893 -0.000772451 168.71 7.59335e-05 168.522C-0.0024622 168.33 0.0586926 168.143 0.173937 167.989C0.282569 167.837 0.436808 167.723 0.614319 167.664V167.664Z" fill="#2A49F9"/>
<path d="M41.5115 147.72C42.6704 147.72 43.6207 147.175 43.6207 146.561C43.6207 145.947 42.6704 145.344 41.5115 145.344C40.3526 145.344 39.4023 145.889 39.4023 146.561C39.4023 147.233 40.341 147.72 41.5115 147.72Z" fill="#2A49F9"/>
<path d="M42.334 152.599C42.795 152.363 43.3054 152.24 43.8232 152.24C44.341 152.24 44.8514 152.363 45.3124 152.599C45.4899 152.658 45.6441 152.771 45.7527 152.923C45.868 153.077 45.9291 153.264 45.9266 153.456C45.9274 153.645 45.8663 153.828 45.7527 153.978C45.6478 154.136 45.4927 154.255 45.3124 154.314C44.8493 154.543 44.3397 154.662 43.8232 154.662C43.3067 154.662 42.7971 154.543 42.334 154.314C42.1537 154.255 41.9986 154.136 41.8937 153.978C41.7801 153.828 41.719 153.645 41.7198 153.456C41.7173 153.264 41.7784 153.077 41.8937 152.923C42.0023 152.771 42.1565 152.658 42.334 152.599V152.599Z" fill="#2A49F9"/>
<path d="M97.961 167.664C98.4219 167.428 98.9323 167.305 99.4501 167.305C99.968 167.305 100.478 167.428 100.939 167.664C101.117 167.723 101.271 167.837 101.38 167.989C101.495 168.143 101.556 168.33 101.554 168.522C101.554 168.71 101.493 168.893 101.38 169.044C101.275 169.202 101.12 169.32 100.939 169.38C100.476 169.608 99.9667 169.728 99.4501 169.728C98.9336 169.728 98.4241 169.608 97.961 169.38C97.7806 169.32 97.6255 169.202 97.5206 169.044C97.407 168.893 97.3459 168.71 97.3468 168.522C97.3442 168.33 97.4054 168.143 97.5206 167.989C97.6292 167.837 97.7835 167.723 97.961 167.664V167.664Z" fill="#2A49F9"/>
<path d="M99.1192 160.711C99.5801 160.475 100.091 160.352 100.608 160.352C101.126 160.352 101.637 160.475 102.098 160.711C102.275 160.77 102.429 160.883 102.538 161.036C102.653 161.189 102.714 161.377 102.712 161.569C102.713 161.757 102.651 161.94 102.538 162.09C102.433 162.248 102.278 162.367 102.098 162.426C101.634 162.655 101.125 162.774 100.608 162.774C100.092 162.774 99.5823 162.655 99.1192 162.426C98.9389 162.367 98.7837 162.248 98.6788 162.09C98.5652 161.94 98.5041 161.757 98.505 161.569C98.5024 161.377 98.5636 161.189 98.6788 161.036C98.7875 160.883 98.9417 160.77 99.1192 160.711V160.711Z" fill="#2A49F9"/>
<path d="M172.129 143.328C172.59 143.092 173.1 142.969 173.618 142.969C174.136 142.969 174.646 143.092 175.107 143.328C175.285 143.387 175.439 143.5 175.548 143.652C175.663 143.806 175.724 143.993 175.721 144.185C175.722 144.374 175.661 144.557 175.548 144.707C175.443 144.865 175.288 144.984 175.107 145.043C174.644 145.272 174.135 145.391 173.618 145.391C173.102 145.391 172.592 145.272 172.129 145.043C171.949 144.984 171.794 144.865 171.689 144.707C171.575 144.557 171.514 144.374 171.515 144.185C171.512 143.993 171.573 143.806 171.689 143.652C171.797 143.5 171.951 143.387 172.129 143.328V143.328Z" fill="#2A49F9"/>
</g>
<path opacity="0.6" d="M338.267 168.974L168.85 266.796C166.5 268.155 163.834 268.87 161.12 268.87C158.406 268.87 155.74 268.155 153.39 266.796L92.7689 231.797L83.1849 237.337C82.2607 237.869 81.493 238.636 80.9593 239.56C80.4255 240.483 80.1445 241.531 80.1445 242.598C80.1445 243.665 80.4255 244.713 80.9593 245.636C81.493 246.56 82.2607 247.327 83.1849 247.859L153.39 288.42C155.74 289.78 158.406 290.495 161.12 290.495C163.834 290.495 166.5 289.78 168.85 288.42L347.874 185.036C348.798 184.502 349.566 183.734 350.099 182.81C350.632 181.885 350.913 180.836 350.913 179.769C350.913 178.702 350.632 177.653 350.099 176.729C349.566 175.804 348.798 175.036 347.874 174.502L338.267 168.974Z" fill="url(#paint0_radial_633_1101)"/>
<path d="M338.985 147.766L276.95 111.957C274.82 110.721 272.401 110.071 269.939 110.071C267.477 110.071 265.058 110.721 262.928 111.957L92.0732 210.601H80.1367V221.031V221.263C80.1716 222.291 80.469 223.292 81.0004 224.173C81.5319 225.053 82.2798 225.783 83.173 226.292L153.378 266.853C155.729 268.209 158.395 268.923 161.108 268.923C163.822 268.923 166.487 268.209 168.838 266.853L347.862 163.492C348.756 162.983 349.504 162.253 350.035 161.373C350.567 160.492 350.864 159.491 350.899 158.463V158.463V147.824H338.962" fill="url(#paint1_linear_633_1101)"/>
<path d="M83.1854 205.328L262.94 101.55C265.072 100.32 267.49 99.6732 269.951 99.6732C272.413 99.6732 274.831 100.32 276.963 101.55L347.886 142.505C348.811 143.038 349.578 143.805 350.112 144.728C350.646 145.652 350.927 146.7 350.927 147.766C350.927 148.833 350.646 149.881 350.112 150.805C349.578 151.728 348.811 152.495 347.886 153.028L168.862 256.4C166.511 257.756 163.846 258.47 161.132 258.47C158.419 258.47 155.753 257.756 153.402 256.4L83.197 215.839C82.273 215.305 81.5058 214.537 80.9724 213.613C80.439 212.688 80.1582 211.64 80.1582 210.572C80.1582 209.505 80.439 208.456 80.9724 207.532C81.5058 206.607 82.273 205.839 83.197 205.305" fill="url(#paint2_linear_633_1101)"/>
<path d="M161.572 257.327C159.08 257.329 156.633 256.669 154.479 255.415L84.8419 214.854C84.0971 214.415 83.4797 213.789 83.0508 213.038C82.6219 212.287 82.3963 211.437 82.3963 210.572C82.3963 209.707 82.6219 208.858 83.0508 208.107C83.4797 207.356 84.0971 206.73 84.8419 206.29L263.102 102.512C265.04 101.393 267.238 100.804 269.476 100.804C271.713 100.804 273.912 101.393 275.849 102.512L346.194 143.467C346.939 143.905 347.557 144.53 347.986 145.28C348.415 146.03 348.641 146.879 348.641 147.743C348.641 148.607 348.415 149.457 347.986 150.207C347.557 150.957 346.939 151.582 346.194 152.02L168.676 255.381C166.518 256.635 164.067 257.294 161.572 257.293V257.327ZM269.487 98.5254C266.847 98.5268 264.253 99.2222 261.966 100.542L83.7178 204.39L84.0075 204.9L84.2856 205.375L84.0075 204.9L83.7178 204.39C82.6225 205.025 81.7144 205.938 81.0855 207.037C80.4567 208.136 80.1294 209.381 80.1369 210.648V210.648C80.1291 211.912 80.4563 213.156 81.0853 214.253C81.7143 215.351 82.6226 216.262 83.7178 216.894L153.344 257.455C155.843 258.905 158.682 259.669 161.572 259.669C164.462 259.669 167.3 258.905 169.8 257.455L347.341 154.082C348.435 153.454 349.342 152.547 349.971 151.454C350.6 150.361 350.928 149.12 350.922 147.859V147.859C350.927 146.598 350.598 145.358 349.969 144.265C349.34 143.173 348.434 142.265 347.341 141.636L277.008 100.681C274.721 99.3613 272.128 98.6659 269.487 98.6645" fill="url(#paint3_linear_633_1101)"/>
<path d="M103.465 200.032L249.288 115.827C250.633 115.052 252.157 114.645 253.709 114.645C255.261 114.645 256.786 115.052 258.13 115.827L326.991 155.496C327.2 155.619 327.374 155.794 327.494 156.004C327.615 156.215 327.678 156.453 327.678 156.695C327.678 156.938 327.615 157.176 327.494 157.387C327.374 157.597 327.2 157.772 326.991 157.895L181.899 242.633C180.55 243.415 179.019 243.827 177.46 243.827C175.901 243.827 174.37 243.415 173.022 242.633L103.489 202.466C103.276 202.345 103.1 202.171 102.977 201.96C102.855 201.75 102.79 201.51 102.79 201.266C102.79 201.022 102.855 200.783 102.977 200.572C103.1 200.362 103.276 200.187 103.489 200.067" fill="#171C51"/>
<path opacity="0.8" d="M302.724 141.509L117.928 210.787L173.021 242.633H173.114C174.417 243.35 175.88 243.724 177.367 243.722V243.722C178.927 243.736 180.462 243.336 181.817 242.563V242.563L326.921 157.884C327.125 157.765 327.294 157.596 327.414 157.393C327.534 157.19 327.599 156.96 327.605 156.725C327.599 156.488 327.532 156.257 327.41 156.053C327.288 155.85 327.116 155.682 326.91 155.566V155.566L302.643 141.578" fill="#252D5F"/>
<path d="M316.341 178.593L287.369 195.315C287.041 195.505 286.67 195.604 286.292 195.604C285.913 195.604 285.542 195.505 285.214 195.316C284.886 195.127 284.614 194.855 284.425 194.527C284.236 194.199 284.136 193.828 284.136 193.45C284.135 193.071 284.234 192.699 284.423 192.371C284.613 192.044 284.885 191.772 285.214 191.584L314.186 174.861C314.512 174.671 314.884 174.571 315.262 174.57C315.64 174.57 316.011 174.67 316.338 174.859C316.665 175.049 316.936 175.321 317.124 175.649C317.312 175.977 317.41 176.349 317.407 176.727V176.727C317.411 177.104 317.314 177.476 317.127 177.804C316.939 178.132 316.668 178.404 316.341 178.593V178.593Z" fill="#AECADC"/>
<path opacity="0.8" d="M350.123 95.9062L291.645 62.1363C291.051 61.8331 290.394 61.675 289.727 61.675C289.061 61.675 288.403 61.8331 287.809 62.1363L110.5 164.524C110.272 164.624 110.077 164.786 109.936 164.99C109.795 165.195 109.713 165.435 109.7 165.683V173.285C109.713 173.533 109.795 173.773 109.936 173.977C110.077 174.182 110.272 174.344 110.5 174.444L168.966 208.202C169.562 208.505 170.221 208.664 170.889 208.664C171.558 208.664 172.217 208.505 172.813 208.202L350.123 105.826C350.332 105.728 350.514 105.579 350.652 105.393C350.79 105.207 350.878 104.989 350.911 104.76V104.76V97.1578C350.922 96.8938 350.853 96.6324 350.712 96.4088C350.572 96.1851 350.366 96.0098 350.123 95.9062V95.9062Z" fill="#171C51"/>
<g opacity="0.8">
<path d="M287.519 62.1364L110.488 164.35C110.252 164.423 110.045 164.57 109.899 164.77C109.752 164.969 109.673 165.21 109.673 165.457C109.673 165.704 109.752 165.945 109.899 166.144C110.045 166.343 110.252 166.49 110.488 166.564L168.873 200.276C169.468 200.573 170.125 200.727 170.791 200.727C171.456 200.727 172.113 200.573 172.709 200.276L349.728 98.0619C349.965 97.9885 350.171 97.8415 350.318 97.6424C350.464 97.4433 350.543 97.2024 350.543 96.9551C350.543 96.7078 350.464 96.467 350.318 96.2679C350.171 96.0687 349.965 95.9217 349.728 95.8484L291.344 62.1364C290.752 61.8333 290.096 61.6753 289.432 61.6753C288.767 61.6753 288.111 61.8333 287.519 62.1364V62.1364Z" fill="#171C51"/>
</g>
<path d="M312.772 74.3394L350.181 95.9294C350.422 95.9996 350.633 96.146 350.783 96.3466C350.934 96.5472 351.015 96.7912 351.015 97.0419C351.015 97.2927 350.934 97.5367 350.783 97.7373C350.633 97.9379 350.422 98.0842 350.181 98.1545L173.103 200.357C172.509 200.66 171.852 200.818 171.185 200.818C170.518 200.818 169.861 200.66 169.267 200.357L166.034 198.491C160.355 183.02 164.875 174.722 172.558 170.11C185.434 162.357 202.689 167.143 216.793 158.926C233.319 149.331 219.864 136.803 236.923 126.941C250.563 119.049 263.67 124.693 275.873 117.149C292.26 107.032 277.299 91.6531 295.76 80.4235C301.045 77.4464 306.798 75.389 312.772 74.3394Z" fill="url(#paint4_linear_633_1101)"/>
<path d="M185.318 193.311L184.924 193.531L162.43 180.54L162.812 180.32L185.318 193.311Z" fill="#F4F6FA"/>
<path d="M173.16 184.468L169.603 186.519L157.666 179.624L161.224 177.573L173.16 184.468Z" fill="#6F4AAB"/>
<path d="M199.224 185.28L198.842 185.5L170.89 169.368L171.272 169.148L199.224 185.28Z" fill="#F4F6FA"/>
<path d="M180.462 172.613L176.904 174.664L164.968 167.769L168.526 165.718L180.462 172.613Z" fill="url(#paint5_linear_633_1101)"/>
<path d="M213.131 177.248L212.749 177.469L190.579 164.663L190.962 164.443L213.131 177.248Z" fill="#F4F6FA"/>
<path d="M200.603 168.174L197.045 170.226L185.108 163.33L188.655 161.291L200.603 168.174Z" fill="#6F4AAB"/>
<path d="M227.049 169.217L226.667 169.437L211.833 160.873L212.215 160.653L227.049 169.217Z" fill="#F4F6FA"/>
<path d="M222.83 164.953L219.284 167.004L207.348 160.109L210.894 158.057L222.83 164.953Z" fill="#6F4AAB"/>
<path d="M240.955 161.186L240.573 161.407L223.456 151.521L223.838 151.301L240.955 161.186Z" fill="#F4F6FA"/>
<path d="M234.211 155.45L230.653 157.501L218.717 150.617L222.275 148.566L234.211 155.45Z" fill="#6F4AAB"/>
<path d="M254.873 153.144L254.491 153.376L226.771 137.371L227.153 137.151L254.873 153.144Z" fill="#F4F6FA"/>
<path d="M236.748 140.86L233.202 142.911L221.254 136.015L224.812 133.964L236.748 140.86Z" fill="#6F4AAB"/>
<path d="M268.78 145.112L268.398 145.333L235.647 126.431L236.03 126.211L268.78 145.112Z" fill="#F4F6FA"/>
<path d="M244.688 129.375L241.142 131.426L229.205 124.531L232.751 122.479L244.688 129.375Z" fill="url(#paint6_linear_633_1101)"/>
<path d="M282.699 137.081L282.305 137.302L255.222 121.657L255.604 121.437L282.699 137.081Z" fill="#F4F6FA"/>
<path d="M264.573 124.797L261.016 126.837L249.079 119.953L252.637 117.902L264.573 124.797Z" fill="#6F4AAB"/>
<path d="M296.605 129.05L296.222 129.271L274.853 116.928L275.235 116.708L296.605 129.05Z" fill="#F4F6FA"/>
<path d="M285.144 120.602L281.598 122.653L269.661 115.758L273.207 113.718L285.144 120.602Z" fill="#6F4AAB"/>
<path d="M310.512 121.019L310.13 121.239L283.047 105.594L283.429 105.374L310.512 121.019Z" fill="#F4F6FA"/>
<path d="M293.349 109.28L289.791 111.331L277.854 104.436L281.412 102.385L293.349 109.28Z" fill="#6F4AAB"/>
<path d="M324.43 112.988L324.047 113.209L282.524 89.2312L282.907 89.011L324.43 112.988Z" fill="#F4F6FA"/>
<path d="M293.639 93.3798L290.093 95.431L278.156 88.5356L281.702 86.4844L293.639 93.3798Z" fill="#6F4AAB"/>
<path d="M338.337 104.957L337.954 105.177L295.122 80.4466L295.505 80.2148L338.337 104.957Z" fill="#F4F6FA"/>
<path d="M303.35 82.9269L299.804 84.9781L287.867 78.0827L291.413 76.0315L303.35 82.9269Z" fill="url(#paint7_linear_633_1101)"/>
<path d="M219.527 117.856L220.814 120.649C220.855 120.736 220.914 120.814 220.987 120.878C221.06 120.942 221.146 120.99 221.238 121.019C221.331 121.048 221.428 121.058 221.524 121.048C221.621 121.039 221.714 121.009 221.799 120.961L225.275 118.91C225.399 118.838 225.497 118.729 225.556 118.598C225.616 118.468 225.633 118.322 225.606 118.181C225.58 118.041 225.51 117.911 225.408 117.812C225.305 117.712 225.174 117.646 225.032 117.624L220.199 116.882C220.08 116.873 219.96 116.895 219.852 116.946C219.744 116.998 219.651 117.077 219.583 117.175C219.515 117.274 219.474 117.389 219.464 117.508C219.454 117.627 219.476 117.747 219.527 117.856V117.856Z" fill="#2EC6BA"/>
<path d="M247.468 105.2L231.869 114.217C231.33 114.487 230.734 114.627 230.131 114.627C229.527 114.627 228.932 114.487 228.393 114.217V114.217C228.187 114.142 228.009 114.006 227.883 113.826C227.757 113.647 227.689 113.433 227.689 113.214C227.689 112.995 227.757 112.781 227.883 112.602C228.009 112.423 228.187 112.286 228.393 112.212L244.003 103.207C244.54 102.929 245.136 102.783 245.741 102.783C246.346 102.783 246.942 102.929 247.479 103.207V103.207C248.43 103.752 248.43 104.644 247.468 105.2Z" fill="#F4F6FA"/>
<path d="M135.589 159.332L123.201 166.494C122.52 166.836 121.768 167.015 121.005 167.015C120.242 167.015 119.49 166.836 118.809 166.494V166.494C118.546 166.402 118.318 166.23 118.156 166.003C117.995 165.776 117.908 165.504 117.908 165.225C117.908 164.946 117.995 164.674 118.156 164.447C118.318 164.22 118.546 164.048 118.809 163.956L131.197 156.794C131.879 156.452 132.631 156.273 133.393 156.273C134.156 156.273 134.908 156.452 135.589 156.794V156.794C135.853 156.886 136.081 157.058 136.242 157.285C136.403 157.512 136.49 157.784 136.49 158.063C136.49 158.342 136.403 158.614 136.242 158.841C136.081 159.069 135.853 159.24 135.589 159.332Z" fill="#BCBECD"/>
<path d="M173.775 137.29L161.375 144.44C160.696 144.789 159.943 144.971 159.179 144.971C158.415 144.971 157.663 144.789 156.983 144.44C156.719 144.351 156.489 144.182 156.326 143.955C156.163 143.728 156.075 143.456 156.075 143.177C156.075 142.898 156.163 142.626 156.326 142.399C156.489 142.173 156.719 142.003 156.983 141.914L169.383 134.752C170.063 134.403 170.815 134.221 171.579 134.221C172.343 134.221 173.096 134.403 173.775 134.752V134.752C174.038 134.844 174.267 135.016 174.428 135.243C174.589 135.47 174.676 135.742 174.676 136.021C174.676 136.3 174.589 136.572 174.428 136.799C174.267 137.026 174.038 137.198 173.775 137.29V137.29Z" fill="#BCBECD"/>
<path d="M154.688 148.311L142.288 155.473C141.607 155.815 140.854 155.994 140.092 155.994C139.329 155.994 138.577 155.815 137.896 155.473V155.473C137.633 155.381 137.404 155.209 137.243 154.982C137.082 154.755 136.995 154.483 136.995 154.204C136.995 153.925 137.082 153.653 137.243 153.426C137.404 153.199 137.633 153.027 137.896 152.935L150.296 145.773C150.977 145.431 151.729 145.252 152.492 145.252C153.255 145.252 154.007 145.431 154.688 145.773V145.773C154.951 145.865 155.179 146.037 155.341 146.264C155.502 146.491 155.589 146.763 155.589 147.042C155.589 147.321 155.502 147.593 155.341 147.82C155.179 148.048 154.951 148.219 154.688 148.311Z" fill="url(#paint8_linear_633_1101)"/>
<path d="M247.468 105.2L231.869 114.217C231.33 114.487 230.734 114.627 230.131 114.627C229.527 114.627 228.932 114.487 228.393 114.217V114.217C228.187 114.142 228.009 114.006 227.883 113.826C227.757 113.647 227.689 113.433 227.689 113.214C227.689 112.995 227.757 112.781 227.883 112.602C228.009 112.423 228.187 112.286 228.393 112.212L244.003 103.207C244.54 102.929 245.136 102.783 245.741 102.783C246.346 102.783 246.942 102.929 247.479 103.207V103.207C248.43 103.752 248.43 104.644 247.468 105.2Z" fill="#F4F6FA"/>
<path d="M230.722 113.545C230.542 113.634 230.344 113.681 230.143 113.681C229.942 113.681 229.743 113.634 229.563 113.545C229.495 113.519 229.436 113.473 229.395 113.413C229.353 113.353 229.331 113.281 229.331 113.208C229.331 113.135 229.353 113.064 229.395 113.004C229.436 112.944 229.495 112.898 229.563 112.872L245.173 103.868C245.353 103.776 245.551 103.729 245.753 103.729C245.954 103.729 246.153 103.776 246.332 103.868C246.401 103.894 246.46 103.94 246.501 104C246.543 104.06 246.565 104.131 246.565 104.204C246.565 104.277 246.543 104.348 246.501 104.408C246.46 104.468 246.401 104.514 246.332 104.54L230.722 113.545Z" fill="#D2D6E3"/>
<path opacity="0.25" d="M349.786 48.6815L224.406 121.089C223.537 121.529 222.576 121.758 221.602 121.758C220.628 121.758 219.667 121.529 218.797 121.089L141.338 76.3672C139.785 75.4633 139.785 74.0495 141.338 73.1224L266.729 0.726762C267.598 0.286838 268.559 0.0576172 269.533 0.0576172C270.508 0.0576172 271.469 0.286838 272.338 0.726762L349.786 45.4482C351.339 46.3405 351.339 47.7891 349.786 48.6815Z" fill="#E2E5ED"/>
<path d="M350.934 46.9084C350.869 46.5911 350.73 46.2936 350.529 46.0399C350.327 45.7862 350.069 45.5835 349.775 45.4482L272.338 0.726762C271.469 0.286838 270.508 0.0576172 269.534 0.0576172C268.559 0.0576172 267.598 0.286838 266.729 0.726762L141.338 73.1224C141.018 73.2653 140.741 73.491 140.538 73.7762C140.334 74.0613 140.21 74.3957 140.179 74.7448V83.5755V83.9463C140.394 84.4913 140.808 84.9344 141.338 85.1864L218.797 129.908C219.665 130.353 220.627 130.585 221.602 130.585C222.577 130.585 223.539 130.353 224.407 129.908L349.786 57.5122C350.115 57.3719 350.398 57.1422 350.603 56.8493C350.808 56.5564 350.926 56.2119 350.945 55.855V55.855V46.9084H350.934Z" fill="url(#paint9_linear_633_1101)"/>
<path d="M349.787 48.6238L224.43 121.008C223.559 121.448 222.596 121.677 221.62 121.677C220.644 121.677 219.681 121.448 218.81 121.008L141.373 76.298C139.831 75.4057 139.831 73.9802 141.373 73.0531L266.741 0.669145C267.611 0.229221 268.571 0 269.546 0C270.52 0 271.481 0.229221 272.35 0.669145L349.787 45.379C351.34 46.2829 351.34 47.7315 349.787 48.6238Z" fill="url(#paint10_linear_633_1101)"/>
<path opacity="0.25" d="M283.962 13.8801L341.535 47.117C341.679 47.1668 341.803 47.26 341.89 47.3835C341.978 47.5071 342.026 47.6549 342.026 47.8065C342.026 47.9581 341.978 48.1059 341.89 48.2295C341.803 48.3531 341.679 48.4462 341.535 48.4961L224.082 116.314C223.713 116.502 223.304 116.6 222.889 116.6C222.474 116.6 222.065 116.502 221.695 116.314L197.358 102.28C205.552 93.229 213.455 88.6399 219.632 86.1135C222.506 84.9546 229.552 81.9067 234.014 76.6802C235.681 74.74 236.626 72.2838 236.691 69.7268C237.131 60.363 234.582 57.5238 247.666 50.3619C260.749 43.1999 263.16 38.6687 261.978 25.214C260.796 11.7594 283.962 13.8801 283.962 13.8801Z" fill="#E2E5ED"/>
<path d="M341.536 48.4963L330.874 54.65L329.9 55.2063L306.978 68.4755L306.004 69.0318L283.255 82.1619L282.27 82.7182L259.313 95.9758L258.304 96.6132L235.312 109.825L234.35 110.381L224.082 116.314C223.713 116.503 223.304 116.601 222.889 116.601C222.474 116.601 222.065 116.503 221.695 116.314L218.983 114.738C221.124 111.425 223.836 108.518 226.991 106.151C227.293 105.907 227.606 105.676 227.907 105.467C229.5 104.321 231.173 103.291 232.913 102.384C236.944 100.29 241.119 98.4853 245.406 96.9841C247.926 96.1513 250.255 94.8235 252.255 93.0786L252.661 92.7194L253.066 92.3369C256.543 88.8603 256.752 85.5459 256.891 82.2894C257.041 78.4999 257.111 74.8262 262.21 71.1873L262.697 70.8512L263.183 70.5267C265.392 69.074 267.775 67.9059 270.276 67.0501C277.785 64.2687 283.638 64.6048 290.243 59.9345C290.568 59.7027 290.869 59.471 291.147 59.2508C299.804 52.2975 293.094 42.6903 297.231 36.3164C297.422 36.0188 297.635 35.736 297.869 35.4704C298.924 34.2789 300.225 33.33 301.681 32.6891C305.226 31.2415 309.024 30.5166 312.853 30.5568L341.536 47.1288C342.196 47.4997 342.196 48.1139 341.536 48.4963Z" fill="#84E4A4"/>
<path d="M235.312 109.825L234.35 110.381L227.015 106.151L206.259 94.1796C206.198 94.146 206.145 94.1004 206.102 94.0455C206.06 93.9906 206.029 93.9276 206.011 93.8603C205.994 93.793 205.99 93.7229 206.001 93.6543C206.012 93.5856 206.037 93.5198 206.074 93.4611C206.106 93.4006 206.15 93.3474 206.204 93.3049C206.258 93.2624 206.32 93.2315 206.387 93.2141C206.453 93.1967 206.522 93.1931 206.59 93.2037C206.658 93.2143 206.723 93.2388 206.781 93.2756L227.907 105.467L235.127 109.639C235.205 109.682 235.269 109.747 235.312 109.825V109.825Z" fill="#F4F6FA"/>
<path d="M259.266 95.9989L258.304 96.6131L252.278 93.1364L230.259 80.3887C230.2 80.354 230.147 80.3078 230.106 80.2528C230.064 80.1978 230.034 80.135 230.017 80.0682C229.999 80.0013 229.995 79.9317 230.005 79.8634C230.015 79.7951 230.039 79.7294 230.074 79.6702C230.107 79.6093 230.153 79.5559 230.208 79.5133C230.263 79.4707 230.326 79.4398 230.393 79.4224C230.46 79.4051 230.531 79.4016 230.599 79.4124C230.668 79.4231 230.734 79.4477 230.792 79.4848L253.124 92.3716L259.127 95.8482C259.183 95.889 259.23 95.9401 259.266 95.9989Z" fill="#F4F6FA"/>
<path d="M306.977 68.4753L306.004 69.0316L290.301 59.9575L258.895 41.821C258.834 41.7872 258.781 41.7418 258.738 41.6872C258.695 41.6326 258.664 41.57 258.646 41.5031C258.627 41.4362 258.622 41.3663 258.631 41.2975C258.64 41.2287 258.663 41.1624 258.698 41.1025C258.772 40.9834 258.89 40.8977 259.026 40.8632C259.162 40.8287 259.306 40.8479 259.428 40.917L291.205 59.2738L306.792 68.2667C306.875 68.3143 306.94 68.3875 306.977 68.4753Z" fill="#F4F6FA"/>
<path d="M330.873 54.6498L329.9 55.2061L297.242 36.351L265.257 17.8089C265.137 17.7385 265.049 17.624 265.012 17.4897C264.975 17.3555 264.993 17.2121 265.06 17.0903C265.094 17.0295 265.139 16.9761 265.194 16.9335C265.249 16.8909 265.312 16.86 265.379 16.8426C265.447 16.8252 265.517 16.8218 265.585 16.8325C265.654 16.8432 265.72 16.8679 265.779 16.9049L297.926 35.4471L330.734 54.4065C330.808 54.4685 330.857 54.5548 330.873 54.6498Z" fill="#F4F6FA"/>
<path d="M268.885 19.3734C268.291 19.6765 267.634 19.8346 266.967 19.8346C266.3 19.8346 265.643 19.6765 265.049 19.3734L262.047 17.6466C261.807 17.5764 261.595 17.43 261.445 17.2294C261.294 17.0288 261.213 16.7848 261.213 16.5341C261.213 16.2833 261.294 16.0394 261.445 15.8388C261.595 15.6382 261.807 15.4918 262.047 15.4216V15.4216C262.643 15.1183 263.302 14.9602 263.971 14.9602C264.64 14.9602 265.299 15.1183 265.895 15.4216L268.885 17.1599C269.121 17.2332 269.327 17.3802 269.474 17.5794C269.621 17.7785 269.7 18.0193 269.7 18.2666C269.7 18.5139 269.621 18.7548 269.474 18.9539C269.327 19.153 269.121 19.3 268.885 19.3734V19.3734Z" fill="url(#paint11_linear_633_1101)"/>
<path d="M232.659 78.8357C232.899 78.9201 233.106 79.0769 233.254 79.2845C233.401 79.4921 233.48 79.7402 233.48 79.9946C233.48 80.249 233.401 80.4971 233.254 80.7047C233.106 80.9123 232.899 81.0691 232.659 81.1535C232.033 81.4675 231.342 81.631 230.642 81.631C229.942 81.631 229.251 81.4675 228.626 81.1535C228.386 81.0691 228.178 80.9123 228.031 80.7047C227.884 80.4971 227.805 80.249 227.805 79.9946C227.805 79.7402 227.884 79.4921 228.031 79.2845C228.178 79.0769 228.386 78.9201 228.626 78.8357C229.25 78.5154 229.941 78.3484 230.642 78.3484C231.343 78.3484 232.035 78.5154 232.659 78.8357V78.8357Z" fill="#BCBECD"/>
<path d="M261.294 40.3376C261.534 40.422 261.742 40.5788 261.889 40.7864C262.036 40.994 262.115 41.2421 262.115 41.4965C262.115 41.7509 262.036 41.999 261.889 42.2066C261.742 42.4142 261.534 42.571 261.294 42.6554C260.67 42.9757 259.979 43.1427 259.278 43.1427C258.577 43.1427 257.885 42.9757 257.261 42.6554C257.021 42.571 256.814 42.4142 256.666 42.2066C256.519 41.999 256.44 41.7509 256.44 41.4965C256.44 41.2421 256.519 40.994 256.666 40.7864C256.814 40.5788 257.021 40.422 257.261 40.3376C257.887 40.0236 258.578 39.8601 259.278 39.8601C259.978 39.8601 260.669 40.0236 261.294 40.3376V40.3376Z" fill="#BCBECD"/>
<path d="M209.944 95.6977C209.348 96.001 208.689 96.1591 208.02 96.1591C207.352 96.1591 206.693 96.001 206.097 95.6977L203.095 93.971C202.854 93.9007 202.643 93.7544 202.493 93.5538C202.342 93.3532 202.261 93.1092 202.261 92.8584C202.261 92.6077 202.342 92.3637 202.493 92.1631C202.643 91.9625 202.854 91.8161 203.095 91.7459C203.691 91.4426 204.35 91.2845 205.019 91.2845C205.688 91.2845 206.347 91.4426 206.943 91.7459L209.944 93.4842C210.18 93.5576 210.387 93.7046 210.534 93.9037C210.68 94.1028 210.759 94.3436 210.759 94.591C210.759 94.8383 210.68 95.0791 210.534 95.2782C210.387 95.4774 210.18 95.6243 209.944 95.6977V95.6977Z" fill="#6F4AAB"/>
<path d="M283.208 82.1735L282.223 82.7297L262.209 71.1409L238.487 57.4892C238.365 57.4201 238.276 57.3055 238.239 57.1708C238.203 57.036 238.221 56.8921 238.29 56.7707C238.359 56.6493 238.474 56.5603 238.608 56.5234C238.743 56.4864 238.887 56.5045 239.008 56.5737L263.183 70.4803L283.011 81.9301C283.1 81.9897 283.168 82.0745 283.208 82.1735V82.1735Z" fill="#F4F6FA"/>
<path d="M238.881 58.7409C240.456 58.7409 241.732 58.0042 241.732 57.0953C241.732 56.1865 240.456 55.4497 238.881 55.4497C237.307 55.4497 236.03 56.1865 236.03 57.0953C236.03 58.0042 237.307 58.7409 238.881 58.7409Z" fill="#BCBECD"/>
<path d="M204.335 85.3372L198.17 88.895L196.478 87.9215L202.631 84.3638L204.335 85.3372Z" fill="#6F4AAB"/>
<path d="M209.979 84.92L200.627 90.3204L198.935 89.3353L208.275 83.9465L209.979 84.92Z" fill="#D2D6E3"/>
<path d="M234.176 50.8255L228.01 54.3833L226.318 53.4098L232.484 49.8521L234.176 50.8255Z" fill="#BCBECD"/>
<path d="M238.232 51.3354L228.891 56.7242L227.188 55.7392L236.528 50.3503L238.232 51.3354Z" fill="#D2D6E3"/>
<path d="M251.49 16.4415L257.643 12.8837L255.951 11.8987L249.786 15.4565L251.49 16.4415Z" fill="url(#paint12_linear_633_1101)"/>
<path d="M250.759 19.6978L260.112 14.309L258.408 13.324L249.067 18.7128L250.759 19.6978Z" fill="#D2D6E3"/>
<path d="M158.64 109.43H154.931C148.384 101.017 133.839 95.1181 116.827 95.0022C99.4438 94.8979 84.4594 100.797 77.7842 109.43H74.041V120.579C75.084 133.396 93.2785 143.675 115.761 143.757C138.591 143.907 157.376 133.582 158.443 120.579H158.64V109.43Z" fill="url(#paint13_linear_633_1101)"/>
<path d="M116.341 135.076C139.689 135.076 158.617 124.149 158.617 110.67C158.617 97.1912 139.689 86.2642 116.341 86.2642C92.9921 86.2642 74.0645 97.1912 74.0645 110.67C74.0645 124.149 92.9921 135.076 116.341 135.076Z" fill="url(#paint14_linear_633_1101)"/>
<path d="M146.229 110.867C146.147 114.344 144.27 117.635 141.095 120.336C135.659 124.971 126.435 127.996 116.016 127.938C99.5138 127.834 86.2794 120.023 86.4648 110.485C86.5662 107.792 87.603 105.218 89.3968 103.207C94.2641 97.4128 104.682 93.3335 116.677 93.4262C133.145 93.5305 146.402 101.341 146.229 110.867Z" stroke="#84E4A4" stroke-width="1.19" stroke-miterlimit="10"/>
<path d="M144.038 113.058C143.934 115.752 142.893 118.326 141.095 120.336C135.659 124.971 126.435 127.996 116.016 127.938C99.5138 127.834 86.2794 120.023 86.4648 110.485C86.5662 107.792 87.603 105.219 89.3968 103.207C94.832 98.5718 104.068 95.5471 114.487 95.6167C130.978 95.721 144.212 103.567 144.038 113.058Z" fill="url(#paint15_linear_633_1101)"/>
<path d="M119.157 119.084C117.17 119.106 115.218 118.555 113.536 117.496L112.725 117.021L118.218 113.927L118.774 114.251C119.465 114.713 120.264 114.988 121.092 115.051C121.75 115.067 122.399 114.903 122.97 114.576C123.561 114.251 123.816 113.88 123.758 113.475C123.696 113.241 123.583 113.024 123.426 112.839C123.27 112.655 123.074 112.508 122.854 112.409C122.172 112 121.388 111.795 120.594 111.818C119.694 111.847 118.798 111.955 117.917 112.142C116.967 112.351 115.97 112.582 114.904 112.849C113.827 113.12 112.73 113.303 111.624 113.394C110.463 113.487 109.296 113.436 108.147 113.243C106.87 113.013 105.648 112.546 104.543 111.864C100.827 109.678 100.53 107.36 103.651 104.911L101.913 103.891L104.717 102.303L106.455 103.323C108.388 102.362 110.521 101.874 112.679 101.898C114.789 102.039 116.831 102.7 118.624 103.821L113.316 106.823L112.876 106.556C112.27 106.197 111.602 105.957 110.906 105.849C110.26 105.731 109.593 105.837 109.017 106.151C108.414 106.487 108.159 106.858 108.263 107.252C108.4 107.677 108.7 108.031 109.098 108.237C109.8 108.645 110.604 108.846 111.415 108.816C112.341 108.786 113.26 108.666 114.162 108.457C115.143 108.241 116.163 107.986 117.222 107.692C118.319 107.398 119.439 107.197 120.571 107.089C121.769 106.986 122.976 107.033 124.163 107.228C125.505 107.467 126.79 107.955 127.953 108.665C129.981 109.824 130.943 111.053 130.838 112.235C130.734 113.417 129.749 114.668 127.872 115.978L130.56 117.566L127.756 119.153L125.067 117.566C123.218 118.461 121.208 118.977 119.157 119.084V119.084Z" fill="white"/>
<path d="M74.957 121.9C75.2809 123.646 75.8918 125.326 76.7649 126.872L77.1125 118.76C76.2931 117.426 75.6687 115.982 75.2583 114.472C75.2004 116.952 75.0613 119.42 74.957 121.9Z" fill="#84E4A4"/>
<path d="M83.3125 134.138C83.9499 134.613 84.6221 135.088 85.3174 135.552L85.6998 127.069C85.0045 126.628 84.3439 126.165 83.7065 125.69C83.5675 128.506 83.4284 131.38 83.3125 134.138Z" fill="#84E4A4"/>
<path d="M92.2246 139.179C92.8968 139.469 93.6037 139.735 94.3106 140.002L94.6235 131.391C93.9282 131.136 93.2328 130.87 92.5607 130.592C92.4448 133.435 92.3328 136.297 92.2246 139.179Z" fill="#84E4A4"/>
<path d="M101.46 142.111C102.167 142.273 102.885 142.424 103.604 142.563L103.812 133.872C103.094 133.732 102.399 133.593 101.692 133.431C101.622 136.328 101.541 139.214 101.46 142.111Z" fill="#84E4A4"/>
<path d="M110.905 143.56C111.624 143.618 112.342 143.676 113.072 143.71C113.072 140.806 113.092 137.893 113.13 134.972C112.412 134.972 111.705 134.891 110.998 134.833C110.963 137.742 110.94 140.651 110.905 143.56Z" fill="#84E4A4"/>
<path d="M120.397 143.745C121.127 143.745 121.857 143.664 122.576 143.606C122.576 140.697 122.576 137.812 122.483 134.88L120.351 135.007C120.397 137.916 120.397 140.825 120.397 143.745Z" fill="#84E4A4"/>
<path d="M129.888 142.656C130.607 142.528 131.325 142.378 132.032 142.227C131.951 139.33 131.882 136.433 131.801 133.547C131.105 133.698 130.398 133.837 129.691 133.964C129.753 136.877 129.819 139.774 129.888 142.656Z" fill="#84E4A4"/>
<path d="M139.194 140.187C139.912 139.932 140.608 139.666 141.291 139.388C141.175 136.525 141.06 133.651 140.955 130.789C140.271 131.055 139.588 131.322 138.881 131.565L139.194 140.187Z" fill="#84E4A4"/>
<path d="M148.21 135.853C148.905 135.413 149.577 134.961 150.214 134.497L149.832 126.049C149.183 126.501 148.522 126.941 147.827 127.37L148.21 135.853Z" fill="#84E4A4"/>
<path d="M156.438 119.478C156.554 122.201 156.682 124.925 156.798 127.648C157.588 126.389 158.204 125.029 158.629 123.604L158.316 115.874C157.837 117.146 157.206 118.356 156.438 119.478V119.478Z" fill="#84E4A4"/>
<path d="M362.441 135.042L346.854 120.926V117.844L341.199 115.816L321.996 158.393L327.64 160.433L328.497 159.935V181.154V185.418V201.121L334.153 203.161V197.865L347.654 190.066L355.94 185.291L355.928 138.796L362.441 135.042Z" fill="url(#paint16_linear_633_1101)"/>
<path d="M346.854 117.844L368.096 137.081L361.583 140.836V187.331L353.309 192.105L334.153 203.161V187.458V183.193V156.678L327.64 160.433L346.854 117.844Z" fill="url(#paint17_linear_633_1101)"/>
<path opacity="0.6" d="M249.833 299.244L317.674 260.074C321.058 258.115 321.058 254.952 317.674 252.993L280.103 231.299C278.202 230.333 276.099 229.829 273.967 229.829C271.834 229.829 269.732 230.333 267.83 231.299L199.989 270.446C196.605 272.405 196.605 275.58 199.989 277.527L237.56 299.221C239.46 300.191 241.561 300.698 243.694 300.702C245.826 300.706 247.93 300.207 249.833 299.244V299.244Z" fill="url(#paint18_radial_633_1101)"/>
<path d="M320.212 233.698L314.811 234.439L280.045 214.391C278.141 213.431 276.04 212.931 273.908 212.931C271.777 212.931 269.675 213.431 267.772 214.391L207.51 249.157L197.416 250.548V256.702C197.242 258.104 198.077 259.529 199.931 260.607L237.502 282.301C239.403 283.267 241.506 283.771 243.638 283.771C245.771 283.771 247.873 283.267 249.774 282.301L317.616 243.131C318.323 242.819 318.932 242.322 319.379 241.691C319.826 241.061 320.094 240.321 320.154 239.55L320.212 233.698Z" fill="#CCDEEC"/>
<path d="M249.833 276.472L317.674 237.302C321.058 235.344 321.058 232.168 317.674 230.221L280.103 208.527C278.202 207.561 276.099 207.057 273.967 207.057C271.834 207.057 269.732 207.561 267.83 208.527L199.989 247.697C196.605 249.656 196.605 252.82 199.989 254.778L237.56 276.472C239.461 277.438 241.564 277.942 243.697 277.942C245.829 277.942 247.932 277.438 249.833 276.472V276.472Z" fill="url(#paint19_linear_633_1101)"/>
<path d="M300.974 235.911L306.745 232.574L285.433 220.266L279.662 223.604L300.974 235.911Z" fill="#84E4A4"/>
<path d="M292.502 240.802L298.274 237.476L279.407 226.571L273.624 229.908L292.502 240.802Z" fill="#84E4A4"/>
<path d="M284.031 245.704L289.802 242.366L274.435 233.489L268.652 236.827L284.031 245.704Z" fill="#84E4A4"/>
<path d="M275.548 250.594L281.331 247.257L262.453 236.363L256.682 239.701L275.548 250.594Z" fill="#84E4A4"/>
<path d="M267.077 255.485L272.86 252.147L250.134 239.029L244.352 242.366L267.077 255.485Z" fill="#84E4A4"/>
<path d="M258.606 260.375L264.377 257.038L236.784 241.103L231.001 244.441L258.606 260.375Z" fill="#84E4A4"/>
<path d="M250.134 265.266L255.905 261.94L234.594 249.632L228.822 252.958L250.134 265.266Z" fill="#84E4A4"/>
<path d="M241.663 270.168L247.434 266.83L229.969 256.748L224.198 260.086L241.663 270.168Z" fill="#84E4A4"/>
<path d="M201.194 292.743C201.467 292.833 201.704 293.008 201.872 293.241C202.041 293.474 202.131 293.754 202.131 294.041C202.131 294.328 202.041 294.608 201.872 294.841C201.704 295.074 201.467 295.248 201.194 295.339L193.082 299.974C192.387 300.329 191.619 300.513 190.839 300.513C190.06 300.513 189.291 300.329 188.597 299.974L180.485 295.269C180.212 295.179 179.975 295.005 179.807 294.772C179.638 294.539 179.548 294.259 179.548 293.971C179.548 293.684 179.638 293.404 179.807 293.171C179.975 292.938 180.212 292.764 180.485 292.673L188.597 287.98C189.291 287.626 190.06 287.441 190.839 287.441C191.619 287.441 192.387 287.626 193.082 287.98L201.194 292.743Z" fill="#84E4A4"/>
<path d="M96.4193 41.4617C92.1778 43.9069 92.1546 47.8819 96.4193 50.3271L123.873 66.3313C126.245 67.5429 128.87 68.1746 131.534 68.1746C134.197 68.1746 136.822 67.5429 139.194 66.3313L166.914 50.3271C171.156 47.8819 171.179 43.9069 166.914 41.4617L139.449 25.4574C137.079 24.246 134.456 23.6143 131.794 23.6143C129.133 23.6143 126.51 24.246 124.14 25.4574L96.4193 41.4617Z" fill="url(#paint20_linear_633_1101)"/>
<path d="M131.557 44.1155L124.604 55.2176C121.982 54.6935 119.457 53.767 117.118 52.4711C115.49 51.5706 114.057 50.3576 112.899 48.9017L131.557 44.1155Z" fill="white"/>
<path d="M145.95 35.7483C153.958 40.3838 153.982 47.8586 146.043 52.471C140.249 55.8202 131.882 56.7241 124.65 55.2176L131.603 44.1154L112.992 48.9016C109.631 44.5674 110.998 39.3061 117.117 35.7483C125.033 31.1359 137.954 31.1243 145.95 35.7483Z" fill="url(#paint21_linear_633_1101)"/>
<path d="M102.817 179.52C104.729 180.679 104.729 182.417 102.817 183.53L90.382 190.749C89.3074 191.305 88.1152 191.595 86.9054 191.595C85.6955 191.595 84.5033 191.305 83.4287 190.749L70.9707 183.53C69.0585 182.429 69.0469 180.632 70.9707 179.52L83.4055 172.3C84.4818 171.75 85.6734 171.463 86.8822 171.463C88.091 171.463 89.2825 171.75 90.3588 172.3L102.817 179.52Z" fill="#84E4A4"/>
<path d="M193.58 33.025C193.853 33.1155 194.09 33.2896 194.258 33.5226C194.426 33.7556 194.517 34.0356 194.517 34.323C194.517 34.6104 194.426 34.8904 194.258 35.1234C194.09 35.3564 193.853 35.5305 193.58 35.621L185.468 40.2565C184.773 40.6106 184.005 40.7952 183.225 40.7952C182.446 40.7952 181.677 40.6106 180.983 40.2565L172.871 35.621C172.598 35.5305 172.36 35.3564 172.192 35.1234C172.024 34.8904 171.934 34.6104 171.934 34.323C171.934 34.0356 172.024 33.7556 172.192 33.5226C172.36 33.2896 172.598 33.1155 172.871 33.025L180.983 28.3895C181.677 28.0354 182.446 27.8508 183.225 27.8508C184.005 27.8508 184.773 28.0354 185.468 28.3895L193.58 33.025Z" fill="#84E4A4"/>
<path d="M332.345 214.82C332.618 214.91 332.855 215.084 333.024 215.317C333.192 215.55 333.282 215.83 333.282 216.118C333.282 216.405 333.192 216.685 333.024 216.918C332.855 217.151 332.618 217.325 332.345 217.415L324.233 222.109C323.537 222.463 322.766 222.648 321.985 222.648C321.204 222.648 320.433 222.463 319.737 222.109L311.624 217.404C311.352 217.313 311.114 217.139 310.946 216.906C310.778 216.673 310.688 216.393 310.688 216.106C310.688 215.819 310.778 215.539 310.946 215.306C311.114 215.073 311.352 214.898 311.624 214.808L319.737 210.114C320.431 209.76 321.2 209.576 321.979 209.576C322.759 209.576 323.527 209.76 324.222 210.114L332.345 214.82Z" fill="#84E4A4"/>
<path d="M350.018 74.7334C350.291 74.8239 350.528 74.9979 350.697 75.2309C350.865 75.4639 350.955 75.744 350.955 76.0313C350.955 76.3187 350.865 76.5988 350.697 76.8317C350.528 77.0647 350.291 77.2388 350.018 77.3293L341.906 81.9648C341.212 82.3189 340.443 82.5035 339.664 82.5035C338.884 82.5035 338.116 82.3189 337.421 81.9648L329.309 77.3293C329.036 77.2388 328.799 77.0647 328.631 76.8317C328.463 76.5988 328.372 76.3187 328.372 76.0313C328.372 75.744 328.463 75.4639 328.631 75.2309C328.799 74.9979 329.036 74.8239 329.309 74.7334L337.421 70.0399C338.116 69.6858 338.884 69.5012 339.664 69.5012C340.443 69.5012 341.212 69.6858 341.906 70.0399L350.018 74.7334Z" fill="#84E4A4"/>
<defs>
<radialGradient id="paint0_radial_633_1101" cx="0" cy="0" r="1" gradientUnits="userSpaceOnUse" gradientTransform="translate(215.53 229.723) scale(104.926 104.926)">
<stop stop-color="#000020"/>
<stop offset="0.22" stop-color="#0A113B"/>
<stop offset="0.37" stop-color="#0C1340"/>
<stop offset="0.53" stop-color="#11194D"/>
<stop offset="0.7" stop-color="#192364"/>
<stop offset="0.88" stop-color="#253184"/>
<stop offset="1" stop-color="#2F3C9E"/>
</radialGradient>
<linearGradient id="paint1_linear_633_1101" x1="377.124" y1="173.25" x2="52.138" y2="205.873" gradientUnits="userSpaceOnUse">
<stop stop-color="#000053"/>
<stop offset="0.54" stop-color="#23007F"/>
<stop offset="1" stop-color="#4F34D7"/>
</linearGradient>
<linearGradient id="paint2_linear_633_1101" x1="361.642" y1="118.887" x2="52.9732" y2="246.144" gradientUnits="userSpaceOnUse">
<stop offset="0.09" stop-color="#84E4A4"/>
<stop offset="0.97" stop-color="#3C53D7"/>
</linearGradient>
<linearGradient id="paint3_linear_633_1101" x1="123.479" y1="298.004" x2="287.276" y2="86.5657" gradientUnits="userSpaceOnUse">
<stop offset="0.09" stop-color="#84E4A4"/>
<stop offset="0.97" stop-color="#3C53D7"/>
</linearGradient>
<linearGradient id="paint4_linear_633_1101" x1="163.496" y1="137.58" x2="350.923" y2="137.58" gradientUnits="userSpaceOnUse">
<stop offset="0.09" stop-color="#84E4A4"/>
<stop offset="0.97" stop-color="#3C53D7"/>
</linearGradient>
<linearGradient id="paint5_linear_633_1101" x1="164.968" y1="170.191" x2="180.462" y2="170.191" gradientUnits="userSpaceOnUse">
<stop stop-color="#1A1B6E"/>
<stop offset="0.46" stop-color="#3C53D7"/>
<stop offset="0.69" stop-color="#65A3FB"/>
</linearGradient>
<linearGradient id="paint6_linear_633_1101" x1="229.205" y1="126.953" x2="244.688" y2="126.953" gradientUnits="userSpaceOnUse">
<stop stop-color="#1A1B6E"/>
<stop offset="0.46" stop-color="#3C53D7"/>
<stop offset="0.69" stop-color="#65A3FB"/>
</linearGradient>
<linearGradient id="paint7_linear_633_1101" x1="287.867" y1="80.5048" x2="303.35" y2="80.5048" gradientUnits="userSpaceOnUse">
<stop stop-color="#1A1B6E"/>
<stop offset="0.46" stop-color="#3C53D7"/>
<stop offset="0.69" stop-color="#65A3FB"/>
</linearGradient>
<linearGradient id="paint8_linear_633_1101" x1="136.992" y1="150.617" x2="155.592" y2="150.617" gradientUnits="userSpaceOnUse">
<stop stop-color="#1A1B6E"/>
<stop offset="0.46" stop-color="#3C53D7"/>
<stop offset="0.69" stop-color="#65A3FB"/>
</linearGradient>
<linearGradient id="paint9_linear_633_1101" x1="406.583" y1="57.6165" x2="133.805" y2="70.6655" gradientUnits="userSpaceOnUse">
<stop stop-color="#000053"/>
<stop offset="0.54" stop-color="#23007F"/>
<stop offset="1" stop-color="#4F34D7"/>
</linearGradient>
<linearGradient id="paint10_linear_633_1101" x1="140.214" y1="60.8385" x2="350.946" y2="60.8385" gradientUnits="userSpaceOnUse">
<stop stop-color="#3C53D7"/>
<stop offset="1" stop-color="#1A1B6E"/>
</linearGradient>
<linearGradient id="paint11_linear_633_1101" x1="261.248" y1="17.4033" x2="269.684" y2="17.4033" gradientUnits="userSpaceOnUse">
<stop stop-color="#1A1B6E"/>
<stop offset="0.46" stop-color="#3C53D7"/>
<stop offset="0.69" stop-color="#65A3FB"/>
</linearGradient>
<linearGradient id="paint12_linear_633_1101" x1="249.786" y1="14.1701" x2="257.643" y2="14.1701" gradientUnits="userSpaceOnUse">
<stop stop-color="#1A1B6E"/>
<stop offset="0.46" stop-color="#3C53D7"/>
<stop offset="0.69" stop-color="#65A3FB"/>
</linearGradient>
<linearGradient id="paint13_linear_633_1101" x1="54.5717" y1="121.541" x2="142.89" y2="118.493" gradientUnits="userSpaceOnUse">
<stop offset="0.09" stop-color="#84E4A4"/>
<stop offset="0.97" stop-color="#3C53D7"/>
</linearGradient>
<linearGradient id="paint14_linear_633_1101" x1="74.076" y1="110.67" x2="158.617" y2="110.67" gradientUnits="userSpaceOnUse">
<stop offset="0.09" stop-color="#84E4A4"/>
<stop offset="0.97" stop-color="#3C53D7"/>
</linearGradient>
<linearGradient id="paint15_linear_633_1101" x1="177.02" y1="110.682" x2="66.729" y2="112.641" gradientUnits="userSpaceOnUse">
<stop offset="0.09" stop-color="#84E4A4"/>
<stop offset="0.97" stop-color="#3C53D7"/>
</linearGradient>
<linearGradient id="paint16_linear_633_1101" x1="345.174" y1="222.769" x2="342.555" y2="155.554" gradientUnits="userSpaceOnUse">
<stop offset="0.09" stop-color="#84E4A4"/>
<stop offset="0.97" stop-color="#3C53D7"/>
</linearGradient>
<linearGradient id="paint17_linear_633_1101" x1="339.414" y1="218.655" x2="356.38" y2="78.349" gradientUnits="userSpaceOnUse">
<stop stop-color="#1A1B6E"/>
<stop offset="0.46" stop-color="#3C53D7"/>
<stop offset="0.69" stop-color="#65A3FB"/>
</linearGradient>
<radialGradient id="paint18_radial_633_1101" cx="0" cy="0" r="1" gradientUnits="userSpaceOnUse" gradientTransform="translate(258.837 265.277) scale(50.1218 50.1218)">
<stop stop-color="#000020"/>
<stop offset="0.22" stop-color="#0A113B"/>
<stop offset="0.37" stop-color="#0C1340"/>
<stop offset="0.53" stop-color="#11194D"/>
<stop offset="0.7" stop-color="#192364"/>
<stop offset="0.88" stop-color="#253184"/>
<stop offset="1" stop-color="#2F3C9E"/>
</radialGradient>
<linearGradient id="paint19_linear_633_1101" x1="197.451" y1="242.494" x2="320.212" y2="242.494" gradientUnits="userSpaceOnUse">
<stop stop-color="#3C53D7"/>
<stop offset="1" stop-color="#1A1B6E"/>
</linearGradient>
<linearGradient id="paint20_linear_633_1101" x1="93.2208" y1="45.9002" x2="170.136" y2="45.9002" gradientUnits="userSpaceOnUse">
<stop offset="0.09" stop-color="#84E4A4"/>
<stop offset="0.97" stop-color="#3C53D7"/>
</linearGradient>
<linearGradient id="paint21_linear_633_1101" x1="111.161" y1="44.1039" x2="151.977" y2="44.1039" gradientUnits="userSpaceOnUse">
<stop stop-color="#3C53D7"/>
<stop offset="1" stop-color="#1A1B6E"/>
</linearGradient>
</defs>
</svg>
