<svg width="12" height="12" viewBox="0 0 12 12" fill="none" xmlns="http://www.w3.org/2000/svg">
<path fill-rule="evenodd" clip-rule="evenodd" d="M0 6C0 2.68629 2.68629 0 6 0C9.31371 0 12 2.68629 12 6C12 9.31371 9.31371 12 6 12C2.68629 12 0 9.31371 0 6ZM8.20656 5.05755C8.36579 4.85851 8.33352 4.56807 8.13447 4.40883C7.93543 4.24959 7.64499 4.28187 7.48575 4.48091L5.34635 7.15517L4.4802 6.28903C4.29996 6.10879 4.00773 6.10879 3.82749 6.28903C3.64725 6.46927 3.64725 6.7615 3.82749 6.94174L5.05826 8.17251C5.15109 8.26534 5.27906 8.31425 5.41014 8.30699C5.54122 8.29973 5.66301 8.23699 5.74502 8.13447L8.20656 5.05755Z" fill="#4572EE"/>
</svg>
