<svg width="18" height="18" viewBox="0 0 18 18" fill="none" xmlns="http://www.w3.org/2000/svg">
<path fill-rule="evenodd" clip-rule="evenodd" d="M0 2.75C0 1.23122 1.23122 0 2.75 0H10.75C12.2688 0 13.5 1.23122 13.5 2.75V4H14.75C16.2688 4 17.5 5.23122 17.5 6.75V14.75C17.5 16.2688 16.2688 17.5 14.75 17.5H6.75C5.23122 17.5 4 16.2688 4 14.75V13.5H2.75C1.23122 13.5 0 12.2688 0 10.75V2.75ZM6.75 4C5.23122 4 4 5.23122 4 6.75V11.75C4 12.1642 4.33579 12.5 4.75 12.5C5.16421 12.5 5.5 12.1642 5.5 11.75V6.75C5.5 6.05964 6.05964 5.5 6.75 5.5H11.75C12.1642 5.5 12.5 5.16421 12.5 4.75C12.5 4.33579 12.1642 4 11.75 4H6.75Z" fill="url(#paint0_linear_586_1530)"/>
<defs>
<linearGradient id="paint0_linear_586_1530" x1="9.06671" y1="17.002" x2="16.1279" y2="16.953" gradientUnits="userSpaceOnUse">
<stop stop-color="#1F3A99"/>
<stop offset="1" stop-color="#88019E"/>
</linearGradient>
</defs>
</svg>
