<svg width="20" height="20" viewBox="0 0 20 20" fill="none" xmlns="http://www.w3.org/2000/svg">
<path d="M20 4.61523H0V6.15351H20V4.61523Z" fill="#F5F5F5"/>
<path d="M18.9556 1.53833H1.04436C0.665137 1.98318 0.373301 2.50478 0.195801 3.07681H19.8042C19.6267 2.50478 19.3348 1.98318 18.9556 1.53833Z" fill="#F5F5F5"/>
<path d="M20 7.69214H0V9.23042H20V7.69214Z" fill="#F5F5F5"/>
<path d="M20 10.769H0V12.3073H20V10.769Z" fill="#F5F5F5"/>
<path d="M20 13.8459H0V15.3842H20V13.8459Z" fill="#F5F5F5"/>
<path d="M19.8042 16.9231H0.195801C0.373262 17.4951 0.665137 18.0167 1.04436 18.4615H18.9556C19.3348 18.0167 19.6267 17.4951 19.8042 16.9231Z" fill="#F5F5F5"/>
<path d="M15.6249 0H4.37494C3.04103 0 1.84677 0.597148 1.04431 1.53848H18.9555C18.1531 0.597148 16.9588 0 15.6249 0Z" fill="#FF4B55"/>
<path d="M20 6.15381H0V7.69209H20V6.15381Z" fill="#FF4B55"/>
<path d="M20 4.37495C20 3.92296 19.9314 3.48702 19.8042 3.0769H0.19582C0.0685547 3.48702 0 3.92296 0 4.37495V4.61534H20V4.37495Z" fill="#FF4B55"/>
<path d="M20 9.23071H0V10.769H20V9.23071Z" fill="#FF4B55"/>
<path d="M20 15.6252V15.3848H0V15.6252C0 16.0771 0.0685547 16.5131 0.19582 16.9232H19.8042C19.9314 16.5131 20 16.0771 20 15.6252Z" fill="#FF4B55"/>
<path d="M18.9556 18.4614H1.04431C1.84677 19.4028 3.04103 19.9999 4.37494 19.9999H15.6249C16.9588 19.9999 18.1531 19.4028 18.9556 18.4614Z" fill="#FF4B55"/>
<path d="M20 12.3076H0V13.8459H20V12.3076Z" fill="#FF4B55"/>
<path d="M10.7692 0H4.375C1.95875 0 0 1.95875 0 4.375V10.7692H10.7692V0Z" fill="#41479B"/>
<path d="M1.16191 1.68211C1.15167 1.71449 1.18851 1.74129 1.21616 1.72152L1.42956 1.56902L1.64296 1.72152C1.67058 1.74129 1.70745 1.71449 1.69722 1.68211L1.61811 1.43203L1.82913 1.27621C1.85643 1.25601 1.84237 1.21269 1.80839 1.21242L1.54612 1.21039L1.50136 1.07617C1.38894 1.17418 1.28171 1.27793 1.17987 1.3868L1.24108 1.43203L1.16191 1.68211Z" fill="#F5F5F5"/>
<path d="M1.46308 3.03735L1.54605 3.28618L1.80831 3.28821C1.84226 3.28849 1.85636 3.33181 1.82906 3.352L1.61804 3.50782L1.69714 3.7579C1.70738 3.79029 1.67054 3.81704 1.64288 3.79732L1.42948 3.64478L1.21609 3.79732C1.18847 3.81708 1.15159 3.79029 1.16183 3.7579L1.24093 3.50782L1.02991 3.352C1.00261 3.33185 1.01667 3.28849 1.05062 3.28821L1.31288 3.28618L1.39585 3.03735C1.40675 3.00513 1.45234 3.00513 1.46308 3.03735Z" fill="#F5F5F5"/>
<path d="M1.46308 5.33936L1.54605 5.58818L1.80831 5.59021C1.84226 5.59048 1.85636 5.6338 1.82906 5.654L1.61804 5.80982L1.69714 6.05989C1.70738 6.09228 1.67054 6.11903 1.64288 6.09931L1.42948 5.94681L1.21609 6.09931C1.18847 6.11903 1.15159 6.09228 1.16183 6.05989L1.24093 5.80982L1.02991 5.654C1.00261 5.63384 1.01667 5.59048 1.05062 5.59021L1.31288 5.58818L1.39585 5.33936C1.40675 5.30713 1.45234 5.30713 1.46308 5.33936Z" fill="#F5F5F5"/>
<path d="M1.46308 7.45435L1.54605 7.70317L1.80831 7.7052C1.84226 7.70548 1.85636 7.7488 1.82906 7.76899L1.61804 7.92481L1.69714 8.17488C1.70738 8.20727 1.67054 8.23402 1.64288 8.2143L1.42948 8.06176L1.21609 8.2143C1.18847 8.23402 1.15159 8.20727 1.16183 8.17488L1.24093 7.92481L1.02991 7.76899C1.00261 7.74883 1.01667 7.70548 1.05062 7.7052L1.31288 7.70317L1.39585 7.45435C1.40675 7.42212 1.45234 7.42212 1.46308 7.45435Z" fill="#F5F5F5"/>
<path d="M1.46308 9.37915L1.54605 9.62797L1.80831 9.63001C1.84226 9.63028 1.85636 9.6736 1.82906 9.69379L1.61804 9.84961L1.69714 10.0997C1.70738 10.1321 1.67054 10.1588 1.64288 10.1391L1.42948 9.9866L1.21609 10.1391C1.18847 10.1588 1.15159 10.1321 1.16183 10.0997L1.24093 9.84961L1.02991 9.69379C1.00261 9.67364 1.01667 9.63028 1.05062 9.63001L1.31288 9.62797L1.39585 9.37915C1.40675 9.34692 1.45234 9.34692 1.46308 9.37915Z" fill="#F5F5F5"/>
<path d="M2.47333 1.94434L2.5563 2.19317L2.81857 2.1952C2.85251 2.19547 2.86661 2.23879 2.83931 2.25895L2.62829 2.41477L2.70739 2.66485C2.71763 2.69723 2.68079 2.72403 2.65314 2.70426L2.43982 2.55172L2.22642 2.70426C2.1988 2.72403 2.16193 2.69723 2.17216 2.66485L2.25126 2.41477L2.04029 2.25895C2.01298 2.23879 2.02705 2.19543 2.06099 2.1952L2.32326 2.19317L2.40622 1.94434C2.41701 1.91211 2.46259 1.91211 2.47333 1.94434Z" fill="#F5F5F5"/>
<path d="M2.47329 4.24683L2.55626 4.49566L2.81852 4.49769C2.85247 4.49796 2.86657 4.54128 2.83926 4.56148L2.62825 4.7173L2.70735 4.96738C2.71758 4.99976 2.68075 5.02656 2.65309 5.00679L2.4397 4.85425L2.2263 5.00679C2.19868 5.02656 2.16181 4.99976 2.17204 4.96738L2.25114 4.7173L2.04017 4.56148C2.01286 4.54132 2.02692 4.49796 2.06087 4.49769L2.32313 4.49566L2.4061 4.24683C2.41696 4.2146 2.46255 4.2146 2.47329 4.24683Z" fill="#F5F5F5"/>
<path d="M2.47329 6.43381L2.55626 6.68264L2.81852 6.68467C2.85247 6.68494 2.86657 6.72826 2.83926 6.74846L2.62825 6.90428L2.70735 7.15436C2.71758 7.18675 2.68075 7.2135 2.65309 7.19378L2.4397 7.04124L2.2263 7.19378C2.19868 7.21354 2.16181 7.18675 2.17204 7.15436L2.25114 6.90428L2.04017 6.74846C2.01286 6.7283 2.02692 6.68494 2.06087 6.68467L2.32313 6.68264L2.4061 6.43381C2.41696 6.40162 2.46255 6.40162 2.47329 6.43381Z" fill="#F5F5F5"/>
<path d="M2.47329 8.39819L2.55626 8.64702L2.81852 8.64905C2.85247 8.64932 2.86657 8.69264 2.83926 8.71284L2.62825 8.86866L2.70735 9.11873C2.71758 9.15112 2.68075 9.17791 2.65309 9.15815L2.4397 9.00565L2.2263 9.15815C2.19868 9.17791 2.16181 9.15112 2.17204 9.11873L2.25114 8.86866L2.04017 8.71284C2.01286 8.69268 2.02692 8.64932 2.06087 8.64905L2.32313 8.64702L2.4061 8.39819C2.41696 8.36597 2.46255 8.36597 2.47329 8.39819Z" fill="#F5F5F5"/>
<path d="M3.48367 0.961641L3.56664 1.21047L3.8289 1.2125C3.86285 1.21277 3.87695 1.25609 3.84964 1.27625L3.63863 1.43207L3.71773 1.68215C3.72796 1.71453 3.69113 1.74129 3.66347 1.72156L3.45007 1.56902L3.23668 1.72156C3.20906 1.74133 3.17218 1.71453 3.18242 1.68215L3.26152 1.43207L3.05054 1.27625C3.02324 1.25609 3.0373 1.21273 3.07125 1.2125L3.33351 1.21047L3.41648 0.961641C3.42734 0.929453 3.47292 0.929453 3.48367 0.961641Z" fill="#F5F5F5"/>
<path d="M3.48367 3.03735L3.56664 3.28618L3.8289 3.28821C3.86285 3.28849 3.87695 3.33181 3.84964 3.352L3.63863 3.50782L3.71773 3.7579C3.72796 3.79029 3.69113 3.81704 3.66347 3.79732L3.45007 3.64478L3.23668 3.79732C3.20906 3.81708 3.17218 3.79029 3.18242 3.7579L3.26152 3.50782L3.05054 3.352C3.02324 3.33185 3.0373 3.28849 3.07125 3.28821L3.33351 3.28618L3.41648 3.03735C3.42734 3.00513 3.47292 3.00513 3.48367 3.03735Z" fill="#F5F5F5"/>
<path d="M3.48367 5.33936L3.56664 5.58818L3.8289 5.59021C3.86285 5.59048 3.87695 5.6338 3.84964 5.654L3.63863 5.80982L3.71773 6.05989C3.72796 6.09228 3.69113 6.11903 3.66347 6.09931L3.45007 5.94681L3.23668 6.09931C3.20906 6.11903 3.17218 6.09228 3.18242 6.05989L3.26152 5.80982L3.05054 5.654C3.02324 5.63384 3.0373 5.59048 3.07125 5.59021L3.33351 5.58818L3.41648 5.33936C3.42734 5.30713 3.47292 5.30713 3.48367 5.33936Z" fill="#F5F5F5"/>
<path d="M3.48367 7.45435L3.56664 7.70317L3.8289 7.7052C3.86285 7.70548 3.87695 7.7488 3.84964 7.76899L3.63863 7.92481L3.71773 8.17488C3.72796 8.20727 3.69113 8.23402 3.66347 8.2143L3.45007 8.06176L3.23668 8.2143C3.20906 8.23402 3.17218 8.20727 3.18242 8.17488L3.26152 7.92481L3.05054 7.76899C3.02324 7.74883 3.0373 7.70548 3.07125 7.7052L3.33351 7.70317L3.41648 7.45435C3.42734 7.42212 3.47292 7.42212 3.48367 7.45435Z" fill="#F5F5F5"/>
<path d="M3.48367 9.37915L3.56664 9.62797L3.8289 9.63001C3.86285 9.63028 3.87695 9.6736 3.84964 9.69379L3.63863 9.84961L3.71773 10.0997C3.72796 10.1321 3.69113 10.1588 3.66347 10.1391L3.45007 9.9866L3.23668 10.1391C3.20906 10.1588 3.17218 10.1321 3.18242 10.0997L3.26152 9.84961L3.05054 9.69379C3.02324 9.67364 3.0373 9.63028 3.07125 9.63001L3.33351 9.62797L3.41648 9.37915C3.42734 9.34692 3.47292 9.34692 3.48367 9.37915Z" fill="#F5F5F5"/>
<path d="M4.49384 1.94434L4.57681 2.19317L4.83907 2.1952C4.87302 2.19547 4.88712 2.23879 4.85978 2.25895L4.6488 2.41477L4.7279 2.66485C4.73814 2.69723 4.7013 2.72403 4.67364 2.70426L4.46024 2.55172L4.24685 2.70426C4.21923 2.72403 4.18235 2.69723 4.19259 2.66485L4.27169 2.41477L4.06067 2.25895C4.03337 2.23879 4.04743 2.19543 4.08141 2.1952L4.34368 2.19317L4.42665 1.94434C4.43755 1.91211 4.4831 1.91211 4.49384 1.94434Z" fill="#F5F5F5"/>
<path d="M4.49384 4.24683L4.57681 4.49566L4.83907 4.49769C4.87302 4.49796 4.88712 4.54128 4.85978 4.56148L4.6488 4.7173L4.7279 4.96738C4.73814 4.99976 4.7013 5.02656 4.67364 5.00679L4.46024 4.85425L4.24685 5.00679C4.21923 5.02656 4.18235 4.99976 4.19259 4.96738L4.27169 4.7173L4.06067 4.56148C4.03337 4.54132 4.04743 4.49796 4.08141 4.49769L4.34368 4.49566L4.42665 4.24683C4.43755 4.2146 4.4831 4.2146 4.49384 4.24683Z" fill="#F5F5F5"/>
<path d="M4.49384 6.43381L4.57681 6.68264L4.83907 6.68467C4.87302 6.68494 4.88712 6.72826 4.85978 6.74846L4.6488 6.90428L4.7279 7.15436C4.73814 7.18675 4.7013 7.2135 4.67364 7.19378L4.46024 7.04124L4.24685 7.19378C4.21923 7.21354 4.18235 7.18675 4.19259 7.15436L4.27169 6.90428L4.06067 6.74846C4.03337 6.7283 4.04743 6.68494 4.08141 6.68467L4.34368 6.68264L4.42665 6.43381C4.43755 6.40162 4.4831 6.40162 4.49384 6.43381Z" fill="#F5F5F5"/>
<path d="M4.49384 8.39819L4.57681 8.64702L4.83907 8.64905C4.87302 8.64932 4.88712 8.69264 4.85978 8.71284L4.6488 8.86866L4.7279 9.11873C4.73814 9.15112 4.7013 9.17791 4.67364 9.15815L4.46024 9.00565L4.24685 9.15815C4.21923 9.17791 4.18235 9.15112 4.19259 9.11873L4.27169 8.86866L4.06067 8.71284C4.03337 8.69268 4.04743 8.64932 4.08141 8.64905L4.34368 8.64702L4.42665 8.39819C4.43755 8.36597 4.4831 8.36597 4.49384 8.39819Z" fill="#F5F5F5"/>
<path d="M5.50418 0.961641L5.58715 1.21047L5.84942 1.2125C5.88336 1.21277 5.89746 1.25609 5.87012 1.27625L5.65914 1.43207L5.73824 1.68215C5.74848 1.71453 5.71164 1.74129 5.68398 1.72156L5.47058 1.56902L5.25718 1.72156C5.22957 1.74133 5.19269 1.71453 5.20293 1.68215L5.28203 1.43207L5.07105 1.27625C5.04374 1.25609 5.05781 1.21273 5.09179 1.2125L5.35406 1.21047L5.43703 0.961641C5.44789 0.929453 5.49344 0.929453 5.50418 0.961641Z" fill="#F5F5F5"/>
<path d="M5.50413 3.03711L5.5871 3.28594L5.84936 3.28798C5.88331 3.28825 5.89741 3.33157 5.87007 3.35176L5.65909 3.50759L5.73823 3.75763C5.74847 3.79001 5.71163 3.81677 5.68397 3.79704L5.47058 3.6445L5.25718 3.79704C5.22956 3.81681 5.19269 3.79001 5.20292 3.75763L5.28202 3.50755L5.07105 3.35173C5.04374 3.33157 5.05781 3.28821 5.09179 3.28794L5.35405 3.28591L5.43702 3.03708C5.44784 3.00489 5.49339 3.00489 5.50413 3.03711Z" fill="#F5F5F5"/>
<path d="M5.50418 5.33936L5.58715 5.58818L5.84942 5.59021C5.88336 5.59048 5.89746 5.6338 5.87012 5.654L5.65914 5.80982L5.73824 6.05989C5.74848 6.09228 5.71164 6.11903 5.68398 6.09931L5.47058 5.94681L5.25718 6.09931C5.22957 6.11903 5.19269 6.09228 5.20293 6.05989L5.28203 5.80982L5.07105 5.654C5.04374 5.63384 5.05781 5.59048 5.09179 5.59021L5.35406 5.58818L5.43703 5.33936C5.44789 5.30713 5.49344 5.30713 5.50418 5.33936Z" fill="#F5F5F5"/>
<path d="M5.50418 7.45435L5.58715 7.70317L5.84942 7.7052C5.88336 7.70548 5.89746 7.7488 5.87012 7.76899L5.65914 7.92481L5.73824 8.17488C5.74848 8.20727 5.71164 8.23402 5.68398 8.2143L5.47058 8.06176L5.25718 8.2143C5.22957 8.23402 5.19269 8.20727 5.20293 8.17488L5.28203 7.92481L5.07105 7.76899C5.04374 7.74883 5.05781 7.70548 5.09179 7.7052L5.35406 7.70317L5.43703 7.45435C5.44789 7.42212 5.49344 7.42212 5.50418 7.45435Z" fill="#F5F5F5"/>
<path d="M5.50418 9.37915L5.58715 9.62797L5.84942 9.63001C5.88336 9.63028 5.89746 9.6736 5.87012 9.69379L5.65914 9.84961L5.73824 10.0997C5.74848 10.1321 5.71164 10.1588 5.68398 10.1391L5.47058 9.9866L5.25718 10.1391C5.22957 10.1588 5.19269 10.1321 5.20293 10.0997L5.28203 9.84961L5.07105 9.69379C5.04374 9.67364 5.05781 9.63028 5.09179 9.63001L5.35406 9.62797L5.43703 9.37915C5.44789 9.34692 5.49344 9.34692 5.50418 9.37915Z" fill="#F5F5F5"/>
<path d="M6.51447 1.94434L6.59743 2.19317L6.8597 2.1952C6.89364 2.19547 6.90774 2.23879 6.8804 2.25895L6.66939 2.41477L6.74849 2.66485C6.75872 2.69723 6.72185 2.72403 6.69423 2.70426L6.48083 2.55172L6.26744 2.70426C6.23982 2.72403 6.20294 2.69723 6.21318 2.66485L6.29228 2.41477L6.0813 2.25895C6.054 2.23879 6.06806 2.19543 6.10201 2.1952L6.36427 2.19317L6.44724 1.94434C6.45818 1.91211 6.50372 1.91211 6.51447 1.94434Z" fill="#F5F5F5"/>
<path d="M6.51447 4.24683L6.59743 4.49566L6.8597 4.49769C6.89364 4.49796 6.90774 4.54128 6.8804 4.56148L6.66939 4.7173L6.74849 4.96738C6.75872 4.99976 6.72185 5.02656 6.69423 5.00679L6.48083 4.85425L6.26744 5.00679C6.23982 5.02656 6.20294 4.99976 6.21318 4.96738L6.29228 4.7173L6.0813 4.56148C6.054 4.54132 6.06806 4.49796 6.10201 4.49769L6.36427 4.49566L6.44724 4.24683C6.45818 4.2146 6.50372 4.2146 6.51447 4.24683Z" fill="#F5F5F5"/>
<path d="M6.51447 6.43381L6.59743 6.68264L6.8597 6.68467C6.89364 6.68494 6.90774 6.72826 6.8804 6.74846L6.66939 6.90428L6.74849 7.15436C6.75872 7.18675 6.72185 7.2135 6.69423 7.19378L6.48083 7.04124L6.26744 7.19378C6.23982 7.21354 6.20294 7.18675 6.21318 7.15436L6.29228 6.90428L6.0813 6.74846C6.054 6.7283 6.06806 6.68494 6.10201 6.68467L6.36427 6.68264L6.44724 6.43381C6.45818 6.40162 6.50372 6.40162 6.51447 6.43381Z" fill="#F5F5F5"/>
<path d="M6.51447 8.39819L6.59743 8.64702L6.8597 8.64905C6.89364 8.64932 6.90774 8.69264 6.8804 8.71284L6.66939 8.86866L6.74849 9.11873C6.75872 9.15112 6.72185 9.17791 6.69423 9.15815L6.48083 9.00565L6.26744 9.15815C6.23982 9.17791 6.20294 9.15112 6.21318 9.11873L6.29228 8.86866L6.0813 8.71284C6.054 8.69268 6.06806 8.64932 6.10201 8.64905L6.36427 8.64702L6.44724 8.39819C6.45818 8.36597 6.50372 8.36597 6.51447 8.39819Z" fill="#F5F5F5"/>
<path d="M7.52464 0.961641L7.60761 1.21047L7.86987 1.2125C7.90382 1.21277 7.91792 1.25609 7.89058 1.27625L7.67956 1.43207L7.75866 1.68215C7.7689 1.71453 7.73202 1.74129 7.70441 1.72156L7.49101 1.56902L7.27761 1.72156C7.24999 1.74133 7.21311 1.71453 7.22335 1.68215L7.30245 1.43207L7.09143 1.27625C7.06413 1.25609 7.07819 1.21273 7.11218 1.2125L7.37444 1.21047L7.45741 0.961641C7.46835 0.929453 7.5139 0.929453 7.52464 0.961641Z" fill="#F5F5F5"/>
<path d="M7.52464 3.03735L7.60761 3.28618L7.86987 3.28821C7.90382 3.28849 7.91792 3.33181 7.89058 3.352L7.67956 3.50782L7.75866 3.7579C7.7689 3.79029 7.73202 3.81704 7.70441 3.79732L7.49101 3.64478L7.27761 3.79732C7.24999 3.81708 7.21311 3.79029 7.22335 3.7579L7.30245 3.50782L7.09143 3.352C7.06413 3.33185 7.07819 3.28849 7.11218 3.28821L7.37444 3.28618L7.45741 3.03735C7.46835 3.00513 7.5139 3.00513 7.52464 3.03735Z" fill="#F5F5F5"/>
<path d="M7.52464 5.33936L7.60761 5.58818L7.86987 5.59021C7.90382 5.59048 7.91792 5.6338 7.89058 5.654L7.67956 5.80982L7.75866 6.05989C7.7689 6.09228 7.73202 6.11903 7.70441 6.09931L7.49101 5.94681L7.27761 6.09931C7.24999 6.11903 7.21311 6.09228 7.22335 6.05989L7.30245 5.80982L7.09143 5.654C7.06413 5.63384 7.07819 5.59048 7.11218 5.59021L7.37444 5.58818L7.45741 5.33936C7.46835 5.30713 7.5139 5.30713 7.52464 5.33936Z" fill="#F5F5F5"/>
<path d="M7.52464 7.45435L7.60761 7.70317L7.86987 7.7052C7.90382 7.70548 7.91792 7.7488 7.89058 7.76899L7.67956 7.92481L7.75866 8.17488C7.7689 8.20727 7.73202 8.23402 7.70441 8.2143L7.49101 8.06176L7.27761 8.2143C7.24999 8.23402 7.21311 8.20727 7.22335 8.17488L7.30245 7.92481L7.09143 7.76899C7.06413 7.74883 7.07819 7.70548 7.11218 7.7052L7.37444 7.70317L7.45741 7.45435C7.46835 7.42212 7.5139 7.42212 7.52464 7.45435Z" fill="#F5F5F5"/>
<path d="M7.52464 9.37915L7.60761 9.62797L7.86987 9.63001C7.90382 9.63028 7.91792 9.6736 7.89058 9.69379L7.67956 9.84961L7.75866 10.0997C7.7689 10.1321 7.73202 10.1588 7.70441 10.1391L7.49101 9.9866L7.27761 10.1391C7.24999 10.1588 7.21311 10.1321 7.22335 10.0997L7.30245 9.84961L7.09143 9.69379C7.06413 9.67364 7.07819 9.63028 7.11218 9.63001L7.37444 9.62797L7.45741 9.37915C7.46835 9.34692 7.5139 9.34692 7.52464 9.37915Z" fill="#F5F5F5"/>
<path d="M8.53497 1.94434L8.61794 2.19317L8.88025 2.1952C8.91419 2.19547 8.92829 2.23879 8.90095 2.25895L8.68993 2.41477L8.76904 2.66485C8.77927 2.69723 8.74239 2.72403 8.71478 2.70426L8.50138 2.55172L8.28798 2.70426C8.26037 2.72403 8.22349 2.69723 8.23373 2.66485L8.31283 2.41477L8.10181 2.25895C8.07451 2.23879 8.08857 2.19543 8.12252 2.1952L8.38482 2.19317L8.46779 1.94434C8.47869 1.91211 8.52423 1.91211 8.53497 1.94434Z" fill="#F5F5F5"/>
<path d="M8.53497 4.24683L8.61794 4.49566L8.88025 4.49769C8.91419 4.49796 8.92829 4.54128 8.90095 4.56148L8.68993 4.7173L8.76904 4.96738C8.77927 4.99976 8.74239 5.02656 8.71478 5.00679L8.50138 4.85425L8.28798 5.00679C8.26037 5.02656 8.22349 4.99976 8.23373 4.96738L8.31283 4.7173L8.10181 4.56148C8.07451 4.54132 8.08857 4.49796 8.12252 4.49769L8.38482 4.49566L8.46779 4.24683C8.47869 4.2146 8.52423 4.2146 8.53497 4.24683Z" fill="#F5F5F5"/>
<path d="M8.53497 6.43381L8.61794 6.68264L8.88025 6.68467C8.91419 6.68494 8.92829 6.72826 8.90095 6.74846L8.68993 6.90428L8.76904 7.15436C8.77927 7.18675 8.74239 7.2135 8.71478 7.19378L8.50138 7.04124L8.28798 7.19378C8.26037 7.21354 8.22349 7.18675 8.23373 7.15436L8.31283 6.90428L8.10181 6.74846C8.07451 6.7283 8.08857 6.68494 8.12252 6.68467L8.38482 6.68264L8.46779 6.43381C8.47869 6.40162 8.52423 6.40162 8.53497 6.43381Z" fill="#F5F5F5"/>
<path d="M8.53497 8.39819L8.61794 8.64702L8.88025 8.64905C8.91419 8.64932 8.92829 8.69264 8.90095 8.71284L8.68993 8.86866L8.76904 9.11873C8.77927 9.15112 8.74239 9.17791 8.71478 9.15815L8.50138 9.00565L8.28798 9.15815C8.26037 9.17791 8.22349 9.15112 8.23373 9.11873L8.31283 8.86866L8.10181 8.71284C8.07451 8.69268 8.08857 8.64932 8.12252 8.64905L8.38482 8.64702L8.46779 8.39819C8.47869 8.36597 8.52423 8.36597 8.53497 8.39819Z" fill="#F5F5F5"/>
<path d="M9.54523 0.961641L9.6282 1.21047L9.89047 1.2125C9.92441 1.21277 9.93852 1.25609 9.91121 1.27625L9.70019 1.43207L9.7793 1.68215C9.78953 1.71453 9.75266 1.74129 9.72504 1.72156L9.51164 1.56902L9.29824 1.72156C9.27062 1.74133 9.23375 1.71453 9.24398 1.68215L9.32308 1.43207L9.11207 1.27625C9.08476 1.25609 9.09882 1.21273 9.13277 1.2125L9.39504 1.21047L9.47801 0.961641C9.48894 0.929453 9.53449 0.929453 9.54523 0.961641Z" fill="#F5F5F5"/>
<path d="M9.54523 3.03735L9.6282 3.28618L9.89047 3.28821C9.92441 3.28849 9.93852 3.33181 9.91121 3.352L9.70019 3.50782L9.7793 3.7579C9.78953 3.79029 9.75266 3.81704 9.72504 3.79732L9.51164 3.64478L9.29824 3.79732C9.27062 3.81708 9.23375 3.79029 9.24398 3.7579L9.32308 3.50782L9.11207 3.352C9.08476 3.33185 9.09882 3.28849 9.13277 3.28821L9.39504 3.28618L9.47801 3.03735C9.48894 3.00513 9.53449 3.00513 9.54523 3.03735Z" fill="#F5F5F5"/>
<path d="M9.54523 5.33936L9.6282 5.58818L9.89047 5.59021C9.92441 5.59048 9.93852 5.6338 9.91121 5.654L9.70019 5.80982L9.7793 6.05989C9.78953 6.09228 9.75266 6.11903 9.72504 6.09931L9.51164 5.94681L9.29824 6.09931C9.27062 6.11903 9.23375 6.09228 9.24398 6.05989L9.32308 5.80982L9.11207 5.654C9.08476 5.63384 9.09882 5.59048 9.13277 5.59021L9.39504 5.58818L9.47801 5.33936C9.48894 5.30713 9.53449 5.30713 9.54523 5.33936Z" fill="#F5F5F5"/>
<path d="M9.54523 7.45435L9.6282 7.70317L9.89047 7.7052C9.92441 7.70548 9.93852 7.7488 9.91121 7.76899L9.70019 7.92481L9.7793 8.17488C9.78953 8.20727 9.75266 8.23402 9.72504 8.2143L9.51164 8.06176L9.29824 8.2143C9.27062 8.23402 9.23375 8.20727 9.24398 8.17488L9.32308 7.92481L9.11207 7.76899C9.08476 7.74883 9.09882 7.70548 9.13277 7.7052L9.39504 7.70317L9.47801 7.45435C9.48894 7.42212 9.53449 7.42212 9.54523 7.45435Z" fill="#F5F5F5"/>
<path d="M9.54523 9.37915L9.6282 9.62797L9.89047 9.63001C9.92441 9.63028 9.93852 9.6736 9.91121 9.69379L9.70019 9.84961L9.7793 10.0997C9.78953 10.1321 9.75266 10.1588 9.72504 10.1391L9.51164 9.9866L9.29824 10.1391C9.27062 10.1588 9.23375 10.1321 9.24398 10.0997L9.32308 9.84961L9.11207 9.69379C9.08476 9.67364 9.09882 9.63028 9.13277 9.63001L9.39504 9.62797L9.47801 9.37915C9.48894 9.34692 9.53449 9.34692 9.54523 9.37915Z" fill="#F5F5F5"/>
</svg>
