<svg width="14" height="14" viewBox="0 0 14 14" fill="none" xmlns="http://www.w3.org/2000/svg">
<path d="M2.78852 0H11.2087V0.723091H11.3627C11.7181 0.723091 12.0734 0.723091 12.4285 0.723091C12.999 0.723091 13.4628 0.93915 13.7612 1.43202C13.8742 1.61793 13.9207 1.84313 13.9973 2.05142V2.46253C13.9868 2.50143 13.9787 2.54094 13.9731 2.58083C13.8925 3.58576 13.6933 4.56374 13.2896 5.49147C12.4604 7.39032 11.057 8.58938 9.00026 8.97902C8.85491 9.00688 8.70819 9.02927 8.55692 9.05485C8.75786 9.75327 8.95287 10.4353 9.15335 11.1159C9.16221 11.1384 9.17636 11.1585 9.1946 11.1744C9.21284 11.1903 9.23464 11.2016 9.25815 11.2072C9.86597 11.225 10.5303 11.765 10.5075 12.605C10.4966 13.0243 10.5075 13.4436 10.5075 13.863C10.5075 13.9086 10.503 13.9511 10.5002 14H3.50797C3.50797 13.4605 3.4738 12.9256 3.51663 12.3971C3.57039 11.7321 4.07524 11.2739 4.74276 11.2164C4.83707 11.2081 4.84938 11.1556 4.86851 11.088C5.04895 10.4579 5.22984 9.82834 5.41118 9.19919C5.42439 9.15351 5.43214 9.10783 5.44216 9.06216C5.43009 9.0554 5.41743 9.04974 5.40435 9.04525C5.26492 9.02196 5.12549 9.00186 4.98698 8.97628C3.6032 8.72094 2.45317 8.06591 1.57515 6.95821C0.731302 5.8939 0.311658 4.65464 0.109809 3.3295C0.0642454 3.04219 0.0364512 2.75304 0 2.46435V2.05325C0.0104797 2.01031 0.0227826 1.96737 0.0318954 1.92398C0.0957 1.60107 0.265326 1.3088 0.513819 1.09361C0.762311 0.878426 1.07542 0.752674 1.40337 0.736337C1.81345 0.716238 2.22352 0.727202 2.6336 0.724461H2.78897L2.78852 0ZM2.87372 2.12953C2.41079 2.12953 1.96244 2.12953 1.51045 2.12953C1.41932 2.12953 1.39699 2.1912 1.40246 2.26931C1.46625 3.15501 1.61661 4.02245 1.95515 4.84877C2.31192 5.72032 2.83636 6.46214 3.63829 6.98059C3.8292 7.10438 4.03515 7.20487 4.23381 7.31587C3.76359 6.51878 3.47608 5.67144 3.26739 4.79624C3.05871 3.92104 2.94754 3.03488 2.87509 2.12953H2.87372ZM9.74614 7.30582C9.7917 7.28755 9.81494 7.28024 9.83727 7.27065C9.86597 7.25786 9.89422 7.24324 9.92293 7.22908C10.8716 6.76818 11.5131 6.01768 11.946 5.07305C12.3533 4.18369 12.5255 3.23769 12.598 2.26931C12.6062 2.16059 12.5524 2.12542 12.4504 2.12588C12.0357 2.12816 11.6216 2.12588 11.2069 2.12588C11.1823 2.12838 11.158 2.13343 11.1345 2.14095C10.9618 3.93886 10.7121 5.70524 9.74614 7.30582Z" fill="#D7AF22"/>
</svg>
