<svg width="18" height="18" viewBox="0 0 18 18" fill="none" xmlns="http://www.w3.org/2000/svg">
<path d="M2.74194 9.70968V9.70968C1.77989 9.70968 1 8.92979 1 7.96774V7.35484C1 6.25027 1.89543 5.35484 3 5.35484H8.83871M2.74194 9.70968V14.6774C2.74194 15.782 3.63737 16.6774 4.74194 16.6774H8.83871M2.74194 9.70968H14.9355M14.9355 9.70968V9.70968C15.8975 9.70968 16.6774 8.92979 16.6774 7.96774V7.35484C16.6774 6.25027 15.782 5.35484 14.6774 5.35484H8.83871M14.9355 9.70968V14.6774C14.9355 15.782 14.0401 16.6774 12.9355 16.6774H8.83871M8.83871 16.6774V5.35484M8.83871 5.35484V3.17742M8.83871 3.17742C8.83871 1.97486 7.86385 1 6.66129 1C5.45873 1 4.48387 1.97486 4.48387 3.17742C4.48387 4.37997 5.45873 5.35484 6.66129 5.35484M8.83871 3.17742C8.83871 1.97486 9.81357 1 11.0161 1C12.2187 1 13.1935 1.97486 13.1935 3.17742C13.1935 4.37997 12.2187 5.35484 11.0161 5.35484" stroke="#262628" stroke-linecap="round" stroke-linejoin="round"/>
</svg>
