<svg width="60" height="60" viewBox="0 0 60 60" fill="none" xmlns="http://www.w3.org/2000/svg">
<rect width="60" height="60" rx="10" fill="#4572EE"/>
<path d="M35.4095 37.0582C34.4861 37.0587 33.5634 37.0106 32.6451 36.9142C32.3714 37.6807 32.0046 38.4106 31.5527 39.0876C32.8275 39.2976 34.1176 39.4008 35.4095 39.3961C37.922 39.3961 40.2735 39.0354 42.0295 38.3752C43.4837 37.8318 44.3878 37.1195 44.3878 36.5149V35.0266C43.8183 35.4061 43.2046 35.7146 42.5604 35.9454C40.6377 36.6635 38.099 37.0582 35.4095 37.0582Z" fill="white"/>
<path d="M42.5604 32.0912C42.2201 32.2205 41.8503 32.3385 41.468 32.4462C39.7223 32.9374 37.6113 33.204 35.4095 33.204C34.6574 33.204 33.9179 33.1722 33.1987 33.1121V33.204C33.1987 33.3424 33.2078 33.4796 33.2078 33.6191C33.2079 34.2279 33.1521 34.8355 33.041 35.4341C33.7795 35.5055 34.5701 35.5475 35.4061 35.5475C37.9187 35.5475 40.2702 35.1868 42.0261 34.5266C43.064 34.1387 43.8195 33.6645 44.1689 33.2051C44.2978 33.0539 44.3735 32.8646 44.3844 32.6663V31.1724C44.1019 31.3651 43.8058 31.5372 43.4985 31.6874C43.1929 31.8378 42.8797 31.9726 42.5604 32.0912Z" fill="white"/>
<path d="M42.5602 28.2364C42.2199 28.3658 41.8501 28.4837 41.4678 28.5904C39.7209 29.0827 37.611 29.3492 35.4093 29.3492C34.3152 29.3506 33.2221 29.2824 32.1367 29.145L32.2388 29.3492C32.5798 30.0568 32.8342 30.8029 32.9965 31.5714C33.7497 31.6451 34.5551 31.6848 35.4093 31.6848C37.9218 31.6848 40.2733 31.3241 42.0293 30.6639C43.0672 30.276 43.8227 29.8018 44.1721 29.3424C44.3006 29.191 44.3762 29.0019 44.3876 28.8036V27.3176C44.1048 27.5099 43.8087 27.682 43.5017 27.8326C43.1949 27.9832 42.8807 28.118 42.5602 28.2364Z" fill="white"/>
<path d="M42.5605 24.1606C41.9211 24.3953 41.2666 24.5867 40.6015 24.7334C37.1777 25.4533 33.6416 25.4533 30.2178 24.7334C29.553 24.5866 28.8989 24.3952 28.2599 24.1606C28.0999 24.1005 27.9468 24.0392 27.7982 23.9757C27.3213 23.7762 26.8653 23.53 26.437 23.2406V24.2491C26.8464 24.3844 27.2465 24.5461 27.6349 24.7334C28.0878 24.9525 28.5232 25.2062 28.9371 25.4923C29.721 26.0317 30.4232 26.6811 31.022 27.4207C32.4692 27.7 33.9403 27.8368 35.4142 27.829C37.9267 27.829 40.2782 27.4672 42.0342 26.8081C43.0721 26.4213 43.8276 25.9472 44.1769 25.4878C44.3055 25.3364 44.3811 25.1472 44.3925 24.9489V23.2361C43.964 23.5253 43.508 23.7715 43.0312 23.9711C42.8736 24.0471 42.7193 24.1027 42.5605 24.1606Z" fill="white"/>
<path d="M35.4098 23.7579C37.9223 23.7579 40.2738 23.3972 42.0298 22.737C42.9032 22.4103 43.5759 22.0235 43.9752 21.6356C44.2417 21.3769 44.3881 21.1183 44.3881 20.8767C44.3881 20.6351 44.2429 20.381 43.9695 20.1189C42.8896 19.0844 39.7827 18 35.4098 18C32.8972 18 30.5469 18.3619 28.7909 19.0209C27.9175 19.3465 27.2448 19.7344 26.8444 20.1224C26.5789 20.3798 26.4326 20.6385 26.4326 20.8801C26.4326 21.1217 26.5778 21.3769 26.8512 21.639C27.9311 22.6746 31.038 23.7579 35.4098 23.7579Z" fill="white"/>
<path d="M24.9148 34.6626C24.7489 34.5406 24.5615 34.451 24.3624 34.3983L24.2864 34.3767H22.0869V36.9051H24.3635C24.5582 36.9085 24.7522 36.8798 24.9375 36.8201C25.1104 36.7685 25.2629 36.6643 25.3737 36.522C25.4845 36.3796 25.5481 36.2063 25.5557 36.026C25.5728 35.7631 25.523 35.5002 25.411 35.2617C25.2989 35.0233 25.1282 34.8171 24.9148 34.6626Z" fill="white"/>
<path d="M31.6844 33.2037C31.6844 33.1129 31.6719 33.0233 31.664 32.9337C31.6503 32.7692 31.6333 32.607 31.6106 32.446C31.597 32.3461 31.58 32.2486 31.563 32.1499C31.5346 31.9945 31.5029 31.8402 31.4666 31.6871C31.4394 31.5736 31.4099 31.4602 31.3781 31.3468C31.1795 30.6457 30.8897 29.9737 30.516 29.3481C30.4026 29.1586 30.2801 28.9738 30.1519 28.7934C30.1031 28.7253 30.0555 28.6561 30.0044 28.5892C29.8025 28.324 29.5851 28.071 29.3533 27.8315L29.3125 27.7906C28.4972 26.9543 27.5162 26.2975 26.4324 25.8623C26.2441 25.7874 26.0524 25.7171 25.8584 25.6558C25.7972 25.6365 25.7348 25.6195 25.6735 25.6025C25.4421 25.5344 25.2073 25.4766 24.9691 25.4289L24.9146 25.4199C23.5293 25.1541 22.0992 25.244 20.758 25.6811C19.4168 26.1182 18.2083 26.8882 17.2455 27.9192C16.2827 28.9501 15.597 30.2084 15.2526 31.5763C14.9081 32.9442 14.9161 34.3771 15.2758 35.7411C15.6355 37.1051 16.3352 38.3556 17.3095 39.3757C18.2837 40.3959 19.5007 41.1523 20.8467 41.5744C22.1927 41.9965 23.6237 42.0704 25.0061 41.7892C26.3884 41.508 27.6768 40.881 28.751 39.9666C28.972 39.7783 29.1833 39.5788 29.3839 39.3688C29.5775 39.1662 29.7613 38.9533 29.9352 38.7302C30.419 38.1081 30.8124 37.4207 31.1036 36.6884C31.1977 36.4513 31.2828 36.2086 31.3554 35.9601C31.428 35.7117 31.4881 35.4712 31.5369 35.2206C31.6419 34.6901 31.6947 34.1506 31.6946 33.6098C31.6946 33.4767 31.6912 33.3413 31.6844 33.2037ZM27.0336 35.3918C27.0806 35.6454 27.0928 35.9041 27.0699 36.1609C27.0403 36.5196 26.9339 36.8678 26.7579 37.1818C26.6316 37.4061 26.4673 37.6069 26.2724 37.7751C26.0777 37.9439 25.8576 38.0809 25.6202 38.1812C25.46 38.2494 25.2941 38.3033 25.1245 38.3423V39.1817C25.1284 39.2837 25.1117 39.3855 25.0754 39.481C25.0391 39.5764 24.9839 39.6635 24.9131 39.7371C24.8423 39.8107 24.7573 39.8693 24.6634 39.9093C24.5694 39.9493 24.4683 39.9699 24.3662 39.9699C24.2641 39.9699 24.163 39.9493 24.069 39.9093C23.975 39.8693 23.8901 39.8107 23.8193 39.7371C23.7485 39.6635 23.6933 39.5764 23.6569 39.481C23.6206 39.3855 23.6039 39.2837 23.6079 39.1817V38.4239H22.0867V39.1817C22.0907 39.2837 22.074 39.3855 22.0377 39.481C22.0013 39.5764 21.9461 39.6635 21.8753 39.7371C21.8045 39.8107 21.7196 39.8693 21.6256 39.9093C21.5316 39.9493 21.4305 39.9699 21.3284 39.9699C21.2263 39.9699 21.1252 39.9493 21.0313 39.9093C20.9373 39.8693 20.8524 39.8107 20.7816 39.7371C20.7107 39.6635 20.6555 39.5764 20.6192 39.481C20.5829 39.3855 20.5662 39.2837 20.5701 39.1817V38.4239H19.8112C19.61 38.4239 19.417 38.344 19.2746 38.2017C19.1323 38.0593 19.0524 37.8663 19.0524 37.6651C19.0524 37.4638 19.1323 37.2708 19.2746 37.1284C19.417 36.9861 19.61 36.9062 19.8112 36.9062H20.5701V30.327H19.8112C19.6152 30.3194 19.4297 30.2362 19.2937 30.0948C19.1577 29.9535 19.0817 29.7649 19.0817 29.5687C19.0817 29.3725 19.1577 29.184 19.2937 29.0426C19.4297 28.9012 19.6152 28.818 19.8112 28.8104H20.5701V28.0515C20.5777 27.8555 20.6609 27.67 20.8023 27.534C20.9437 27.398 21.1322 27.322 21.3284 27.322C21.5246 27.322 21.7132 27.398 21.8545 27.534C21.9959 27.67 22.0792 27.8555 22.0867 28.0515V28.8115H23.6045V28.0527C23.6121 27.8566 23.6953 27.6711 23.8367 27.5351C23.978 27.3991 24.1666 27.3231 24.3628 27.3231C24.559 27.3231 24.7475 27.3991 24.8889 27.5351C25.0303 27.6711 25.1135 27.8566 25.1211 28.0527V28.8932C25.3111 28.9358 25.4962 28.9977 25.6735 29.0781L25.7064 29.0929C25.9789 29.2198 26.2252 29.3968 26.4324 29.6147C26.7011 29.9024 26.8923 30.2537 26.9882 30.6356C27.0269 30.7801 27.0531 30.9278 27.0665 31.0768C27.0807 31.2372 27.0807 31.3985 27.0665 31.5589C27.0665 31.602 27.0619 31.6451 27.0529 31.6882C27.0195 31.9485 26.9532 32.2035 26.8555 32.4471C26.7719 32.6556 26.6662 32.8545 26.5402 33.0404C26.522 33.0664 26.505 33.0937 26.4857 33.1198C26.353 33.3024 26.2009 33.4702 26.032 33.62C26.1776 33.75 26.3109 33.8931 26.4301 34.0476L26.4846 34.1202C26.7586 34.4979 26.945 34.9319 27.0302 35.3907L27.0336 35.3918Z" fill="white"/>
<path d="M24.9148 30.4097C24.7362 30.3554 24.5502 30.329 24.3635 30.3315H22.0869V32.8599H24.2864C24.3125 32.8542 24.3374 32.8463 24.3624 32.8395C24.5615 32.7864 24.7489 32.6963 24.9148 32.574C25.2056 32.3596 25.4157 32.0535 25.5115 31.7051C25.5546 31.5456 25.5695 31.3798 25.5557 31.2151C25.5483 31.0302 25.4822 30.8524 25.3669 30.7076C25.2517 30.5628 25.0933 30.4585 24.9148 30.4097Z" fill="white"/>

</svg>
