<svg width="17" height="17" viewBox="0 0 17 17" fill="none" xmlns="http://www.w3.org/2000/svg">
<path d="M1 7.49343C1 6.91806 1.2478 6.37056 1.68007 5.99084L7.18007 1.15947C7.93506 0.496259 9.06494 0.496259 9.81993 1.15947L15.3199 5.99084C15.7522 6.37056 16 6.91806 16 7.49343V14C16 15.1046 15.1046 16 14 16H12.375C11.2704 16 10.375 15.1046 10.375 14V12.2279C10.375 11.1924 9.53553 10.3529 8.5 10.3529V10.3529C7.46447 10.3529 6.625 11.1924 6.625 12.2279V14C6.625 15.1046 5.72957 16 4.625 16H3C1.89543 16 1 15.1046 1 14V7.49343Z" stroke="#4572EE" stroke-linecap="round" stroke-linejoin="round"/>
</svg>
