<svg width="20" height="20" viewBox="0 0 20 20" fill="none" xmlns="http://www.w3.org/2000/svg">
<path d="M9.98828 4.14062C6.75762 4.14062 4.12891 6.76934 4.12891 10C4.12891 13.2307 6.75762 15.8594 9.98828 15.8594C13.2189 15.8594 15.8477 13.2307 15.8477 10C15.8477 6.76934 13.2189 4.14062 9.98828 4.14062Z" fill="#88019E"/>
<path d="M16.5523 15.3065C16.3749 14.6476 15.4291 14.4982 14.945 14.9792C14.4631 15.4581 14.6064 16.3936 15.2624 16.5701L15.548 16.647C16.2012 16.8228 16.7993 16.2246 16.6235 15.5714L16.5523 15.3065Z" fill="#88019E"/>
<path d="M10.7518 1.3601C10.4172 0.764125 9.55929 0.764129 9.22474 1.3601L9.07802 1.62148C8.74921 2.20721 9.31653 2.96875 9.98824 2.96875C10.66 2.96875 11.2273 2.20719 10.8985 1.62145L10.7518 1.3601Z" fill="#88019E"/>
<path d="M4.42686 3.36693C3.77537 3.19044 3.17803 3.78727 3.35397 4.43891L3.42577 4.70483C3.60269 5.36008 4.54057 5.50583 5.02048 5.02589C5.49804 4.54831 5.3563 3.61872 4.70441 3.44212L4.42686 3.36693Z" fill="#88019E"/>
<path d="M2.95699 10C2.95699 9.32663 2.18923 8.75855 1.60348 9.09071L1.3423 9.23882C0.75109 9.57408 0.751091 10.4259 1.3423 10.7612L1.60349 10.9093C2.18926 11.2415 2.95699 10.6734 2.95699 10Z" fill="#88019E"/>
<path d="M5.03153 14.9792C4.54747 14.4982 3.60164 14.6476 3.42431 15.3065L3.35304 15.5714C3.17725 16.2246 3.77539 16.8227 4.42862 16.647L4.71418 16.5701C5.37021 16.3936 5.51345 15.4581 5.03153 14.9792Z" fill="#88019E"/>
<path d="M9.98829 17.0313C9.30826 17.0313 8.73869 17.8025 9.07484 18.3937L9.22083 18.6504C9.55933 19.2457 10.4173 19.2457 10.7558 18.6504L10.9017 18.3937C11.2379 17.8025 10.6684 17.0313 9.98829 17.0313Z" fill="#88019E"/>
<path d="M15.2756 3.44505C14.6204 3.62287 14.4753 4.55721 14.9553 5.03745C15.4356 5.51807 16.3715 5.37331 16.5495 4.71755L16.6215 4.45205C16.7995 3.79611 16.1981 3.1947 15.5422 3.37271L15.2756 3.44505Z" fill="#88019E"/>
<path d="M18.6141 10.7769C19.2137 10.4374 19.2137 9.57356 18.614 9.23411L18.3663 9.09387C17.7742 8.75872 17.0194 9.31944 17.0194 9.99977C17.0194 10.6841 17.7795 11.2494 18.375 10.9123L18.6141 10.7769Z" fill="#88019E"/>
</svg>
