<svg width="12" height="18" viewBox="0 0 12 18" fill="none" xmlns="http://www.w3.org/2000/svg">
<path d="M8.83871 13.1935V14.0645C8.83871 15.5076 7.66887 16.6774 6.22581 16.6774V16.6774C4.78274 16.6774 3.6129 15.5076 3.6129 14.0645V13.1935M8.83871 13.1935C8.83871 13.1935 9.13245 12.2161 9.70968 10.5806C10.2159 9.14624 11.4516 9.11194 11.4516 6.22581C11.4516 3.33967 9.11194 1 6.22581 1C3.33967 1 1 3.33967 1 6.22581C1 9.11194 2.23567 9.14624 2.74194 10.5806C3.31916 12.2161 3.6129 13.1935 3.6129 13.1935M8.83871 13.1935H6.22581M3.6129 13.1935H6.22581M6.22581 13.1935V9.70968" stroke="#262628" stroke-linecap="round" stroke-linejoin="round"/>
</svg>
