<svg width="174" height="15" viewBox="0 0 174 15" fill="none" xmlns="http://www.w3.org/2000/svg">
<path d="M4.23052 7.5C4.23052 8.00198 4.31308 8.49406 4.4782 8.97622C4.64993 9.45839 4.94716 9.88771 5.36988 10.2642C5.7926 10.6407 6.35733 10.9445 7.06407 11.1757C7.77741 11.4003 8.679 11.5125 9.76882 11.5125C10.5086 11.5125 11.1526 11.4762 11.7008 11.4036C12.249 11.3309 12.6618 11.2252 12.9392 11.0865V9.0753H9.37252V5.97424H16.7635V13.0284C16.3342 13.3983 15.8487 13.7087 15.3071 13.9597C14.7721 14.2107 14.2008 14.4155 13.5931 14.574C12.9921 14.7259 12.3646 14.8349 11.7107 14.9009C11.0634 14.967 10.4161 15 9.76882 15C8.09115 15 6.63804 14.8052 5.40951 14.4155C4.18758 14.0192 3.17371 13.4841 2.3679 12.8104C1.56869 12.1301 0.97424 11.3342 0.584544 10.4227C0.194848 9.51123 0 8.53699 0 7.5C0 6.46301 0.194848 5.48877 0.584544 4.57728C0.97424 3.66579 1.56869 2.87318 2.3679 2.19947C3.17371 1.51915 4.18758 0.984148 5.40951 0.594452C6.63804 0.198151 8.09115 0 9.76882 0C10.3831 0 10.9511 0.0264201 11.4729 0.0792602C12.0013 0.125495 12.4868 0.191546 12.9293 0.277411C13.3719 0.356671 13.7715 0.449141 14.1281 0.554822C14.4848 0.660502 14.8018 0.766182 15.0793 0.871863C15.7332 1.12946 16.2715 1.41678 16.6942 1.73382L14.7424 4.57728C14.3527 4.37913 13.9036 4.19749 13.395 4.03236C12.959 3.90026 12.4339 3.77807 11.8197 3.66579C11.212 3.5469 10.5284 3.48745 9.76882 3.48745C8.679 3.48745 7.77741 3.60304 7.06407 3.83421C6.35733 4.05878 5.7926 4.35931 5.36988 4.7358C4.94716 5.11229 4.64993 5.54161 4.4782 6.02378C4.31308 6.50594 4.23052 6.99802 4.23052 7.5Z" fill="#1F3A99"/>
<path d="M28.3157 15C26.638 15 25.1849 14.8052 23.9564 14.4155C22.7345 14.0192 21.7206 13.4841 20.9148 12.8104C20.1156 12.1301 19.5211 11.3342 19.1314 10.4227C18.7417 9.51123 18.5469 8.53699 18.5469 7.5C18.5469 6.46301 18.7417 5.48877 19.1314 4.57728C19.5211 3.66579 20.1156 2.87318 20.9148 2.19947C21.7206 1.51915 22.7345 0.984148 23.9564 0.594452C25.1849 0.198151 26.638 0 28.3157 0C29.9934 0 31.4432 0.198151 32.6651 0.594452C33.8937 0.984148 34.9075 1.51915 35.7067 2.19947C36.5126 2.87318 37.1103 3.66579 37.5 4.57728C37.8897 5.48877 38.0845 6.46301 38.0845 7.5C38.0845 8.53699 37.8897 9.51123 37.5 10.4227C37.1103 11.3342 36.5126 12.1301 35.7067 12.8104C34.9075 13.4841 33.8937 14.0192 32.6651 14.4155C31.4432 14.8052 29.9934 15 28.3157 15ZM28.3157 11.5125C29.4055 11.5125 30.3038 11.4003 31.0106 11.1757C31.7239 10.9445 32.2919 10.6407 32.7147 10.2642C33.1374 9.88771 33.4313 9.45839 33.5964 8.97622C33.7682 8.49406 33.854 8.00198 33.854 7.5C33.854 6.99802 33.7682 6.50594 33.5964 6.02378C33.4313 5.54161 33.1374 5.11229 32.7147 4.7358C32.2919 4.35931 31.7239 4.05878 31.0106 3.83421C30.3038 3.60304 29.4055 3.48745 28.3157 3.48745C27.2259 3.48745 26.3243 3.60304 25.611 3.83421C24.9042 4.05878 24.3395 4.35931 23.9168 4.7358C23.4941 5.11229 23.1968 5.54161 23.0251 6.02378C22.86 6.50594 22.7774 6.99802 22.7774 7.5C22.7774 8.00198 22.86 8.49406 23.0251 8.97622C23.1968 9.45839 23.4941 9.88771 23.9168 10.2642C24.3395 10.6407 24.9042 10.9445 25.611 11.1757C26.3243 11.4003 27.2259 11.5125 28.3157 11.5125Z" fill="#1F3A99"/>
<path d="M56.7602 7.5C56.7602 8.50396 56.6281 9.43857 56.3639 10.3038C56.1063 11.1625 55.6836 11.9122 55.0958 12.5528C54.5079 13.1935 53.7384 13.6955 52.7873 14.0588C51.8428 14.4221 50.6869 14.6037 49.3197 14.6037H40.0661V0.396301H49.3197C50.6869 0.396301 51.8428 0.581242 52.7873 0.951123C53.7384 1.3144 54.5079 1.81638 55.0958 2.45707C55.6836 3.09115 56.1063 3.84082 56.3639 4.70608C56.6281 5.57133 56.7602 6.50264 56.7602 7.5ZM44.2569 11.1162H49.3197C50.4425 11.1162 51.2616 10.8157 51.7767 10.2147C52.2919 9.607 52.5495 8.70211 52.5495 7.5C52.5495 6.29789 52.2919 5.3963 51.7767 4.79524C51.2616 4.18758 50.4425 3.88375 49.3197 3.88375H44.2569V11.1162Z" fill="#1F3A99"/>
<path d="M58.7517 14.6037V0.396301H68.57C69.3362 0.396301 70 0.455746 70.5614 0.574637C71.1295 0.686922 71.6149 0.84214 72.0178 1.04029C72.4207 1.23844 72.751 1.46962 73.0086 1.73382C73.2662 1.99802 73.4676 2.27873 73.6129 2.57596C73.7649 2.87318 73.8672 3.18032 73.9201 3.49736C73.9795 3.80779 74.0092 4.11162 74.0092 4.40885C74.0092 4.7391 73.9597 5.04954 73.8606 5.34016C73.7616 5.63078 73.6162 5.89498 73.4247 6.13276C73.2332 6.37054 72.9987 6.5786 72.7213 6.75694C72.4505 6.92867 72.1433 7.06737 71.7999 7.17305C72.3085 7.28534 72.7345 7.45376 73.0779 7.67834C73.428 7.90291 73.7054 8.1605 73.9102 8.45112C74.1215 8.74174 74.2701 9.05878 74.356 9.40225C74.4485 9.74571 74.4947 10.0958 74.4947 10.4524C74.4947 10.7695 74.4584 11.0931 74.3857 11.4234C74.3131 11.7536 74.1909 12.074 74.0192 12.3844C73.8474 12.6882 73.6162 12.9756 73.3256 13.2464C73.0416 13.5172 72.6849 13.755 72.2556 13.9597C71.8263 14.1579 71.321 14.3164 70.7398 14.4353C70.1585 14.5476 69.4848 14.6037 68.7186 14.6037H58.7517ZM68.7186 11.3243C69.8613 11.3243 70.4326 10.9247 70.4326 10.1255C70.4326 9.32629 69.8613 8.92668 68.7186 8.92668H62.9425V11.3243H68.7186ZM68.57 5.94452C68.8408 5.94452 69.0654 5.91149 69.2437 5.84544C69.4287 5.77939 69.574 5.69353 69.6797 5.58785C69.7919 5.48217 69.8712 5.36328 69.9174 5.23118C69.9637 5.09247 69.9868 4.95376 69.9868 4.81506C69.9868 4.67635 69.9637 4.54095 69.9174 4.40885C69.8712 4.27015 69.7919 4.14795 69.6797 4.04227C69.574 3.93659 69.4287 3.85073 69.2437 3.78468C69.0654 3.71863 68.8408 3.6856 68.57 3.6856H62.9425V5.94452H68.57Z" fill="#1F3A99"/>
<path d="M85.8587 15C84.181 15 82.7279 14.8052 81.4993 14.4155C80.2774 14.0192 79.2635 13.4841 78.4577 12.8104C77.6585 12.1301 77.0641 11.3342 76.6744 10.4227C76.2847 9.51123 76.0898 8.53699 76.0898 7.5C76.0898 6.46301 76.2847 5.48877 76.6744 4.57728C77.0641 3.66579 77.6585 2.87318 78.4577 2.19947C79.2635 1.51915 80.2774 0.984148 81.4993 0.594452C82.7279 0.198151 84.181 0 85.8587 0C87.5363 0 88.9861 0.198151 90.2081 0.594452C91.4366 0.984148 92.4505 1.51915 93.2497 2.19947C94.0555 2.87318 94.6532 3.66579 95.0429 4.57728C95.4326 5.48877 95.6275 6.46301 95.6275 7.5C95.6275 8.53699 95.4326 9.51123 95.0429 10.4227C94.6532 11.3342 94.0555 12.1301 93.2497 12.8104C92.4505 13.4841 91.4366 14.0192 90.2081 14.4155C88.9861 14.8052 87.5363 15 85.8587 15ZM85.8587 11.5125C86.9485 11.5125 87.8468 11.4003 88.5535 11.1757C89.2668 10.9445 89.8349 10.6407 90.2576 10.2642C90.6803 9.88771 90.9742 9.45839 91.1394 8.97622C91.3111 8.49406 91.397 8.00198 91.397 7.5C91.397 6.99802 91.3111 6.50594 91.1394 6.02378C90.9742 5.54161 90.6803 5.11229 90.2576 4.7358C89.8349 4.35931 89.2668 4.05878 88.5535 3.83421C87.8468 3.60304 86.9485 3.48745 85.8587 3.48745C84.7688 3.48745 83.8672 3.60304 83.1539 3.83421C82.4472 4.05878 81.8824 4.35931 81.4597 4.7358C81.037 5.11229 80.7398 5.54161 80.568 6.02378C80.4029 6.50594 80.3203 6.99802 80.3203 7.5C80.3203 8.00198 80.4029 8.49406 80.568 8.97622C80.7398 9.45839 81.037 9.88771 81.4597 10.2642C81.8824 10.6407 82.4472 10.9445 83.1539 11.1757C83.8672 11.4003 84.7688 11.5125 85.8587 11.5125Z" fill="#1F3A99"/>
<path d="M111.787 0.396301V3.88375H105.753V14.6037H101.562V3.88375H95.5284V0.396301H111.787Z" fill="#1F3A99"/>
<path d="M111.4 12.7213C111.4 12.4373 111.453 12.1697 111.559 11.9188C111.671 11.6612 111.82 11.4399 112.005 11.255C112.196 11.0634 112.417 10.9148 112.668 10.8091C112.919 10.6968 113.19 10.6407 113.481 10.6407C113.765 10.6407 114.032 10.6968 114.283 10.8091C114.541 10.9148 114.762 11.0634 114.947 11.255C115.139 11.4399 115.287 11.6612 115.393 11.9188C115.505 12.1697 115.561 12.4373 115.561 12.7213C115.561 13.0119 115.505 13.2827 115.393 13.5337C115.287 13.7847 115.139 14.0059 114.947 14.1975C114.762 14.3824 114.541 14.5277 114.283 14.6334C114.032 14.7457 113.765 14.8018 113.481 14.8018C113.19 14.8018 112.919 14.7457 112.668 14.6334C112.417 14.5277 112.196 14.3824 112.005 14.1975C111.82 14.0059 111.671 13.7847 111.559 13.5337C111.453 13.2827 111.4 13.0119 111.4 12.7213Z" fill="#1F3A99"/>
<path d="M122.949 3.89366V7.57926H128.299C128.649 7.57926 128.95 7.53633 129.201 7.45046C129.452 7.35799 129.657 7.2325 129.815 7.07398C129.98 6.90885 130.099 6.714 130.172 6.48943C130.251 6.25826 130.291 6.00727 130.291 5.73646C130.291 5.46565 130.251 5.21797 130.172 4.99339C130.099 4.76222 129.98 4.56737 129.815 4.40885C129.657 4.24373 129.452 4.11823 129.201 4.03236C128.95 3.93989 128.649 3.89366 128.299 3.89366H122.949ZM118.758 14.6037V0.396301H128.299C129.297 0.396301 130.182 0.515192 130.954 0.752972C131.727 0.990753 132.378 1.33752 132.906 1.79326C133.435 2.24901 133.834 2.81044 134.105 3.47754C134.382 4.13804 134.521 4.89102 134.521 5.73646C134.521 6.5819 134.382 7.33818 134.105 8.00528C133.834 8.66579 133.435 9.22391 132.906 9.67966C132.378 10.1354 131.727 10.4822 130.954 10.7199C130.182 10.9577 129.297 11.0766 128.299 11.0766H122.959L122.949 14.6037H118.758Z" fill="#88019E"/>
<path d="M136.711 14.6037V0.396301H146.054C146.972 0.396301 147.824 0.488771 148.61 0.673712C149.396 0.852048 150.073 1.14267 150.641 1.54557C151.215 1.94848 151.665 2.47358 151.988 3.12087C152.312 3.76156 152.474 4.54095 152.474 5.45905C152.474 6.04029 152.381 6.55218 152.196 6.99472C152.018 7.43065 151.79 7.81044 151.513 8.13408C151.235 8.45112 150.928 8.71202 150.591 8.91678C150.261 9.12153 149.947 9.27675 149.65 9.38243L152.602 14.6037H148.104L145.618 10.2147H140.902V14.6037H136.711ZM140.902 3.89366V7.02444H146.054C146.813 7.02444 147.368 6.90555 147.718 6.66777C148.068 6.42338 148.243 6.02048 148.243 5.45905C148.243 4.90423 148.068 4.50462 147.718 4.26024C147.368 4.01585 146.813 3.89366 146.054 3.89366H140.902Z" fill="#88019E"/>
<path d="M163.956 15C162.279 15 160.826 14.8052 159.597 14.4155C158.375 14.0192 157.361 13.4841 156.556 12.8104C155.756 12.1301 155.162 11.3342 154.772 10.4227C154.382 9.51123 154.188 8.53699 154.188 7.5C154.188 6.46301 154.382 5.48877 154.772 4.57728C155.162 3.66579 155.756 2.87318 156.556 2.19947C157.361 1.51915 158.375 0.984148 159.597 0.594452C160.826 0.198151 162.279 0 163.956 0C165.634 0 167.084 0.198151 168.306 0.594452C169.534 0.984148 170.548 1.51915 171.347 2.19947C172.153 2.87318 172.751 3.66579 173.141 4.57728C173.53 5.48877 173.725 6.46301 173.725 7.5C173.725 8.53699 173.53 9.51123 173.141 10.4227C172.751 11.3342 172.153 12.1301 171.347 12.8104C170.548 13.4841 169.534 14.0192 168.306 14.4155C167.084 14.8052 165.634 15 163.956 15ZM163.956 11.5125C165.046 11.5125 165.945 11.4003 166.651 11.1757C167.365 10.9445 167.933 10.6407 168.355 10.2642C168.778 9.88771 169.072 9.45839 169.237 8.97622C169.409 8.49406 169.495 8.00198 169.495 7.5C169.495 6.99802 169.409 6.50594 169.237 6.02378C169.072 5.54161 168.778 5.11229 168.355 4.7358C167.933 4.35931 167.365 4.05878 166.651 3.83421C165.945 3.60304 165.046 3.48745 163.956 3.48745C162.867 3.48745 161.965 3.60304 161.252 3.83421C160.545 4.05878 159.98 4.35931 159.558 4.7358C159.135 5.11229 158.838 5.54161 158.666 6.02378C158.501 6.50594 158.418 6.99802 158.418 7.5C158.418 8.00198 158.501 8.49406 158.666 8.97622C158.838 9.45839 159.135 9.88771 159.558 10.2642C159.98 10.6407 160.545 10.9445 161.252 11.1757C161.965 11.4003 162.867 11.5125 163.956 11.5125Z" fill="#88019E"/>
</svg>
