<svg width="19" height="15" viewBox="0 0 19 15" fill="none" xmlns="http://www.w3.org/2000/svg">
<path fill-rule="evenodd" clip-rule="evenodd" d="M0 2.66129C0 1.1915 1.1915 0 2.66129 0H16.2097C17.6795 0 18.871 1.1915 18.871 2.66129V12.3387C18.871 13.8085 17.6795 15 16.2097 15H2.66129C1.1915 15 0 13.8085 0 12.3387V2.66129ZM2.09615 2.70256C1.76262 2.48021 1.31199 2.57034 1.08964 2.90387C0.867288 3.2374 0.957415 3.68803 1.29094 3.91038L7.95927 8.35593C8.85319 8.95188 10.0178 8.95188 10.9117 8.35593L17.58 3.91038C17.9136 3.68803 18.0037 3.2374 17.7813 2.90387C17.559 2.57034 17.1083 2.48021 16.7748 2.70256L10.1065 7.14811C9.70016 7.419 9.17081 7.419 8.76448 7.14811L2.09615 2.70256Z" fill="#4572EE"/>
</svg>
