<svg width="17" height="20" viewBox="0 0 17 20" fill="none" xmlns="http://www.w3.org/2000/svg">
<path d="M15.9628 17.6724C15.9137 17.5994 15.8348 17.5517 15.7473 17.5423H15.7074C10.5169 17.5478 6.30474 13.3446 6.29923 8.15409C6.29603 5.14537 7.73353 2.31699 10.1659 0.546169C10.3029 0.454529 10.3396 0.269255 10.2479 0.132347C10.1921 0.049005 10.0982 -0.000727177 9.99789 8.03959e-06L10 0.00210866C4.47773 0.00153099 0.000577726 4.47774 5.59064e-08 10C-0.000577614 15.5223 4.47563 19.9994 9.99789 20C12.1122 20.0002 14.1721 19.3303 15.8817 18.0863C16.0184 17.9944 16.0547 17.8091 15.9628 17.6724Z" fill="#88019E"/>
<path d="M12.7534 11.7295C12.7177 11.6992 12.6755 11.6778 12.63 11.6668L12.6279 11.6626L11.8213 11.4693L11.3885 10.7677C11.3033 10.6268 11.1199 10.5816 10.9789 10.6669C10.9376 10.6918 10.903 10.7264 10.8781 10.7677L10.4412 11.4693L9.64713 11.6626C9.48533 11.6936 9.3793 11.8499 9.41029 12.0117C9.42005 12.0628 9.44306 12.1104 9.47698 12.1499L10.0147 12.7801L9.95172 13.6077C9.93707 13.7719 10.0582 13.9167 10.2223 13.9314C10.2735 13.936 10.325 13.9273 10.3718 13.906L11.1407 13.5909L11.8927 13.8997C12.0429 13.9674 12.2195 13.9005 12.2872 13.7503C12.3073 13.7056 12.3161 13.6566 12.3128 13.6077L12.2498 12.7801L12.7875 12.1499C12.8942 12.0244 12.8789 11.8361 12.7534 11.7295Z" fill="#88019E"/>
<path d="M14.0494 4.11676C14.0138 4.08645 13.9715 4.06503 13.9261 4.05405L13.9303 4.06456L12.5522 3.72846L11.8086 2.5248C11.7233 2.38385 11.5399 2.33869 11.399 2.42398C11.3577 2.44892 11.3231 2.48353 11.2982 2.5248L10.5524 3.73266L9.18703 4.06666C9.02612 4.10205 8.92439 4.26117 8.95979 4.42208C8.96898 4.46378 8.98699 4.50306 9.01267 4.53719L9.93065 5.61901L9.82352 7.03482C9.80887 7.19894 9.92997 7.34382 10.0941 7.35848C10.1453 7.36305 10.1968 7.35433 10.2436 7.33311L11.5565 6.79535L12.8526 7.32681C13.0028 7.39445 13.1794 7.32754 13.2471 7.17735C13.2672 7.13266 13.2761 7.08372 13.2728 7.03482L13.1656 5.61901L14.0836 4.53719C14.1903 4.41163 14.175 4.22341 14.0494 4.11676Z" fill="#88019E"/>
<path d="M16.715 8.94629C16.6794 8.91598 16.6372 8.89456 16.5917 8.88358L16.5833 8.87938L15.9531 8.72814L15.6191 8.18618C15.5338 8.04523 15.3504 8.00007 15.2095 8.08535C15.1682 8.1103 15.1336 8.1449 15.1087 8.18618L14.7789 8.73864L14.1697 8.88778C14.0082 8.92029 13.9036 9.07752 13.9361 9.23906C13.9457 9.28669 13.9667 9.33122 13.9974 9.36882L14.4176 9.85826L14.3692 10.4884C14.3546 10.6526 14.4757 10.7974 14.6398 10.8121C14.691 10.8167 14.7425 10.8079 14.7894 10.7867L15.3817 10.5431L15.9573 10.7783C16.1075 10.846 16.2841 10.7791 16.3518 10.6289C16.3719 10.5842 16.3807 10.5352 16.3774 10.4863L16.3291 9.85616L16.7492 9.36672C16.8559 9.24116 16.8406 9.05294 16.715 8.94629Z" fill="#88019E"/>
</svg>
