<svg width="1440" height="763" viewBox="0 0 1440 763" fill="none" xmlns="http://www.w3.org/2000/svg">
<g opacity="0.2">
<path d="M396.946 976.276C425.987 845.173 543.123 746.908 682.869 746.908C822.615 746.908 939.694 845.249 968.715 976.352H970.623C941.563 844.219 823.55 745 682.869 745C542.188 745 424.06 844.219 395 976.276H396.946Z" fill="#EA227A"/>
<path d="M148.309 103.618C149.584 103.618 150.617 102.584 150.617 101.309C150.617 100.034 149.584 99 148.309 99C147.034 99 146 100.034 146 101.309C146 102.584 147.034 103.618 148.309 103.618Z" fill="#EA227A"/>
<path d="M175.656 101.328C175.656 101.788 175.519 102.238 175.263 102.621C175.008 103.004 174.644 103.302 174.219 103.479C173.793 103.655 173.325 103.701 172.874 103.611C172.422 103.521 172.007 103.299 171.682 102.974C171.356 102.648 171.135 102.234 171.045 101.782C170.955 101.33 171.001 100.862 171.177 100.437C171.353 100.012 171.652 99.6482 172.035 99.3924C172.417 99.1366 172.867 99.0001 173.328 99.0001C173.634 98.9975 173.938 99.056 174.222 99.1721C174.505 99.2882 174.763 99.4595 174.98 99.6762C175.196 99.8929 175.368 100.151 175.484 100.434C175.6 100.718 175.658 101.022 175.656 101.328Z" fill="#EA227A"/>
<path d="M199.646 101.538C199.594 102.117 199.327 102.655 198.898 103.047C198.469 103.438 197.909 103.656 197.328 103.656C196.747 103.656 196.187 103.438 195.758 103.047C195.329 102.655 195.062 102.117 195.01 101.538C194.98 101.216 195.018 100.892 195.122 100.585C195.225 100.278 195.391 99.9968 195.609 99.758C195.827 99.5192 196.093 99.3284 196.389 99.1979C196.685 99.0674 197.004 99 197.328 99C197.651 99 197.971 99.0674 198.267 99.1979C198.563 99.3284 198.829 99.5192 199.047 99.758C199.265 99.9968 199.431 100.278 199.534 100.585C199.637 100.892 199.675 101.216 199.646 101.538Z" fill="#EA227A"/>
<path d="M222.309 103.618C223.584 103.618 224.617 102.584 224.617 101.309C224.617 100.034 223.584 99 222.309 99C221.034 99 220 100.034 220 101.309C220 102.584 221.034 103.618 222.309 103.618Z" fill="#EA227A"/>
<path d="M246.309 103.618C247.584 103.618 248.618 102.584 248.618 101.309C248.618 100.034 247.584 99 246.309 99C245.034 99 244 100.034 244 101.309C244 102.584 245.034 103.618 246.309 103.618Z" fill="white"/>
<path d="M273.656 101.328C273.656 101.788 273.519 102.238 273.263 102.621C273.008 103.004 272.644 103.302 272.219 103.478C271.793 103.655 271.325 103.701 270.874 103.611C270.422 103.521 270.007 103.299 269.682 102.974C269.356 102.648 269.135 102.234 269.045 101.782C268.955 101.33 269.001 100.862 269.177 100.437C269.353 100.012 269.652 99.6481 270.035 99.3923C270.417 99.1365 270.867 99 271.328 99C271.945 99 272.537 99.2453 272.974 99.6818C273.41 100.118 273.656 100.71 273.656 101.328Z" fill="#EA227A"/>
<path d="M295.309 103.618C296.584 103.618 297.617 102.584 297.617 101.309C297.617 100.034 296.584 99 295.309 99C294.034 99 293 100.034 293 101.309C293 102.584 294.034 103.618 295.309 103.618Z" fill="#EA227A"/>
<path d="M150.656 128.328C150.656 128.788 150.519 129.238 150.263 129.621C150.008 130.004 149.644 130.302 149.219 130.478C148.793 130.655 148.325 130.701 147.874 130.611C147.422 130.521 147.007 130.299 146.682 129.974C146.356 129.648 146.135 129.234 146.045 128.782C145.955 128.33 146.001 127.862 146.177 127.437C146.353 127.012 146.652 126.648 147.035 126.392C147.417 126.137 147.867 126 148.328 126C148.634 126 148.936 126.06 149.219 126.177C149.501 126.294 149.758 126.466 149.974 126.682C150.19 126.898 150.361 127.155 150.478 127.437C150.595 127.719 150.656 128.022 150.656 128.328Z" fill="white"/>
<path d="M175.656 128.328C175.656 128.788 175.519 129.238 175.263 129.621C175.008 130.004 174.644 130.302 174.219 130.479C173.793 130.655 173.325 130.701 172.874 130.611C172.422 130.521 172.007 130.299 171.682 129.974C171.356 129.648 171.135 129.234 171.045 128.782C170.955 128.33 171.001 127.862 171.177 127.437C171.353 127.012 171.652 126.648 172.035 126.392C172.417 126.137 172.867 126 173.328 126C173.634 125.998 173.938 126.056 174.222 126.172C174.505 126.288 174.763 126.46 174.98 126.676C175.196 126.893 175.368 127.151 175.484 127.434C175.6 127.718 175.658 128.022 175.656 128.328Z" fill="#EA227A"/>
<path d="M199.646 128.538C199.594 129.117 199.327 129.655 198.898 130.047C198.469 130.438 197.909 130.656 197.328 130.656C196.747 130.656 196.187 130.438 195.758 130.047C195.329 129.655 195.062 129.117 195.01 128.538C194.98 128.216 195.018 127.892 195.122 127.585C195.225 127.278 195.391 126.997 195.609 126.758C195.827 126.519 196.093 126.328 196.389 126.198C196.685 126.067 197.004 126 197.328 126C197.651 126 197.971 126.067 198.267 126.198C198.563 126.328 198.829 126.519 199.047 126.758C199.265 126.997 199.431 127.278 199.534 127.585C199.637 127.892 199.675 128.216 199.646 128.538Z" fill="#EA227A"/>
<path d="M224.617 128.328C224.614 128.784 224.475 129.228 224.219 129.605C223.963 129.982 223.601 130.275 223.179 130.447C222.757 130.619 222.293 130.662 221.847 130.571C221.4 130.48 220.99 130.258 220.67 129.935C220.349 129.611 220.131 129.2 220.043 128.752C219.955 128.305 220.002 127.842 220.178 127.421C220.353 127 220.649 126.641 221.028 126.388C221.407 126.135 221.853 126 222.309 126C222.613 126 222.915 126.06 223.197 126.178C223.478 126.295 223.733 126.467 223.948 126.683C224.163 126.899 224.332 127.156 224.447 127.438C224.562 127.721 224.62 128.023 224.617 128.328Z" fill="#EA227A"/>
<path d="M248.617 128.328C248.614 128.784 248.475 129.228 248.219 129.605C247.963 129.982 247.601 130.275 247.179 130.447C246.757 130.619 246.293 130.662 245.847 130.571C245.4 130.48 244.99 130.258 244.67 129.935C244.349 129.611 244.131 129.2 244.043 128.752C243.955 128.305 244.002 127.842 244.178 127.421C244.353 127 244.649 126.641 245.028 126.388C245.407 126.135 245.853 126 246.309 126C246.613 126 246.915 126.06 247.197 126.178C247.478 126.295 247.733 126.467 247.948 126.683C248.163 126.899 248.332 127.156 248.447 127.438C248.562 127.721 248.62 128.023 248.617 128.328Z" fill="#EA227A"/>
<path d="M273.656 128.328C273.656 128.788 273.519 129.238 273.263 129.621C273.008 130.004 272.644 130.302 272.219 130.478C271.793 130.655 271.325 130.701 270.874 130.611C270.422 130.521 270.007 130.299 269.682 129.974C269.356 129.648 269.135 129.234 269.045 128.782C268.955 128.33 269.001 127.862 269.177 127.437C269.353 127.012 269.652 126.648 270.035 126.392C270.417 126.137 270.867 126 271.328 126C271.945 126 272.537 126.245 272.974 126.682C273.41 127.118 273.656 127.71 273.656 128.328Z" fill="#EA227A"/>
<path d="M297.656 128.328C297.656 128.788 297.519 129.238 297.263 129.621C297.008 130.004 296.644 130.302 296.219 130.478C295.793 130.655 295.325 130.701 294.874 130.611C294.422 130.521 294.007 130.299 293.682 129.974C293.356 129.648 293.135 129.234 293.045 128.782C292.955 128.33 293.001 127.862 293.177 127.437C293.353 127.012 293.652 126.648 294.035 126.392C294.417 126.137 294.867 126 295.328 126C295.945 126 296.537 126.245 296.974 126.682C297.41 127.118 297.656 127.71 297.656 128.328Z" fill="#EA227A"/>
<path d="M148.309 157.618C149.584 157.618 150.617 156.584 150.617 155.309C150.617 154.034 149.584 153 148.309 153C147.034 153 146 154.034 146 155.309C146 156.584 147.034 157.618 148.309 157.618Z" fill="#EA227A"/>
<path d="M175.656 155.328C175.656 155.788 175.519 156.238 175.263 156.621C175.008 157.004 174.644 157.302 174.219 157.479C173.793 157.655 173.325 157.701 172.874 157.611C172.422 157.521 172.007 157.299 171.682 156.974C171.356 156.648 171.135 156.234 171.045 155.782C170.955 155.33 171.001 154.862 171.177 154.437C171.353 154.012 171.652 153.648 172.035 153.392C172.417 153.137 172.867 153 173.328 153C173.634 152.998 173.938 153.056 174.222 153.172C174.505 153.288 174.763 153.46 174.98 153.676C175.196 153.893 175.368 154.151 175.484 154.434C175.6 154.718 175.658 155.021 175.656 155.328Z" fill="#EA227A"/>
<path d="M199.646 155.538C199.594 156.117 199.327 156.655 198.898 157.047C198.469 157.438 197.909 157.656 197.328 157.656C196.747 157.656 196.187 157.438 195.758 157.047C195.329 156.655 195.062 156.117 195.01 155.538C194.98 155.216 195.018 154.892 195.122 154.585C195.225 154.278 195.391 153.997 195.609 153.758C195.827 153.519 196.093 153.328 196.389 153.198C196.685 153.067 197.004 153 197.328 153C197.651 153 197.971 153.067 198.267 153.198C198.563 153.328 198.829 153.519 199.047 153.758C199.265 153.997 199.431 154.278 199.534 154.585C199.637 154.892 199.675 155.216 199.646 155.538Z" fill="white"/>
<path d="M222.309 157.618C223.584 157.618 224.617 156.584 224.617 155.309C224.617 154.034 223.584 153 222.309 153C221.034 153 220 154.034 220 155.309C220 156.584 221.034 157.618 222.309 157.618Z" fill="#EA227A"/>
<path d="M246.309 157.618C247.584 157.618 248.618 156.584 248.618 155.309C248.618 154.034 247.584 153 246.309 153C245.034 153 244 154.034 244 155.309C244 156.584 245.034 157.618 246.309 157.618Z" fill="#EA227A"/>
<path d="M273.656 155.328C273.656 155.788 273.519 156.238 273.263 156.621C273.008 157.004 272.644 157.302 272.219 157.478C271.793 157.655 271.325 157.701 270.874 157.611C270.422 157.521 270.007 157.299 269.682 156.974C269.356 156.648 269.135 156.234 269.045 155.782C268.955 155.33 269.001 154.862 269.177 154.437C269.353 154.012 269.652 153.648 270.035 153.392C270.417 153.137 270.867 153 271.328 153C271.945 153 272.537 153.245 272.974 153.682C273.41 154.118 273.656 154.71 273.656 155.328Z" fill="#EA227A"/>
<path d="M295.309 157.618C296.584 157.618 297.617 156.584 297.617 155.309C297.617 154.034 296.584 153 295.309 153C294.034 153 293 154.034 293 155.309C293 156.584 294.034 157.618 295.309 157.618Z" fill="#EA227A"/>
<path d="M150.656 183.309C150.659 183.77 150.526 184.222 150.273 184.607C150.019 184.993 149.657 185.294 149.232 185.473C148.807 185.652 148.338 185.701 147.885 185.613C147.433 185.526 147.016 185.305 146.689 184.981C146.361 184.656 146.138 184.241 146.046 183.789C145.955 183.337 146 182.868 146.175 182.441C146.351 182.015 146.649 181.65 147.033 181.394C147.416 181.137 147.867 181 148.328 181C148.942 181 149.531 181.243 149.967 181.675C150.403 182.107 150.651 182.695 150.656 183.309Z" fill="#EA227A"/>
<path d="M175.656 183.309C175.659 183.77 175.526 184.222 175.273 184.607C175.019 184.993 174.657 185.294 174.232 185.473C173.807 185.652 173.338 185.701 172.885 185.613C172.433 185.526 172.016 185.305 171.689 184.981C171.361 184.656 171.138 184.241 171.046 183.789C170.955 183.337 171 182.868 171.175 182.442C171.351 182.015 171.649 181.65 172.033 181.394C172.416 181.137 172.867 181 173.328 181C173.633 180.998 173.935 181.055 174.217 181.17C174.499 181.285 174.756 181.455 174.973 181.67C175.189 181.884 175.361 182.14 175.478 182.421C175.595 182.702 175.656 183.004 175.656 183.309Z" fill="#EA227A"/>
<path d="M199.656 183.309C199.659 183.771 199.526 184.224 199.271 184.609C199.017 184.995 198.654 185.296 198.227 185.475C197.801 185.653 197.332 185.701 196.878 185.612C196.425 185.523 196.009 185.301 195.682 184.974C195.355 184.647 195.133 184.231 195.044 183.777C194.955 183.324 195.002 182.854 195.181 182.428C195.359 182.002 195.661 181.639 196.046 181.384C196.432 181.13 196.885 180.996 197.347 181C197.959 181 198.546 181.243 198.979 181.676C199.412 182.109 199.656 182.697 199.656 183.309Z" fill="#EA227A"/>
<path d="M224.617 183.309C224.617 183.765 224.482 184.212 224.228 184.591C223.975 184.971 223.614 185.267 223.192 185.442C222.77 185.617 222.306 185.662 221.858 185.573C221.41 185.484 220.999 185.264 220.676 184.941C220.353 184.618 220.133 184.207 220.044 183.759C219.955 183.311 220.001 182.847 220.176 182.425C220.35 182.003 220.646 181.643 221.026 181.389C221.406 181.135 221.852 181 222.309 181C222.921 181 223.508 181.243 223.941 181.676C224.374 182.109 224.617 182.696 224.617 183.309Z" fill="#EA227A"/>
<path d="M248.618 183.309C248.618 183.765 248.482 184.212 248.228 184.591C247.975 184.971 247.614 185.267 247.192 185.442C246.77 185.617 246.306 185.662 245.858 185.573C245.41 185.484 244.999 185.264 244.676 184.941C244.353 184.618 244.133 184.207 244.044 183.759C243.955 183.311 244.001 182.847 244.176 182.425C244.35 182.003 244.646 181.643 245.026 181.389C245.406 181.135 245.852 181 246.309 181C246.921 181 247.508 181.243 247.941 181.676C248.374 182.109 248.618 182.696 248.618 183.309Z" fill="white"/>
<path d="M273.656 183.309C273.659 183.77 273.526 184.222 273.273 184.607C273.019 184.993 272.657 185.294 272.232 185.473C271.807 185.652 271.338 185.701 270.885 185.613C270.433 185.526 270.016 185.305 269.689 184.981C269.361 184.656 269.138 184.241 269.046 183.789C268.955 183.337 269 182.868 269.175 182.441C269.351 182.015 269.649 181.65 270.033 181.394C270.416 181.137 270.867 181 271.328 181C271.942 181 272.531 181.243 272.967 181.675C273.403 182.107 273.651 182.695 273.656 183.309Z" fill="#EA227A"/>
<path d="M297.656 183.309C297.659 183.77 297.526 184.222 297.273 184.607C297.019 184.993 296.657 185.294 296.232 185.473C295.807 185.652 295.338 185.701 294.885 185.613C294.433 185.526 294.016 185.305 293.689 184.981C293.361 184.656 293.138 184.241 293.046 183.789C292.955 183.337 293 182.868 293.175 182.441C293.351 182.015 293.649 181.65 294.033 181.394C294.416 181.137 294.867 181 295.328 181C295.942 181 296.531 181.243 296.967 181.675C297.403 182.107 297.651 182.695 297.656 183.309Z" fill="#EA227A"/>
<path d="M148.309 212.617C149.584 212.617 150.617 211.584 150.617 210.309C150.617 209.034 149.584 208 148.309 208C147.034 208 146 209.034 146 210.309C146 211.584 147.034 212.617 148.309 212.617Z" fill="#EA227A"/>
<path d="M175.656 210.309C175.659 210.77 175.526 211.222 175.273 211.607C175.019 211.993 174.657 212.294 174.232 212.473C173.807 212.652 173.338 212.701 172.885 212.613C172.433 212.526 172.016 212.305 171.689 211.981C171.361 211.656 171.138 211.241 171.046 210.789C170.955 210.337 171 209.868 171.175 209.442C171.351 209.015 171.649 208.65 172.033 208.394C172.416 208.137 172.867 208 173.328 208C173.633 207.998 173.935 208.055 174.217 208.17C174.499 208.285 174.756 208.455 174.973 208.67C175.189 208.884 175.361 209.14 175.478 209.421C175.595 209.702 175.656 210.004 175.656 210.309Z" fill="#EA227A"/>
<path d="M199.656 210.309C199.659 210.771 199.526 211.224 199.271 211.609C199.017 211.995 198.654 212.296 198.227 212.475C197.801 212.653 197.332 212.701 196.878 212.612C196.425 212.523 196.009 212.301 195.682 211.974C195.355 211.647 195.133 211.231 195.044 210.777C194.955 210.324 195.002 209.854 195.181 209.428C195.359 209.002 195.661 208.639 196.046 208.384C196.432 208.13 196.885 207.996 197.347 208C197.959 208 198.546 208.243 198.979 208.676C199.412 209.109 199.656 209.697 199.656 210.309Z" fill="#EA227A"/>
<path d="M222.309 212.617C223.584 212.617 224.617 211.584 224.617 210.309C224.617 209.034 223.584 208 222.309 208C221.034 208 220 209.034 220 210.309C220 211.584 221.034 212.617 222.309 212.617Z" fill="#EA227A"/>
<path d="M246.309 212.617C247.584 212.617 248.618 211.584 248.618 210.309C248.618 209.034 247.584 208 246.309 208C245.034 208 244 209.034 244 210.309C244 211.584 245.034 212.617 246.309 212.617Z" fill="#EA227A"/>
<path d="M273.656 210.309C273.659 210.77 273.526 211.222 273.273 211.607C273.019 211.992 272.657 212.294 272.232 212.473C271.807 212.652 271.338 212.701 270.885 212.613C270.433 212.526 270.016 212.305 269.689 211.981C269.361 211.656 269.138 211.241 269.046 210.789C268.955 210.337 269 209.868 269.175 209.441C269.351 209.015 269.649 208.65 270.033 208.394C270.416 208.137 270.867 208 271.328 208C271.942 208 272.531 208.243 272.967 208.675C273.403 209.107 273.651 209.695 273.656 210.309Z" fill="#EA227A"/>
<path d="M295.309 212.617C296.584 212.617 297.617 211.584 297.617 210.309C297.617 209.034 296.584 208 295.309 208C294.034 208 293 209.034 293 210.309C293 211.584 294.034 212.617 295.309 212.617Z" fill="#EA227A"/>
<path d="M148.309 239.617C149.584 239.617 150.617 238.584 150.617 237.309C150.617 236.034 149.584 235 148.309 235C147.034 235 146 236.034 146 237.309C146 238.584 147.034 239.617 148.309 239.617Z" fill="#EA227A"/>
<path d="M175.656 237.309C175.659 237.77 175.526 238.222 175.273 238.607C175.019 238.992 174.657 239.294 174.232 239.473C173.807 239.652 173.338 239.701 172.885 239.613C172.433 239.526 172.016 239.305 171.689 238.981C171.361 238.656 171.138 238.241 171.046 237.789C170.955 237.337 171 236.868 171.175 236.441C171.351 236.015 171.649 235.65 172.033 235.394C172.416 235.137 172.867 235 173.328 235C173.942 235 174.531 235.243 174.967 235.675C175.403 236.107 175.651 236.695 175.656 237.309Z" fill="#EA227A"/>
<path d="M199.656 237.309C199.659 237.771 199.526 238.224 199.271 238.609C199.017 238.995 198.654 239.296 198.227 239.475C197.801 239.653 197.332 239.701 196.878 239.612C196.425 239.523 196.009 239.301 195.682 238.974C195.355 238.647 195.133 238.231 195.044 237.777C194.955 237.324 195.002 236.854 195.181 236.428C195.359 236.002 195.661 235.639 196.046 235.384C196.432 235.13 196.885 234.996 197.347 235C197.958 235.005 198.542 235.25 198.974 235.682C199.406 236.114 199.651 236.698 199.656 237.309Z" fill="#EA227A"/>
<path d="M222.309 239.617C223.584 239.617 224.617 238.584 224.617 237.309C224.617 236.034 223.584 235 222.309 235C221.034 235 220 236.034 220 237.309C220 238.584 221.034 239.617 222.309 239.617Z" fill="white"/>
<path d="M246.309 239.617C247.584 239.617 248.618 238.584 248.618 237.309C248.618 236.034 247.584 235 246.309 235C245.034 235 244 236.034 244 237.309C244 238.584 245.034 239.617 246.309 239.617Z" fill="#EA227A"/>
<path d="M273.646 237.117C273.675 237.439 273.637 237.764 273.534 238.071C273.431 238.377 273.265 238.659 273.047 238.898C272.829 239.136 272.563 239.327 272.267 239.458C271.971 239.588 271.651 239.656 271.328 239.656C271.004 239.656 270.685 239.588 270.389 239.458C270.093 239.327 269.827 239.136 269.609 238.898C269.391 238.659 269.225 238.377 269.122 238.071C269.018 237.764 268.98 237.439 269.01 237.117C269.062 236.539 269.329 236.001 269.758 235.609C270.187 235.217 270.747 235 271.328 235C271.909 235 272.469 235.217 272.898 235.609C273.327 236.001 273.594 236.539 273.646 237.117Z" fill="#EA227A"/>
<path d="M295.309 239.617C296.584 239.617 297.617 238.584 297.617 237.309C297.617 236.034 296.584 235 295.309 235C294.034 235 293 236.034 293 237.309C293 238.584 294.034 239.617 295.309 239.617Z" fill="#EA227A"/>
<path d="M150.646 264.117C150.675 264.439 150.637 264.764 150.534 265.071C150.431 265.377 150.265 265.659 150.047 265.898C149.829 266.136 149.563 266.327 149.267 266.458C148.971 266.588 148.651 266.656 148.328 266.656C148.004 266.656 147.684 266.588 147.389 266.458C147.093 266.327 146.827 266.136 146.609 265.898C146.391 265.659 146.225 265.377 146.122 265.071C146.018 264.764 145.98 264.439 146.01 264.117C146.062 263.539 146.329 263.001 146.758 262.609C147.187 262.217 147.747 262 148.328 262C148.909 262 149.469 262.217 149.898 262.609C150.327 263.001 150.594 263.539 150.646 264.117Z" fill="#EA227A"/>
<path d="M175.656 264.309C175.659 264.77 175.526 265.222 175.273 265.607C175.019 265.993 174.657 266.294 174.232 266.473C173.807 266.652 173.338 266.701 172.885 266.613C172.433 266.526 172.016 266.305 171.689 265.981C171.361 265.656 171.138 265.241 171.046 264.789C170.955 264.337 171 263.868 171.175 263.441C171.351 263.015 171.649 262.65 172.033 262.394C172.416 262.137 172.867 262 173.328 262C173.942 262 174.531 262.243 174.967 262.675C175.403 263.107 175.651 263.695 175.656 264.309Z" fill="#EA227A"/>
<path d="M199.656 264.309C199.659 264.771 199.526 265.223 199.271 265.609C199.017 265.995 198.654 266.296 198.227 266.475C197.801 266.653 197.332 266.701 196.878 266.612C196.425 266.523 196.009 266.301 195.682 265.974C195.355 265.647 195.133 265.231 195.044 264.777C194.955 264.324 195.002 263.854 195.181 263.428C195.359 263.002 195.661 262.639 196.046 262.384C196.432 262.13 196.885 261.996 197.347 262C197.958 262.005 198.542 262.25 198.974 262.682C199.406 263.114 199.651 263.698 199.656 264.309Z" fill="#EA227A"/>
<path d="M224.617 264.309C224.617 264.765 224.482 265.212 224.228 265.591C223.975 265.971 223.614 266.267 223.192 266.442C222.77 266.617 222.306 266.662 221.858 266.573C221.41 266.484 220.999 266.264 220.676 265.941C220.353 265.618 220.133 265.207 220.044 264.759C219.955 264.311 220.001 263.847 220.176 263.425C220.35 263.003 220.646 262.643 221.026 262.389C221.406 262.135 221.852 262 222.309 262C222.92 262.005 223.504 262.25 223.936 262.682C224.368 263.114 224.613 263.698 224.617 264.309Z" fill="#EA227A"/>
<path d="M248.618 264.309C248.618 264.765 248.482 265.212 248.228 265.591C247.975 265.971 247.614 266.267 247.192 266.442C246.77 266.617 246.306 266.662 245.858 266.573C245.41 266.484 244.999 266.264 244.676 265.941C244.353 265.618 244.133 265.207 244.044 264.759C243.955 264.311 244.001 263.847 244.176 263.425C244.35 263.003 244.646 262.643 245.026 262.389C245.406 262.135 245.852 262 246.309 262C246.92 262.005 247.504 262.25 247.936 262.682C248.368 263.114 248.613 263.698 248.618 264.309Z" fill="#EA227A"/>
<path d="M273.646 264.117C273.675 264.439 273.637 264.764 273.534 265.071C273.431 265.377 273.265 265.659 273.047 265.898C272.829 266.136 272.563 266.327 272.267 266.458C271.971 266.588 271.651 266.656 271.328 266.656C271.004 266.656 270.685 266.588 270.389 266.458C270.093 266.327 269.827 266.136 269.609 265.898C269.391 265.659 269.225 265.377 269.122 265.071C269.018 264.764 268.98 264.439 269.01 264.117C269.062 263.539 269.329 263.001 269.758 262.609C270.187 262.217 270.747 262 271.328 262C271.909 262 272.469 262.217 272.898 262.609C273.327 263.001 273.594 263.539 273.646 264.117Z" fill="white"/>
<path d="M297.646 264.117C297.675 264.439 297.637 264.764 297.534 265.071C297.431 265.377 297.265 265.659 297.047 265.898C296.829 266.136 296.563 266.327 296.267 266.458C295.971 266.588 295.651 266.656 295.328 266.656C295.004 266.656 294.685 266.588 294.389 266.458C294.093 266.327 293.827 266.136 293.609 265.898C293.391 265.659 293.225 265.377 293.122 265.071C293.018 264.764 292.98 264.439 293.01 264.117C293.062 263.539 293.329 263.001 293.758 262.609C294.187 262.217 294.747 262 295.328 262C295.909 262 296.469 262.217 296.898 262.609C297.327 263.001 297.594 263.539 297.646 264.117Z" fill="#EA227A"/>
<path d="M148.309 293.617C149.584 293.617 150.617 292.584 150.617 291.309C150.617 290.034 149.584 289 148.309 289C147.034 289 146 290.034 146 291.309C146 292.584 147.034 293.617 148.309 293.617Z" fill="#EA227A"/>
<path d="M175.656 291.309C175.659 291.77 175.526 292.222 175.273 292.607C175.019 292.992 174.657 293.294 174.232 293.473C173.807 293.652 173.338 293.701 172.885 293.613C172.433 293.526 172.016 293.305 171.689 292.981C171.361 292.656 171.138 292.241 171.046 291.789C170.955 291.337 171 290.868 171.175 290.441C171.351 290.015 171.649 289.65 172.033 289.394C172.416 289.137 172.867 289 173.328 289C173.942 289 174.531 289.243 174.967 289.675C175.403 290.107 175.651 290.695 175.656 291.309Z" fill="white"/>
<path d="M199.656 291.309C199.659 291.771 199.526 292.223 199.271 292.609C199.017 292.995 198.654 293.296 198.227 293.475C197.801 293.653 197.332 293.701 196.878 293.612C196.425 293.523 196.009 293.301 195.682 292.974C195.355 292.647 195.133 292.231 195.044 291.777C194.955 291.324 195.002 290.854 195.181 290.428C195.359 290.002 195.661 289.639 196.046 289.384C196.432 289.13 196.885 288.996 197.347 289C197.958 289.005 198.542 289.25 198.974 289.682C199.406 290.114 199.651 290.698 199.656 291.309Z" fill="#EA227A"/>
<path d="M222.309 293.617C223.584 293.617 224.617 292.584 224.617 291.309C224.617 290.034 223.584 289 222.309 289C221.034 289 220 290.034 220 291.309C220 292.584 221.034 293.617 222.309 293.617Z" fill="#EA227A"/>
<path d="M246.309 293.617C247.584 293.617 248.618 292.584 248.618 291.309C248.618 290.034 247.584 289 246.309 289C245.034 289 244 290.034 244 291.309C244 292.584 245.034 293.617 246.309 293.617Z" fill="#EA227A"/>
<path d="M273.646 291.117C273.675 291.439 273.637 291.764 273.534 292.071C273.431 292.377 273.265 292.659 273.047 292.898C272.829 293.136 272.563 293.327 272.267 293.458C271.971 293.588 271.651 293.656 271.328 293.656C271.004 293.656 270.685 293.588 270.389 293.458C270.093 293.327 269.827 293.136 269.609 292.898C269.391 292.659 269.225 292.377 269.122 292.071C269.018 291.764 268.98 291.439 269.01 291.117C269.062 290.539 269.329 290.001 269.758 289.609C270.187 289.217 270.747 289 271.328 289C271.909 289 272.469 289.217 272.898 289.609C273.327 290.001 273.594 290.539 273.646 291.117Z" fill="#EA227A"/>
<path d="M295.309 293.617C296.584 293.617 297.617 292.584 297.617 291.309C297.617 290.034 296.584 289 295.309 289C294.034 289 293 290.034 293 291.309C293 292.584 294.034 293.617 295.309 293.617Z" fill="#EA227A"/>
<path d="M2.30875 617.618C3.58384 617.618 4.6175 616.584 4.6175 615.309C4.6175 614.034 3.58384 613 2.30875 613C1.03366 613 0 614.034 0 615.309C0 616.584 1.03366 617.618 2.30875 617.618Z" fill="#EA227A"/>
<path d="M29.6557 615.328C29.6557 615.788 29.5191 616.238 29.2634 616.621C29.0076 617.004 28.644 617.302 28.2186 617.479C27.7933 617.655 27.3253 617.701 26.8737 617.611C26.4221 617.521 26.0074 617.299 25.6818 616.974C25.3562 616.648 25.1345 616.234 25.0447 615.782C24.9549 615.33 25.001 614.862 25.1772 614.437C25.3534 614.012 25.6517 613.648 26.0346 613.392C26.4174 613.137 26.8674 613 27.3278 613C27.6342 612.998 27.9381 613.056 28.2216 613.172C28.5052 613.288 28.7629 613.46 28.9795 613.676C29.1962 613.893 29.3676 614.151 29.4837 614.434C29.5997 614.718 29.6582 615.022 29.6557 615.328Z" fill="#EA227A"/>
<path d="M53.6461 615.538C53.5936 616.117 53.3266 616.655 52.8977 617.047C52.4687 617.438 51.9088 617.656 51.3278 617.656C50.7469 617.656 50.187 617.438 49.758 617.047C49.3291 616.655 49.0621 616.117 49.0095 615.538C48.9803 615.216 49.0185 614.892 49.1217 614.585C49.2249 614.278 49.3909 613.997 49.609 613.758C49.8271 613.519 50.0926 613.328 50.3886 613.198C50.6845 613.067 51.0044 613 51.3278 613C51.6513 613 51.9712 613.067 52.2671 613.198C52.5631 613.328 52.8286 613.519 53.0467 613.758C53.2648 613.997 53.4308 614.278 53.534 614.585C53.6372 614.892 53.6754 615.216 53.6461 615.538Z" fill="#EA227A"/>
<path d="M76.3087 617.618C77.5838 617.618 78.6175 616.584 78.6175 615.309C78.6175 614.034 77.5838 613 76.3087 613C75.0337 613 74 614.034 74 615.309C74 616.584 75.0337 617.618 76.3087 617.618Z" fill="#EA227A"/>
<path d="M100.309 617.618C101.584 617.618 102.618 616.584 102.618 615.309C102.618 614.034 101.584 613 100.309 613C99.0337 613 98 614.034 98 615.309C98 616.584 99.0337 617.618 100.309 617.618Z" fill="white"/>
<path d="M127.656 615.328C127.656 615.788 127.519 616.238 127.263 616.621C127.008 617.004 126.644 617.302 126.219 617.478C125.793 617.655 125.325 617.701 124.874 617.611C124.422 617.521 124.007 617.299 123.682 616.974C123.356 616.648 123.135 616.234 123.045 615.782C122.955 615.33 123.001 614.862 123.177 614.437C123.353 614.012 123.652 613.648 124.035 613.392C124.417 613.137 124.867 613 125.328 613C125.945 613 126.537 613.245 126.974 613.682C127.41 614.118 127.656 614.71 127.656 615.328Z" fill="#EA227A"/>
<path d="M149.309 617.618C150.584 617.618 151.617 616.584 151.617 615.309C151.617 614.034 150.584 613 149.309 613C148.034 613 147 614.034 147 615.309C147 616.584 148.034 617.618 149.309 617.618Z" fill="#EA227A"/>
<path d="M4.65566 642.328C4.65566 642.788 4.51914 643.238 4.26336 643.621C4.00757 644.004 3.64401 644.302 3.21865 644.478C2.79329 644.655 2.32525 644.701 1.8737 644.611C1.42214 644.521 1.00735 644.299 0.681801 643.974C0.356248 643.648 0.134548 643.234 0.0447285 642.782C-0.0450914 642.33 0.00101212 641.862 0.1772 641.437C0.353388 641.012 0.651744 640.648 1.03455 640.392C1.41736 640.137 1.86743 640 2.32783 640C2.63352 640 2.93622 640.06 3.21865 640.177C3.50108 640.294 3.7577 640.466 3.97386 640.682C4.19001 640.898 4.36149 641.155 4.47847 641.437C4.59546 641.719 4.65566 642.022 4.65566 642.328Z" fill="white"/>
<path d="M29.6557 642.328C29.6557 642.788 29.5191 643.238 29.2634 643.621C29.0076 644.004 28.644 644.302 28.2186 644.479C27.7933 644.655 27.3253 644.701 26.8737 644.611C26.4221 644.521 26.0074 644.299 25.6818 643.974C25.3562 643.648 25.1345 643.234 25.0447 642.782C24.9549 642.33 25.001 641.862 25.1772 641.437C25.3534 641.012 25.6517 640.648 26.0346 640.392C26.4174 640.137 26.8674 640 27.3278 640C27.6342 639.998 27.9381 640.056 28.2216 640.172C28.5052 640.288 28.7629 640.46 28.9795 640.676C29.1962 640.893 29.3676 641.151 29.4837 641.434C29.5997 641.718 29.6582 642.022 29.6557 642.328Z" fill="#EA227A"/>
<path d="M53.6461 642.538C53.5936 643.117 53.3266 643.655 52.8977 644.047C52.4687 644.438 51.9088 644.656 51.3278 644.656C50.7469 644.656 50.187 644.438 49.758 644.047C49.3291 643.655 49.0621 643.117 49.0095 642.538C48.9803 642.216 49.0185 641.892 49.1217 641.585C49.2249 641.278 49.3909 640.997 49.609 640.758C49.8271 640.519 50.0926 640.328 50.3886 640.198C50.6845 640.067 51.0044 640 51.3278 640C51.6513 640 51.9712 640.067 52.2671 640.198C52.5631 640.328 52.8286 640.519 53.0467 640.758C53.2648 640.997 53.4308 641.278 53.534 641.585C53.6372 641.892 53.6754 642.216 53.6461 642.538Z" fill="#EA227A"/>
<path d="M78.6174 642.328C78.6136 642.784 78.475 643.228 78.2191 643.605C77.9631 643.982 77.6012 644.275 77.179 644.447C76.7569 644.619 76.2933 644.662 75.8467 644.571C75.4001 644.48 74.9905 644.258 74.6695 643.935C74.3485 643.611 74.1305 643.2 74.043 642.752C73.9554 642.305 74.0023 641.842 74.1775 641.421C74.3528 641 74.6488 640.641 75.028 640.388C75.4072 640.135 75.8529 640 76.3087 640C76.6135 640 76.9153 640.06 77.1966 640.178C77.478 640.295 77.7333 640.467 77.948 640.683C78.1626 640.899 78.3323 641.156 78.4472 641.438C78.5621 641.721 78.6199 642.023 78.6174 642.328Z" fill="#EA227A"/>
<path d="M102.617 642.328C102.614 642.784 102.475 643.228 102.219 643.605C101.963 643.982 101.601 644.275 101.179 644.447C100.757 644.619 100.293 644.662 99.8467 644.571C99.4001 644.48 98.9905 644.258 98.6695 643.935C98.3485 643.611 98.1305 643.2 98.043 642.752C97.9554 642.305 98.0023 641.842 98.1776 641.421C98.3528 641 98.6487 640.641 99.028 640.388C99.4072 640.135 99.8528 640 100.309 640C100.613 640 100.915 640.06 101.197 640.178C101.478 640.295 101.733 640.467 101.948 640.683C102.163 640.899 102.332 641.156 102.447 641.438C102.562 641.721 102.62 642.023 102.617 642.328Z" fill="#EA227A"/>
<path d="M127.656 642.328C127.656 642.788 127.519 643.238 127.263 643.621C127.008 644.004 126.644 644.302 126.219 644.478C125.793 644.655 125.325 644.701 124.874 644.611C124.422 644.521 124.007 644.299 123.682 643.974C123.356 643.648 123.135 643.234 123.045 642.782C122.955 642.33 123.001 641.862 123.177 641.437C123.353 641.012 123.652 640.648 124.035 640.392C124.417 640.137 124.867 640 125.328 640C125.945 640 126.537 640.245 126.974 640.682C127.41 641.118 127.656 641.71 127.656 642.328Z" fill="#EA227A"/>
<path d="M151.656 642.328C151.656 642.788 151.519 643.238 151.263 643.621C151.008 644.004 150.644 644.302 150.219 644.478C149.793 644.655 149.325 644.701 148.874 644.611C148.422 644.521 148.007 644.299 147.682 643.974C147.356 643.648 147.135 643.234 147.045 642.782C146.955 642.33 147.001 641.862 147.177 641.437C147.353 641.012 147.652 640.648 148.035 640.392C148.417 640.137 148.867 640 149.328 640C149.945 640 150.537 640.245 150.974 640.682C151.41 641.118 151.656 641.71 151.656 642.328Z" fill="#EA227A"/>
<path d="M2.30875 671.618C3.58384 671.618 4.6175 670.584 4.6175 669.309C4.6175 668.034 3.58384 667 2.30875 667C1.03366 667 0 668.034 0 669.309C0 670.584 1.03366 671.618 2.30875 671.618Z" fill="#EA227A"/>
<path d="M29.6557 669.328C29.6557 669.788 29.5191 670.238 29.2634 670.621C29.0076 671.004 28.644 671.302 28.2186 671.479C27.7933 671.655 27.3253 671.701 26.8737 671.611C26.4221 671.521 26.0074 671.299 25.6818 670.974C25.3562 670.648 25.1345 670.234 25.0447 669.782C24.9549 669.33 25.001 668.862 25.1772 668.437C25.3534 668.012 25.6517 667.648 26.0346 667.392C26.4174 667.137 26.8674 667 27.3278 667C27.6342 666.998 27.9381 667.056 28.2216 667.172C28.5052 667.288 28.7629 667.46 28.9795 667.676C29.1962 667.893 29.3676 668.151 29.4837 668.434C29.5997 668.718 29.6582 669.021 29.6557 669.328Z" fill="#EA227A"/>
<path d="M53.6461 669.538C53.5936 670.117 53.3266 670.655 52.8977 671.047C52.4687 671.438 51.9088 671.656 51.3278 671.656C50.7469 671.656 50.187 671.438 49.758 671.047C49.3291 670.655 49.0621 670.117 49.0095 669.538C48.9803 669.216 49.0185 668.892 49.1217 668.585C49.2249 668.278 49.3909 667.997 49.609 667.758C49.8271 667.519 50.0926 667.328 50.3886 667.198C50.6845 667.067 51.0044 667 51.3278 667C51.6513 667 51.9712 667.067 52.2671 667.198C52.5631 667.328 52.8286 667.519 53.0467 667.758C53.2648 667.997 53.4308 668.278 53.534 668.585C53.6372 668.892 53.6754 669.216 53.6461 669.538Z" fill="white"/>
<path d="M76.3087 671.618C77.5838 671.618 78.6175 670.584 78.6175 669.309C78.6175 668.034 77.5838 667 76.3087 667C75.0337 667 74 668.034 74 669.309C74 670.584 75.0337 671.618 76.3087 671.618Z" fill="#EA227A"/>
<path d="M100.309 671.618C101.584 671.618 102.618 670.584 102.618 669.309C102.618 668.034 101.584 667 100.309 667C99.0337 667 98 668.034 98 669.309C98 670.584 99.0337 671.618 100.309 671.618Z" fill="#EA227A"/>
<path d="M127.656 669.328C127.656 669.788 127.519 670.238 127.263 670.621C127.008 671.004 126.644 671.302 126.219 671.478C125.793 671.655 125.325 671.701 124.874 671.611C124.422 671.521 124.007 671.299 123.682 670.974C123.356 670.648 123.135 670.234 123.045 669.782C122.955 669.33 123.001 668.862 123.177 668.437C123.353 668.012 123.652 667.648 124.035 667.392C124.417 667.137 124.867 667 125.328 667C125.945 667 126.537 667.245 126.974 667.682C127.41 668.118 127.656 668.71 127.656 669.328Z" fill="#EA227A"/>
<path d="M149.309 671.618C150.584 671.618 151.617 670.584 151.617 669.309C151.617 668.034 150.584 667 149.309 667C148.034 667 147 668.034 147 669.309C147 670.584 148.034 671.618 149.309 671.618Z" fill="#EA227A"/>
<path d="M4.65558 697.309C4.65936 697.77 4.52606 698.222 4.27258 698.607C4.0191 698.993 3.65689 699.294 3.23188 699.473C2.80687 699.652 2.33823 699.701 1.88542 699.613C1.43262 699.526 1.01606 699.305 0.688593 698.981C0.361129 698.656 0.137526 698.241 0.046149 697.789C-0.0452283 697.337 -0.000268188 696.868 0.175345 696.441C0.350959 696.015 0.649298 695.65 1.03251 695.394C1.41572 695.137 1.86654 695 2.32775 695C2.94184 695 3.53106 695.243 3.96707 695.675C4.40307 696.107 4.65055 696.695 4.65558 697.309Z" fill="#EA227A"/>
<path d="M29.6556 697.309C29.6594 697.77 29.5261 698.222 29.2726 698.607C29.0191 698.993 28.6569 699.294 28.2319 699.473C27.8069 699.652 27.3382 699.701 26.8854 699.613C26.4326 699.526 26.0161 699.305 25.6886 698.981C25.3611 698.656 25.1375 698.241 25.0461 697.789C24.9548 697.337 24.9997 696.868 25.1753 696.442C25.351 696.015 25.6493 695.65 26.0325 695.394C26.4157 695.137 26.8665 695 27.3277 695C27.6325 694.998 27.9348 695.055 28.2171 695.17C28.4994 695.285 28.7562 695.455 28.9726 695.67C29.1891 695.884 29.3608 696.14 29.478 696.421C29.5952 696.702 29.6556 697.004 29.6556 697.309Z" fill="#EA227A"/>
<path d="M53.6556 697.309C53.6594 697.771 53.5256 698.224 53.2712 698.609C53.0169 698.995 52.6536 699.296 52.2274 699.475C51.8013 699.653 51.3317 699.701 50.8784 699.612C50.425 699.523 50.0085 699.301 49.6818 698.974C49.3551 698.647 49.133 698.231 49.0438 697.777C48.9546 697.324 49.0023 696.854 49.1809 696.428C49.3594 696.002 49.6607 695.639 50.0464 695.384C50.4321 695.13 50.8848 694.996 51.3468 695C51.9592 695 52.5464 695.243 52.9794 695.676C53.4123 696.109 53.6556 696.697 53.6556 697.309Z" fill="#EA227A"/>
<path d="M78.6175 697.309C78.6175 697.765 78.4821 698.212 78.2284 698.591C77.9747 698.971 77.6141 699.267 77.1923 699.442C76.7704 699.617 76.3062 699.662 75.8583 699.573C75.4105 699.484 74.9991 699.264 74.6762 698.941C74.3533 698.618 74.1334 698.207 74.0444 697.759C73.9553 697.311 74.001 696.847 74.1757 696.425C74.3505 696.003 74.6464 695.643 75.0261 695.389C75.4058 695.135 75.8521 695 76.3087 695C76.9211 695 77.5083 695.243 77.9413 695.676C78.3742 696.109 78.6175 696.696 78.6175 697.309Z" fill="#EA227A"/>
<path d="M102.618 697.309C102.618 697.765 102.482 698.212 102.228 698.591C101.975 698.971 101.614 699.267 101.192 699.442C100.77 699.617 100.306 699.662 99.8583 699.573C99.4105 699.484 98.9991 699.264 98.6762 698.941C98.3534 698.618 98.1334 698.207 98.0444 697.759C97.9553 697.311 98.001 696.847 98.1758 696.425C98.3505 696.003 98.6464 695.643 99.0261 695.389C99.4057 695.135 99.8521 695 100.309 695C100.921 695 101.508 695.243 101.941 695.676C102.374 696.109 102.618 696.696 102.618 697.309Z" fill="white"/>
<path d="M127.656 697.309C127.659 697.77 127.526 698.222 127.273 698.607C127.019 698.993 126.657 699.294 126.232 699.473C125.807 699.652 125.338 699.701 124.885 699.613C124.433 699.526 124.016 699.305 123.689 698.981C123.361 698.656 123.138 698.241 123.046 697.789C122.955 697.337 123 696.868 123.175 696.441C123.351 696.015 123.649 695.65 124.033 695.394C124.416 695.137 124.867 695 125.328 695C125.942 695 126.531 695.243 126.967 695.675C127.403 696.107 127.651 696.695 127.656 697.309Z" fill="#EA227A"/>
<path d="M151.656 697.309C151.659 697.77 151.526 698.222 151.273 698.607C151.019 698.993 150.657 699.294 150.232 699.473C149.807 699.652 149.338 699.701 148.885 699.613C148.433 699.526 148.016 699.305 147.689 698.981C147.361 698.656 147.138 698.241 147.046 697.789C146.955 697.337 147 696.868 147.175 696.441C147.351 696.015 147.649 695.65 148.033 695.394C148.416 695.137 148.867 695 149.328 695C149.942 695 150.531 695.243 150.967 695.675C151.403 696.107 151.651 696.695 151.656 697.309Z" fill="#EA227A"/>
<path d="M2.30875 726.617C3.58384 726.617 4.6175 725.584 4.6175 724.309C4.6175 723.034 3.58384 722 2.30875 722C1.03366 722 0 723.034 0 724.309C0 725.584 1.03366 726.617 2.30875 726.617Z" fill="#EA227A"/>
<path d="M29.6556 724.309C29.6594 724.77 29.5261 725.222 29.2726 725.607C29.0191 725.993 28.6569 726.294 28.2319 726.473C27.8069 726.652 27.3382 726.701 26.8854 726.613C26.4326 726.526 26.0161 726.305 25.6886 725.981C25.3611 725.656 25.1375 725.241 25.0461 724.789C24.9548 724.337 24.9997 723.868 25.1753 723.442C25.351 723.015 25.6493 722.65 26.0325 722.394C26.4157 722.137 26.8665 722 27.3277 722C27.6325 721.998 27.9348 722.055 28.2171 722.17C28.4994 722.285 28.7562 722.455 28.9726 722.67C29.1891 722.884 29.3608 723.14 29.478 723.421C29.5952 723.702 29.6556 724.004 29.6556 724.309Z" fill="#EA227A"/>
<path d="M53.6556 724.309C53.6594 724.771 53.5256 725.224 53.2712 725.609C53.0169 725.995 52.6536 726.296 52.2274 726.475C51.8013 726.653 51.3317 726.701 50.8784 726.612C50.425 726.523 50.0085 726.301 49.6818 725.974C49.3551 725.647 49.133 725.231 49.0438 724.777C48.9546 724.324 49.0023 723.854 49.1809 723.428C49.3594 723.002 49.6607 722.639 50.0464 722.384C50.4321 722.13 50.8848 721.996 51.3468 722C51.9592 722 52.5464 722.243 52.9794 722.676C53.4123 723.109 53.6556 723.697 53.6556 724.309Z" fill="#EA227A"/>
<path d="M76.3087 726.617C77.5838 726.617 78.6175 725.584 78.6175 724.309C78.6175 723.034 77.5838 722 76.3087 722C75.0337 722 74 723.034 74 724.309C74 725.584 75.0337 726.617 76.3087 726.617Z" fill="#EA227A"/>
<path d="M100.309 726.617C101.584 726.617 102.618 725.584 102.618 724.309C102.618 723.034 101.584 722 100.309 722C99.0337 722 98 723.034 98 724.309C98 725.584 99.0337 726.617 100.309 726.617Z" fill="#EA227A"/>
<path d="M127.656 724.309C127.659 724.77 127.526 725.222 127.273 725.607C127.019 725.992 126.657 726.294 126.232 726.473C125.807 726.652 125.338 726.701 124.885 726.613C124.433 726.526 124.016 726.305 123.689 725.981C123.361 725.656 123.138 725.241 123.046 724.789C122.955 724.337 123 723.868 123.175 723.441C123.351 723.015 123.649 722.65 124.033 722.394C124.416 722.137 124.867 722 125.328 722C125.942 722 126.531 722.243 126.967 722.675C127.403 723.107 127.651 723.695 127.656 724.309Z" fill="#EA227A"/>
<path d="M149.309 726.617C150.584 726.617 151.617 725.584 151.617 724.309C151.617 723.034 150.584 722 149.309 722C148.034 722 147 723.034 147 724.309C147 725.584 148.034 726.617 149.309 726.617Z" fill="#EA227A"/>
<path d="M2.30875 753.617C3.58384 753.617 4.6175 752.584 4.6175 751.309C4.6175 750.034 3.58384 749 2.30875 749C1.03366 749 0 750.034 0 751.309C0 752.584 1.03366 753.617 2.30875 753.617Z" fill="#EA227A"/>
<path d="M29.6556 751.309C29.6594 751.77 29.5261 752.222 29.2726 752.607C29.0191 752.992 28.6569 753.294 28.2319 753.473C27.8069 753.652 27.3382 753.701 26.8854 753.613C26.4326 753.526 26.0161 753.305 25.6886 752.981C25.3611 752.656 25.1375 752.241 25.0461 751.789C24.9548 751.337 24.9997 750.868 25.1753 750.441C25.351 750.015 25.6493 749.65 26.0325 749.394C26.4157 749.137 26.8665 749 27.3277 749C27.9418 749 28.5311 749.243 28.9671 749.675C29.4031 750.107 29.6506 750.695 29.6556 751.309Z" fill="#EA227A"/>
<path d="M53.6556 751.309C53.6594 751.771 53.5256 752.224 53.2712 752.609C53.0169 752.995 52.6536 753.296 52.2274 753.475C51.8013 753.653 51.3317 753.701 50.8784 753.612C50.425 753.523 50.0085 753.301 49.6818 752.974C49.3551 752.647 49.133 752.231 49.0438 751.777C48.9546 751.324 49.0023 750.854 49.1809 750.428C49.3594 750.002 49.6607 749.639 50.0464 749.384C50.4321 749.13 50.8848 748.996 51.3468 749C51.9576 749.005 52.542 749.25 52.9739 749.682C53.4058 750.114 53.6506 750.698 53.6556 751.309Z" fill="#EA227A"/>
<path d="M76.3087 753.617C77.5838 753.617 78.6175 752.584 78.6175 751.309C78.6175 750.034 77.5838 749 76.3087 749C75.0337 749 74 750.034 74 751.309C74 752.584 75.0337 753.617 76.3087 753.617Z" fill="white"/>
<path d="M100.309 753.617C101.584 753.617 102.618 752.584 102.618 751.309C102.618 750.034 101.584 749 100.309 749C99.0337 749 98 750.034 98 751.309C98 752.584 99.0337 753.617 100.309 753.617Z" fill="#EA227A"/>
<path d="M127.646 751.117C127.675 751.439 127.637 751.764 127.534 752.071C127.431 752.377 127.265 752.659 127.047 752.898C126.829 753.136 126.563 753.327 126.267 753.458C125.971 753.588 125.651 753.656 125.328 753.656C125.004 753.656 124.685 753.588 124.389 753.458C124.093 753.327 123.827 753.136 123.609 752.898C123.391 752.659 123.225 752.377 123.122 752.071C123.018 751.764 122.98 751.439 123.01 751.117C123.062 750.539 123.329 750.001 123.758 749.609C124.187 749.217 124.747 749 125.328 749C125.909 749 126.469 749.217 126.898 749.609C127.327 750.001 127.594 750.539 127.646 751.117Z" fill="#EA227A"/>
<path d="M149.309 753.617C150.584 753.617 151.617 752.584 151.617 751.309C151.617 750.034 150.584 749 149.309 749C148.034 749 147 750.034 147 751.309C147 752.584 148.034 753.617 149.309 753.617Z" fill="#EA227A"/>
<path d="M632.656 22.3087C632.659 22.7699 632.526 23.2219 632.273 23.6072C632.019 23.9925 631.657 24.2938 631.232 24.4729C630.807 24.6521 630.338 24.7009 629.885 24.6132C629.433 24.5256 629.016 24.3054 628.689 23.9806C628.361 23.6558 628.138 23.2411 628.046 22.789C627.955 22.337 628 21.8679 628.175 21.4415C628.351 21.015 628.649 20.6503 629.033 20.3937C629.416 20.137 629.867 20 630.328 20C630.942 20 631.531 20.2426 631.967 20.6751C632.403 21.1075 632.651 21.6947 632.656 22.3087Z" fill="#EA227A"/>
<path d="M657.656 22.3088C657.659 22.77 657.526 23.222 657.273 23.6073C657.019 23.9926 656.657 24.2939 656.232 24.473C655.807 24.6521 655.338 24.701 654.885 24.6133C654.433 24.5257 654.016 24.3055 653.689 23.9807C653.361 23.6559 653.138 23.2412 653.046 22.7891C652.955 22.3371 653 21.868 653.175 21.4415C653.351 21.0151 653.649 20.6504 654.033 20.3938C654.416 20.1371 654.867 20.0001 655.328 20.0001C655.633 19.9976 655.935 20.0554 656.217 20.1703C656.499 20.2852 656.756 20.4549 656.973 20.6695C657.189 20.8842 657.361 21.1395 657.478 21.4209C657.595 21.7022 657.656 22.004 657.656 22.3088Z" fill="#EA227A"/>
<path d="M681.656 22.3088C681.659 22.7708 681.526 23.2235 681.271 23.6092C681.017 23.995 680.654 24.2963 680.227 24.4748C679.801 24.6534 679.332 24.7011 678.878 24.6119C678.425 24.5226 678.009 24.3006 677.682 23.9739C677.355 23.6472 677.133 23.2306 677.044 22.7773C676.955 22.324 677.002 21.8544 677.181 21.4282C677.359 21.0021 677.661 20.6388 678.046 20.3844C678.432 20.1301 678.885 19.9963 679.347 20.0001C679.959 20.0001 680.546 20.2433 680.979 20.6763C681.412 21.1093 681.656 21.6965 681.656 22.3088Z" fill="#EA227A"/>
<path d="M706.617 22.3087C706.617 22.7654 706.482 23.2118 706.228 23.5914C705.975 23.9711 705.614 24.267 705.192 24.4418C704.77 24.6165 704.306 24.6622 703.858 24.5731C703.41 24.4841 702.999 24.2642 702.676 23.9413C702.353 23.6184 702.133 23.207 702.044 22.7592C701.955 22.3113 702.001 21.8471 702.176 21.4252C702.35 21.0034 702.646 20.6428 703.026 20.3891C703.406 20.1354 703.852 20 704.309 20C704.921 20 705.508 20.2432 705.941 20.6762C706.374 21.1092 706.617 21.6964 706.617 22.3087Z" fill="#EA227A"/>
<path d="M730.618 22.3087C730.618 22.7654 730.482 23.2118 730.228 23.5914C729.975 23.9711 729.614 24.267 729.192 24.4418C728.77 24.6165 728.306 24.6622 727.858 24.5731C727.41 24.4841 726.999 24.2642 726.676 23.9413C726.353 23.6184 726.133 23.207 726.044 22.7592C725.955 22.3113 726.001 21.8471 726.176 21.4252C726.35 21.0034 726.646 20.6428 727.026 20.3891C727.406 20.1354 727.852 20 728.309 20C728.921 20 729.508 20.2432 729.941 20.6762C730.374 21.1092 730.618 21.6964 730.618 22.3087Z" fill="white"/>
<path d="M755.656 22.3087C755.659 22.7699 755.526 23.2219 755.273 23.6072C755.019 23.9925 754.657 24.2938 754.232 24.4729C753.807 24.6521 753.338 24.7009 752.885 24.6132C752.433 24.5256 752.016 24.3054 751.689 23.9806C751.361 23.6558 751.138 23.2411 751.046 22.789C750.955 22.337 751 21.8679 751.175 21.4415C751.351 21.015 751.649 20.6503 752.033 20.3937C752.416 20.137 752.867 20 753.328 20C753.942 20 754.531 20.2426 754.967 20.6751C755.403 21.1075 755.651 21.6947 755.656 22.3087Z" fill="#EA227A"/>
<path d="M779.656 22.3087C779.659 22.7699 779.526 23.2219 779.273 23.6072C779.019 23.9925 778.657 24.2938 778.232 24.4729C777.807 24.6521 777.338 24.7009 776.885 24.6132C776.433 24.5256 776.016 24.3054 775.689 23.9806C775.361 23.6558 775.138 23.2411 775.046 22.789C774.955 22.337 775 21.8679 775.175 21.4415C775.351 21.015 775.649 20.6503 776.033 20.3937C776.416 20.137 776.867 20 777.328 20C777.942 20 778.531 20.2426 778.967 20.6751C779.403 21.1075 779.651 21.6947 779.656 22.3087Z" fill="#EA227A"/>
<path d="M630.309 51.6175C631.584 51.6175 632.617 50.5838 632.617 49.3087C632.617 48.0337 631.584 47 630.309 47C629.034 47 628 48.0337 628 49.3087C628 50.5838 629.034 51.6175 630.309 51.6175Z" fill="#EA227A"/>
<path d="M657.656 49.3088C657.659 49.77 657.526 50.2219 657.273 50.6073C657.019 50.9926 656.657 51.2939 656.232 51.473C655.807 51.6521 655.338 51.701 654.885 51.6133C654.433 51.5257 654.016 51.3055 653.689 50.9807C653.361 50.6559 653.138 50.2412 653.046 49.7891C652.955 49.337 653 48.868 653.175 48.4415C653.351 48.0151 653.649 47.6504 654.033 47.3938C654.416 47.1371 654.867 47.0001 655.328 47.0001C655.633 46.9976 655.935 47.0554 656.217 47.1703C656.499 47.2852 656.756 47.4549 656.973 47.6695C657.189 47.8842 657.361 48.1395 657.478 48.4209C657.595 48.7022 657.656 49.004 657.656 49.3088Z" fill="#EA227A"/>
<path d="M681.656 49.3088C681.659 49.7708 681.526 50.2235 681.271 50.6092C681.017 50.995 680.654 51.2963 680.227 51.4748C679.801 51.6534 679.332 51.7011 678.878 51.6119C678.425 51.5226 678.009 51.3005 677.682 50.9739C677.355 50.6472 677.133 50.2306 677.044 49.7773C676.955 49.324 677.002 48.8544 677.181 48.4282C677.359 48.0021 677.661 47.6387 678.046 47.3844C678.432 47.1301 678.885 46.9963 679.347 47.0001C679.959 47.0001 680.546 47.2433 680.979 47.6763C681.412 48.1093 681.656 48.6965 681.656 49.3088Z" fill="#EA227A"/>
<path d="M704.309 51.6175C705.584 51.6175 706.617 50.5838 706.617 49.3087C706.617 48.0337 705.584 47 704.309 47C703.034 47 702 48.0337 702 49.3087C702 50.5838 703.034 51.6175 704.309 51.6175Z" fill="#EA227A"/>
<path d="M728.309 51.6175C729.584 51.6175 730.618 50.5838 730.618 49.3087C730.618 48.0337 729.584 47 728.309 47C727.034 47 726 48.0337 726 49.3087C726 50.5838 727.034 51.6175 728.309 51.6175Z" fill="#EA227A"/>
<path d="M755.656 49.3087C755.659 49.7699 755.526 50.2219 755.273 50.6072C755.019 50.9925 754.657 51.2938 754.232 51.4729C753.807 51.6521 753.338 51.7009 752.885 51.6132C752.433 51.5256 752.016 51.3054 751.689 50.9806C751.361 50.6558 751.138 50.2411 751.046 49.789C750.955 49.337 751 48.8679 751.175 48.4415C751.351 48.015 751.649 47.6503 752.033 47.3937C752.416 47.137 752.867 47 753.328 47C753.942 47 754.531 47.2426 754.967 47.675C755.403 48.1075 755.651 48.6947 755.656 49.3087Z" fill="#EA227A"/>
<path d="M777.309 51.6175C778.584 51.6175 779.617 50.5838 779.617 49.3087C779.617 48.0337 778.584 47 777.309 47C776.034 47 775 48.0337 775 49.3087C775 50.5838 776.034 51.6175 777.309 51.6175Z" fill="#EA227A"/>
<path d="M630.309 78.6175C631.584 78.6175 632.617 77.5838 632.617 76.3087C632.617 75.0337 631.584 74 630.309 74C629.034 74 628 75.0337 628 76.3087C628 77.5838 629.034 78.6175 630.309 78.6175Z" fill="#EA227A"/>
<path d="M657.656 76.3087C657.659 76.7699 657.526 77.2219 657.273 77.6072C657.019 77.9925 656.657 78.2938 656.232 78.4729C655.807 78.6521 655.338 78.7009 654.885 78.6132C654.433 78.5256 654.016 78.3054 653.689 77.9806C653.361 77.6558 653.138 77.2411 653.046 76.789C652.955 76.337 653 75.8679 653.175 75.4415C653.351 75.015 653.649 74.6503 654.033 74.3937C654.416 74.137 654.867 74 655.328 74C655.942 74 656.531 74.2426 656.967 74.675C657.403 75.1075 657.651 75.6947 657.656 76.3087Z" fill="#EA227A"/>
<path d="M681.656 76.3088C681.659 76.7708 681.526 77.2235 681.271 77.6092C681.017 77.995 680.654 78.2963 680.227 78.4748C679.801 78.6534 679.332 78.7011 678.878 78.6119C678.425 78.5226 678.009 78.3005 677.682 77.9739C677.355 77.6472 677.133 77.2306 677.044 76.7773C676.955 76.324 677.002 75.8544 677.181 75.4282C677.359 75.0021 677.661 74.6387 678.046 74.3844C678.432 74.1301 678.885 73.9963 679.347 74.0001C679.958 74.0051 680.542 74.2499 680.974 74.6818C681.406 75.1137 681.651 75.6981 681.656 76.3088Z" fill="#EA227A"/>
<path d="M704.309 78.6175C705.584 78.6175 706.617 77.5838 706.617 76.3087C706.617 75.0337 705.584 74 704.309 74C703.034 74 702 75.0337 702 76.3087C702 77.5838 703.034 78.6175 704.309 78.6175Z" fill="white"/>
<path d="M728.309 78.6175C729.584 78.6175 730.618 77.5838 730.618 76.3087C730.618 75.0337 729.584 74 728.309 74C727.034 74 726 75.0337 726 76.3087C726 77.5838 727.034 78.6175 728.309 78.6175Z" fill="#EA227A"/>
<path d="M755.646 76.1173C755.675 76.4394 755.637 76.7641 755.534 77.0706C755.431 77.3772 755.265 77.6588 755.047 77.8977C754.829 78.1365 754.563 78.3272 754.267 78.4577C753.971 78.5883 753.651 78.6557 753.328 78.6557C753.004 78.6557 752.685 78.5883 752.389 78.4577C752.093 78.3272 751.827 78.1365 751.609 77.8977C751.391 77.6588 751.225 77.3772 751.122 77.0706C751.018 76.7641 750.98 76.4394 751.01 76.1173C751.062 75.5387 751.329 75.0007 751.758 74.609C752.187 74.2172 752.747 74 753.328 74C753.909 74 754.469 74.2172 754.898 74.609C755.327 75.0007 755.594 75.5387 755.646 76.1173Z" fill="#EA227A"/>
<path d="M777.309 78.6175C778.584 78.6175 779.617 77.5838 779.617 76.3087C779.617 75.0337 778.584 74 777.309 74C776.034 74 775 75.0337 775 76.3087C775 77.5838 776.034 78.6175 777.309 78.6175Z" fill="#EA227A"/>
<path d="M632.646 103.117C632.675 103.439 632.637 103.764 632.534 104.071C632.431 104.377 632.265 104.659 632.047 104.898C631.829 105.136 631.563 105.327 631.267 105.458C630.971 105.588 630.651 105.656 630.328 105.656C630.004 105.656 629.684 105.588 629.389 105.458C629.093 105.327 628.827 105.136 628.609 104.898C628.391 104.659 628.225 104.377 628.122 104.071C628.018 103.764 627.98 103.439 628.01 103.117C628.062 102.539 628.329 102.001 628.758 101.609C629.187 101.217 629.747 101 630.328 101C630.909 101 631.469 101.217 631.898 101.609C632.327 102.001 632.594 102.539 632.646 103.117Z" fill="#EA227A"/>
<path d="M657.656 103.309C657.659 103.77 657.526 104.222 657.273 104.607C657.019 104.993 656.657 105.294 656.232 105.473C655.807 105.652 655.338 105.701 654.885 105.613C654.433 105.526 654.016 105.305 653.689 104.981C653.361 104.656 653.138 104.241 653.046 103.789C652.955 103.337 653 102.868 653.175 102.441C653.351 102.015 653.649 101.65 654.033 101.394C654.416 101.137 654.867 101 655.328 101C655.942 101 656.531 101.243 656.967 101.675C657.403 102.107 657.651 102.695 657.656 103.309Z" fill="#EA227A"/>
<path d="M681.656 103.309C681.659 103.771 681.526 104.223 681.271 104.609C681.017 104.995 680.654 105.296 680.227 105.475C679.801 105.653 679.332 105.701 678.878 105.612C678.425 105.523 678.009 105.301 677.682 104.974C677.355 104.647 677.133 104.231 677.044 103.777C676.955 103.324 677.002 102.854 677.181 102.428C677.359 102.002 677.661 101.639 678.046 101.384C678.432 101.13 678.885 100.996 679.347 101C679.958 101.005 680.542 101.25 680.974 101.682C681.406 102.114 681.651 102.698 681.656 103.309Z" fill="#EA227A"/>
<path d="M706.617 103.309C706.617 103.765 706.482 104.212 706.228 104.591C705.975 104.971 705.614 105.267 705.192 105.442C704.77 105.617 704.306 105.662 703.858 105.573C703.41 105.484 702.999 105.264 702.676 104.941C702.353 104.618 702.133 104.207 702.044 103.759C701.955 103.311 702.001 102.847 702.176 102.425C702.35 102.003 702.646 101.643 703.026 101.389C703.406 101.135 703.852 101 704.309 101C704.92 101.005 705.504 101.25 705.936 101.682C706.368 102.114 706.613 102.698 706.617 103.309Z" fill="#EA227A"/>
<path d="M730.618 103.309C730.618 103.765 730.482 104.212 730.228 104.591C729.975 104.971 729.614 105.267 729.192 105.442C728.77 105.617 728.306 105.662 727.858 105.573C727.41 105.484 726.999 105.264 726.676 104.941C726.353 104.618 726.133 104.207 726.044 103.759C725.955 103.311 726.001 102.847 726.176 102.425C726.35 102.003 726.646 101.643 727.026 101.389C727.406 101.135 727.852 101 728.309 101C728.92 101.005 729.504 101.25 729.936 101.682C730.368 102.114 730.613 102.698 730.618 103.309Z" fill="#EA227A"/>
<path d="M755.646 103.117C755.675 103.439 755.637 103.764 755.534 104.071C755.431 104.377 755.265 104.659 755.047 104.898C754.829 105.136 754.563 105.327 754.267 105.458C753.971 105.588 753.651 105.656 753.328 105.656C753.004 105.656 752.685 105.588 752.389 105.458C752.093 105.327 751.827 105.136 751.609 104.898C751.391 104.659 751.225 104.377 751.122 104.071C751.018 103.764 750.98 103.439 751.01 103.117C751.062 102.539 751.329 102.001 751.758 101.609C752.187 101.217 752.747 101 753.328 101C753.909 101 754.469 101.217 754.898 101.609C755.327 102.001 755.594 102.539 755.646 103.117Z" fill="white"/>
<path d="M779.646 103.117C779.675 103.439 779.637 103.764 779.534 104.071C779.431 104.377 779.265 104.659 779.047 104.898C778.829 105.136 778.563 105.327 778.267 105.458C777.971 105.588 777.651 105.656 777.328 105.656C777.004 105.656 776.685 105.588 776.389 105.458C776.093 105.327 775.827 105.136 775.609 104.898C775.391 104.659 775.225 104.377 775.122 104.071C775.018 103.764 774.98 103.439 775.01 103.117C775.062 102.539 775.329 102.001 775.758 101.609C776.187 101.217 776.747 101 777.328 101C777.909 101 778.469 101.217 778.898 101.609C779.327 102.001 779.594 102.539 779.646 103.117Z" fill="#EA227A"/>
<path d="M630.309 132.617C631.584 132.617 632.617 131.584 632.617 130.309C632.617 129.034 631.584 128 630.309 128C629.034 128 628 129.034 628 130.309C628 131.584 629.034 132.617 630.309 132.617Z" fill="#EA227A"/>
<path d="M657.656 130.309C657.659 130.77 657.526 131.222 657.273 131.607C657.019 131.992 656.657 132.294 656.232 132.473C655.807 132.652 655.338 132.701 654.885 132.613C654.433 132.526 654.016 132.305 653.689 131.981C653.361 131.656 653.138 131.241 653.046 130.789C652.955 130.337 653 129.868 653.175 129.441C653.351 129.015 653.649 128.65 654.033 128.394C654.416 128.137 654.867 128 655.328 128C655.942 128 656.531 128.243 656.967 128.675C657.403 129.107 657.651 129.695 657.656 130.309Z" fill="white"/>
<path d="M681.656 130.309C681.659 130.771 681.526 131.223 681.271 131.609C681.017 131.995 680.654 132.296 680.227 132.475C679.801 132.653 679.332 132.701 678.878 132.612C678.425 132.523 678.009 132.301 677.682 131.974C677.355 131.647 677.133 131.231 677.044 130.777C676.955 130.324 677.002 129.854 677.181 129.428C677.359 129.002 677.661 128.639 678.046 128.384C678.432 128.13 678.885 127.996 679.347 128C679.958 128.005 680.542 128.25 680.974 128.682C681.406 129.114 681.651 129.698 681.656 130.309Z" fill="#EA227A"/>
<path d="M704.309 132.617C705.584 132.617 706.617 131.584 706.617 130.309C706.617 129.034 705.584 128 704.309 128C703.034 128 702 129.034 702 130.309C702 131.584 703.034 132.617 704.309 132.617Z" fill="#EA227A"/>
<path d="M728.309 132.617C729.584 132.617 730.618 131.584 730.618 130.309C730.618 129.034 729.584 128 728.309 128C727.034 128 726 129.034 726 130.309C726 131.584 727.034 132.617 728.309 132.617Z" fill="#EA227A"/>
<path d="M755.646 130.117C755.675 130.439 755.637 130.764 755.534 131.071C755.431 131.377 755.265 131.659 755.047 131.898C754.829 132.136 754.563 132.327 754.267 132.458C753.971 132.588 753.651 132.656 753.328 132.656C753.004 132.656 752.685 132.588 752.389 132.458C752.093 132.327 751.827 132.136 751.609 131.898C751.391 131.659 751.225 131.377 751.122 131.071C751.018 130.764 750.98 130.439 751.01 130.117C751.062 129.539 751.329 129.001 751.758 128.609C752.187 128.217 752.747 128 753.328 128C753.909 128 754.469 128.217 754.898 128.609C755.327 129.001 755.594 129.539 755.646 130.117Z" fill="#EA227A"/>
<path d="M777.309 132.617C778.584 132.617 779.617 131.584 779.617 130.309C779.617 129.034 778.584 128 777.309 128C776.034 128 775 129.034 775 130.309C775 131.584 776.034 132.617 777.309 132.617Z" fill="#EA227A"/>
<path d="M1310.31 4.61753C1311.58 4.61753 1312.62 3.58388 1312.62 2.30879C1312.62 1.03371 1311.58 0 1310.31 0C1309.03 0 1308 1.03371 1308 2.30879C1308 3.58388 1309.03 4.61753 1310.31 4.61753Z" fill="#EA227A"/>
<path d="M1335.31 4.61753C1336.58 4.61753 1337.62 3.58388 1337.62 2.30879C1337.62 1.03371 1336.58 0 1335.31 0C1334.03 0 1333 1.03371 1333 2.30879C1333 3.58388 1334.03 4.61753 1335.31 4.61753Z" fill="#EA227A"/>
<path d="M1361.66 2.30887C1361.66 2.77088 1361.53 3.22353 1361.27 3.60925C1361.02 3.99497 1360.65 4.29628 1360.23 4.47483C1359.8 4.65338 1359.33 4.70111 1358.88 4.6119C1358.43 4.52269 1358.01 4.30058 1357.68 3.97388C1357.36 3.64718 1357.13 3.23065 1357.04 2.77733C1356.95 2.324 1357 1.85439 1357.18 1.42827C1357.36 1.00214 1357.66 0.638777 1358.05 0.384449C1358.43 0.130122 1358.88 -0.00369407 1359.35 7.75878e-05C1359.96 0.00506377 1360.54 0.249928 1360.97 0.681827C1361.41 1.11373 1361.65 1.69809 1361.66 2.30887Z" fill="#EA227A"/>
<path d="M1386.66 2.30887C1386.66 2.77088 1386.53 3.22353 1386.27 3.60925C1386.02 3.99497 1385.65 4.29628 1385.23 4.47483C1384.8 4.65338 1384.33 4.70111 1383.88 4.6119C1383.43 4.52269 1383.01 4.30058 1382.68 3.97388C1382.36 3.64718 1382.13 3.23065 1382.04 2.77733C1381.95 2.324 1382 1.85439 1382.18 1.42827C1382.36 1.00214 1382.66 0.638777 1383.05 0.384449C1383.43 0.130122 1383.88 -0.00369407 1384.35 7.75878e-05C1384.96 0.00506377 1385.54 0.249928 1385.97 0.681827C1386.41 1.11373 1386.65 1.69809 1386.66 2.30887Z" fill="#EA227A"/>
<path d="M1410.62 2.30879C1410.62 2.76542 1410.48 3.2118 1410.23 3.59147C1409.97 3.97114 1409.61 4.26705 1409.19 4.44179C1408.77 4.61654 1408.31 4.66224 1407.86 4.57316C1407.41 4.48407 1407 4.2642 1406.68 3.94131C1406.35 3.61843 1406.13 3.20705 1406.04 2.7592C1405.96 2.31134 1406 1.84715 1406.18 1.42528C1406.35 1.00341 1406.65 0.642836 1407.03 0.389147C1407.41 0.135458 1407.85 0 1408.31 0C1408.92 0.00498618 1409.5 0.24985 1409.94 0.681749C1410.37 1.11365 1410.61 1.69802 1410.62 2.30879Z" fill="white"/>
<path d="M1433.31 4.61753C1434.58 4.61753 1435.62 3.58388 1435.62 2.30879C1435.62 1.03371 1434.58 0 1433.31 0C1432.03 0 1431 1.03371 1431 2.30879C1431 3.58388 1432.03 4.61753 1433.31 4.61753Z" fill="#EA227A"/>
<path d="M1310.31 31.6175C1311.58 31.6175 1312.62 30.5839 1312.62 29.3088C1312.62 28.0337 1311.58 27 1310.31 27C1309.03 27 1308 28.0337 1308 29.3088C1308 30.5839 1309.03 31.6175 1310.31 31.6175Z" fill="white"/>
<path d="M1335.31 31.6175C1336.58 31.6175 1337.62 30.5839 1337.62 29.3088C1337.62 28.0337 1336.58 27 1335.31 27C1334.03 27 1333 28.0337 1333 29.3088C1333 30.5839 1334.03 31.6175 1335.31 31.6175Z" fill="#EA227A"/>
<path d="M1361.66 29.3088C1361.66 29.7708 1361.53 30.2235 1361.27 30.6092C1361.02 30.9949 1360.65 31.2962 1360.23 31.4748C1359.8 31.6533 1359.33 31.7011 1358.88 31.6118C1358.43 31.5226 1358.01 31.3005 1357.68 30.9738C1357.36 30.6471 1357.13 30.2306 1357.04 29.7773C1356.95 29.3239 1357 28.8543 1357.18 28.4282C1357.36 28.0021 1357.66 27.6387 1358.05 27.3844C1358.43 27.1301 1358.88 26.9963 1359.35 27.0001C1359.96 27.0051 1360.54 27.2499 1360.97 27.6818C1361.41 28.1137 1361.65 28.698 1361.66 29.3088Z" fill="#EA227A"/>
<path d="M1386.66 29.3088C1386.66 29.7708 1386.53 30.2235 1386.27 30.6092C1386.02 30.9949 1385.65 31.2962 1385.23 31.4748C1384.8 31.6533 1384.33 31.7011 1383.88 31.6118C1383.43 31.5226 1383.01 31.3005 1382.68 30.9738C1382.36 30.6471 1382.13 30.2306 1382.04 29.7773C1381.95 29.3239 1382 28.8543 1382.18 28.4282C1382.36 28.0021 1382.66 27.6387 1383.05 27.3844C1383.43 27.1301 1383.88 26.9963 1384.35 27.0001C1384.96 27.0051 1385.54 27.2499 1385.97 27.6818C1386.41 28.1137 1386.65 28.698 1386.66 29.3088Z" fill="#EA227A"/>
<path d="M1410.62 29.3087C1410.62 29.7654 1410.48 30.2117 1410.23 30.5914C1409.97 30.9711 1409.61 31.267 1409.19 31.4417C1408.77 31.6165 1408.31 31.6622 1407.86 31.5731C1407.41 31.484 1407 31.2641 1406.68 30.9413C1406.35 30.6184 1406.13 30.207 1406.04 29.7591C1405.96 29.3113 1406 28.8471 1406.18 28.4252C1406.35 28.0034 1406.65 27.6428 1407.03 27.3891C1407.41 27.1354 1407.85 27 1408.31 27C1408.92 27.005 1409.5 27.2498 1409.94 27.6817C1410.37 28.1136 1410.61 28.698 1410.62 29.3087Z" fill="#EA227A"/>
<path d="M1433.31 31.6175C1434.58 31.6175 1435.62 30.5839 1435.62 29.3088C1435.62 28.0337 1434.58 27 1433.31 27C1432.03 27 1431 28.0337 1431 29.3088C1431 30.5839 1432.03 31.6175 1433.31 31.6175Z" fill="#EA227A"/>
<path d="M1312.62 56.3088C1312.62 56.7654 1312.48 57.2118 1312.23 57.5915C1311.97 57.9711 1311.61 58.267 1311.19 58.4418C1310.77 58.6165 1310.31 58.6622 1309.86 58.5732C1309.41 58.4841 1309 58.2642 1308.68 57.9413C1308.35 57.6184 1308.13 57.2071 1308.04 56.7592C1307.96 56.3113 1308 55.8471 1308.18 55.4252C1308.35 55.0034 1308.65 54.6428 1309.03 54.3891C1309.41 54.1354 1309.85 54 1310.31 54C1310.92 54.005 1311.5 54.2499 1311.94 54.6817C1312.37 55.1136 1312.61 55.698 1312.62 56.3088Z" fill="#EA227A"/>
<path d="M1337.65 56.1173C1337.68 56.4395 1337.64 56.7641 1337.53 57.0707C1337.43 57.3772 1337.26 57.6589 1337.05 57.8977C1336.83 58.1365 1336.56 58.3272 1336.27 58.4577C1335.97 58.5883 1335.65 58.6557 1335.33 58.6557C1335 58.6557 1334.68 58.5883 1334.39 58.4577C1334.09 58.3272 1333.83 58.1365 1333.61 57.8977C1333.39 57.6589 1333.23 57.3772 1333.12 57.0707C1333.02 56.7641 1332.98 56.4395 1333.01 56.1173C1333.06 55.5388 1333.33 55.0008 1333.76 54.609C1334.19 54.2173 1334.75 54 1335.33 54C1335.91 54 1336.47 54.2173 1336.9 54.609C1337.33 55.0008 1337.59 55.5388 1337.65 56.1173Z" fill="#EA227A"/>
<path d="M1361.66 56.3089C1361.66 56.7709 1361.53 57.2235 1361.27 57.6092C1361.02 57.995 1360.65 58.2963 1360.23 58.4748C1359.8 58.6534 1359.33 58.7011 1358.88 58.6119C1358.43 58.5227 1358.01 58.3006 1357.68 57.9739C1357.36 57.6472 1357.13 57.2307 1357.04 56.7773C1356.95 56.324 1357 55.8544 1357.18 55.4283C1357.36 55.0021 1357.66 54.6388 1358.05 54.3844C1358.43 54.1301 1358.88 53.9963 1359.35 54.0001C1359.96 54.0051 1360.54 54.2499 1360.97 54.6818C1361.41 55.1137 1361.65 55.6981 1361.66 56.3089Z" fill="white"/>
<path d="M1386.66 56.3089C1386.66 56.7709 1386.53 57.2235 1386.27 57.6092C1386.02 57.995 1385.65 58.2963 1385.23 58.4748C1384.8 58.6534 1384.33 58.7011 1383.88 58.6119C1383.43 58.5227 1383.01 58.3006 1382.68 57.9739C1382.36 57.6472 1382.13 57.2307 1382.04 56.7773C1381.95 56.324 1382 55.8544 1382.18 55.4283C1382.36 55.0021 1382.66 54.6388 1383.05 54.3844C1383.43 54.1301 1383.88 53.9963 1384.35 54.0001C1384.96 54.0051 1385.54 54.2499 1385.97 54.6818C1386.41 55.1137 1386.65 55.6981 1386.66 56.3089Z" fill="#EA227A"/>
<path d="M1410.62 56.3088C1410.62 56.7654 1410.48 57.2118 1410.23 57.5915C1409.97 57.9711 1409.61 58.267 1409.19 58.4418C1408.77 58.6165 1408.31 58.6622 1407.86 58.5732C1407.41 58.4841 1407 58.2642 1406.68 57.9413C1406.35 57.6184 1406.13 57.2071 1406.04 56.7592C1405.96 56.3113 1406 55.8471 1406.18 55.4252C1406.35 55.0034 1406.65 54.6428 1407.03 54.3891C1407.41 54.1354 1407.85 54 1408.31 54C1408.92 54.005 1409.5 54.2499 1409.94 54.6817C1410.37 55.1136 1410.61 55.698 1410.62 56.3088Z" fill="#EA227A"/>
<path d="M1435.62 56.3088C1435.62 56.7654 1435.48 57.2118 1435.23 57.5915C1434.97 57.9711 1434.61 58.267 1434.19 58.4418C1433.77 58.6165 1433.31 58.6622 1432.86 58.5732C1432.41 58.4841 1432 58.2642 1431.68 57.9413C1431.35 57.6184 1431.13 57.2071 1431.04 56.7592C1430.96 56.3113 1431 55.8471 1431.18 55.4252C1431.35 55.0034 1431.65 54.6428 1432.03 54.3891C1432.41 54.1354 1432.85 54 1433.31 54C1433.92 54.005 1434.5 54.2499 1434.94 54.6817C1435.37 55.1136 1435.61 55.698 1435.62 56.3088Z" fill="#EA227A"/>
<path d="M1310.31 85.6175C1311.58 85.6175 1312.62 84.5839 1312.62 83.3088C1312.62 82.0337 1311.58 81 1310.31 81C1309.03 81 1308 82.0337 1308 83.3088C1308 84.5839 1309.03 85.6175 1310.31 85.6175Z" fill="#EA227A"/>
<path d="M1335.31 85.6175C1336.58 85.6175 1337.62 84.5839 1337.62 83.3088C1337.62 82.0337 1336.58 81 1335.31 81C1334.03 81 1333 82.0337 1333 83.3088C1333 84.5839 1334.03 85.6175 1335.31 85.6175Z" fill="#EA227A"/>
<path d="M1361.66 83.3089C1361.66 83.7709 1361.53 84.2235 1361.27 84.6092C1361.02 84.995 1360.65 85.2963 1360.23 85.4748C1359.8 85.6534 1359.33 85.7011 1358.88 85.6119C1358.43 85.5227 1358.01 85.3006 1357.68 84.9739C1357.36 84.6472 1357.13 84.2307 1357.04 83.7773C1356.95 83.324 1357 82.8544 1357.18 82.4283C1357.36 82.0021 1357.66 81.6388 1358.05 81.3844C1358.43 81.1301 1358.88 80.9963 1359.35 81.0001C1359.65 81.0001 1359.95 81.0598 1360.23 81.1758C1360.51 81.2918 1360.76 81.4619 1360.98 81.6763C1361.19 81.8907 1361.36 82.1452 1361.48 82.4253C1361.6 82.7054 1361.66 83.0057 1361.66 83.3089Z" fill="#EA227A"/>
<path d="M1386.66 83.3089C1386.66 83.7709 1386.53 84.2235 1386.27 84.6092C1386.02 84.995 1385.65 85.2963 1385.23 85.4748C1384.8 85.6534 1384.33 85.7011 1383.88 85.6119C1383.43 85.5227 1383.01 85.3006 1382.68 84.9739C1382.36 84.6472 1382.13 84.2307 1382.04 83.7773C1381.95 83.324 1382 82.8544 1382.18 82.4283C1382.36 82.0021 1382.66 81.6388 1383.05 81.3844C1383.43 81.1301 1383.88 80.9963 1384.35 81.0001C1384.65 81.0001 1384.95 81.0598 1385.23 81.1758C1385.51 81.2918 1385.77 81.4619 1385.98 81.6763C1386.19 81.8907 1386.36 82.1452 1386.48 82.4253C1386.6 82.7054 1386.66 83.0057 1386.66 83.3089Z" fill="#EA227A"/>
<path d="M1410.62 83.3088C1410.62 83.7654 1410.48 84.2118 1410.23 84.5915C1409.97 84.9711 1409.61 85.267 1409.19 85.4418C1408.77 85.6165 1408.31 85.6622 1407.86 85.5732C1407.41 85.4841 1407 85.2642 1406.68 84.9413C1406.35 84.6184 1406.13 84.2071 1406.04 83.7592C1405.96 83.3113 1406 82.8471 1406.18 82.4252C1406.35 82.0034 1406.65 81.6428 1407.03 81.3891C1407.41 81.1354 1407.85 81 1408.31 81C1408.92 81 1409.51 81.2432 1409.94 81.6762C1410.37 82.1092 1410.62 82.6965 1410.62 83.3088Z" fill="white"/>
<path d="M1433.31 85.6175C1434.58 85.6175 1435.62 84.5839 1435.62 83.3088C1435.62 82.0337 1434.58 81 1433.31 81C1432.03 81 1431 82.0337 1431 83.3088C1431 84.5839 1432.03 85.6175 1433.31 85.6175Z" fill="#EA227A"/>
<path d="M1386.65 110.538C1386.59 111.117 1386.33 111.655 1385.9 112.047C1385.47 112.438 1384.91 112.656 1384.33 112.656C1383.75 112.656 1383.19 112.438 1382.76 112.047C1382.33 111.655 1382.06 111.117 1382.01 110.538C1381.98 110.216 1382.02 109.892 1382.12 109.585C1382.22 109.278 1382.39 108.997 1382.61 108.758C1382.83 108.519 1383.09 108.328 1383.39 108.198C1383.68 108.067 1384 108 1384.33 108C1384.65 108 1384.97 108.067 1385.27 108.198C1385.56 108.328 1385.83 108.519 1386.05 108.758C1386.26 108.997 1386.43 109.278 1386.53 109.585C1386.64 109.892 1386.68 110.216 1386.65 110.538Z" fill="#EA227A"/>
<path d="M105.095 396.189C107.908 396.189 110.189 393.908 110.189 391.095C110.189 388.281 107.908 386 105.095 386C102.281 386 100 388.281 100 391.095C100 393.908 102.281 396.189 105.095 396.189Z" fill="white"/>
<path d="M303.095 682.189C305.908 682.189 308.189 679.908 308.189 677.095C308.189 674.281 305.908 672 303.095 672C300.281 672 298 674.281 298 677.095C298 679.908 300.281 682.189 303.095 682.189Z" fill="white"/>
<path d="M623.095 640.189C625.908 640.189 628.189 637.908 628.189 635.095C628.189 632.281 625.908 630 623.095 630C620.281 630 618 632.281 618 635.095C618 637.908 620.281 640.189 623.095 640.189Z" fill="white"/>
<path d="M1075.78 321.554C1080.62 321.554 1084.55 317.625 1084.55 312.777C1084.55 307.93 1080.62 304 1075.78 304C1070.93 304 1067 307.93 1067 312.777C1067 317.625 1070.93 321.554 1075.78 321.554Z" fill="white"/>
<path d="M54.3885 90.7771C56.8123 90.7771 58.7771 88.8123 58.7771 86.3885C58.7771 83.9648 56.8123 82 54.3885 82C51.9648 82 50 83.9648 50 86.3885C50 88.8123 51.9648 90.7771 54.3885 90.7771Z" fill="#EA227A"/>
<path d="M1255.78 175.389C1255.78 176.257 1255.52 177.105 1255.04 177.827C1254.56 178.548 1253.87 179.111 1253.07 179.443C1252.27 179.775 1251.38 179.862 1250.53 179.693C1249.68 179.523 1248.9 179.105 1248.29 178.492C1247.67 177.878 1247.25 177.096 1247.08 176.245C1246.92 175.393 1247 174.511 1247.33 173.709C1247.67 172.907 1248.23 172.222 1248.95 171.74C1249.67 171.257 1250.52 171 1251.39 171C1251.97 170.998 1252.54 171.109 1253.07 171.329C1253.6 171.549 1254.09 171.872 1254.5 172.28C1254.91 172.688 1255.23 173.173 1255.45 173.706C1255.67 174.24 1255.78 174.812 1255.78 175.389Z" fill="#EA227A"/>
<path d="M815.389 236.777C817.812 236.777 819.777 234.812 819.777 232.389C819.777 229.965 817.812 228 815.389 228C812.965 228 811 229.965 811 232.389C811 234.812 812.965 236.777 815.389 236.777Z" fill="white"/>
<path d="M450.389 595.777C452.812 595.777 454.777 593.812 454.777 591.389C454.777 588.965 452.812 587 450.389 587C447.965 587 446 588.965 446 591.389C446 593.812 447.965 595.777 450.389 595.777Z" fill="#EA227A"/>
<path d="M1360.78 720.369C1360.78 721.238 1360.53 722.089 1360.05 722.813C1359.57 723.537 1358.88 724.102 1358.08 724.437C1357.28 724.773 1356.4 724.862 1355.54 724.695C1354.69 724.528 1353.91 724.111 1353.29 723.498C1352.68 722.885 1352.26 722.104 1352.09 721.252C1351.91 720.4 1352 719.517 1352.33 718.714C1352.66 717.911 1353.23 717.224 1353.95 716.741C1354.67 716.258 1355.52 716 1356.39 716C1357.55 716 1358.66 716.46 1359.48 717.279C1360.31 718.097 1360.77 719.209 1360.78 720.369Z" fill="#EA227A"/>
<path d="M969.052 64H961V91.1517H969.052V64Z" fill="#EA227A"/>
<path d="M978 81.052V73H950.848V81.052H978Z" fill="#EA227A"/>
<path d="M427.228 313H422V330.611H427.228V313Z" fill="#EA227A"/>
<path d="M433 324.228V319H415.389V324.228H433Z" fill="#EA227A"/>
<path d="M527.067 64L455 136.048" stroke="#EA227A" stroke-miterlimit="10"/>
<path d="M1034.69 684L961 757.689" stroke="#EA227A" stroke-miterlimit="10"/>
<path d="M439.571 752L368 823.571" stroke="white" stroke-miterlimit="10"/>
<path d="M1008.57 166L937 237.552" stroke="white" stroke-miterlimit="10"/>
<path d="M315.571 607L244 678.552" stroke="white" stroke-miterlimit="10"/>
<path d="M89.5713 260L18 331.552" stroke="white" stroke-miterlimit="10"/>
<path d="M732.571 184L661 255.552" stroke="white" stroke-miterlimit="10"/>
<path d="M1430.57 308L1359 379.552" stroke="white" stroke-miterlimit="10"/>
<path d="M1372.57 573L1301 644.552" stroke="white" stroke-miterlimit="10"/>
</g>
</svg>
