<svg width="18" height="9" viewBox="0 0 18 9" fill="none" xmlns="http://www.w3.org/2000/svg">
<path fill-rule="evenodd" clip-rule="evenodd" d="M4.55556 1.5C2.86802 1.5 1.5 2.86802 1.5 4.55556C1.5 6.24309 2.86802 7.61111 4.55556 7.61111H6.33333C6.60948 7.61111 6.83333 7.83497 6.83333 8.11111C6.83333 8.38725 6.60948 8.61111 6.33333 8.61111H4.55556C2.31574 8.61111 0.5 6.79538 0.5 4.55556C0.5 2.31573 2.31573 0.5 4.55556 0.5H6.33333C6.60948 0.5 6.83333 0.723858 6.83333 1C6.83333 1.27614 6.60948 1.5 6.33333 1.5H4.55556ZM11.1667 1C11.1667 0.723858 11.3905 0.5 11.6667 0.5H13.4444C15.6843 0.5 17.5 2.31573 17.5 4.55556C17.5 6.79538 15.6843 8.61111 13.4444 8.61111H11.6667C11.3905 8.61111 11.1667 8.38725 11.1667 8.11111C11.1667 7.83497 11.3905 7.61111 11.6667 7.61111H13.4444C15.132 7.61111 16.5 6.24309 16.5 4.55556C16.5 2.86802 15.132 1.5 13.4444 1.5H11.6667C11.3905 1.5 11.1667 1.27614 11.1667 1ZM5.83333 4.55556C5.83333 4.27941 6.05719 4.05556 6.33333 4.05556H11.6667C11.9428 4.05556 12.1667 4.27941 12.1667 4.55556C12.1667 4.8317 11.9428 5.05556 11.6667 5.05556H6.33333C6.05719 5.05556 5.83333 4.8317 5.83333 4.55556Z" fill="#262628"/>
</svg>
