<svg width="14" height="18" viewBox="0 0 14 18" fill="none" xmlns="http://www.w3.org/2000/svg">
<path fill-rule="evenodd" clip-rule="evenodd" d="M13.5 12.5464C13.5 14.7035 10.9513 15.848 9.33909 14.4149L4.50865 10.1212C3.83738 9.5245 3.83738 8.47564 4.50865 7.87895L9.33909 3.58523C10.9513 2.15212 13.5 3.29663 13.5 5.45376V12.5464ZM10.0035 13.6675C10.9708 14.5274 12.5 13.8407 12.5 12.5464V5.45376C12.5 4.15948 10.9708 3.47277 10.0035 4.33264L5.17302 8.62636C4.94926 8.82526 4.94926 9.17488 5.17302 9.37377L10.0035 13.6675Z" fill="currentColor"/>
<path fill-rule="evenodd" clip-rule="evenodd" d="M1 17.5C0.723858 17.5 0.5 17.2761 0.5 17V1C0.5 0.723858 0.723858 0.5 1 0.5C1.27614 0.5 1.5 0.723858 1.5 1V17C1.5 17.2761 1.27614 17.5 1 17.5Z" fill="currentColor"/>
</svg>
