<svg width="12" height="8" viewBox="0 0 12 8" fill="none" xmlns="http://www.w3.org/2000/svg">
<path fill-rule="evenodd" clip-rule="evenodd" d="M11.5003 0.441232C11.8089 0.717524 11.8351 1.19168 11.5588 1.50028L8.15247 5.30494C7.51662 6.0152 6.98626 6.60762 6.50166 7.01494C5.98902 7.44581 5.43608 7.75001 4.75001 7.75001C4.06393 7.75001 3.511 7.44581 2.99836 7.01494C2.51375 6.60762 1.98339 6.01519 1.34754 5.30493L0.441233 4.29264C0.164941 3.98404 0.191133 3.50989 0.499736 3.23359C0.808339 2.9573 1.28249 2.9835 1.55878 3.2921L2.42795 4.26291C3.11065 5.02545 3.57041 5.53628 3.96349 5.86667C4.33794 6.1814 4.55788 6.25001 4.75001 6.25001C4.94214 6.25001 5.16207 6.1814 5.53653 5.86667C5.92961 5.53628 6.38936 5.02545 7.07206 4.26292L10.4412 0.499736C10.7175 0.191134 11.1917 0.16494 11.5003 0.441232Z" fill="currentColor"/>
</svg>
