<svg width="18" height="14" viewBox="0 0 18 14" fill="none" xmlns="http://www.w3.org/2000/svg">
<path fill-rule="evenodd" clip-rule="evenodd" d="M8.84 0.5C9.00718 0.5 9.16329 0.583551 9.25603 0.72265L12.4022 5.44185L16.3264 1.51756C16.4694 1.37456 16.6845 1.33178 16.8713 1.40917C17.0582 1.48656 17.18 1.66888 17.18 1.87111V11.1956C17.18 12.5763 16.0607 13.6956 14.68 13.6956H3C1.61929 13.6956 0.5 12.5763 0.5 11.1956V1.87111C0.5 1.66888 0.621821 1.48656 0.808658 1.40917C0.995495 1.33178 1.21055 1.37456 1.35355 1.51756L5.27784 5.44185L8.42397 0.72265C8.51671 0.583551 8.67282 0.5 8.84 0.5ZM8.84 1.90139L5.77158 6.50402C5.68849 6.62866 5.55389 6.70947 5.40482 6.72423C5.25576 6.73899 5.10792 6.68614 5.002 6.58022L1.5 3.07822V11.1956C1.5 12.024 2.17157 12.6956 3 12.6956H14.68C15.5084 12.6956 16.18 12.024 16.18 11.1956V3.07822L12.678 6.58022C12.5721 6.68614 12.4242 6.73899 12.2752 6.72423C12.1261 6.70947 11.9915 6.62866 11.9084 6.50402L8.84 1.90139Z" fill="#262628"/>
</svg>
