<svg width="14" height="18" viewBox="0 0 14 18" fill="none" xmlns="http://www.w3.org/2000/svg">
<path fill-rule="evenodd" clip-rule="evenodd" d="M0.500122 5.45362C0.500122 3.2965 3.04878 2.15198 4.66103 3.5851L9.49147 7.87882C10.1627 8.4755 10.1627 9.52436 9.49147 10.121L4.66103 14.4148C3.04878 15.8479 0.500122 14.7034 0.500122 12.5462V5.45362ZM3.99667 4.33251C3.02932 3.47264 1.50012 4.15935 1.50012 5.45362V12.5462C1.50012 13.8405 3.02932 14.5272 3.99667 13.6674L8.8271 9.37364C9.05086 9.17474 9.05086 8.82512 8.8271 8.62623L3.99667 4.33251Z" fill="currentColor"/>
<path fill-rule="evenodd" clip-rule="evenodd" d="M13.0001 0.5C13.2763 0.5 13.5001 0.723858 13.5001 1V17C13.5001 17.2761 13.2763 17.5 13.0001 17.5C12.724 17.5 12.5001 17.2761 12.5001 17V1C12.5001 0.723858 12.724 0.5 13.0001 0.5Z" fill="currentColor"/>
</svg>
