<svg width="18" height="18" viewBox="0 0 18 18" fill="none" xmlns="http://www.w3.org/2000/svg">
<path fill-rule="evenodd" clip-rule="evenodd" d="M6.66129 1.5C5.73488 1.5 4.98387 2.25101 4.98387 3.17742C4.98387 4.10383 5.73488 4.85484 6.66129 4.85484H8.33871V3.17742C8.33871 2.25101 7.5877 1.5 6.66129 1.5ZM8.83871 1.61905C8.3529 0.941461 7.55865 0.5 6.66129 0.5C5.18259 0.5 3.98387 1.69872 3.98387 3.17742C3.98387 3.81245 4.20495 4.39585 4.57434 4.85484H3C1.61929 4.85484 0.5 5.97413 0.5 7.35484V7.96774C0.5 9.03406 1.24443 9.92651 2.24194 10.1537V14.6774C2.24194 16.0581 3.36122 17.1774 4.74194 17.1774H12.9355C14.3162 17.1774 15.4355 16.0581 15.4355 14.6774V10.1537C16.433 9.92651 17.1774 9.03406 17.1774 7.96774V7.35484C17.1774 5.97413 16.0581 4.85484 14.6774 4.85484H13.1031C13.4725 4.39585 13.6935 3.81245 13.6935 3.17742C13.6935 1.69872 12.4948 0.5 11.0161 0.5C10.1188 0.5 9.32452 0.941461 8.83871 1.61905ZM11.0161 4.85484C11.9425 4.85484 12.6935 4.10383 12.6935 3.17742C12.6935 2.25101 11.9425 1.5 11.0161 1.5C10.0897 1.5 9.33871 2.25101 9.33871 3.17742V4.85484H11.0161ZM8.33871 5.85484H3C2.17157 5.85484 1.5 6.52641 1.5 7.35484V7.96774C1.5 8.65364 2.05603 9.20968 2.74194 9.20968H8.33871V5.85484ZM9.33871 9.20968V5.85484H14.6774C15.5058 5.85484 16.1774 6.52641 16.1774 7.35484V7.96774C16.1774 8.65364 15.6214 9.20968 14.9355 9.20968H9.33871ZM8.33871 10.2097H3.24194V14.6774C3.24194 15.5058 3.91351 16.1774 4.74194 16.1774H8.33871V10.2097ZM9.33871 16.1774V10.2097H14.4355V14.6774C14.4355 15.5058 13.7639 16.1774 12.9355 16.1774H9.33871Z" fill="#262628"/>
</svg>
