<svg width="17" height="17" viewBox="0 0 17 17" fill="none" xmlns="http://www.w3.org/2000/svg">
<path fill-rule="evenodd" clip-rule="evenodd" d="M9.48995 1.53516C8.9237 1.03776 8.0763 1.03776 7.51006 1.53516L2.01005 6.36654C1.68585 6.65133 1.5 7.06195 1.5 7.49348V14C1.5 14.8285 2.17157 15.5 3 15.5H4.625C5.45343 15.5 6.125 14.8285 6.125 14V12.228C6.125 10.9163 7.18832 9.85299 8.5 9.85299C9.81168 9.85299 10.875 10.9163 10.875 12.228V14C10.875 14.8285 11.5466 15.5 12.375 15.5H14C14.8284 15.5 15.5 14.8285 15.5 14V7.49348C15.5 7.06195 15.3142 6.65133 14.9899 6.36654L9.48995 1.53516ZM6.85009 0.783865C7.79383 -0.0451428 9.20617 -0.0451423 10.1499 0.783865L15.6499 5.61524C16.1903 6.08989 16.5 6.77427 16.5 7.49348V14C16.5 15.3808 15.3807 16.5 14 16.5H12.375C10.9943 16.5 9.875 15.3808 9.875 14V12.228C9.875 11.4686 9.25939 10.853 8.5 10.853C7.74061 10.853 7.125 11.4686 7.125 12.228V14C7.125 15.3808 6.00571 16.5 4.625 16.5H3C1.61929 16.5 0.5 15.3808 0.5 14V7.49348C0.5 6.77427 0.809747 6.08989 1.35009 5.61524L6.85009 0.783865Z" fill="#4572EE"/>
</svg>
