<svg width="12" height="18" viewBox="0 0 12 18" fill="none" xmlns="http://www.w3.org/2000/svg">
<path fill-rule="evenodd" clip-rule="evenodd" d="M6.22581 1.5C3.61582 1.5 1.5 3.61582 1.5 6.22581C1.5 7.58225 1.78599 8.21159 2.09489 8.66692C2.20358 8.82714 2.30204 8.95025 2.41087 9.08634C2.48564 9.17983 2.5653 9.27944 2.65655 9.40142C2.86128 9.67509 3.06422 9.99146 3.21343 10.4142C3.50358 11.2363 3.72269 11.8936 3.86948 12.3461C3.913 12.4803 3.95016 12.5964 3.98094 12.6935H5.72581V9.70968C5.72581 9.43353 5.94966 9.20968 6.22581 9.20968C6.50195 9.20968 6.72581 9.43353 6.72581 9.70968V12.6935H8.47067C8.50145 12.5964 8.53861 12.4803 8.58213 12.3461C8.72892 11.8936 8.94803 11.2363 9.23818 10.4142C9.3874 9.99146 9.59034 9.67509 9.79506 9.40142C9.88631 9.27944 9.96597 9.17983 10.0407 9.08634C10.1496 8.95025 10.248 8.82714 10.3567 8.66692C10.6656 8.21159 10.9516 7.58225 10.9516 6.22581C10.9516 3.61582 8.8358 1.5 6.22581 1.5ZM8.33871 13.6935H4.1129V14.0645C4.1129 15.2314 5.05888 16.1774 6.22581 16.1774C7.39273 16.1774 8.33871 15.2314 8.33871 14.0645V13.6935ZM3.1129 13.2682C3.1046 13.2412 3.09385 13.2064 3.08067 13.1642C3.04465 13.0487 2.99047 12.8772 2.91828 12.6547C2.77389 12.2096 2.55752 11.5604 2.27044 10.7471C2.16652 10.4526 2.02516 10.2268 1.85581 10.0004C1.80371 9.93078 1.73958 9.84994 1.67016 9.76243C1.53973 9.598 1.3906 9.41 1.26735 9.22833C0.831847 8.58638 0.5 7.7555 0.5 6.22581C0.5 3.06353 3.06353 0.5 6.22581 0.5C9.38808 0.5 11.9516 3.06353 11.9516 6.22581C11.9516 7.7555 11.6198 8.58638 11.1843 9.22833C11.061 9.41 10.9119 9.59801 10.7814 9.76243C10.712 9.84995 10.6479 9.93078 10.5958 10.0004C10.4265 10.2268 10.2851 10.4526 10.1812 10.7471C9.8941 11.5604 9.67772 12.2096 9.53333 12.6547C9.46114 12.8772 9.40696 13.0487 9.37094 13.1642C9.35776 13.2064 9.34701 13.2412 9.33871 13.2682V14.0645C9.33871 15.7837 7.94501 17.1774 6.22581 17.1774C4.5066 17.1774 3.1129 15.7837 3.1129 14.0645V13.2682Z" fill="#262628"/>
</svg>
