<svg width="14" height="18" viewBox="0 0 14 18" fill="none" xmlns="http://www.w3.org/2000/svg">
<path fill-rule="evenodd" clip-rule="evenodd" d="M6.77778 1.5C3.8748 1.5 1.5 3.91726 1.5 6.92593C1.5 8.70592 2.33285 10.2823 3.61625 11.271C4.49838 11.9506 5.59233 12.3519 6.77778 12.3519C7.96323 12.3519 9.05718 11.9506 9.9393 11.271C11.2227 10.2823 12.0556 8.70592 12.0556 6.92593C12.0556 3.91726 9.68076 1.5 6.77778 1.5ZM0.5 6.92593C0.5 3.38899 3.2988 0.5 6.77778 0.5C10.2568 0.5 13.0556 3.38899 13.0556 6.92593C13.0556 8.93258 12.1562 10.7275 10.7444 11.9068V17C10.7444 17.2034 10.6212 17.3865 10.4329 17.4631C10.2445 17.5398 10.0284 17.4947 9.88644 17.3491L6.77778 14.1607L3.66911 17.3491C3.52713 17.4947 3.31109 17.5398 3.1227 17.4631C2.93431 17.3865 2.81111 17.2034 2.81111 17V11.9068C1.39937 10.7275 0.5 8.93258 0.5 6.92593ZM3.81111 12.5904V15.7709L6.19628 13.3246C5.33967 13.244 4.53287 12.9872 3.81111 12.5904ZM7.35928 13.3246L9.74444 15.7709V12.5904C9.02268 12.9872 8.21588 13.244 7.35928 13.3246Z" fill="#262628"/>
</svg>
