<svg width="18" height="13" viewBox="0 0 18 13" fill="none" xmlns="http://www.w3.org/2000/svg">
<path fill-rule="evenodd" clip-rule="evenodd" d="M8.84 1.5C7.93526 1.5 7.20182 2.23344 7.20182 3.13818C7.20182 4.04292 7.93526 4.77636 8.84 4.77636C9.74474 4.77636 10.4782 4.04292 10.4782 3.13818C10.4782 2.23344 9.74474 1.5 8.84 1.5ZM6.20182 3.13818C6.20182 1.68115 7.38297 0.5 8.84 0.5C10.297 0.5 11.4782 1.68115 11.4782 3.13818C11.4782 4.59521 10.297 5.77636 8.84 5.77636C7.38297 5.77636 6.20182 4.59521 6.20182 3.13818ZM3.85091 4.35091C3.33979 4.35091 2.92545 4.76525 2.92545 5.27636C2.92545 5.78748 3.33979 6.20182 3.85091 6.20182C4.36202 6.20182 4.77636 5.78748 4.77636 5.27636C4.77636 4.76525 4.36202 4.35091 3.85091 4.35091ZM1.92545 5.27636C1.92545 4.21296 2.78751 3.35091 3.85091 3.35091C4.91431 3.35091 5.77636 4.21296 5.77636 5.27636C5.77636 6.33976 4.91431 7.20182 3.85091 7.20182C2.78751 7.20182 1.92545 6.33976 1.92545 5.27636ZM13.8291 4.35091C13.318 4.35091 12.9036 4.76525 12.9036 5.27636C12.9036 5.78748 13.318 6.20182 13.8291 6.20182C14.3402 6.20182 14.7545 5.78748 14.7545 5.27636C14.7545 4.76525 14.3402 4.35091 13.8291 4.35091ZM11.9036 5.27636C11.9036 4.21296 12.7657 3.35091 13.8291 3.35091C14.8925 3.35091 15.7545 4.21296 15.7545 5.27636C15.7545 6.33976 14.8925 7.20182 13.8291 7.20182C12.7657 7.20182 11.9036 6.33976 11.9036 5.27636ZM8.84 8.62727C7.45152 8.62727 6.27994 8.97677 5.61898 9.45178C5.20615 9.74847 5.06364 10.0368 5.06364 10.2655C5.06364 10.4941 5.20615 10.7824 5.61898 11.0791C6.27994 11.5541 7.45152 11.9036 8.84 11.9036C10.2285 11.9036 11.4001 11.5541 12.061 11.0791C12.4739 10.7824 12.6164 10.4941 12.6164 10.2655C12.6164 10.0368 12.4739 9.74847 12.061 9.45178C11.4001 8.97677 10.2285 8.62727 8.84 8.62727ZM5.23961 8.50319C6.12675 7.95079 7.43082 7.62727 8.84 7.62727C10.2492 7.62727 11.5533 7.95079 12.4404 8.50319C12.8647 8.39766 13.336 8.34 13.8291 8.34C14.6771 8.34 15.4696 8.51081 16.0686 8.81029C16.6377 9.09482 17.18 9.58041 17.18 10.2655C17.18 10.9505 16.6377 11.4361 16.0686 11.7206C15.4696 12.0201 14.6771 12.1909 13.8291 12.1909C13.336 12.1909 12.8647 12.1333 12.4404 12.0277C11.5532 12.5801 10.2492 12.9036 8.84 12.9036C7.43082 12.9036 6.12675 12.5801 5.23961 12.0277C4.8153 12.1333 4.34398 12.1909 3.85091 12.1909C3.00286 12.1909 2.21038 12.0201 1.61141 11.7206C1.04234 11.4361 0.5 10.9505 0.5 10.2655C0.5 9.58041 1.04234 9.09482 1.61141 8.81029C2.21038 8.51081 3.00286 8.34 3.85091 8.34C4.34398 8.34 4.8153 8.39766 5.23961 8.50319ZM4.3333 9.36232C4.17785 9.34773 4.01659 9.34 3.85091 9.34C3.12444 9.34 2.49147 9.48829 2.05862 9.70472C1.59586 9.9361 1.5 10.1632 1.5 10.2655C1.5 10.3677 1.59586 10.5948 2.05862 10.8262C2.49147 11.0426 3.12444 11.1909 3.85091 11.1909C4.01659 11.1909 4.17784 11.1832 4.3333 11.1686C4.16507 10.9002 4.06364 10.5979 4.06364 10.2655C4.06364 9.93297 4.16508 9.63067 4.3333 9.36232ZM13.3467 11.1686C13.5022 11.1832 13.6634 11.1909 13.8291 11.1909C14.5556 11.1909 15.1885 11.0426 15.6214 10.8262C16.0841 10.5948 16.18 10.3677 16.18 10.2655C16.18 10.1632 16.0841 9.9361 15.6214 9.70472C15.1885 9.48829 14.5556 9.34 13.8291 9.34C13.6634 9.34 13.5022 9.34773 13.3467 9.36232C13.5149 9.63067 13.6164 9.93297 13.6164 10.2655C13.6164 10.5979 13.5149 10.9002 13.3467 11.1686Z" fill="#262628"/>
</svg>
