<svg width="23" height="22" viewBox="0 0 23 22" fill="none" xmlns="http://www.w3.org/2000/svg">
<path fill-rule="evenodd" clip-rule="evenodd" d="M11.5273 1.75C6.41871 1.75 2.27734 5.89137 2.27734 11C2.27734 16.1086 6.41871 20.25 11.5273 20.25C16.636 20.25 20.7773 16.1086 20.7773 11C20.7773 5.89137 16.636 1.75 11.5273 1.75ZM0.777344 11C0.777344 5.06294 5.59028 0.25 11.5273 0.25C17.4644 0.25 22.2773 5.06294 22.2773 11C22.2773 16.9371 17.4644 21.75 11.5273 21.75C5.59028 21.75 0.777344 16.9371 0.777344 11Z" fill="#4572EE"/>
<path d="M11.0451 13.6137C11.4344 13.6137 11.7125 13.3171 11.7125 12.9093V12.7054C11.7125 12.1122 11.972 11.7044 13.01 10.7776C14.3076 9.62831 14.771 8.81271 14.771 7.77466C14.771 6.01369 13.3622 4.67906 11.5086 4.67906C10.0256 4.67906 8.87637 5.4576 8.35735 6.79223C8.32028 6.88491 8.2832 6.99613 8.2832 7.16296C8.2832 7.51515 8.56125 7.81173 8.93198 7.81173C9.19149 7.81173 9.43247 7.64491 9.56222 7.32979C9.91442 6.4771 10.6188 5.99515 11.4715 5.99515C12.5095 5.99515 13.2881 6.79223 13.2881 7.86734C13.2881 8.62734 13.01 9.05368 11.8422 10.1473C10.7486 11.1668 10.3593 11.8156 10.3593 12.6683V12.9278C10.3593 13.3171 10.6744 13.6137 11.0451 13.6137ZM11.0822 17.321C11.7125 17.321 12.25 16.8019 12.25 16.1532C12.25 15.5044 11.7125 14.9854 11.0822 14.9854C10.452 14.9854 9.91442 15.5044 9.91442 16.1532C9.91442 16.8019 10.452 17.321 11.0822 17.321Z" fill="#4572EE"/>
</svg>
