<svg width="16" height="18" viewBox="0 0 16 18" fill="none" xmlns="http://www.w3.org/2000/svg">
<path fill-rule="evenodd" clip-rule="evenodd" d="M6.5 1C6.5 0.723858 6.72386 0.5 7 0.5H13C14.3807 0.5 15.5 1.61929 15.5 3V15C15.5 16.3807 14.3807 17.5 13 17.5H7C6.72386 17.5 6.5 17.2761 6.5 17C6.5 16.7239 6.72386 16.5 7 16.5H13C13.8284 16.5 14.5 15.8284 14.5 15V3C14.5 2.17157 13.8284 1.5 13 1.5H7C6.72386 1.5 6.5 1.27614 6.5 1ZM7.7 4.6C7.92091 4.43431 8.23431 4.47909 8.4 4.7L11.4 8.7C11.5333 8.87778 11.5333 9.12222 11.4 9.3L8.4 13.3C8.23431 13.5209 7.92091 13.5657 7.7 13.4C7.47909 13.2343 7.43431 12.9209 7.6 12.7L10 9.5H1C0.723858 9.5 0.5 9.27614 0.5 9C0.5 8.72386 0.723858 8.5 1 8.5H10L7.6 5.3C7.43431 5.07909 7.47909 4.76569 7.7 4.6Z" fill="#262628"/>
</svg>
