<svg
  width="14"
  height="12"
  viewBox="0 0 14 12"
  fill="none"
  xmlns="http://www.w3.org/2000/svg">
  <path
    d="M11.9283 1.58754C11.0679 1.19273 10.1452 0.901855 9.18044 0.735257C9.16287 0.732042 9.14532 0.740077 9.13627 0.756148C9.01761 0.967206 8.88616 1.24255 8.79411 1.45897C7.75648 1.30362 6.72417 1.30362 5.70781 1.45897C5.61574 1.23774 5.47952 0.967206 5.36032 0.756148C5.35127 0.740613 5.33372 0.732578 5.31615 0.735257C4.35195 0.901322 3.42925 1.1922 2.56828 1.58754C2.56082 1.59075 2.55443 1.59612 2.55019 1.60308C0.800033 4.21778 0.32059 6.76821 0.555789 9.28703C0.556853 9.29935 0.563771 9.31114 0.573349 9.31863C1.72806 10.1666 2.84659 10.6814 3.94434 11.0227C3.96191 11.028 3.98053 11.0216 3.99171 11.0071C4.25138 10.6525 4.48286 10.2786 4.68133 9.88538C4.69304 9.86236 4.68186 9.83503 4.65792 9.82593C4.29076 9.68665 3.94115 9.51683 3.60485 9.32399C3.57825 9.30846 3.57612 9.27041 3.60059 9.25219C3.67136 9.19916 3.74215 9.14399 3.80972 9.08827C3.82195 9.0781 3.83899 9.07595 3.85336 9.08238C6.06272 10.0911 8.45462 10.0911 10.6379 9.08238C10.6523 9.07542 10.6693 9.07757 10.6821 9.08774C10.7497 9.14345 10.8204 9.19916 10.8917 9.25219C10.9162 9.27041 10.9146 9.30846 10.888 9.32399C10.5517 9.52058 10.2021 9.68665 9.83441 9.82539C9.81047 9.8345 9.79983 9.86236 9.81154 9.88538C10.0143 10.278 10.2457 10.652 10.5006 11.0066C10.5113 11.0216 10.5304 11.028 10.548 11.0227C11.6511 10.6814 12.7696 10.1666 13.9243 9.31863C13.9344 9.31114 13.9408 9.29988 13.9419 9.28756C14.2234 6.37553 13.4704 3.84601 11.9459 1.60361C11.9421 1.59612 11.9358 1.59075 11.9283 1.58754ZM5.01126 7.75333C4.34609 7.75333 3.79801 7.14266 3.79801 6.39269C3.79801 5.64271 4.33546 5.03204 5.01126 5.03204C5.69237 5.03204 6.23514 5.64807 6.22449 6.39269C6.22449 7.14266 5.68704 7.75333 5.01126 7.75333ZM9.49705 7.75333C8.8319 7.75333 8.28381 7.14266 8.28381 6.39269C8.28381 5.64271 8.82125 5.03204 9.49705 5.03204C10.1782 5.03204 10.7209 5.64807 10.7103 6.39269C10.7103 7.14266 10.1782 7.75333 9.49705 7.75333Z"
    fill="#5F70BE"
  />
</svg>