<svg width="16" height="16" viewBox="0 0 16 16" fill="none" xmlns="http://www.w3.org/2000/svg">
<path fill-rule="evenodd" clip-rule="evenodd" d="M0.5 4C0.5 2.067 2.067 0.5 4 0.5H11.9355C13.8685 0.5 15.4355 2.067 15.4355 4V7.96774C15.4355 8.10035 15.3828 8.22753 15.289 8.3213L8.3213 15.289C8.22753 15.3828 8.10035 15.4355 7.96774 15.4355H4C2.067 15.4355 0.5 13.8685 0.5 11.9355V4ZM4 1.5C2.61929 1.5 1.5 2.61929 1.5 4V11.9355C1.5 13.3162 2.61929 14.4355 4 14.4355H7.46774V10.9677C7.46774 9.03475 9.03475 7.46774 10.9677 7.46774H14.4355V4C14.4355 2.61929 13.3162 1.5 11.9355 1.5H4ZM13.7284 8.46774H10.9677C9.58703 8.46774 8.46774 9.58703 8.46774 10.9677V13.7284L13.7284 8.46774Z" fill="#262628"/>
</svg>
