<svg width="18" height="18" viewBox="0 0 18 18" fill="none" xmlns="http://www.w3.org/2000/svg">
<path fill-rule="evenodd" clip-rule="evenodd" d="M0.764071 0.559163C0.92665 0.472154 1.12392 0.48169 1.27735 0.583976L4 2.39908L6.72265 0.583976C6.8906 0.472009 7.1094 0.472009 7.27735 0.583976L10 2.39908L12.7226 0.583976C12.8761 0.48169 13.0733 0.472154 13.2359 0.559163C13.3985 0.646173 13.5 0.815603 13.5 1V8.5H17C17.2761 8.5 17.5 8.72386 17.5 9V13C17.5 15.4853 15.4853 17.5 13 17.5H5C2.51472 17.5 0.5 15.4853 0.5 13V1C0.5 0.815603 0.601492 0.646173 0.764071 0.559163ZM13.5 9.5V16.4646C15.1961 16.2219 16.5 14.7632 16.5 13V9.5H13.5ZM12.5 16.5V1.93426L10.2774 3.41603C10.1094 3.52799 9.8906 3.52799 9.72265 3.41603L7 1.60093L4.27735 3.41603C4.1094 3.52799 3.8906 3.52799 3.72265 3.41603L1.5 1.93426V13C1.5 14.933 3.067 16.5 5 16.5H12.5ZM4.5 6C4.5 5.72386 4.72386 5.5 5 5.5H9C9.27614 5.5 9.5 5.72386 9.5 6C9.5 6.27614 9.27614 6.5 9 6.5H5C4.72386 6.5 4.5 6.27614 4.5 6ZM4.5 10C4.5 9.72386 4.72386 9.5 5 9.5H9C9.27614 9.5 9.5 9.72386 9.5 10C9.5 10.2761 9.27614 10.5 9 10.5H5C4.72386 10.5 4.5 10.2761 4.5 10ZM4.5 14C4.5 13.7239 4.72386 13.5 5 13.5H9C9.27614 13.5 9.5 13.7239 9.5 14C9.5 14.2761 9.27614 14.5 9 14.5H5C4.72386 14.5 4.5 14.2761 4.5 14Z" fill="#262628"/>
</svg>
