<svg width="18" height="17" viewBox="0 0 18 17" fill="none" xmlns="http://www.w3.org/2000/svg">
<path fill-rule="evenodd" clip-rule="evenodd" d="M0.5 12.5558C0.5 12.4232 0.552678 12.296 0.646447 12.2022L4.202 8.64666C4.39726 8.4514 4.71385 8.4514 4.90911 8.64666C5.10437 8.84193 5.10437 9.15851 4.90911 9.35377L2.20711 12.0558H16.1111C16.3873 12.0558 16.6111 12.2796 16.6111 12.5558C16.6111 12.8319 16.3873 13.0558 16.1111 13.0558H2.20711L4.90911 15.7578C5.10437 15.953 5.10437 16.2696 4.90911 16.4649C4.71385 16.6601 4.39726 16.6601 4.202 16.4649L0.646447 12.9093C0.552678 12.8156 0.5 12.6884 0.5 12.5558ZM1.38889 4.55577C1.38889 4.27963 1.61275 4.05577 1.88889 4.05577H15.7929L13.0909 1.35377C12.8956 1.15851 12.8956 0.841927 13.0909 0.646665C13.2862 0.451403 13.6027 0.451403 13.798 0.646665L17.3536 4.20222C17.4473 4.29599 17.5 4.42317 17.5 4.55577C17.5 4.68838 17.4473 4.81556 17.3536 4.90933L13.798 8.46488C13.6027 8.66014 13.2862 8.66014 13.0909 8.46488C12.8956 8.26962 12.8956 7.95304 13.0909 7.75778L15.7929 5.05577H1.88889C1.61275 5.05577 1.38889 4.83192 1.38889 4.55577Z" fill="#262628"/>
</svg>
