<svg width="17" height="16" viewBox="0 0 17 16" fill="none" xmlns="http://www.w3.org/2000/svg">
<path d="M9.23858 1.60223H9.19834V0.632391C9.19834 0.283312 8.88535 0 8.4997 0C8.11404 0 7.80105 0.283312 7.80105 0.632391V1.60223H7.76081C6.75923 1.60223 5.94434 2.33985 5.94434 3.24644V12.7536C5.94434 13.6602 6.75923 14.3978 7.76081 14.3978H7.80105V15.3676C7.80105 15.7167 8.11404 16 8.4997 16C8.88535 16 9.19834 15.7167 9.19834 15.3676V14.3978H9.23858C10.2402 14.3978 11.0551 13.6602 11.0551 12.7536V3.24644C11.0551 2.33985 10.2402 1.60223 9.23858 1.60223ZM9.65777 12.7536C9.65777 12.963 9.46997 13.133 9.23858 13.133H7.76081C7.52942 13.133 7.34162 12.963 7.34162 12.7536V3.24644C7.34162 3.03699 7.52942 2.86701 7.76081 2.86701H9.23858C9.46997 2.86701 9.65777 3.03699 9.65777 3.24644V12.7536Z" fill="currentColor"/>
<path fill-rule="evenodd" clip-rule="evenodd" d="M3.29424 4.70033H3.254V3.38849C3.254 3.03941 2.94101 2.7561 2.55536 2.7561C2.16971 2.7561 1.85672 3.03941 1.85672 3.38849V4.70033H1.81647C0.814898 4.70033 0 5.43795 0 6.34454V12.1701C0 13.0767 0.814898 13.8143 1.81647 13.8143H1.85672V15.1262C1.85672 15.4753 2.16971 15.7586 2.55536 15.7586C2.94101 15.7586 3.254 15.4753 3.254 15.1262V13.8143H3.29424C4.29582 13.8143 5.11072 13.0767 5.11072 12.1701V6.34454C5.11072 5.43795 4.29582 4.70033 3.29424 4.70033ZM3.7136 12.1701C3.7136 12.3796 3.52581 12.5495 3.29442 12.5495H1.81665C1.58526 12.5495 1.39746 12.3796 1.39746 12.1701V6.34452C1.39746 6.13507 1.58526 5.96509 1.81665 5.96509H3.29442C3.52581 5.96509 3.7136 6.13507 3.7136 6.34452V12.1701Z" fill="currentColor"/>
<path fill-rule="evenodd" clip-rule="evenodd" d="M15.1832 4.70008H15.1429V3.38825C15.1429 3.03917 14.8299 2.75586 14.4443 2.75586C14.0586 2.75586 13.7456 3.03917 13.7456 3.38825V4.70008H13.7054C12.7038 4.70008 11.8889 5.4377 11.8889 6.3443V11.2512C11.8889 12.1578 12.7038 12.8954 13.7054 12.8954H13.7456V14.2073C13.7456 14.5563 14.0586 14.8397 14.4443 14.8397C14.8299 14.8397 15.1429 14.5563 15.1429 14.2073V12.8954H15.1832C16.1847 12.8954 16.9996 12.1578 16.9996 11.2512V6.3443C16.9996 5.4377 16.1847 4.70008 15.1832 4.70008ZM15.6025 11.2512C15.6025 11.4606 15.4147 11.6306 15.1833 11.6306H13.7056C13.4742 11.6306 13.2864 11.4606 13.2864 11.2512V6.34428C13.2864 6.13483 13.4742 5.96484 13.7056 5.96484H15.1833C15.4147 5.96484 15.6025 6.13483 15.6025 6.34428V11.2512Z" fill="currentColor"/>
</svg>
