<svg width="19" height="18" viewBox="0 0 19 18" fill="none" xmlns="http://www.w3.org/2000/svg">
<path fill-rule="evenodd" clip-rule="evenodd" d="M18.0274 0.350686C18.386 0.365816 18.6645 0.668837 18.6494 1.0275C18.5568 3.22402 18.1961 6.52896 17.4049 9.30336C17.0105 10.6863 16.4965 11.984 15.824 12.9497C15.1535 13.9127 14.2461 14.6501 13.0645 14.6501C11.7004 14.6501 10.7971 13.9643 10.1759 13.0325C9.59422 12.16 9.22836 11.0256 8.89799 10.0012L8.88138 9.94966C8.53065 8.86239 8.21348 7.89538 7.74242 7.18879C7.30109 6.52679 6.76496 6.15011 5.93547 6.15011C5.32669 6.15011 4.76026 6.47378 4.22011 7.15997C3.67536 7.85199 3.2142 8.84749 2.8388 10.012C2.09 12.3349 1.73902 15.1485 1.64925 17.0311C1.63215 17.3896 1.32761 17.6665 0.969029 17.6494C0.610451 17.6323 0.333628 17.3277 0.350727 16.9691C0.44375 15.0184 0.805673 12.082 1.6015 9.61318C1.99841 8.3819 2.51749 7.22114 3.19862 6.35587C3.88434 5.48477 4.78941 4.85011 5.93547 4.85011C7.29954 4.85011 8.20292 5.53592 8.82409 6.46768C9.40576 7.34018 9.77162 8.47465 10.102 9.49905L10.1186 9.55056C10.4693 10.6378 10.7865 11.6048 11.2576 12.3114C11.6989 12.9734 12.235 13.3501 13.0645 13.3501C13.6378 13.3501 14.2019 13.0042 14.7572 12.2068C15.3106 11.4121 15.7768 10.2723 16.1547 8.94686C16.9082 6.30459 17.2604 3.10953 17.3506 0.972713C17.3657 0.614047 17.6687 0.335556 18.0274 0.350686Z" fill="currentColor"/>
</svg>
