<svg width="8" height="8" viewBox="0 0 8 8" fill="none" xmlns="http://www.w3.org/2000/svg">
<path d="M6.91497 1.49561C7.02834 1.38223 7.02834 1.19841 6.91497 1.08503C6.80159 0.971655 6.61777 0.971655 6.50439 1.08503L4 3.58943L1.49561 1.08503C1.38223 0.971657 1.19841 0.971657 1.08503 1.08503C0.971656 1.19841 0.971656 1.38223 1.08503 1.49561L3.58942 4.00001L1.08504 6.50439C0.971666 6.61777 0.971666 6.80159 1.08504 6.91497C1.19842 7.02834 1.38224 7.02834 1.49562 6.91497L4 4.41058L6.50438 6.91497C6.61776 7.02834 6.80158 7.02834 6.91496 6.91497C7.02833 6.80159 7.02833 6.61777 6.91496 6.50439L4.41058 4.00001L6.91497 1.49561Z" fill="white" stroke="white" stroke-width="0.5" stroke-linecap="round"/>
</svg>
