<svg width="24" height="24" viewBox="0 0 24 24" fill="none" xmlns="http://www.w3.org/2000/svg">
<g clip-path="url(#clip0_1339_14466)">
<path d="M12 24C18.6274 24 24 18.6274 24 12C24 5.37258 18.6274 0 12 0C5.37258 0 0 5.37258 0 12C0 18.6274 5.37258 24 12 24Z" fill="#26A17B"/>
<path fill-rule="evenodd" clip-rule="evenodd" d="M13.4416 13.0375V13.036C13.3591 13.042 12.9338 13.0675 11.9851 13.0675C11.2276 13.0675 10.6943 13.045 10.5068 13.036V13.0382C7.59085 12.91 5.41435 12.4022 5.41435 11.7947C5.41435 11.188 7.59085 10.6802 10.5068 10.5497V12.5327C10.6973 12.5462 11.2433 12.5785 11.9978 12.5785C12.9031 12.5785 13.3568 12.541 13.4416 12.5335V10.5512C16.3516 10.681 18.5228 11.1887 18.5228 11.7947C18.5228 12.4022 16.3516 12.9085 13.4416 13.0375ZM13.4416 10.345V8.57047H17.5021V5.86447H6.44635V8.57047H10.5068V10.3442C7.20685 10.4957 4.7251 11.1497 4.7251 11.9327C4.7251 12.7157 7.20685 13.369 10.5068 13.5212V19.2077H13.4416V13.5197C16.7363 13.3682 19.2121 12.715 19.2121 11.9327C19.2121 11.1505 16.7363 10.4972 13.4416 10.345Z" fill="white"/>
</g>
<defs>
<clipPath id="clip0_1339_14466">
<rect width="24" height="24" fill="white"/>
</clipPath>
</defs>
</svg>
