<svg width="20" height="20" viewBox="0 0 20 20" fill="none" xmlns="http://www.w3.org/2000/svg">
<path d="M20 4.64862H0V6.14621H20V4.64862Z" fill="#F5F5F5"/>
<path d="M18.9556 1.65308H1.04436C0.665137 2.08616 0.373301 2.59396 0.195801 3.15086H19.8042C19.6267 2.59396 19.3348 2.08616 18.9556 1.65308Z" fill="#F5F5F5"/>
<path d="M20 7.64417H0V9.14176H20V7.64417Z" fill="#F5F5F5"/>
<path d="M20 10.6397H0V12.1373H20V10.6397Z" fill="#F5F5F5"/>
<path d="M20 13.6351H0V15.1327H20V13.6351Z" fill="#F5F5F5"/>
<path d="M19.8042 16.6308H0.195801C0.373262 17.1877 0.665137 17.6955 1.04436 18.1285H18.9556C19.3348 17.6955 19.6267 17.1877 19.8042 16.6308Z" fill="#F5F5F5"/>
<path d="M15.625 0.155457H4.37497C3.04106 0.155457 1.8468 0.73681 1.04434 1.65324H18.9556C18.1531 0.73681 16.9589 0.155457 15.625 0.155457Z" fill="#FF4B55"/>
<path d="M20 6.14655H0V7.64414H20V6.14655Z" fill="#FF4B55"/>
<path d="M20 4.41465C20 3.97462 19.9314 3.55021 19.8042 3.15094H0.19582C0.0685547 3.55021 0 3.97462 0 4.41465V4.64869H20V4.41465Z" fill="#FF4B55"/>
<path d="M20 9.14203H0V10.6396H20V9.14203Z" fill="#FF4B55"/>
<path d="M20 15.3673V15.1332H0V15.3673C0 15.8073 0.0685547 16.2317 0.19582 16.631H19.8042C19.9314 16.2317 20 15.8073 20 15.3673Z" fill="#FF4B55"/>
<path d="M18.9557 18.1287H1.04443C1.84689 19.0451 3.04115 19.6264 4.37506 19.6264H15.6251C16.959 19.6264 18.1532 19.0451 18.9557 18.1287Z" fill="#FF4B55"/>
<path d="M20 12.1376H0V13.6352H20V12.1376Z" fill="#FF4B55"/>
<path d="M10.7692 0.155457H4.375C1.95875 0.155457 0 2.0624 0 4.41474V10.6398H10.7692V0.155457Z" fill="#41479B"/>
<path d="M1.16191 1.79641C1.15167 1.82808 1.18851 1.85429 1.21616 1.83496L1.42956 1.68581L1.64296 1.83496C1.67058 1.85429 1.70745 1.82808 1.69722 1.79641L1.61811 1.55183L1.82913 1.39944C1.85643 1.37969 1.84237 1.33732 1.80839 1.33705L1.54612 1.33506L1.50136 1.2038C1.38894 1.29965 1.28171 1.40112 1.17987 1.50759L1.24108 1.55183L1.16191 1.79641Z" fill="#F5F5F5"/>
<path d="M1.46308 3.11239L1.54605 3.35517L1.80831 3.35715C1.84226 3.35742 1.85636 3.39969 1.82906 3.41939L1.61804 3.57142L1.69714 3.81542C1.70738 3.84702 1.67054 3.87313 1.64288 3.85388L1.42948 3.70505L1.21609 3.85388C1.18847 3.87317 1.15159 3.84702 1.16183 3.81542L1.24093 3.57142L1.02991 3.41939C1.00261 3.39972 1.01667 3.35742 1.05062 3.35715L1.31288 3.35517L1.39585 3.11239C1.40675 3.08095 1.45234 3.08095 1.46308 3.11239Z" fill="#F5F5F5"/>
<path d="M1.46308 5.35354L1.54605 5.59632L1.80831 5.5983C1.84226 5.59856 1.85636 5.64083 1.82906 5.66053L1.61804 5.81257L1.69714 6.05656C1.70738 6.08816 1.67054 6.11427 1.64288 6.09502L1.42948 5.94623L1.21609 6.09502C1.18847 6.11427 1.15159 6.08816 1.16183 6.05656L1.24093 5.81257L1.02991 5.66053C1.00261 5.64087 1.01667 5.59856 1.05062 5.5983L1.31288 5.59632L1.39585 5.35354C1.40675 5.3221 1.45234 5.3221 1.46308 5.35354Z" fill="#F5F5F5"/>
<path d="M1.46308 7.41274L1.54605 7.65552L1.80831 7.6575C1.84226 7.65777 1.85636 7.70004 1.82906 7.71974L1.61804 7.87177L1.69714 8.11577C1.70738 8.14736 1.67054 8.17347 1.64288 8.15422L1.42948 8.00539L1.21609 8.15422C1.18847 8.17347 1.15159 8.14736 1.16183 8.11577L1.24093 7.87177L1.02991 7.71974C1.00261 7.70007 1.01667 7.65777 1.05062 7.6575L1.31288 7.65552L1.39585 7.41274C1.40675 7.3813 1.45234 7.3813 1.46308 7.41274Z" fill="#F5F5F5"/>
<path d="M1.46308 9.28652L1.54605 9.5293L1.80831 9.53128C1.84226 9.53155 1.85636 9.57381 1.82906 9.59352L1.61804 9.74555L1.69714 9.98955C1.70738 10.0211 1.67054 10.0472 1.64288 10.028L1.42948 9.87921L1.21609 10.028C1.18847 10.0472 1.15159 10.0211 1.16183 9.98955L1.24093 9.74555L1.02991 9.59352C1.00261 9.57385 1.01667 9.53155 1.05062 9.53128L1.31288 9.5293L1.39585 9.28652C1.40675 9.25508 1.45234 9.25508 1.46308 9.28652Z" fill="#F5F5F5"/>
<path d="M2.47333 2.04842L2.5563 2.2912L2.81857 2.29319C2.85251 2.29345 2.86661 2.33572 2.83931 2.35539L2.62829 2.50742L2.70739 2.75142C2.71763 2.78302 2.68079 2.80916 2.65314 2.78988L2.43982 2.64105L2.22642 2.78988C2.1988 2.80916 2.16193 2.78302 2.17216 2.75142L2.25126 2.50742L2.04029 2.35539C2.01298 2.33572 2.02705 2.29342 2.06099 2.29319L2.32326 2.2912L2.40622 2.04842C2.41701 2.01698 2.46259 2.01698 2.47333 2.04842Z" fill="#F5F5F5"/>
<path d="M2.47341 4.28982L2.55638 4.5326L2.81864 4.53458C2.85259 4.53485 2.86669 4.57711 2.83939 4.59682L2.62837 4.74885L2.70747 4.99285C2.71771 5.02445 2.68087 5.05059 2.65321 5.03131L2.43982 4.88248L2.22642 5.03131C2.1988 5.05059 2.16193 5.02445 2.17216 4.99285L2.25126 4.74885L2.04029 4.59682C2.01298 4.57715 2.02705 4.53485 2.06099 4.53458L2.32326 4.5326L2.40622 4.28982C2.41708 4.25837 2.46267 4.25837 2.47341 4.28982Z" fill="#F5F5F5"/>
<path d="M2.47341 6.41924L2.55638 6.66203L2.81864 6.66401C2.85259 6.66428 2.86669 6.70654 2.83939 6.72625L2.62837 6.87828L2.70747 7.12228C2.71771 7.15388 2.68087 7.17999 2.65321 7.16074L2.43982 7.01191L2.22642 7.16074C2.1988 7.18003 2.16193 7.15388 2.17216 7.12228L2.25126 6.87828L2.04029 6.72625C2.01298 6.70658 2.02705 6.66428 2.06099 6.66401L2.32326 6.66203L2.40622 6.41924C2.41708 6.38784 2.46267 6.38784 2.47341 6.41924Z" fill="#F5F5F5"/>
<path d="M2.47341 8.33144L2.55638 8.57422L2.81864 8.5762C2.85259 8.57647 2.86669 8.61874 2.83939 8.63844L2.62837 8.79047L2.70747 9.03447C2.71771 9.06607 2.68087 9.09221 2.65321 9.07293L2.43982 8.92413L2.22642 9.07293C2.1988 9.09221 2.16193 9.06607 2.17216 9.03447L2.25126 8.79047L2.04029 8.63844C2.01298 8.61878 2.02705 8.57647 2.06099 8.5762L2.32326 8.57422L2.40622 8.33144C2.41708 8.3 2.46267 8.3 2.47341 8.33144Z" fill="#F5F5F5"/>
<path d="M3.48364 1.09167L3.5666 1.33445L3.82887 1.33643C3.86281 1.3367 3.87692 1.37897 3.84961 1.39863L3.6386 1.55066L3.7177 1.79466C3.72793 1.82626 3.6911 1.85237 3.66344 1.83312L3.45004 1.68429L3.23664 1.83312C3.20903 1.85241 3.17215 1.82626 3.18239 1.79466L3.26149 1.55066L3.05051 1.39863C3.02321 1.37897 3.03727 1.33666 3.07122 1.33643L3.33348 1.33445L3.41645 1.09167C3.42731 1.06026 3.47289 1.06026 3.48364 1.09167Z" fill="#F5F5F5"/>
<path d="M3.48367 3.11239L3.56664 3.35517L3.8289 3.35715C3.86285 3.35742 3.87695 3.39969 3.84964 3.41939L3.63863 3.57142L3.71773 3.81542C3.72796 3.84702 3.69113 3.87313 3.66347 3.85388L3.45007 3.70505L3.23668 3.85388C3.20906 3.87317 3.17218 3.84702 3.18242 3.81542L3.26152 3.57142L3.05054 3.41939C3.02324 3.39972 3.0373 3.35742 3.07125 3.35715L3.33351 3.35517L3.41648 3.11239C3.42734 3.08095 3.47292 3.08095 3.48367 3.11239Z" fill="#F5F5F5"/>
<path d="M3.48367 5.35354L3.56664 5.59632L3.8289 5.5983C3.86285 5.59856 3.87695 5.64083 3.84964 5.66053L3.63863 5.81257L3.71773 6.05656C3.72796 6.08816 3.69113 6.11427 3.66347 6.09502L3.45007 5.94623L3.23668 6.09502C3.20906 6.11427 3.17218 6.08816 3.18242 6.05656L3.26152 5.81257L3.05054 5.66053C3.02324 5.64087 3.0373 5.59856 3.07125 5.5983L3.33351 5.59632L3.41648 5.35354C3.42734 5.3221 3.47292 5.3221 3.48367 5.35354Z" fill="#F5F5F5"/>
<path d="M3.48367 7.41274L3.56664 7.65552L3.8289 7.6575C3.86285 7.65777 3.87695 7.70004 3.84964 7.71974L3.63863 7.87177L3.71773 8.11577C3.72796 8.14736 3.69113 8.17347 3.66347 8.15422L3.45007 8.00539L3.23668 8.15422C3.20906 8.17347 3.17218 8.14736 3.18242 8.11577L3.26152 7.87177L3.05054 7.71974C3.02324 7.70007 3.0373 7.65777 3.07125 7.6575L3.33351 7.65552L3.41648 7.41274C3.42734 7.3813 3.47292 7.3813 3.48367 7.41274Z" fill="#F5F5F5"/>
<path d="M3.48367 9.28652L3.56664 9.5293L3.8289 9.53128C3.86285 9.53155 3.87695 9.57381 3.84964 9.59352L3.63863 9.74555L3.71773 9.98955C3.72796 10.0211 3.69113 10.0472 3.66347 10.028L3.45007 9.87921L3.23668 10.028C3.20906 10.0472 3.17218 10.0211 3.18242 9.98955L3.26152 9.74555L3.05054 9.59352C3.02324 9.57385 3.0373 9.53155 3.07125 9.53128L3.33351 9.5293L3.41648 9.28652C3.42734 9.25508 3.47292 9.25508 3.48367 9.28652Z" fill="#F5F5F5"/>
<path d="M4.49396 2.04842L4.57693 2.2912L4.8392 2.29319C4.87314 2.29345 4.88724 2.33572 4.8599 2.35539L4.64892 2.50742L4.72802 2.75142C4.73826 2.78302 4.70142 2.80916 4.67377 2.78988L4.46037 2.64105L4.24697 2.78988C4.21935 2.80916 4.18247 2.78302 4.19271 2.75142L4.27181 2.50742L4.06079 2.35539C4.03349 2.33572 4.04755 2.29342 4.08154 2.29319L4.3438 2.2912L4.42677 2.04842C4.43767 2.01698 4.48322 2.01698 4.49396 2.04842Z" fill="#F5F5F5"/>
<path d="M4.49396 4.28982L4.57693 4.5326L4.8392 4.53458C4.87314 4.53485 4.88724 4.57711 4.8599 4.59682L4.64892 4.74885L4.72802 4.99285C4.73826 5.02445 4.70142 5.05059 4.67377 5.03131L4.46037 4.88248L4.24697 5.03131C4.21935 5.05059 4.18247 5.02445 4.19271 4.99285L4.27181 4.74885L4.06079 4.59682C4.03349 4.57715 4.04755 4.53485 4.08154 4.53458L4.3438 4.5326L4.42677 4.28982C4.43767 4.25837 4.48322 4.25837 4.49396 4.28982Z" fill="#F5F5F5"/>
<path d="M4.49396 6.41924L4.57693 6.66203L4.8392 6.66401C4.87314 6.66428 4.88724 6.70654 4.8599 6.72625L4.64892 6.87828L4.72802 7.12228C4.73826 7.15388 4.70142 7.17999 4.67377 7.16074L4.46037 7.01191L4.24697 7.16074C4.21935 7.18003 4.18247 7.15388 4.19271 7.12228L4.27181 6.87828L4.06079 6.72625C4.03349 6.70658 4.04755 6.66428 4.08154 6.66401L4.3438 6.66203L4.42677 6.41924C4.43767 6.38784 4.48322 6.38784 4.49396 6.41924Z" fill="#F5F5F5"/>
<path d="M4.49396 8.33144L4.57693 8.57422L4.8392 8.5762C4.87314 8.57647 4.88724 8.61874 4.8599 8.63844L4.64892 8.79047L4.72802 9.03447C4.73826 9.06607 4.70142 9.09221 4.67377 9.07293L4.46037 8.92413L4.24697 9.07293C4.21935 9.09221 4.18247 9.06607 4.19271 9.03447L4.27181 8.79047L4.06079 8.63844C4.03349 8.61878 4.04755 8.57647 4.08154 8.5762L4.3438 8.57422L4.42677 8.33144C4.43767 8.3 4.48322 8.3 4.49396 8.33144Z" fill="#F5F5F5"/>
<path d="M5.50415 1.09167L5.58712 1.33445L5.84938 1.33643C5.88333 1.3367 5.89743 1.37897 5.87009 1.39863L5.65911 1.55066L5.73821 1.79466C5.74845 1.82626 5.71161 1.85237 5.68395 1.83312L5.47055 1.68429L5.25715 1.83312C5.22954 1.85241 5.19266 1.82626 5.20289 1.79466L5.282 1.55066L5.07102 1.39863C5.04371 1.37897 5.05778 1.33666 5.09176 1.33643L5.35403 1.33445L5.437 1.09167C5.44786 1.06026 5.4934 1.06026 5.50415 1.09167Z" fill="#F5F5F5"/>
<path d="M5.50413 3.11233L5.5871 3.35511L5.84936 3.3571C5.88331 3.35736 5.89741 3.39963 5.87007 3.41933L5.65909 3.57137L5.73823 3.81533C5.74847 3.84693 5.71163 3.87304 5.68397 3.85379L5.47058 3.70496L5.25718 3.85379C5.22956 3.87307 5.19269 3.84693 5.20292 3.81533L5.28202 3.57133L5.07105 3.4193C5.04374 3.39963 5.05781 3.35732 5.09179 3.35706L5.35405 3.35508L5.43702 3.11229C5.44784 3.08089 5.49339 3.08089 5.50413 3.11233Z" fill="#F5F5F5"/>
<path d="M5.50418 5.35354L5.58715 5.59632L5.84942 5.5983C5.88336 5.59856 5.89746 5.64083 5.87012 5.66053L5.65914 5.81257L5.73824 6.05656C5.74848 6.08816 5.71164 6.11427 5.68398 6.09502L5.47058 5.94623L5.25718 6.09502C5.22957 6.11427 5.19269 6.08816 5.20293 6.05656L5.28203 5.81257L5.07105 5.66053C5.04374 5.64087 5.05781 5.59856 5.09179 5.5983L5.35406 5.59632L5.43703 5.35354C5.44789 5.3221 5.49344 5.3221 5.50418 5.35354Z" fill="#F5F5F5"/>
<path d="M5.50418 7.41274L5.58715 7.65552L5.84942 7.6575C5.88336 7.65777 5.89746 7.70004 5.87012 7.71974L5.65914 7.87177L5.73824 8.11577C5.74848 8.14736 5.71164 8.17347 5.68398 8.15422L5.47058 8.00539L5.25718 8.15422C5.22957 8.17347 5.19269 8.14736 5.20293 8.11577L5.28203 7.87177L5.07105 7.71974C5.04374 7.70007 5.05781 7.65777 5.09179 7.6575L5.35406 7.65552L5.43703 7.41274C5.44789 7.3813 5.49344 7.3813 5.50418 7.41274Z" fill="#F5F5F5"/>
<path d="M5.50418 9.28652L5.58715 9.5293L5.84942 9.53128C5.88336 9.53155 5.89746 9.57381 5.87012 9.59352L5.65914 9.74555L5.73824 9.98955C5.74848 10.0211 5.71164 10.0472 5.68398 10.028L5.47058 9.87921L5.25718 10.028C5.22957 10.0472 5.19269 10.0211 5.20293 9.98955L5.28203 9.74555L5.07105 9.59352C5.04374 9.57385 5.05781 9.53155 5.09179 9.53128L5.35406 9.5293L5.43703 9.28652C5.44789 9.25508 5.49344 9.25508 5.50418 9.28652Z" fill="#F5F5F5"/>
<path d="M6.51447 2.04842L6.59743 2.2912L6.8597 2.29319C6.89364 2.29345 6.90774 2.33572 6.8804 2.35539L6.66939 2.50742L6.74849 2.75142C6.75872 2.78302 6.72185 2.80916 6.69423 2.78988L6.48083 2.64105L6.26744 2.78988C6.23982 2.80916 6.20294 2.78302 6.21318 2.75142L6.29228 2.50742L6.0813 2.35539C6.054 2.33572 6.06806 2.29342 6.10201 2.29319L6.36427 2.2912L6.44724 2.04842C6.45818 2.01698 6.50372 2.01698 6.51447 2.04842Z" fill="#F5F5F5"/>
<path d="M6.51447 4.28982L6.59743 4.5326L6.8597 4.53458C6.89364 4.53485 6.90774 4.57711 6.8804 4.59682L6.66939 4.74885L6.74849 4.99285C6.75872 5.02445 6.72185 5.05059 6.69423 5.03131L6.48083 4.88248L6.26744 5.03131C6.23982 5.05059 6.20294 5.02445 6.21318 4.99285L6.29228 4.74885L6.0813 4.59682C6.054 4.57715 6.06806 4.53485 6.10201 4.53458L6.36427 4.5326L6.44724 4.28982C6.45818 4.25837 6.50372 4.25837 6.51447 4.28982Z" fill="#F5F5F5"/>
<path d="M6.51447 6.41924L6.59743 6.66203L6.8597 6.66401C6.89364 6.66428 6.90774 6.70654 6.8804 6.72625L6.66939 6.87828L6.74849 7.12228C6.75872 7.15388 6.72185 7.17999 6.69423 7.16074L6.48083 7.01191L6.26744 7.16074C6.23982 7.18003 6.20294 7.15388 6.21318 7.12228L6.29228 6.87828L6.0813 6.72625C6.054 6.70658 6.06806 6.66428 6.10201 6.66401L6.36427 6.66203L6.44724 6.41924C6.45818 6.38784 6.50372 6.38784 6.51447 6.41924Z" fill="#F5F5F5"/>
<path d="M6.51447 8.33144L6.59743 8.57422L6.8597 8.5762C6.89364 8.57647 6.90774 8.61874 6.8804 8.63844L6.66939 8.79047L6.74849 9.03447C6.75872 9.06607 6.72185 9.09221 6.69423 9.07293L6.48083 8.92413L6.26744 9.07293C6.23982 9.09221 6.20294 9.06607 6.21318 9.03447L6.29228 8.79047L6.0813 8.63844C6.054 8.61878 6.06806 8.57647 6.10201 8.5762L6.36427 8.57422L6.44724 8.33144C6.45818 8.3 6.50372 8.3 6.51447 8.33144Z" fill="#F5F5F5"/>
<path d="M7.5247 1.09167L7.60767 1.33445L7.86994 1.33643C7.90388 1.3367 7.91798 1.37897 7.89064 1.39863L7.67962 1.55066L7.75872 1.79466C7.76896 1.82626 7.73208 1.85237 7.70447 1.83312L7.49107 1.68429L7.27767 1.83312C7.25005 1.85241 7.21318 1.82626 7.22341 1.79466L7.30251 1.55066L7.0915 1.39863C7.06419 1.37897 7.07825 1.33666 7.11224 1.33643L7.3745 1.33445L7.45747 1.09167C7.46841 1.06026 7.51396 1.06026 7.5247 1.09167Z" fill="#F5F5F5"/>
<path d="M7.52476 3.11239L7.60773 3.35517L7.87 3.35715C7.90394 3.35742 7.91804 3.39969 7.8907 3.41939L7.67968 3.57142L7.75879 3.81542C7.76902 3.84702 7.73214 3.87313 7.70453 3.85388L7.49113 3.70505L7.27773 3.85388C7.25011 3.87317 7.21324 3.84702 7.22347 3.81542L7.30257 3.57142L7.09156 3.41939C7.06425 3.39972 7.07831 3.35742 7.1123 3.35715L7.37457 3.35517L7.45753 3.11239C7.46847 3.08095 7.51402 3.08095 7.52476 3.11239Z" fill="#F5F5F5"/>
<path d="M7.52476 5.35354L7.60773 5.59632L7.87 5.5983C7.90394 5.59856 7.91804 5.64083 7.8907 5.66053L7.67968 5.81257L7.75879 6.05656C7.76902 6.08816 7.73214 6.11427 7.70453 6.09502L7.49113 5.94623L7.27773 6.09502C7.25011 6.11427 7.21324 6.08816 7.22347 6.05656L7.30257 5.81257L7.09156 5.66053C7.06425 5.64087 7.07831 5.59856 7.1123 5.5983L7.37457 5.59632L7.45753 5.35354C7.46847 5.3221 7.51402 5.3221 7.52476 5.35354Z" fill="#F5F5F5"/>
<path d="M7.52476 7.41274L7.60773 7.65552L7.87 7.6575C7.90394 7.65777 7.91804 7.70004 7.8907 7.71974L7.67968 7.87177L7.75879 8.11577C7.76902 8.14736 7.73214 8.17347 7.70453 8.15422L7.49113 8.00539L7.27773 8.15422C7.25011 8.17347 7.21324 8.14736 7.22347 8.11577L7.30257 7.87177L7.09156 7.71974C7.06425 7.70007 7.07831 7.65777 7.1123 7.6575L7.37457 7.65552L7.45753 7.41274C7.46847 7.3813 7.51402 7.3813 7.52476 7.41274Z" fill="#F5F5F5"/>
<path d="M7.52476 9.28652L7.60773 9.5293L7.87 9.53128C7.90394 9.53155 7.91804 9.57381 7.8907 9.59352L7.67968 9.74555L7.75879 9.98955C7.76902 10.0211 7.73214 10.0472 7.70453 10.028L7.49113 9.87921L7.27773 10.028C7.25011 10.0472 7.21324 10.0211 7.22347 9.98955L7.30257 9.74555L7.09156 9.59352C7.06425 9.57385 7.07831 9.53155 7.1123 9.53128L7.37457 9.5293L7.45753 9.28652C7.46847 9.25508 7.51402 9.25508 7.52476 9.28652Z" fill="#F5F5F5"/>
<path d="M8.53497 2.04842L8.61794 2.2912L8.88025 2.29319C8.91419 2.29345 8.92829 2.33572 8.90095 2.35539L8.68993 2.50742L8.76904 2.75142C8.77927 2.78302 8.74239 2.80916 8.71478 2.78988L8.50138 2.64105L8.28798 2.78988C8.26037 2.80916 8.22349 2.78302 8.23373 2.75142L8.31283 2.50742L8.10181 2.35539C8.07451 2.33572 8.08857 2.29342 8.12252 2.29319L8.38482 2.2912L8.46779 2.04842C8.47869 2.01698 8.52423 2.01698 8.53497 2.04842Z" fill="#F5F5F5"/>
<path d="M8.53497 4.28982L8.61794 4.5326L8.88025 4.53458C8.91419 4.53485 8.92829 4.57711 8.90095 4.59682L8.68993 4.74885L8.76904 4.99285C8.77927 5.02445 8.74239 5.05059 8.71478 5.03131L8.50138 4.88248L8.28798 5.03131C8.26037 5.05059 8.22349 5.02445 8.23373 4.99285L8.31283 4.74885L8.10181 4.59682C8.07451 4.57715 8.08857 4.53485 8.12252 4.53458L8.38482 4.5326L8.46779 4.28982C8.47869 4.25837 8.52423 4.25837 8.53497 4.28982Z" fill="#F5F5F5"/>
<path d="M8.53497 6.41924L8.61794 6.66203L8.88025 6.66401C8.91419 6.66428 8.92829 6.70654 8.90095 6.72625L8.68993 6.87828L8.76904 7.12228C8.77927 7.15388 8.74239 7.17999 8.71478 7.16074L8.50138 7.01191L8.28798 7.16074C8.26037 7.18003 8.22349 7.15388 8.23373 7.12228L8.31283 6.87828L8.10181 6.72625C8.07451 6.70658 8.08857 6.66428 8.12252 6.66401L8.38482 6.66203L8.46779 6.41924C8.47869 6.38784 8.52423 6.38784 8.53497 6.41924Z" fill="#F5F5F5"/>
<path d="M8.53497 8.33144L8.61794 8.57422L8.88025 8.5762C8.91419 8.57647 8.92829 8.61874 8.90095 8.63844L8.68993 8.79047L8.76904 9.03447C8.77927 9.06607 8.74239 9.09221 8.71478 9.07293L8.50138 8.92413L8.28798 9.07293C8.26037 9.09221 8.22349 9.06607 8.23373 9.03447L8.31283 8.79047L8.10181 8.63844C8.07451 8.61878 8.08857 8.57647 8.12252 8.5762L8.38482 8.57422L8.46779 8.33144C8.47869 8.3 8.52423 8.3 8.53497 8.33144Z" fill="#F5F5F5"/>
<path d="M9.54529 1.09167L9.62826 1.33445L9.89053 1.33643C9.92448 1.3367 9.93858 1.37897 9.91127 1.39863L9.70026 1.55066L9.77936 1.79466C9.78959 1.82626 9.75272 1.85237 9.7251 1.83312L9.5117 1.68429L9.2983 1.83312C9.27068 1.85241 9.23381 1.82626 9.24404 1.79466L9.32314 1.55066L9.11213 1.39863C9.08482 1.37897 9.09889 1.33666 9.13283 1.33643L9.3951 1.33445L9.47807 1.09167C9.489 1.06026 9.53455 1.06026 9.54529 1.09167Z" fill="#F5F5F5"/>
<path d="M9.54523 3.11239L9.6282 3.35517L9.89047 3.35715C9.92441 3.35742 9.93852 3.39969 9.91121 3.41939L9.70019 3.57142L9.7793 3.81542C9.78953 3.84702 9.75266 3.87313 9.72504 3.85388L9.51164 3.70505L9.29824 3.85388C9.27062 3.87317 9.23375 3.84702 9.24398 3.81542L9.32308 3.57142L9.11207 3.41939C9.08476 3.39972 9.09882 3.35742 9.13277 3.35715L9.39504 3.35517L9.47801 3.11239C9.48894 3.08095 9.53449 3.08095 9.54523 3.11239Z" fill="#F5F5F5"/>
<path d="M9.54523 5.35354L9.6282 5.59632L9.89047 5.5983C9.92441 5.59856 9.93852 5.64083 9.91121 5.66053L9.70019 5.81257L9.7793 6.05656C9.78953 6.08816 9.75266 6.11427 9.72504 6.09502L9.51164 5.94623L9.29824 6.09502C9.27062 6.11427 9.23375 6.08816 9.24398 6.05656L9.32308 5.81257L9.11207 5.66053C9.08476 5.64087 9.09882 5.59856 9.13277 5.5983L9.39504 5.59632L9.47801 5.35354C9.48894 5.3221 9.53449 5.3221 9.54523 5.35354Z" fill="#F5F5F5"/>
<path d="M9.54523 7.41274L9.6282 7.65552L9.89047 7.6575C9.92441 7.65777 9.93852 7.70004 9.91121 7.71974L9.70019 7.87177L9.7793 8.11577C9.78953 8.14736 9.75266 8.17347 9.72504 8.15422L9.51164 8.00539L9.29824 8.15422C9.27062 8.17347 9.23375 8.14736 9.24398 8.11577L9.32308 7.87177L9.11207 7.71974C9.08476 7.70007 9.09882 7.65777 9.13277 7.6575L9.39504 7.65552L9.47801 7.41274C9.48894 7.3813 9.53449 7.3813 9.54523 7.41274Z" fill="#F5F5F5"/>
<path d="M9.54523 9.28652L9.6282 9.5293L9.89047 9.53128C9.92441 9.53155 9.93852 9.57381 9.91121 9.59352L9.70019 9.74555L9.7793 9.98955C9.78953 10.0211 9.75266 10.0472 9.72504 10.028L9.51164 9.87921L9.29824 10.028C9.27062 10.0472 9.23375 10.0211 9.24398 9.98955L9.32308 9.74555L9.11207 9.59352C9.08476 9.57385 9.09882 9.53155 9.13277 9.53128L9.39504 9.5293L9.47801 9.28652C9.48894 9.25508 9.53449 9.25508 9.54523 9.28652Z" fill="#F5F5F5"/>
</svg>
