<svg width="20" height="20" viewBox="0 0 20 20" fill="none" xmlns="http://www.w3.org/2000/svg">
<path fill-rule="evenodd" clip-rule="evenodd" d="M15.9304 0H4.06961C1.79586 0.157006 0 2.05288 0 4.36894V6.66677V8.6667V13.3332V13.3334V15.6309C0 17.947 1.7959 19.8429 4.06965 19.9999H15.9304C18.2041 19.8429 20 17.947 20 15.6309V13.3334V13.3332V8.6667V6.66677V4.36894C20 2.05288 18.2041 0.157006 15.9304 0Z" fill="#FF4B55"/>
<path d="M9.49105 13.3754C7.55633 13.3754 5.9877 11.6731 5.9877 9.57319C5.9877 7.47332 7.55688 5.77097 9.49105 5.77097C10.6541 5.77097 11.6842 6.38583 12.3213 7.33237C11.5747 5.82512 10.1095 4.79999 8.42271 4.79999C5.98013 4.79999 4 6.94927 4 9.59999C4 12.2507 5.98105 14.4 8.42271 14.4C10.183 14.4 11.7029 13.2841 12.4147 11.6683C11.7878 12.6969 10.7126 13.3754 9.49105 13.3754Z" fill="white"/>
<path d="M13.3929 7.15845L14.385 8.65184L16 8.08931L14.9979 9.57486L15.99 11.0681L14.3788 10.4928L13.3767 11.9781L13.3828 10.1372L11.7715 9.56191L13.3867 8.99957L13.3929 7.15845Z" fill="white"/>
</svg>
