<?xml version="1.0" encoding="UTF-8"?>
<svg width="24px" height="24px" viewBox="0 0 24 24" version="1.1" xmlns="http://www.w3.org/2000/svg" xmlns:xlink="http://www.w3.org/1999/xlink">
    <title>Arrow 4</title>
    <g id="Page-1" stroke="none" stroke-width="1" fill="none" fill-rule="evenodd">
        <g id="Arrow-4">
            <rect id="Rectangle" fill="#D8D8D8" x="0" y="0" width="24" height="24"></rect>
            <path d="M21.9999993,12.854773 C22.3865993,12.854773 22.6999993,12.541373 22.6999993,12.154773 C22.6999993,11.768173 22.3865993,11.454773 21.9999993,11.454773 L21.9999993,12.854773 Z M1.50502525,11.659803 C1.23165825,11.933163 1.23165825,12.376383 1.50502525,12.649743 L5.95979925,17.104473 C6.23315925,17.377873 6.67637925,17.377873 6.94974925,17.104473 C7.22310925,16.831173 7.22310925,16.387973 6.94974925,16.114573 L2.98994925,12.154773 L6.94974925,8.194973 C7.22310925,7.921613 7.22310925,7.478393 6.94974925,7.205023 C6.67637925,6.931659 6.23315925,6.931659 5.95979925,7.205023 L1.50502525,11.659803 Z M21.9999992,11.454773 L1.99999925,11.454773 L1.99999925,12.854773 L21.9999992,12.854773 L21.9999992,11.454773 Z" id="Shape" fill="#FFFFFF" fill-rule="nonzero"></path>
        </g>
    </g>
</svg>