<?xml version="1.0" encoding="UTF-8"?>
<svg width="24px" height="24px" viewBox="0 0 24 24" version="1.1" xmlns="http://www.w3.org/2000/svg" xmlns:xlink="http://www.w3.org/1999/xlink">
    <title>Group 405</title>
    <g id="Page-1" stroke="none" stroke-width="1" fill="none" fill-rule="evenodd">
        <g id="Group-405">
            <rect id="Rectangle" fill="#D8D8D8" x="0" y="0" width="24" height="24"></rect>
            <path d="M2.565,7.16129 C2.565,5.6915 3.7565,4.5 5.22629,4.5 L18.7747,4.5 C20.2445,4.5 21.436,5.6915 21.436,7.16129 L21.436,16.8387 C21.436,18.3085 20.2445,19.5 18.7747,19.5 L5.22629,19.5 C3.7565,19.5 2.565,18.3085 2.565,16.8387 L2.565,7.16129 Z M4.66115,7.20256 C4.32762,6.98021 3.87699,7.07034 3.65464,7.40387 C3.432288,7.7374 3.522415,8.18803 3.85594,8.41038 L10.52427,12.85593 C11.41819,13.45188 12.5828,13.45188 13.4767,12.85593 L20.145,8.41038 C20.4786,8.18803 20.5687,7.7374 20.3463,7.40387 C20.124,7.07034 19.6733,6.98021 19.3398,7.20256 L12.6715,11.64811 C12.26516,11.919 11.73581,11.919 11.32948,11.64811 L4.66115,7.20256 Z" id="Shape" fill="#4572EE"></path>
        </g>
    </g>
</svg>