<svg width="30" height="30" viewBox="0 0 30 30" fill="none" xmlns="http://www.w3.org/2000/svg">
<path fill-rule="evenodd" clip-rule="evenodd" d="M0 15C0 6.71573 6.71573 0 15 0C23.2843 0 30 6.71573 30 15C30 23.2843 23.2843 30 15 30C6.71573 30 0 23.2843 0 15ZM20.5164 12.6439C20.9145 12.1463 20.8338 11.4202 20.3362 11.0221C19.8386 10.624 19.1125 10.7047 18.7144 11.2023L13.3659 17.8879L11.2005 15.7226C10.7499 15.272 10.0193 15.272 9.56872 15.7226C9.11812 16.1732 9.11812 16.9037 9.56872 17.3544L12.6456 20.4313C12.8777 20.6634 13.1976 20.7856 13.5253 20.7675C13.853 20.7493 14.1575 20.5925 14.3625 20.3362L20.5164 12.6439Z" fill="#339987"/>
</svg>
