<svg>
		<symbol id="plus" viewBox="0 0 12 12" version="1.1" xmlns="http://www.w3.org/2000/svg" xmlns:xlink="http://www.w3.org/1999/xlink">
				<path d="M6.002643,1.26 C6.27878537,1.26 6.502643,1.48385763 6.502643,1.76 L6.502,5.502 L10.245283,5.50264 C10.5214254,5.50264 10.745283,5.72649763 10.745283,6.00264 C10.745283,6.27878237 10.5214254,6.50264 10.245283,6.50264 L6.502,6.502 L6.502643,10.24528 C6.502643,10.5214224 6.27878537,10.74528 6.002643,10.74528 C5.72650063,10.74528 5.502643,10.5214224 5.502643,10.24528 L5.502,6.502 L1.76,6.50264 C1.48385763,6.50264 1.26,6.27878237 1.26,6.00264 C1.26,5.72649763 1.48385763,5.50264 1.76,5.50264 L5.502,5.502 L5.502643,1.76 C5.502643,1.48385763 5.72650063,1.26 6.002643,1.26 Z"></path>
		</symbol>
		<symbol id="info" viewBox="0 0 14 14" version="1.1" xmlns="http://www.w3.org/2000/svg" xmlns:xlink="http://www.w3.org/1999/xlink">
				<path d="M6.28211,5.74371 C5.98473,5.74371 5.74365,5.98479 5.74365,6.28217 C5.74365,6.57956 5.98473,6.82064 6.28211,6.82064 C6.38124,6.82064 6.4616,6.901 6.4616,7.00012 L6.4616,10.5899 C6.4616,10.8873 6.70268,11.1283 7.00006,11.1283 C7.29745,11.1283 7.53852,10.8873 7.53852,10.5899 L7.53852,6.28217 C7.53852,5.98479 7.29745,5.74371 7.00006,5.74371 L6.28211,5.74371 Z M7.00013,3.948752 C7.29751435,3.948752 7.538592,3.70767435 7.538592,3.41029 C7.538592,3.11290565 7.29751435,2.871828 7.00013,2.871828 C6.70274565,2.871828 6.461668,3.11290565 6.461668,3.41029 C6.461668,3.70767435 6.70274565,3.948752 7.00013,3.948752 Z"></path>
		</symbol>
		<symbol id="arrow-left" viewBox="0 0 14 14" version="1.1" xmlns="http://www.w3.org/2000/svg" xmlns:xlink="http://www.w3.org/1999/xlink">
				<path d="M13,7.5 C13.2761,7.5 13.5,7.27614 13.5,7 C13.5,6.72386 13.2761,6.5 13,6.5 L13,7.5 Z M0.646446,6.64645 C0.451184,6.84171 0.451184,7.15829 0.646446,7.35355 L3.82843,10.53553 C4.02369,10.7308 4.34027,10.7308 4.53553,10.53553 C4.7308,10.34027 4.7308,10.02369 4.53553,9.82843 L1.70711,7 L4.53553,4.17157 C4.7308,3.976311 4.7308,3.659728 4.53553,3.464466 C4.34027,3.269204 4.02369,3.269204 3.82843,3.464466 L0.646446,6.64645 Z M13,6.5 L1,6.5 L1,7.5 L13,7.5 L13,6.5 Z"></path>
		</symbol>
		<symbol id="arrow-right" viewBox="0 0 14 14" version="1.1" xmlns="http://www.w3.org/2000/svg" xmlns:xlink="http://www.w3.org/1999/xlink">
				<path d="M1,7.5 C0.723858,7.5 0.5,7.27614 0.5,7 C0.5,6.72386 0.723858,6.5 1,6.5 L1,7.5 Z M13.3536,6.64645 C13.5488,6.84171 13.5488,7.15829 13.3536,7.35355 L10.1716,10.53553 C9.97631,10.7308 9.65973,10.7308 9.46447,10.53553 C9.2692,10.34027 9.2692,10.02369 9.46447,9.82843 L12.2929,7 L9.46447,4.17157 C9.2692,3.976311 9.2692,3.659728 9.46447,3.464466 C9.65973,3.269204 9.97631,3.269204 10.1716,3.464466 L13.3536,6.64645 Z M1,6.5 L13,6.5 L13,7.5 L1,7.5 L1,6.5 Z"></path>
		</symbol>
		<symbol id="group" viewBox="0 0 18 18" version="1.1" xmlns="http://www.w3.org/2000/svg" xmlns:xlink="http://www.w3.org/1999/xlink">
				<path d="M9,9.92727 C10.2959035,9.92727 11.5088516,10.2012087 12.3881571,10.6796573 L12.6,10.803 L12.617841,10.7988716 C13.0431867,10.6947061 13.5090726,10.64 13.9891,10.64 C15.8043268,10.64 17.34,11.4078552 17.34,12.5655 C17.34,13.7230672 15.8042971,14.4909 13.9891,14.4909 C13.5026411,14.4909 13.0306436,14.4347038 12.6006043,14.3277979 C11.7104407,14.8821382 10.4039132,15.2036 9,15.2036 C7.59607063,15.2036 6.28960452,14.8821502 5.39912965,14.327466 L5.63220603,14.2637085 C5.14244101,14.4121359 4.58681338,14.4909 4.01091,14.4909 C2.19570433,14.4909 0.66,13.7230683 0.66,12.5655 C0.66,11.4078541 2.19567466,10.64 4.01091,10.64 C4.49738108,10.64 4.96932315,10.6961866 5.3992824,10.8031004 C6.28770317,10.2492253 7.59506279,9.92727 9,9.92727 Z M9,10.92727 C7.6876044,10.92727 6.49446638,11.2439587 5.79140437,11.7429049 C5.79113468,11.742836 5.78512579,11.747361 5.77898717,11.7517727 C5.4042869,12.0210593 5.22364,12.3043879 5.22364,12.5655 C5.22364,12.8265103 5.40430314,13.1098557 5.77902054,13.3792013 L5.78,13.38 L5.93675456,13.4843136 C6.65230641,13.9273274 7.77411452,14.2036 9,14.2036 C10.3189684,14.2036 11.5175391,13.8837551 12.2191002,13.3805434 C12.5957293,13.1098475 12.7764,12.8265066 12.7764,12.5655 C12.7764,12.3053882 12.597122,12.0232299 12.2253011,11.7548682 C11.5196813,11.2477274 10.3201318,10.92727 9,10.92727 Z M13.9891,11.64 C13.824805,11.64 13.6630653,11.647614 13.5055968,11.6624184 C13.6822932,11.9422838 13.7764,12.2456515 13.7764,12.5655 C13.7764,12.8852948 13.6822947,13.1886296 13.5077336,13.4678233 C13.6631094,13.4832864 13.8248335,13.4909 13.9891,13.4909 C15.3228719,13.4909 16.34,12.9823483 16.34,12.5655 C16.34,12.1485603 15.3229041,11.64 13.9891,11.64 Z M4.01091,11.64 C2.6770975,11.64 1.66,12.1485598 1.66,12.5655 C1.66,12.9823487 2.67712969,13.4909 4.01091,13.4909 C4.17517156,13.4909 4.33689014,13.4832866 4.49435117,13.4684837 C4.31773925,13.1886183 4.22364,12.885288 4.22364,12.5655 C4.22364,12.2456584 4.31774074,11.942295 4.49229539,11.6630914 C4.33693418,11.6476138 4.1752,11.64 4.01091,11.64 Z M9,2.8 C7.54297763,2.8 6.36182,3.98115763 6.36182,5.43818 C6.36182,6.89520928 7.54297453,8.07636 9,8.07636 C10.4570417,8.07636 11.6382,6.8952131 11.6382,5.43818 C11.6382,3.98115381 10.4570386,2.8 9,2.8 Z M9,3.8 C9.90475526,3.8 10.6382,4.53344001 10.6382,5.43818 C10.6382,6.34292618 9.90475907,7.07636 9,7.07636 C8.09525856,7.07636 7.36182,6.34292381 7.36182,5.43818 C7.36182,4.53344237 8.09526237,3.8 9,3.8 Z M13.9891,5.65091 C12.9256681,5.65091 12.0636,6.51295718 12.0636,7.57636 C12.0636,8.63977073 12.925666,9.50182 13.9891,9.50182 C15.0524549,9.50182 15.9145,8.63974984 15.9145,7.57636 C15.9145,6.51297807 15.0524528,5.65091 13.9891,5.65091 Z M13.9891,6.65091 C14.5001626,6.65091 14.9145,7.06525739 14.9145,7.57636 C14.9145,8.0874716 14.5001636,8.50182 13.9891,8.50182 C13.4779464,8.50182 13.0636,8.08748164 13.0636,7.57636 C13.0636,7.06524736 13.4779474,6.65091 13.9891,6.65091 Z M4.01091,5.65091 C2.94750971,5.65091 2.08545,6.51296554 2.08545,7.57636 C2.08545,8.63976237 2.94750763,9.50182 4.01091,9.50182 C5.07431155,9.50182 5.93636,8.6397632 5.93636,7.57636 C5.93636,6.51296471 5.07430946,5.65091 4.01091,5.65091 Z M4.01091,6.65091 C4.52202363,6.65091 4.93636,7.06524838 4.93636,7.57636 C4.93636,8.08748062 4.52202463,8.50182 4.01091,8.50182 C3.49979237,8.50182 3.08545,8.08747763 3.08545,7.57636 C3.08545,7.06525137 3.49979338,6.65091 4.01091,6.65091 Z"></path>
		</symbol>
		<symbol id="transaction" viewBox="0 0 18 18" version="1.1" xmlns="http://www.w3.org/2000/svg" xmlns:xlink="http://www.w3.org/1999/xlink">
				<path d="M13.7979509,0.646664124 L17.3535554,4.2022186 L17.3910407,4.24410995 L17.4332528,4.30600515 L17.4761888,4.40286857 L17.4921193,4.46688497 L17.5,4.55577 L17.4936843,4.63432183 L17.4834867,4.68355566 L17.4612534,4.74909685 L17.4105072,4.84136566 L17.3535514,4.90932538 L13.7979514,8.46488538 C13.6026882,8.66014643 13.2861057,8.66014465 13.0908446,8.4648814 C12.8955836,8.26961816 12.8955854,7.95303567 13.0908486,7.75777462 L15.792,5.05522 L1.88889,5.05577 C1.61274763,5.05577 1.38889,4.83191237 1.38889,4.55577 C1.38889,4.27962763 1.61274763,4.05577 1.88889,4.05577 L15.792,4.05522 L13.0908491,1.35377588 C12.8955856,1.1585151 12.8955834,0.841932614 13.0908441,0.646669095 C13.2861049,0.451405577 13.6026874,0.451403351 13.7979509,0.646664124 Z M0.507869235,12.6446167 L0.500391294,12.575639 L0.50283096,12.5022784 L0.516787508,12.4269728 L0.537792237,12.3647634 L0.566741131,12.306056 L0.60150006,12.2537109 L0.646443626,12.2022496 L4.20200562,8.6466676 C4.39726721,8.45140491 4.7138497,8.45140402 4.9091124,8.64666562 C5.10437509,8.84192721 5.10437598,9.1585097 4.90911438,9.3537724 L2.207,12.05522 L16.1111,12.0558 C16.3872424,12.0558 16.6111,12.2796576 16.6111,12.5558 C16.6111,12.8319424 16.3872424,13.0558 16.1111,13.0558 L2.207,13.05522 L4.90911041,15.7577436 C5.1043742,15.9530041 5.10437687,16.2695866 4.90911637,16.4648504 C4.71385588,16.6601142 4.39727339,16.6601169 4.20200959,16.4648564 L0.608963645,12.8674655 L0.556376455,12.78667 L0.522958827,12.7060186 L0.507869235,12.6446167 Z"></path>
		</symbol>
		<symbol id="stickynote" viewBox="0 0 18 18" version="1.1" xmlns="http://www.w3.org/2000/svg" xmlns:xlink="http://www.w3.org/1999/xlink">
				<path d="M12.9355,1.5 C14.8684584,1.5 16.4355,3.0670236 16.4355,5 L16.4325088,9.02274672 L16.4185929,9.09701288 L16.3894407,9.17767448 L16.3554999,9.23914314 L16.2890534,9.32129339 L9.28133238,16.3249889 L9.21639413,16.3693957 L9.16206927,16.3963342 L9.09696587,16.4186026 L9.03359749,16.4311697 L8.96774,16.4355 L5,16.4355 C3.0670236,16.4355 1.5,14.8684584 1.5,12.9355 L1.5,5 C1.5,3.06700763 3.06700763,1.5 5,1.5 L12.9355,1.5 Z M12.9355,2.5 L5,2.5 C3.61929237,2.5 2.5,3.61929237 2.5,5 L2.5,12.9355 C2.5,14.3161762 3.61931093,15.4355 5,15.4355 L8.467,15.435 L8.46774,11.9677 C8.46774,10.0347476 10.0347476,8.46774 11.9677,8.46774 L15.435,8.467 L15.4355,5 C15.4355,3.61931093 14.3161762,2.5 12.9355,2.5 Z M14.728,9.467 L11.9677,9.46774 C10.5870324,9.46774 9.46774,10.5870324 9.46774,11.9677 L9.467,14.728 L14.728,9.467 Z"></path>
		</symbol>
		<symbol id="signin" viewBox="0 0 18 18" version="1.1" xmlns="http://www.w3.org/2000/svg" xmlns:xlink="http://www.w3.org/1999/xlink">
				<path d="M13,0.5 C14.3807332,0.5 15.5,1.61927842 15.5,3 L15.5,15 C15.5,16.3807424 14.3807424,17.5 13,17.5 L7,17.5 C6.72385763,17.5 6.5,17.2761424 6.5,17 C6.5,16.7238576 6.72385763,16.5 7,16.5 L13,16.5 C13.8284576,16.5 14.5,15.8284576 14.5,15 L14.5,3 C14.5,2.17156085 13.8284461,1.5 13,1.5 L7,1.5 C6.72385763,1.5 6.5,1.27614237 6.5,1 C6.5,0.723857625 6.72385763,0.5 7,0.5 L13,0.5 Z M8.4,4.7 L11.4262021,8.7383029 L11.4770169,8.84969752 L11.499081,8.96953486 L11.4949772,9.07135495 L11.4735474,9.16089751 L11.4481653,9.22189294 L11.4,9.3 L8.4,13.3 C8.23431458,13.5209139 7.9209139,13.5656854 7.7,13.4 C7.4790861,13.2343146 7.43431458,12.9209139 7.6,12.7 L10,9.5 L1,9.5 C0.723857625,9.5 0.5,9.27614237 0.5,9 C0.5,8.72385763 0.723857625,8.5 1,8.5 L10,8.5 L7.6,5.3 C7.43431458,5.0790861 7.4790861,4.76568542 7.7,4.6 C7.9209139,4.43431458 8.23431458,4.4790861 8.4,4.7 Z"></path>
		</symbol>
		<symbol id="medal" viewBox="0 0 18 18" version="1.1" xmlns="http://www.w3.org/2000/svg" xmlns:xlink="http://www.w3.org/1999/xlink">
				<path d="M8.77778,0.5 C12.2477814,0.5 15.0556,3.37978758 15.0556,6.92593 C15.0556,8.78812449 14.2758405,10.5193638 12.9527765,11.725118 L12.744,11.906 L12.7444,17 C12.7444,17.4485135 12.1994986,17.6701852 11.8863954,17.3490454 L8.777,14.16 L5.66911208,17.349048 C5.37688144,17.6487752 4.88273285,17.4756556 4.81814517,17.0865842 L4.81111,17 L4.811,11.906 C3.35964551,10.6921625 2.5,8.88124011 2.5,6.92593 C2.5,3.3797808 5.3077851,0.5 8.77778,0.5 Z M5.81065203,12.5902703 L5.811,15.77 L8.19505294,13.3245179 C7.35204496,13.2449575 6.54388992,12.9935467 5.81065203,12.5902703 Z M9.3595125,13.3246116 L11.744,15.77 L11.7448899,12.590266 C11.0113794,12.9937029 10.2028811,13.2451547 9.3595125,13.3246116 Z M8.77778,1.5 C5.86581556,1.5 3.5,3.92647852 3.5,6.92593 C3.5,8.57145726 4.2167418,10.092735 5.4219291,11.1139682 L5.61624679,11.2710046 C6.52238685,11.9690604 7.62142627,12.3519 8.77778,12.3519 C9.93413453,12.3519 11.0331614,11.9690599 11.9392553,11.2710107 C13.2613907,10.2525124 14.0556,8.65804901 14.0556,6.92593 C14.0556,3.92648738 11.6897532,1.5 8.77778,1.5 Z"></path>
		</symbol>
		<symbol id="lightbulb" viewBox="0 0 18 18" version="1.1" xmlns="http://www.w3.org/2000/svg" xmlns:xlink="http://www.w3.org/1999/xlink">
				<path d="M12.48968,10.5806 L12.01818,10.4142 L12.48968,10.5806 Z M5.52194,10.5806 L5.99343,10.4142 L5.52194,10.5806 Z M9.50581,9.70968 C9.50581,9.43353 9.28195,9.20968 9.00581,9.20968 C8.72966,9.20968 8.50581,9.43353 8.50581,9.70968 L9.50581,9.70968 Z M4.28,6.22581 C4.28,3.61582 6.39582,1.5 9.00581,1.5 L9.00581,0.5 C5.84353,0.5 3.28,3.06353 3.28,6.22581 L4.28,6.22581 Z M9.00581,1.5 C11.6158,1.5 13.7316,3.61582 13.7316,6.22581 L14.7316,6.22581 C14.7316,3.06353 12.16808,0.5 9.00581,0.5 L9.00581,1.5 Z M5.8929,13.1935 L5.8929,14.0645 L6.8929,14.0645 L6.8929,13.1935 L5.8929,13.1935 Z M12.11871,14.0645 L12.11871,13.1935 L11.11871,13.1935 L11.11871,14.0645 L12.11871,14.0645 Z M13.7316,6.22581 C13.7316,7.58225 13.4456,8.21159 13.1367,8.66692 C12.9534,8.93719 12.7991,9.10187 12.57506,9.40142 C12.37034,9.67509 12.1674,9.99146 12.01818,10.4142 L12.9612,10.7471 C13.0651,10.4526 13.2065,10.2268 13.3758,10.0004 C13.5258,9.79993 13.7754,9.5067 13.9643,9.22833 C14.3998,8.58638 14.7316,7.7555 14.7316,6.22581 L13.7316,6.22581 Z M12.01818,10.4142 C11.72803,11.2363 11.50892,11.8936 11.36213,12.3461 C11.28873,12.5724 11.23341,12.7475 11.19631,12.8664 C11.17776,12.9258 11.16377,12.9712 11.15436,13.002 C11.14965,13.0174 11.14609,13.0291 11.14367,13.0371 C11.14246,13.041 11.14154,13.0441 11.14091,13.0462 C11.14059,13.0472 11.14034,13.0481 11.14017,13.0486 C11.14008,13.0489 11.14002,13.0491 11.13996,13.0493 C11.13994,13.0494 11.13992,13.0495 11.1399,13.0495 C11.1398799,13.0496 11.1398799,13.0496 11.1398799,13.0496 C11.1398799,13.0496 11.1398799,13.0496 11.61871,13.1935 C12.09755,13.3375 12.09755,13.3375 12.09754,13.3375 C12.09755,13.3375 12.09754,13.3375 12.09754,13.3375 C12.09754,13.3375 12.09755,13.3375 12.09756,13.3374 C12.09758,13.3374 12.09762,13.3372 12.09768,13.337 C12.09779,13.3367 12.09798,13.3361 12.09823,13.3352 C12.09874,13.3335 12.09954,13.3309 12.10063,13.3273 C12.10279,13.3201 12.10611,13.3093 12.11056,13.2947 C12.11946,13.2656 12.13293,13.2219 12.15094,13.1642 C12.18696,13.0487 12.24114,12.8772 12.31333,12.6547 C12.45772,12.2096 12.6741,11.5604 12.9612,10.7471 L12.01818,10.4142 Z M6.3929,13.1935 C6.87175,13.0496 6.87173,13.0496 6.87173,13.0496 C6.87173,13.0496 6.87173,13.0496 6.87171,13.0495 C6.87169,13.0495 6.87167,13.0494 6.87165,13.0493 C6.8716,13.0491 6.87153,13.0489 6.87144,13.0486 C6.87127,13.0481 6.87102,13.0472 6.8707,13.0462 C6.87007,13.0441 6.86915,13.041 6.86794,13.0371 C6.86552,13.0291 6.86196,13.0174 6.85725,13.002 C6.84784,12.9712 6.83385,12.9258 6.8153,12.8664 C6.77821,12.7475 6.72288,12.5724 6.64948,12.3461 C6.50269,11.8936 6.28358,11.2363 5.99343,10.4142 L5.05044,10.7471 C5.33752,11.5604 5.55389,12.2096 5.69828,12.6547 C5.77047,12.8772 5.82465,13.0487 5.86067,13.1642 C5.87868,13.2219 5.89215,13.2656 5.90105,13.2947 C5.90551,13.3093 5.90882,13.3201 5.91099,13.3273 C5.91207,13.3309 5.91287,13.3335 5.91338,13.3352 C5.91364,13.3361 5.91382,13.3367 5.91393,13.337 C5.91399,13.3372 5.91403,13.3374 5.91405,13.3374 C5.91406,13.3375 5.91407,13.3375 5.91407,13.3375 C5.91407,13.3375 5.91407,13.3375 5.91407,13.3375 C5.91406,13.3375 5.91406,13.3375 6.3929,13.1935 Z M5.99343,10.4142 C5.84422,9.99146 5.64128,9.67509 5.43655,9.40142 C5.21246,9.10187 5.05824,8.93719 4.87489,8.66692 C4.56599,8.21159 4.28,7.58225 4.28,6.22581 L3.28,6.22581 C3.28,7.7555 3.611847,8.58638 4.04735,9.22833 C4.2362,9.5067 4.48582,9.79993 4.63581,10.0004 C4.80516,10.2268 4.94652,10.4526 5.05044,10.7471 L5.99343,10.4142 Z M11.61871,12.6935 L9.00581,12.6935 L9.00581,13.6935 L11.61871,13.6935 L11.61871,12.6935 Z M9.00581,12.6935 L6.3929,12.6935 L6.3929,13.6935 L9.00581,13.6935 L9.00581,12.6935 Z M9.50581,13.1935 L9.50581,9.70968 L8.50581,9.70968 L8.50581,13.1935 L9.50581,13.1935 Z M9.00581,17.1774 C10.72501,17.1774 12.11871,15.7837 12.11871,14.0645 L11.11871,14.0645 C11.11871,15.2314 10.17273,16.1774 9.00581,16.1774 L9.00581,17.1774 Z M5.8929,14.0645 C5.8929,15.7837 7.2866,17.1774 9.00581,17.1774 L9.00581,16.1774 C7.83888,16.1774 6.8929,15.2314 6.8929,14.0645 L5.8929,14.0645 Z"></path>
		</symbol>
		<symbol id="gift" viewBox="0 0 18 18" version="1.1" xmlns="http://www.w3.org/2000/svg" xmlns:xlink="http://www.w3.org/1999/xlink">
				<path d="M11.1761,0.66 C12.6548276,0.66 13.8535,1.85870284 13.8535,3.33742 C13.8535,3.97242876 13.6324478,4.55580158 13.2630926,5.0147826 L14.8374,5.01484 C16.2181332,5.01484 17.3374,6.13411842 17.3374,7.51484 L17.3374,8.12774 C17.3374,9.19395176 16.5931095,10.0863361 15.5957708,10.3136533 L15.5955,14.8374 C15.5955,16.2181424 14.4762424,17.3374 13.0955,17.3374 L4.90194,17.3374 C3.52121842,17.3374 2.40194,16.2181332 2.40194,14.8374 L2.40098941,10.313502 C1.40396013,10.0859417 0.66,9.19372401 0.66,8.12774 L0.66,7.51484 C0.66,6.13412763 1.77928763,5.01484 3.16,5.01484 L4.73429323,5.0147764 C4.36493056,4.55579433 4.14387,3.97242241 4.14387,3.33742 C4.14387,1.85871763 5.34258763,0.66 6.82129,0.66 C7.71872173,0.66 8.51302567,1.10152794 8.99882512,1.77920709 C9.48438697,1.10153004 10.278683,0.66 11.1761,0.66 Z M8.498,10.369 L3.401,10.369 L3.40194,14.8374 C3.40194,15.6658461 4.07350085,16.3374 4.90194,16.3374 L8.498,16.337 L8.498,10.369 Z M14.595,10.369 L9.498,10.369 L9.498,16.337 L13.0955,16.3374 C13.9239576,16.3374 14.5955,15.6658576 14.5955,14.8374 L14.595,10.369 Z M8.498,6.014 L3.16,6.01484 C2.33157237,6.01484 1.66,6.68641237 1.66,7.51484 L1.66,8.12774 C1.66,8.7707784 2.14870033,9.29966863 2.77495834,9.36326804 L2.90194,9.36968 L8.498,9.369 L8.498,6.014 Z M14.8374,6.01484 L9.498,6.014 L9.498,9.369 L15.0955,9.36968 C15.7813659,9.36968 16.3374,8.81363932 16.3374,8.12774 L16.3374,7.51484 C16.3374,6.68640085 15.6658461,6.01484 14.8374,6.01484 Z M11.1761,1.66 C10.2984662,1.66 9.57824836,2.33403304 9.50486707,3.1926857 L9.49871,3.33742 L9.498,5.014 L11.1761,5.01484 C12.1025333,5.01484 12.8535,4.2638519 12.8535,3.33742 C12.8535,2.4109819 12.1025372,1.66 11.1761,1.66 Z M6.82129,1.66 C5.89487237,1.66 5.14387,2.41100237 5.14387,3.33742 C5.14387,4.26383143 5.89487618,5.01484 6.82129,5.01484 L8.498,5.014 L8.49871,3.33742 C8.49871,2.41100237 7.74770763,1.66 6.82129,1.66 Z"></path>
		</symbol>
		<symbol id="crown" viewBox="0 0 18 18" version="1.1" xmlns="http://www.w3.org/2000/svg" xmlns:xlink="http://www.w3.org/1999/xlink">
				<path d="M1.16,3.77111 L1.51355,3.41756 C1.37055,3.27456 1.155495,3.23178 0.968658,3.30917 C0.781821,3.38656 0.66,3.56888 0.66,3.77111 L1.16,3.77111 Z M16.84,3.77111 L17.34,3.77111 C17.34,3.56888 17.2182,3.38656 17.0313,3.30917 C16.8445,3.23178 16.6294,3.27456 16.4864,3.41756 L16.84,3.77111 Z M12.4844,8.12667 L12.0684,8.40402 C12.1515,8.52866 12.2861,8.60947 12.4352,8.62423 C12.5842,8.63899 12.7321,8.58614 12.838,8.48022 L12.4844,8.12667 Z M9,2.9 L9.41603,2.62265 C9.32329,2.483551 9.16718,2.4 9,2.4 C8.83282,2.4 8.67671,2.483551 8.58397,2.62265 L9,2.9 Z M5.51556,8.12667 L5.162,8.48022 C5.26792,8.58614 5.41576,8.63899 5.56482,8.62423 C5.71389,8.60947 5.84849,8.52866 5.93158,8.40402 L5.51556,8.12667 Z M0.66,3.77111 L0.66,13.0956 L1.66,13.0956 L1.66,3.77111 L0.66,3.77111 Z M3.16,15.5956 L14.84,15.5956 L14.84,14.5956 L3.16,14.5956 L3.16,15.5956 Z M17.34,13.0956 L17.34,3.77111 L16.34,3.77111 L16.34,13.0956 L17.34,13.0956 Z M16.4864,3.41756 L12.1309,7.77311 L12.838,8.48022 L17.1936,4.12466 L16.4864,3.41756 Z M12.9005,7.84932 L9.41603,2.62265 L8.58397,3.17735 L12.0684,8.40402 L12.9005,7.84932 Z M8.58397,2.62265 L5.09953,7.84932 L5.93158,8.40402 L9.41603,3.17735 L8.58397,2.62265 Z M5.86911,7.77311 L1.51355,3.41756 L0.806447,4.12466 L5.162,8.48022 L5.86911,7.77311 Z M14.84,15.5956 C16.2207,15.5956 17.34,14.4763 17.34,13.0956 L16.34,13.0956 C16.34,13.924 15.6684,14.5956 14.84,14.5956 L14.84,15.5956 Z M0.66,13.0956 C0.66,14.4763 1.77929,15.5956 3.16,15.5956 L3.16,14.5956 C2.33157,14.5956 1.66,13.924 1.66,13.0956 L0.66,13.0956 Z"></path>
		</symbol>
		<symbol id="conversation" viewBox="0 0 18 18" version="1.1" xmlns="http://www.w3.org/2000/svg" xmlns:xlink="http://www.w3.org/1999/xlink">
				<path d="M2,14.1935 L1.5,14.1935 C1.5,14.3958 1.621821,14.5781 1.808658,14.6555 C1.995495,14.7329 2.21055,14.6901 2.35355,14.5471 L2,14.1935 Z M15.9355,16.8065 L15.5819,17.16 C15.7249,17.303 15.94,17.3458 16.1268,17.2684 C16.3137,17.191 16.4355,17.0087 16.4355,16.8065 L15.9355,16.8065 Z M4.6129,4.98387 C4.33676,4.98387 4.1129,5.20773 4.1129,5.48387 C4.1129,5.76001 4.33676,5.98387 4.6129,5.98387 L4.6129,4.98387 Z M9.83871,5.98387 C10.11485,5.98387 10.33871,5.76001 10.33871,5.48387 C10.33871,5.20773 10.11485,4.98387 9.83871,4.98387 L9.83871,5.98387 Z M4.6129,7.59677 C4.33676,7.59677 4.1129,7.82063 4.1129,8.09677 C4.1129,8.37292 4.33676,8.59677 4.6129,8.59677 L4.6129,7.59677 Z M8.09677,8.59677 C8.37292,8.59677 8.59677,8.37292 8.59677,8.09677 C8.59677,7.82063 8.37292,7.59677 8.09677,7.59677 L8.09677,8.59677 Z M4.02712,12.1664 L4.38067,12.52 L4.02712,12.1664 Z M2.5,14.1935 L2.5,4 L1.5,4 L1.5,14.1935 L2.5,14.1935 Z M4,2.5 L10.45161,2.5 L10.45161,1.5 L4,1.5 L4,2.5 Z M3.67356,11.8129 L1.646447,13.84 L2.35355,14.5471 L4.38067,12.52 L3.67356,11.8129 Z M16.289,16.4529 L14.2619,14.4258 L13.5548,15.1329 L15.5819,17.16 L16.289,16.4529 Z M12.4942,13.6935 L7.48387,13.6935 L7.48387,14.6935 L12.4942,14.6935 L12.4942,13.6935 Z M10.45161,11.0806 L5.48387,11.0806 L5.48387,12.0806 L10.45161,12.0806 L10.45161,11.0806 Z M5.48387,11.0806 L5.44133,11.0806 L5.44133,12.0806 L5.48387,12.0806 L5.48387,11.0806 Z M5.98387,12.1935 L5.98387,11.5806 L4.98387,11.5806 L4.98387,12.1935 L5.98387,12.1935 Z M16.4355,16.8065 L16.4355,7.48387 L15.4355,7.48387 L15.4355,16.8065 L16.4355,16.8065 Z M11.9516,4 L11.9516,5.48387 L12.9516,5.48387 L12.9516,4 L11.9516,4 Z M11.9516,5.48387 L11.9516,9.58064 L12.9516,9.58064 L12.9516,5.48387 L11.9516,5.48387 Z M13.9355,4.98387 L12.4516,4.98387 L12.4516,5.98387 L13.9355,5.98387 L13.9355,4.98387 Z M4.6129,5.98387 L9.83871,5.98387 L9.83871,4.98387 L4.6129,4.98387 L4.6129,5.98387 Z M4.6129,8.59677 L8.09677,8.59677 L8.09677,7.59677 L4.6129,7.59677 L4.6129,8.59677 Z M16.4355,7.48387 C16.4355,6.10316 15.3162,4.98387 13.9355,4.98387 L13.9355,5.98387 C14.7639,5.98387 15.4355,6.65544 15.4355,7.48387 L16.4355,7.48387 Z M7.48387,13.6935 C6.65544,13.6935 5.98387,13.022 5.98387,12.1935 L4.98387,12.1935 C4.98387,13.5743 6.10316,14.6935 7.48387,14.6935 L7.48387,13.6935 Z M4.38067,12.52 C4.66197,12.2387 5.04351,12.0806 5.44133,12.0806 L5.44133,11.0806 C4.77829,11.0806 4.1424,11.344 3.67356,11.8129 L4.38067,12.52 Z M10.45161,12.0806 C11.8323,12.0806 12.9516,10.96136 12.9516,9.58064 L11.9516,9.58064 C11.9516,10.40907 11.28,11.0806 10.45161,11.0806 L10.45161,12.0806 Z M10.45161,2.5 C11.28,2.5 11.9516,3.17157 11.9516,4 L12.9516,4 C12.9516,2.61929 11.8323,1.5 10.45161,1.5 L10.45161,2.5 Z M14.2619,14.4258 C13.7931,13.9569 13.1572,13.6935 12.4942,13.6935 L12.4942,14.6935 C12.892,14.6935 13.2735,14.8516 13.5548,15.1329 L14.2619,14.4258 Z M2.5,4 C2.5,3.17157 3.17157,2.5 4,2.5 L4,1.5 C2.61929,1.5 1.5,2.61929 1.5,4 L2.5,4 Z"></path>
		</symbol>
		<symbol id="attach" viewBox="0 0 18 18" version="1.1" xmlns="http://www.w3.org/2000/svg" xmlns:xlink="http://www.w3.org/1999/xlink">
				<path d="M6.33333,4.95 C6.60947237,4.95 6.83333,5.17385763 6.83333,5.45 C6.83333,5.72614237 6.60947237,5.95 6.33333,5.95 L4.55556,5.95 C2.86802237,5.95 1.5,7.31802237 1.5,9.00556 C1.5,10.6930953 2.86802003,12.06111 4.55556,12.06111 L6.33333,12.06111 C6.60947237,12.06111 6.83333,12.2849676 6.83333,12.56111 C6.83333,12.8372524 6.60947237,13.06111 6.33333,13.06111 L4.55556,13.06111 C2.31573615,13.06111 0.5,11.2453809 0.5,9.00556 C0.5,6.76573763 2.31573763,4.95 4.55556,4.95 L6.33333,4.95 Z M13.4444,4.95 C15.6842418,4.95 17.5,6.76573704 17.5,9.00556 C17.5,11.2453815 15.6842433,13.06111 13.4444,13.06111 L11.6667,13.06111 C11.3905576,13.06111 11.1667,12.8372524 11.1667,12.56111 C11.1667,12.2849676 11.3905576,12.06111 11.6667,12.06111 L13.4444,12.06111 C15.131962,12.06111 16.5,10.6930933 16.5,9.00556 C16.5,7.3180244 15.1319597,5.95 13.4444,5.95 L11.6667,5.95 C11.3905576,5.95 11.1667,5.72614237 11.1667,5.45 C11.1667,5.17385763 11.3905576,4.95 11.6667,4.95 L13.4444,4.95 Z M11.6667,8.50556 C11.9428424,8.50556 12.1667,8.72941763 12.1667,9.00556 C12.1667,9.28170237 11.9428424,9.50556 11.6667,9.50556 L6.33333,9.50556 C6.05718763,9.50556 5.83333,9.28170237 5.83333,9.00556 C5.83333,8.72941763 6.05718763,8.50556 6.33333,8.50556 L11.6667,8.50556 Z"></path>
		</symbol>
		<symbol id="reset" viewBox="0 0 18 18" version="1.1" xmlns="http://www.w3.org/2000/svg" xmlns:xlink="http://www.w3.org/1999/xlink">
				<path d="M15.94,9 L15.6627,9.41603 C15.8924,9.5692 16.2028,9.50711 16.356,9.27735 L15.94,9 Z M13.884,7.02842 C13.6543,6.87524 13.3438,6.93733 13.1906,7.16709 C13.0375,7.39686 13.0996,7.70729 13.3293,7.86047 L13.884,7.02842 Z M17.9116,6.94402 C18.0648,6.71425 18.0027,6.40382 17.7729,6.25064 C17.5431,6.09747 17.2327,6.15955 17.0795,6.38932 L17.9116,6.94402 Z M15.6094,12.3347 C15.7329,12.0877 15.6328,11.7874 15.3858,11.6639 C15.1388,11.5404 14.8385,11.6405 14.715,11.8875 L15.6094,12.3347 Z M8.94,15.5 C5.35015,15.5 2.44,12.5899 2.44,9 L1.44,9 C1.44,13.1421 4.79786,16.5 8.94,16.5 L8.94,15.5 Z M2.44,9 C2.44,5.41015 5.35015,2.5 8.94,2.5 L8.94,1.5 C4.79786,1.5 1.44,4.85786 1.44,9 L2.44,9 Z M8.94,2.5 C12.5299,2.5 15.44,5.41015 15.44,9 L16.44,9 C16.44,4.85786 13.0821,1.5 8.94,1.5 L8.94,2.5 Z M16.2174,8.58397 L13.884,7.02842 L13.3293,7.86047 L15.6627,9.41603 L16.2174,8.58397 Z M16.356,9.27735 L17.9116,6.94402 L17.0795,6.38932 L15.524,8.72265 L16.356,9.27735 Z M8.94,16.5 C10.58305,16.5 11.9458,16.0878 13.0576,15.3466 C14.1663,14.6074 14.9964,13.5607 15.6094,12.3347 L14.715,11.8875 C14.1613,12.9949 13.4359,13.8926 12.5029,14.5145 C11.5731,15.1344 10.40806,15.5 8.94,15.5 L8.94,16.5 Z"></path>
		</symbol>
		<symbol id="ticket" viewBox="0 0 18 18" version="1.1" xmlns="http://www.w3.org/2000/svg" xmlns:xlink="http://www.w3.org/1999/xlink">
				<path d="M1,1 L1.27735,0.583975 C1.12392,0.481689 0.92665,0.472153 0.764071,0.559163 C0.601492,0.646172 0.5,0.815602 0.5,1 L1,1 Z M4,3 L3.72265,3.41603 C3.8906,3.52799 4.1094,3.52799 4.27735,3.41603 L4,3 Z M7,1 L7.27735,0.583975 C7.1094,0.472008 6.8906,0.472008 6.72265,0.583975 L7,1 Z M10,3 L9.72265,3.41603 C9.8906,3.52799 10.1094,3.52799 10.2774,3.41603 L10,3 Z M13,1 L13.5,1 C13.5,0.815602 13.3985,0.646172 13.2359,0.559163 C13.0733,0.472153 12.8761,0.481689 12.7226,0.583975 L13,1 Z M17,9 L17.5,9 C17.5,8.72386 17.2761,8.5 17,8.5 L17,9 Z M5,5.5 C4.72386,5.5 4.5,5.72386 4.5,6 C4.5,6.27614 4.72386,6.5 5,6.5 L5,5.5 Z M9,6.5 C9.27614,6.5 9.5,6.27614 9.5,6 C9.5,5.72386 9.27614,5.5 9,5.5 L9,6.5 Z M5,9.5 C4.72386,9.5 4.5,9.72386 4.5,10 C4.5,10.2761 4.72386,10.5 5,10.5 L5,9.5 Z M9,10.5 C9.27614,10.5 9.5,10.2761 9.5,10 C9.5,9.72386 9.27614,9.5 9,9.5 L9,10.5 Z M5,13.5 C4.72386,13.5 4.5,13.7239 4.5,14 C4.5,14.2761 4.72386,14.5 5,14.5 L5,13.5 Z M9,14.5 C9.27614,14.5 9.5,14.2761 9.5,14 C9.5,13.7239 9.27614,13.5 9,13.5 L9,14.5 Z M0.72265,1.41603 L3.72265,3.41603 L4.27735,2.583975 L1.27735,0.583975 L0.72265,1.41603 Z M4.27735,3.41603 L7.27735,1.41603 L6.72265,0.583975 L3.72265,2.583975 L4.27735,3.41603 Z M6.72265,1.41603 L9.72265,3.41603 L10.2774,2.583975 L7.27735,0.583975 L6.72265,1.41603 Z M10.2774,3.41603 L13.2774,1.41603 L12.7226,0.583975 L9.72265,2.583975 L10.2774,3.41603 Z M13,16.5 L5,16.5 L5,17.5 L13,17.5 L13,16.5 Z M1.5,13 L1.5,1 L0.5,1 L0.5,13 L1.5,13 Z M12.5,1 L12.5,9 L13.5,9 L13.5,1 L12.5,1 Z M12.5,9 L12.5,17 L13.5,17 L13.5,9 L12.5,9 Z M13,9.5 L17,9.5 L17,8.5 L13,8.5 L13,9.5 Z M16.5,9 L16.5,13 L17.5,13 L17.5,9 L16.5,9 Z M5,6.5 L9,6.5 L9,5.5 L5,5.5 L5,6.5 Z M5,10.5 L9,10.5 L9,9.5 L5,9.5 L5,10.5 Z M5,14.5 L9,14.5 L9,13.5 L5,13.5 L5,14.5 Z M16.5,13 C16.5,14.933 14.933,16.5 13,16.5 L13,17.5 C15.4853,17.5 17.5,15.4853 17.5,13 L16.5,13 Z M5,16.5 C3.067,16.5 1.5,14.933 1.5,13 L0.5,13 C0.5,15.4853 2.51472,17.5 5,17.5 L5,16.5 Z"></path>
		</symbol>
		<symbol id="home" viewBox="0 0 18 18" version="1.1" xmlns="http://www.w3.org/2000/svg" xmlns:xlink="http://www.w3.org/1999/xlink">
				<path d="M7.35008712,1.45176041 L1.85008837,6.28312932 C1.30974809,6.75778175 1,7.44215722 1,8.16136825 L1,14.6679383 C1,16.0486714 2.11927842,17.1679382 3.5,17.1679382 L5.125,17.1679382 C6.50572158,17.1679382 7.625,16.0486714 7.625,14.6679383 L7.625,12.8958383 C7.625,12.136469 8.24062397,11.5208382 9,11.5208382 L9.12729386,11.5261095 C9.82034717,11.5800594 10.375,12.176564 10.375,12.8958383 L10.375,14.6679383 C10.375,16.0486806 11.4942576,17.1679382 12.875,17.1679382 L14.5,17.1679382 C15.8807424,17.1679382 17,16.0486806 17,14.6679383 L17,8.16136825 C17,7.44214329 16.6902408,6.75776541 16.149869,6.28311825 L10.6499129,1.45176041 C9.70617523,0.622746529 8.29382477,0.622746529 7.35008712,1.45176041 Z M9.98994712,2.20305609 L15.4899173,7.03442629 C15.8141487,7.31922188 16,7.72983926 16,8.16136825 L16,14.6679383 C16,15.4963959 15.3284576,16.1679382 14.5,16.1679382 L12.875,16.1679382 C12.0465424,16.1679382 11.375,15.4963959 11.375,14.6679383 L11.375,12.8958383 C11.375,11.6531968 10.4172893,10.6232213 9.18506609,10.5279669 L9.01923578,10.5212084 C7.68833675,10.5208383 6.625,11.5841868 6.625,12.8958383 L6.625,14.6679383 C6.625,15.4963844 5.95343915,16.1679382 5.125,16.1679382 L3.5,16.1679382 C2.67156085,16.1679382 2,15.4963844 2,14.6679383 L2,8.16136825 C2,7.72984303 2.18584909,7.31921722 2.51005196,7.03442689 L8.01005163,2.20305718 C8.57629523,1.70564797 9.42370477,1.70564797 9.98994712,2.20305609 Z"></path>
		</symbol>
		<symbol id="chevrondown" viewBox="0 0 18 18" version="1.1" xmlns="http://www.w3.org/2000/svg" xmlns:xlink="http://www.w3.org/1999/xlink">
				<path d="M12.707329,6.43944136 C13.016917,6.16425387 13.4909712,6.19214099 13.7661586,6.50172898 C14.0413461,6.81131696 14.013459,7.28537115 13.703871,7.56055864 L9.20384102,11.5605586 C8.91967638,11.8131477 8.49146093,11.813147 8.20729712,11.560557 L3.70729712,7.56055699 C3.39771004,7.28536848 3.3698245,6.8113142 3.64501301,6.50172712 C3.92020152,6.19214004 4.3942558,6.1642545 4.70384288,6.43944301 L8.70557,9.996 L12.707329,6.43944136 Z"></path>
		</symbol>
		<symbol id="sun" viewBox="0 0 20 20" version="1.1" xmlns="http://www.w3.org/2000/svg" xmlns:xlink="http://www.w3.org/1999/xlink">
				<path d="M14.9661071,14.9760798 C15.4502071,14.4950798 16.3960071,14.6444798 16.5734071,15.3033798 L16.6446071,15.5682798 C16.8204071,16.2214798 16.2223071,16.8196798 15.5691071,16.6438798 L15.2835071,16.5669798 C14.6275071,16.3904798 14.4842071,15.4549798 14.9661071,14.9760798 Z M3.44541713,15.3033798 C3.62274713,14.6444798 4.56857713,14.4950798 5.05263713,14.9760798 C5.53455713,15.4549798 5.39131713,16.3904798 4.73528713,16.5669798 L4.44972713,16.6438798 C3.79649713,16.8195798 3.19835713,16.2214798 3.37414713,15.5682798 Z M10.0093871,4.13749975 C13.2400071,4.13749975 15.8688071,6.76621975 15.8688071,9.99687975 C15.8688071,13.2275798 13.2400071,15.8562798 10.0093871,15.8562798 C6.77872713,15.8562798 4.15001713,13.2275798 4.15001713,9.99687975 C4.15001713,6.76621975 6.77872713,4.13749975 10.0093871,4.13749975 Z M15.5633071,3.36934975 C16.2192071,3.19133975 16.8206071,3.79274975 16.6426071,4.44867975 L16.5706071,4.71417975 C16.3926071,5.36994975 15.4567071,5.51469975 14.9764071,5.03408975 C14.4964071,4.55383975 14.6415071,3.61950975 15.2967071,3.44167975 Z M3.37507713,4.43578975 C3.19913713,3.78414975 3.79647713,3.18731975 4.44796713,3.36380975 L4.72551713,3.43899975 C5.37740713,3.61559975 5.51914713,4.54518975 5.04158713,5.02276975 C4.56167713,5.50270975 3.62379713,5.35695975 3.44687713,4.70170975 Z M10.7729071,1.35697975 C10.4383071,0.76100475 9.58039713,0.76100875 9.24584713,1.35697975 L9.09912713,1.61835975 C8.77031713,2.20408975 9.33763713,2.96562975 10.0093471,2.96562975 C10.6811071,2.96562975 11.2484071,2.20406975 10.9196071,1.61832975 L10.7729071,1.35697975 Z M2.97809713,9.99687975 C2.97809713,9.32350975 2.21033713,8.75542975 1.62458713,9.08758975 L1.36340713,9.23569975 C0.772197125,9.57095975 0.772198125,10.4227798 1.36340713,10.7580798 L1.62459713,10.9061798 C2.21036713,11.2383798 2.97809713,10.6702798 2.97809713,9.99687975 Z M10.0093971,17.0281798 C9.32936713,17.0281798 8.75979713,17.7993798 9.09594713,18.3905798 L9.24193713,18.6472798 C9.58043713,19.2425798 10.4384071,19.2425798 10.7769071,18.6472798 L10.9228071,18.3905798 C11.2590071,17.7993798 10.6895071,17.0281798 10.0093971,17.0281798 Z M18.6352071,10.7740798 C19.2348071,10.4345798 19.2348071,9.57067975 18.6351071,9.23122975 L18.3874071,9.09098975 C17.7953071,8.75584975 17.0405071,9.31655975 17.0405071,9.99687975 C17.0405071,10.6812798 17.8006071,11.2465798 18.3961071,10.9093798 L18.6352071,10.7740798 Z"></path>
		</symbol>
		<symbol id="settings" viewBox="0 0 20 20" version="1.1" xmlns="http://www.w3.org/2000/svg" xmlns:xlink="http://www.w3.org/1999/xlink">
				<path d="M10.6883,0.25 C11.8269213,0.25 12.75,1.17306415 12.75,2.3117 L12.75,2.71976 L12.765165,2.75974222 L12.8309034,2.78216765 C12.8625271,2.78973348 12.8827459,2.78451193 12.8901866,2.77707326 L13.2085554,2.45872448 C14.0476519,1.61958184 15.4081481,1.61958184 16.2472218,2.45870167 L17.2121191,3.42356893 C17.988026,4.19944375 17.988026,5.45740019 17.2121301,6.23328009 L17.1676442,6.27776598 C17.0311062,6.41431125 16.9967573,6.65379698 17.0846138,6.85551968 L17.1259229,6.94104893 C17.2327523,7.13625581 17.4071747,7.25 17.5725,7.25 L17.6883,7.25 C18.8269213,7.25 19.75,8.17306415 19.75,9.3117 L19.75,10.6883 C19.75,11.8269136 18.8269136,12.75 17.6883,12.75 L17.4312,12.75 C17.3307227,12.75 17.2174768,12.8322118 17.17652,12.9273003 L17.1438075,13.0176677 C17.1103136,13.1376857 17.1353102,13.2461711 17.1991301,13.3099699 L17.2862301,13.3970699 C18.0212233,14.1320631 18.0212233,15.3237369 17.2862301,16.0587301 L16.0587301,17.2862301 C15.3237369,18.0212233 14.1320631,18.0212233 13.3970699,17.2862301 L13.3098823,17.1990425 C13.2369746,17.1261107 13.1043547,17.1045086 13.0068732,17.1437823 L12.9279632,17.1804518 C12.813515,17.2432702 12.75,17.3423823 12.75,17.4312 L12.75,17.6883 C12.75,18.8269136 11.8269136,19.75 10.6883,19.75 L9.3117,19.75 C8.17306415,19.75 7.25,18.8269213 7.25,17.6883 L7.25,17.5725 C7.25,17.3903782 7.11077465,17.1975399 6.91931515,17.1124139 L6.81955577,17.0733609 C6.60616107,17.0038223 6.40070739,17.0447093 6.2777205,17.1676897 L6.23327558,17.2121246 C5.4573911,17.9880251 4.1994289,17.9880251 3.42356091,17.2121411 L2.45868079,16.247301 C1.61957831,15.4081063 1.61957831,14.0476401 2.45869326,13.2085866 L2.77702071,12.8902391 L2.7951653,12.856787 L2.76922985,12.7973686 C2.75100617,12.7638013 2.72923693,12.75 2.71977,12.75 L2.3117,12.75 C1.17306415,12.75 0.25,11.8269213 0.25,10.6883 L0.25,9.3117 C0.25,8.17305644 1.17305644,7.25 2.3117,7.25 L2.56877,7.25 C2.669239,7.25 2.78248924,7.1677793 2.82347927,7.07263278 L2.85618831,6.98228891 C2.88967538,6.86230527 2.86466532,6.75375549 2.80089991,6.68999009 L2.52423991,6.41333009 C1.6489267,5.53801687 1.6489267,4.11884313 2.52423991,3.24352991 L3.24351991,2.52424991 C4.11884389,1.64892594 5.53802114,1.64892594 6.4133205,2.52424033 L6.68999885,2.80090868 C6.7629544,2.87386664 6.89563459,2.89547825 6.99305268,2.85622406 L7.07198061,2.8195404 C7.18648251,2.75668746 7.25,2.65757792 7.25,2.56876 L7.25,2.3117 C7.25,1.17305644 8.17305644,0.25 9.3117,0.25 L10.6883,0.25 Z M10.6883,1.75 L9.3117,1.75 C9.00148356,1.75 8.75,2.00148356 8.75,2.3117 L8.75,2.56876 C8.75,3.22668827 8.37144937,3.81735989 7.7575842,4.15306652 L7.60535277,4.22495904 C6.92787545,4.50624428 6.14676603,4.3790133 5.6293395,3.86156967 L5.35266536,3.58490553 C5.06313886,3.29537406 4.59371611,3.29537406 4.30418009,3.58491009 L3.58490009,4.30419009 C3.2953733,4.59371687 3.2953733,5.06314313 3.58490009,5.35266991 L3.86156009,5.62932991 C4.32103975,6.08880958 4.47562498,6.75974707 4.28739118,7.42903358 L4.22496641,7.60533501 C3.94373886,8.28272241 3.30011383,8.75 2.56877,8.75 L2.3117,8.75 C2.00148356,8.75 1.75,9.00148356 1.75,9.3117 L1.75,10.6883 C1.75,10.9984995 2.00149658,11.25 2.3117,11.25 L2.71977,11.25 C3.29627686,11.25 3.81424095,11.5783798 4.1086829,12.1238411 L4.17427934,12.2687152 C4.40018116,12.8482549 4.27925054,13.5092144 3.83776674,13.9508134 L3.51935067,14.2692495 C3.26602169,14.5225599 3.26602169,14.9332937 3.51935909,15.1866589 L4.48421558,16.1514754 C4.6743111,16.3415749 4.9825089,16.3415749 5.1726695,16.1514103 L5.21713402,16.1069558 C5.756104,15.5680145 6.55406769,15.4092129 7.31932539,15.6595538 L7.48841118,15.7250586 C8.23570468,16.0534095 8.75,16.7657498 8.75,17.5725 L8.75,17.6883 C8.75,17.9984995 9.00149658,18.25 9.3117,18.25 L10.6883,18.25 C10.9984864,18.25 11.25,17.9984864 11.25,17.6883 L11.25,17.4312 C11.25,16.7732833 11.628548,16.1825775 12.2424159,15.8468971 L12.394647,15.7750144 C13.0722028,15.4937422 13.8533047,15.6209735 14.3706301,16.1384699 L14.4577301,16.2255699 C14.6069369,16.3747767 14.8488631,16.3747767 14.9980699,16.2255699 L16.2255699,14.9980699 C16.3747767,14.8488631 16.3747767,14.6069369 16.2255699,14.4577301 L16.1385575,14.3707177 C15.6789546,13.9112666 15.5243564,13.2403112 15.7125912,12.5709648 L15.7750039,12.3946724 C16.0561782,11.7172823 16.6998544,11.25 17.4312,11.25 L17.6883,11.25 C17.9984864,11.25 18.25,10.9984864 18.25,10.6883 L18.25,9.3117 C18.25,9.00149658 17.9984995,8.75 17.6883,8.75 L17.5725,8.75 C16.8326605,8.75 16.1691788,8.31733086 15.7950882,7.63229488 L15.7250506,7.48839289 C15.3843904,6.71302863 15.5138742,5.81024714 16.1069699,5.21711991 L16.1514754,5.17261442 C16.341574,4.98251981 16.341574,4.67433625 16.1514782,4.48424833 L15.1865554,3.51935552 C14.9332519,3.26603816 14.5225481,3.26603816 14.2692134,3.51938674 L13.9507609,3.83781929 C13.5651425,4.22333699 13.008705,4.3670375 12.432329,4.22733057 L12.2687796,4.17430444 C11.6662626,3.93951012 11.25,3.36944204 11.25,2.71976 L11.25,2.3117 C11.25,2.00149658 10.9984995,1.75 10.6883,1.75 Z M10,6.25 C12.0710982,6.25 13.75,7.9289211 13.75,10 C13.75,12.0711136 12.0711136,13.75 10,13.75 C7.9289211,13.75 6.25,12.0710982 6.25,10 C6.25,7.92893644 7.92893644,6.25 10,6.25 Z M10,7.75 C8.75736356,7.75 7.75,8.75736356 7.75,10 C7.75,11.2426672 8.75734436,12.25 10,12.25 C11.2426864,12.25 12.25,11.2426864 12.25,10 C12.25,8.75734436 11.2426672,7.75 10,7.75 Z"></path>
		</symbol>
		<symbol id="help" viewBox="0 0 22 22" version="1.1" xmlns="http://www.w3.org/2000/svg" xmlns:xlink="http://www.w3.org/1999/xlink">
				<path d="M10.99996,0.25 C16.9370569,0.25 21.74996,5.06291975 21.74996,11 C21.74996,16.9370469 16.9370402,21.75 10.99996,21.75 C5.06295314,21.75 0.25,16.9370203 0.25,11 C0.25,5.06294642 5.06293645,0.25 10.99996,0.25 Z M10.99996,1.75 C5.89136427,1.75 1.75,5.89137285 1.75,11 C1.75,16.108595 5.89138212,20.25 10.99996,20.25 C16.1086107,20.25 20.24996,16.1086221 20.24996,11 C20.24996,5.89134571 16.1086286,1.75 10.99996,1.75 Z M10.55486,14.9854 C11.18516,14.9854 11.72266,15.5044 11.72266,16.1532 C11.72266,16.8019 11.18516,17.321 10.55486,17.321 C9.92466,17.321 9.38708,16.8019 9.38708,16.1532 C9.38708,15.5044 9.92466,14.9854 10.55486,14.9854 Z M10.98126,4.67906 C12.83486,4.67906 14.24366,6.01369 14.24366,7.77466 C14.24366,8.81271 13.78026,9.62831 12.48266,10.7776 C11.44466,11.7044 11.18516,12.1122 11.18516,12.7054 L11.18516,12.9093 C11.18516,13.3171 10.90706,13.6137 10.51776,13.6137 C10.14706,13.6137 9.83196,13.3171 9.83196,12.9278 L9.83196,12.6683 C9.83196,11.8156 10.22126,11.1668 11.31486,10.1473 C12.48266,9.05368 12.76076,8.62734 12.76076,7.86734 C12.76076,6.79223 11.98216,5.99515 10.94416,5.99515 C10.09146,5.99515 9.38708,6.4771 9.03488,7.32979 C8.90513,7.64491 8.66415,7.81173 8.40464,7.81173 C8.03391,7.81173 7.75586,7.51515 7.75586,7.16296 C7.75586,6.99613 7.79294,6.88491 7.83001,6.79223 C8.34903,5.4576 9.49826,4.67906 10.98126,4.67906 Z"></path>
		</symbol>
		<symbol id="coins" viewBox="0 0 32 32" version="1.1" xmlns="http://www.w3.org/2000/svg" xmlns:xlink="http://www.w3.org/1999/xlink">
				<path d="M10.91463,11.41986 L10.96908,11.42894 C11.2073,11.47658 11.4421,11.53443 11.6735,11.60249 C11.7348,11.61951 11.7972,11.63652 11.8584,11.65581 C12.0524,11.71706 12.2441,11.78739 12.4324,11.86226 C13.5162,12.29748 14.4972,12.9543 15.3125,13.79063 L15.3533,13.83147 C15.5851,14.071 15.8025,14.324 16.0044,14.5892 C16.0555,14.6561 16.1031,14.7253 16.1519,14.7934 C16.2801,14.9738 16.4026,15.1586 16.516,15.3481 C16.8897,15.9737 17.1795,16.6457 17.3781,17.3468 C17.4099,17.4602 17.4394,17.5736 17.4666,17.6871 C17.5029,17.8402 17.5346,17.9945 17.563,18.1499 C17.58,18.2486 17.597,18.3461 17.6106,18.446 C17.6333,18.607 17.6503,18.7692 17.664,18.9337 C17.6719,19.0233 17.6844,19.1129 17.6844,19.2037 C17.6912,19.3413 17.6946001,19.4767 17.6946001,19.6098 C17.6946001,20.1506 17.6419,20.6901 17.5369,21.2206 C17.4881,21.4712 17.428,21.7117 17.3554,21.9601 C17.2828,22.2086 17.1977,22.4513 17.1036,22.6884 C16.8124,23.4207 16.419,24.1081 15.9352,24.7302 C15.7613,24.9533 15.5775,25.1662 15.3839,25.3688 C15.1833,25.5788 14.972,25.7783 14.751,25.9666 C13.6768,26.881 12.3884,27.508 11.0061,27.7892 C9.62374,28.0704 8.19271,27.9965 6.84672,27.5744 C5.50072,27.1523 4.28373,26.3959 3.30948,25.3757 C2.33523,24.3556 1.635542,23.1051 1.275827,21.7411 C0.9161115,20.3771 0.9081053,18.9442 1.252564,17.5763 C1.597023,16.2084 2.2827,14.9501 3.24549,13.91917 C4.20829,12.88821 5.41676,12.1182 6.75796,11.68112 C8.09915,11.24403 9.52927,11.15414 10.91463,11.41986 Z M7.32842,13.32199 C7.13224,13.32199 6.94368,13.39797 6.8023,13.53399 C6.66091,13.67 6.57771,13.85549 6.57012,14.0515 L6.57012,14.8104 L5.81124,14.8104 C5.6152,14.818 5.42972,14.9012 5.2937,15.0426 C5.15768,15.184 5.08171,15.3725 5.08171,15.5687 C5.08171,15.7649 5.15768,15.9535 5.2937,16.0948 C5.42972,16.2362 5.6152,16.3194 5.81124,16.327 L6.57012,16.327 L6.57012,22.9062 L5.81124,22.9062 C5.60998,22.9062 5.41695,22.9861 5.27463,23.1284 C5.13232,23.2708 5.05238,23.4638 5.05238,23.6651 C5.05238,23.8663 5.13232,24.0593 5.27463,24.2017 C5.41695,24.344 5.60998,24.4239 5.81124,24.4239 L6.57012,24.4239 L6.57012,25.1817 C6.56618,25.2837 6.58287,25.3855 6.6192,25.481 C6.65553,25.5764 6.71075,25.6635 6.78155,25.7371 C6.85236,25.8107 6.93728,25.8693 7.03125,25.9093 C7.12522,25.9493 7.2263,25.9699 7.32842,25.9699 C7.43055,25.9699 7.53162,25.9493 7.62559,25.9093 C7.71956,25.8693 7.8045,25.8107 7.87531,25.7371 C7.94611,25.6635 8.00133,25.5764 8.03766,25.481 C8.07399,25.3855 8.09068,25.2837 8.08673,25.1817 L8.08673,24.4239 L9.60787,24.4239 L9.60787,25.1817 C9.60393,25.2837 9.62062,25.3855 9.65695,25.481 C9.69328,25.5764 9.7485,25.6635 9.8193,25.7371 C9.89011,25.8107 9.97505,25.8693 10.06902,25.9093 C10.16299,25.9493 10.26406,25.9699 10.36619,25.9699 C10.46831,25.9699 10.56938,25.9493 10.66335,25.9093 C10.75732,25.8693 10.84225,25.8107 10.91306,25.7371 C10.98386,25.6635 11.0391,25.5764 11.0754,25.481 C11.1117,25.3855 11.1284,25.2837 11.1245,25.1817 L11.1245,24.3423 C11.2941,24.3033 11.46,24.2494 11.6202,24.1812 C11.8576,24.0809 12.0777,23.9439 12.2724,23.7751 C12.4673,23.6069 12.6316,23.4061 12.7579,23.1818 C12.9339,22.8678 13.0403,22.5196 13.0699,22.1609 C13.0928,21.9041 13.0806,21.6454 13.0336,21.3918 C12.945,20.9319 12.7586,20.4979 12.4846,20.1202 L12.4301,20.0476 C12.3109,19.8931 12.1776,19.75 12.032,19.62 C12.2009,19.4702 12.353,19.3024 12.4857,19.1198 C12.505,19.0937 12.522,19.0664 12.5402,19.0404 C12.6662,18.8545 12.7719,18.6556 12.8555,18.4471 C12.9532,18.2035 13.0195,17.9485 13.0529,17.6882 C13.0619,17.6451 13.0665,17.602 13.0665,17.5589 C13.0807,17.3985 13.0807,17.2372 13.0665,17.0768 C13.0531,16.9278 13.0269,16.7801 12.9882,16.6356 C12.8923,16.2537 12.7011,15.9024 12.4324,15.6147 C12.2252,15.3968 11.9789,15.2198 11.7064,15.0929 L11.6735,15.0781 C11.4962,14.9977 11.3111,14.9358 11.1211,14.8932 L11.1211,14.0527 C11.1135,13.85662 11.0303,13.67114 10.88891,13.53512 C10.74753,13.3991 10.55897,13.32313 10.36278,13.32313 C10.16659,13.32313 9.97803,13.3991 9.83665,13.53512 C9.69527,13.67114 9.61206,13.85662 9.60448,14.0527 L9.60448,14.8115 L8.08673,14.8115 L8.08673,14.0515 C8.07915,13.85549 7.99593,13.67 7.85455,13.53399 C7.71317,13.39797 7.52461,13.32199 7.32842,13.32199 Z M30.3878,21.0266 L30.3878,22.5149 C30.3878,23.1195 29.4837,23.8318 28.0295,24.3752 C26.2735,25.0354 23.922,25.3961 21.4095,25.3961 C20.1176,25.4008 18.8275,25.2976 17.5527,25.0876 C18.0046,24.4106 18.3714,23.6807 18.6451,22.9142 C19.5634,23.0106 20.4861,23.0587 21.4095,23.0582 C24.099,23.0582 26.6377,22.6635 28.5604,21.9454 C29.2046,21.7146 29.8183,21.4061 30.3878,21.0266 Z M10.28639,20.3767 L10.36239,20.3983 C10.56147,20.451 10.74887,20.5406 10.91481,20.6626 C11.1282,20.8171 11.2989,21.0233 11.411,21.2617 C11.523,21.5002 11.5728,21.7631 11.5557,22.026 C11.5481,22.2063 11.4845,22.3796 11.3737,22.522 C11.2629,22.6643 11.1104,22.7685 10.93751,22.8201 C10.75215,22.8798 10.55823,22.9085 10.36353,22.9051 L8.08691,22.9051 L8.08691,20.3767 L10.28639,20.3767 Z M30.3844,17.1724 L30.3844,18.6663 C30.3735,18.8646 30.2978,19.0539 30.1689,19.2051 C29.8195,19.6645 29.064,20.1387 28.0261,20.5266 C26.2702,21.1868 23.9187,21.5475 21.4061,21.5475 C20.5701,21.5475 19.7795,21.5055 19.041,21.4341 C19.1521,20.8355 19.2079,20.2279 19.2078,19.6191 C19.2078,19.4796 19.1987,19.3424 19.1987,19.204 L19.1987,19.1121 C19.9179,19.1722 20.6574,19.204 21.4095,19.204 C23.6113,19.204 25.7223,18.9374 27.468,18.4462 C27.8503,18.3385 28.2201,18.2205 28.5604,18.0912 C28.8797,17.9726 29.1929,17.8378 29.4985,17.6874 C29.8058,17.5372 30.1019,17.3651 30.3844,17.1724 Z M10.36353,16.3315 C10.55022,16.329 10.73617,16.3554 10.91481,16.4097 C11.0933,16.4585 11.2517,16.5628 11.3669,16.7076 C11.4822,16.8524 11.5483,17.0302 11.5557,17.2151 C11.5695,17.3798 11.5546,17.5456 11.5115,17.7051 C11.4157,18.0535 11.2056,18.3596 10.91481,18.574 C10.74893,18.6963 10.56154,18.7864 10.36239,18.8395 C10.33744,18.8463 10.31247,18.8542 10.28639,18.8599 L8.08691,18.8599 L8.08691,16.3315 L10.36353,16.3315 Z M30.3878,13.31763 L30.3878,14.8036 C30.3765,15.0019 30.3008,15.191 30.1723,15.3424 C29.8229,15.8018 29.0674,16.276 28.0295,16.6639 C26.2736,17.3241 23.9221,17.6848 21.4095,17.6848 C20.5554,17.6848 19.75,17.6451 18.9968,17.5714 C18.8345,16.8029 18.5801,16.0568 18.2391,15.3492 L18.137,15.145 C19.2224,15.2824 20.3154,15.3506 21.4095,15.3492 C23.6113,15.3492 25.7212,15.0827 27.468,14.5904 C27.8503,14.4837 28.2201,14.3658 28.5604,14.2364 C28.8809,14.118 29.1951,13.98317 29.5019,13.83261 C29.809,13.68203 30.105,13.50994 30.3878,13.31763 Z M30.3925,9.23608 L30.3925,10.94894 C30.3811,11.1472 30.3055,11.33636 30.1769,11.48775 C29.8276,11.94716 29.0721,12.42131 28.0342,12.80812 C26.2782,13.46717 23.9267,13.82903 21.4142,13.82903 C19.9403,13.83682 18.4692,13.70004 17.022,13.42066 C16.4232,12.68111 15.721,12.03165 14.9371,11.49229 C14.5232,11.2062 14.0878,10.95249 13.6349,10.73341 C13.2465,10.54615 12.8464,10.38436 12.437,10.24905 L12.437,9.24063 C12.8653,9.53003 13.3213,9.77625 13.7982,9.97568 C13.9468,10.0392 14.0999,10.10045 14.2599,10.16057 C14.8989,10.39519 15.553,10.58656 16.2178,10.73341 C19.6416,11.45335 23.1777,11.45335 26.6015,10.73341 C27.2666,10.58672 27.9211,10.39534 28.5605,10.16057 C28.7193,10.10272 28.8736,10.04714 29.0312,9.97114 C29.508,9.77147 29.964,9.52526 30.3925,9.23608 Z M21.4098,4 C25.7827,4 28.8896,5.08443 29.9695,6.11894 C30.2429,6.38098 30.3881,6.63507 30.3881,6.87668 C30.3881,7.1183 30.2417,7.37693 29.9752,7.63555 C29.5759,8.0235 28.9032,8.41031 28.0298,8.737 C26.2738,9.39719 23.9223,9.75791 21.4098,9.75791 C17.038,9.75791 13.9311,8.67461 12.8512,7.63896 C12.5778,7.37693 12.4326,7.1217 12.4326,6.88009 C12.4326,6.63847 12.5789,6.37985 12.8444,6.12235 C13.2448,5.73441 13.9175,5.34646 14.7909,5.02091 C16.5469,4.361854 18.8972,4 21.4098,4 Z"></path>
		</symbol>
		<symbol id="lock" viewBox="0 0 32 32" version="1.1" xmlns="http://www.w3.org/2000/svg" xmlns:xlink="http://www.w3.org/1999/xlink">
				<path d="M17.6571,0.5 C21.0892,0.5 23.8714,3.31335 23.8714,6.78378 L23.8714,12.2297 L25.9429,12.2297 C28.4597,12.2297 30.5,14.2928 30.5,16.8378 L30.5,26.8919 C30.5,29.4369 28.4597,31.5 25.9429,31.5 L6.05714,31.5 C3.5403,31.5 1.5,29.4369 1.5,26.8919 L1.5,16.8378 C1.5,14.2928 3.5403,12.2297 6.05714,12.2297 L8.12857,12.2297 L8.12857,6.78378 C8.12857,3.31335 10.9108,0.5 14.3429,0.5 Z M16,18.9324 C15.3136,18.9324 14.7571,19.4951 14.7571,20.1892 L14.7571,23.5405 C14.7571,24.2346 15.3136,24.7973 16,24.7973 C16.6864,24.7973 17.2429,24.2346 17.2429,23.5405 L17.2429,20.1892 C17.2429,19.4951 16.6864,18.9324 16,18.9324 Z M17.6571,3.01351 L14.3429,3.01351 C12.2836,3.01351 10.61429,4.70152 10.61429,6.78378 L10.61429,12.2297 L21.3857,12.2297 L21.3857,6.78378 C21.3857,4.70152 19.7164,3.01351 17.6571,3.01351 Z"></path>
		</symbol>
</svg>
