<svg>
	<symbol id="cross" viewBox="0 0 8 8" version="1.1"
		xmlns="http://www.w3.org/2000/svg"
		xmlns:xlink="http://www.w3.org/1999/xlink">
		<path d="M1.53033009,0.469669914 L4,2.939 L6.46966991,0.469669914 C6.76256313,0.176776695 7.23743687,0.176776695 7.53033009,0.469669914 C7.8232233,0.762563133 7.8232233,1.23743687 7.53033009,1.53033009 L5.061,4 L7.53033009,6.46966991 C7.8232233,6.76256313 7.8232233,7.23743687 7.53033009,7.53033009 C7.23743687,7.8232233 6.76256313,7.8232233 6.46966991,7.53033009 L4,5.061 L1.53033009,7.53033009 C1.23743687,7.8232233 0.762563133,7.8232233 0.469669914,7.53033009 C0.176776695,7.23743687 0.176776695,6.76256313 0.469669914,6.46966991 L2.939,4 L0.469669914,1.53033009 C0.176776695,1.23743687 0.176776695,0.762563133 0.469669914,0.469669914 C0.762563133,0.176776695 1.23743687,0.176776695 1.53033009,0.469669914 Z"></path>
	</symbol>
	<symbol id="cross-big" viewBox="0 0 10 11" version="1.1"
		xmlns="http://www.w3.org/2000/svg"
		xmlns:xlink="http://www.w3.org/1999/xlink">
		<path d="M0.254362934,9.2302261 C0.592089934,9.5680261 1.13965993,9.5672261 1.45073993,9.2561261 L4.75135993,5.9555261 L8.02140993,9.2255261 C8.34840993,9.5526261 8.89606993,9.5624261 9.22823993,9.2302261 C9.55513993,8.9033661 9.55054993,8.3504361 9.22354993,8.0234361 L5.95349993,4.7533861 L9.25410993,1.4527661 C9.57045993,1.1364161 9.56596993,0.594116101 9.22823993,0.256386101 C8.89586993,-0.0759748994 8.34821993,-0.0858338994 8.03185993,0.230516101 L4.73124993,3.5311361 L1.46119993,0.261086101 C1.14490993,-0.0551998994 0.581260934,-0.0705078994 0.254362934,0.256386101 C-0.0778070656,0.588566101 -0.0572270656,1.1469361 0.259055934,1.4632261 L3.52910993,4.7332761 L0.228491934,8.0338861 C-0.0825890656,8.3449661 -0.0780020656,8.8979061 0.254362934,9.2302261 Z"></path>
	</symbol>
	<symbol id="plus" viewBox="0 0 12 12" version="1.1"
		xmlns="http://www.w3.org/2000/svg"
		xmlns:xlink="http://www.w3.org/1999/xlink">
		<path d="M6.002643,1.26 C6.27878537,1.26 6.502643,1.48385763 6.502643,1.76 L6.502,5.502 L10.245283,5.50264 C10.5214254,5.50264 10.745283,5.72649763 10.745283,6.00264 C10.745283,6.27878237 10.5214254,6.50264 10.245283,6.50264 L6.502,6.502 L6.502643,10.24528 C6.502643,10.5214224 6.27878537,10.74528 6.002643,10.74528 C5.72650063,10.74528 5.502643,10.5214224 5.502643,10.24528 L5.502,6.502 L1.76,6.50264 C1.48385763,6.50264 1.26,6.27878237 1.26,6.00264 C1.26,5.72649763 1.48385763,5.50264 1.76,5.50264 L5.502,5.502 L5.502643,1.76 C5.502643,1.48385763 5.72650063,1.26 6.002643,1.26 Z"></path>
	</symbol>
	<symbol id="signin-mini" viewBox="0 0 12 12" version="1.1"
		xmlns="http://www.w3.org/2000/svg"
		xmlns:xlink="http://www.w3.org/1999/xlink">
		<path d="M7.7,1.6 C7.9209139,1.43431458 8.23431458,1.4790861 8.4,1.7 L11.4,5.7 L11.409,5.715 L11.4208042,5.72970473 L11.425,5.738 L11.4317353,5.74764043 L11.437,5.76 L11.4474808,5.77673391 L11.455,5.796 L11.4609289,5.80602747 L11.4687187,5.8255338 L11.472,5.841 L11.4796547,5.85834172 L11.482,5.871 L11.4871587,5.88736117 L11.489,5.904 L11.492,5.924 L11.496804,5.94284645 L11.496,5.953 L11.4992112,5.97172885 L11.499,5.985 L11.5,6 L11.499,6.015 L11.4992112,6.02827115 L11.496,6.046 L11.496804,6.05715355 L11.492,6.074 L11.4919443,6.08987563 L11.489,6.095 L11.4871587,6.11263883 L11.482,6.128 L11.4796547,6.14165828 L11.472,6.158 L11.4687187,6.1744662 L11.462,6.186 L11.455,6.203 L11.4474808,6.22326609 L11.437,6.239 L11.4317353,6.25235957 L11.425,6.261 L11.4208042,6.27029527 L11.412,6.281 L11.4,6.3 L8.4,10.3 C8.23431458,10.5209139 7.9209139,10.5656854 7.7,10.4 C7.4790861,10.2343146 7.43431458,9.9209139 7.6,9.7 L10,6.5 L1,6.5 C0.754540111,6.5 0.55039163,6.32312484 0.508055669,6.08987563 L0.5,6 C0.5,5.72385763 0.723857625,5.5 1,5.5 L10,5.5 L7.6,2.3 C7.45272407,2.10363209 7.47173511,1.83418821 7.6329329,1.66036991 L7.7,1.6 Z"></path>
	</symbol>
	<symbol id="pencil" viewBox="0 0 12 12" version="1.1"
		xmlns="http://www.w3.org/2000/svg"
		xmlns:xlink="http://www.w3.org/1999/xlink">
		<path d="M1,11.5 C0.723857625,11.5 0.5,11.2761424 0.5,11 L0.5,9.38235 L0.5,8.59313 C0.5,7.93008493 0.763393442,7.29419728 1.23223661,6.82536661 L1.94056661,6.11703661 L6.46997661,1.58762661 L6.99693774,1.06065548 C7.97325004,0.0843494307 9.5561641,0.0843498173 10.5324404,1.06064358 L10.9393647,1.46753793 C11.9156118,2.44384748 11.9156118,4.02674252 10.93934,5.00307681 L10.4123542,5.53002261 L5.88296089,10.0594359 L5.17464753,10.7677393 C4.70581822,11.2366061 4.06992936,11.5 3.40687,11.5 L2.61765,11.5 L1,11.5 Z M2.294,7.17742662 L1.93933868,7.5324781 C1.65803459,7.8137747 1.5,8.19530372 1.5,8.59313 L1.5,9.17542662 L2.824,10.4994266 L3.40687,10.5 C3.75497662,10.5 4.09059176,10.3790074 4.3575069,10.1602937 L4.46752911,10.0606441 L4.821,9.70542662 L2.294,7.17742662 Z M6.823,2.64842662 L3.001,6.47042662 L5.529,8.99842662 L9.351,5.17642662 L6.823,2.64842662 Z M9.82534344,1.76776022 C9.23957521,1.18198149 8.28982927,1.18198126 7.70404675,1.76776004 L7.531,1.94142662 L10.059,4.46942662 L10.2322353,4.29596793 C10.7813787,3.74678939 10.8157001,2.87771136 10.3352197,2.28856545 L10.2322596,2.17464642 L9.82534344,1.76776022 Z"></path>
	</symbol>
	<symbol id="info" viewBox="0 0 14 14" version="1.1"
		xmlns="http://www.w3.org/2000/svg"
		xmlns:xlink="http://www.w3.org/1999/xlink">
		<path d="M6.28211,5.74371 C5.98473,5.74371 5.74365,5.98479 5.74365,6.28217 C5.74365,6.57956 5.98473,6.82064 6.28211,6.82064 C6.38124,6.82064 6.4616,6.901 6.4616,7.00012 L6.4616,10.5899 C6.4616,10.8873 6.70268,11.1283 7.00006,11.1283 C7.29745,11.1283 7.53852,10.8873 7.53852,10.5899 L7.53852,6.28217 C7.53852,5.98479 7.29745,5.74371 7.00006,5.74371 L6.28211,5.74371 Z M7.00013,3.948752 C7.29751435,3.948752 7.538592,3.70767435 7.538592,3.41029 C7.538592,3.11290565 7.29751435,2.871828 7.00013,2.871828 C6.70274565,2.871828 6.461668,3.11290565 6.461668,3.41029 C6.461668,3.70767435 6.70274565,3.948752 7.00013,3.948752 Z"></path>
	</symbol>
	<symbol id="arrow-left" viewBox="0 0 14 14" version="1.1"
		xmlns="http://www.w3.org/2000/svg"
		xmlns:xlink="http://www.w3.org/1999/xlink">
		<path d="M13,7.5 C13.2761,7.5 13.5,7.27614 13.5,7 C13.5,6.72386 13.2761,6.5 13,6.5 L13,7.5 Z M0.646446,6.64645 C0.451184,6.84171 0.451184,7.15829 0.646446,7.35355 L3.82843,10.53553 C4.02369,10.7308 4.34027,10.7308 4.53553,10.53553 C4.7308,10.34027 4.7308,10.02369 4.53553,9.82843 L1.70711,7 L4.53553,4.17157 C4.7308,3.976311 4.7308,3.659728 4.53553,3.464466 C4.34027,3.269204 4.02369,3.269204 3.82843,3.464466 L0.646446,6.64645 Z M13,6.5 L1,6.5 L1,7.5 L13,7.5 L13,6.5 Z"></path>
	</symbol>
	<symbol id="arrow-right" viewBox="0 0 14 14" version="1.1"
		xmlns="http://www.w3.org/2000/svg"
		xmlns:xlink="http://www.w3.org/1999/xlink">
		<path d="M1,7.5 C0.723858,7.5 0.5,7.27614 0.5,7 C0.5,6.72386 0.723858,6.5 1,6.5 L1,7.5 Z M13.3536,6.64645 C13.5488,6.84171 13.5488,7.15829 13.3536,7.35355 L10.1716,10.53553 C9.97631,10.7308 9.65973,10.7308 9.46447,10.53553 C9.2692,10.34027 9.2692,10.02369 9.46447,9.82843 L12.2929,7 L9.46447,4.17157 C9.2692,3.976311 9.2692,3.659728 9.46447,3.464466 C9.65973,3.269204 9.97631,3.269204 10.1716,3.464466 L13.3536,6.64645 Z M1,6.5 L13,6.5 L13,7.5 L1,7.5 L1,6.5 Z"></path>
	</symbol>
	<symbol id="dots" viewBox="0 0 16 16" version="1.1"
		xmlns="http://www.w3.org/2000/svg"
		xmlns:xlink="http://www.w3.org/1999/xlink">
		<path d="M7.99985,6.6666825 C7.26345971,6.6666825 6.6664825,7.26365971 6.6664825,8.00005 C6.6664825,8.73644622 7.26346563,9.3333675 7.99985,9.3333675 C8.73624029,9.3333675 9.3331675,8.73644029 9.3331675,8.00005 C9.3331675,7.26366563 8.73624622,6.6666825 7.99985,6.6666825 Z M12.6665,6.6666825 C11.9301038,6.6666825 11.3331825,7.26366563 11.3331825,8.00005 C11.3331825,8.73644029 11.9301097,9.3333675 12.6665,9.3333675 C13.4028903,9.3333675 13.9998175,8.73644029 13.9998175,8.00005 C13.9998175,7.26366563 13.4028962,6.6666825 12.6665,6.6666825 Z M3.33317,6.6666825 C2.59678365,6.6666825 1.9998375,7.26366576 1.9998375,8.00005 C1.9998375,8.73644016 2.59678958,9.3333675 3.33317,9.3333675 C4.06955042,9.3333675 4.6665025,8.73644016 4.6665025,8.00005 C4.6665025,7.26366576 4.06955635,6.6666825 3.33317,6.6666825 Z"></path>
	</symbol>
	<symbol id="user" viewBox="0 0 16 16" version="1.1"
		xmlns="http://www.w3.org/2000/svg"
		xmlns:xlink="http://www.w3.org/1999/xlink">
		<path d="M9.81162762,9.66676209 L10.3281925,9.66951151 C11.0419755,9.67784448 11.2988058,9.70849976 11.634139,9.81019372 C12.6994442,10.133379 13.533121,10.9670558 13.8563259,12.0324259 L13.8977726,12.1810916 C13.9879857,12.5403915 13.9998175,12.9028385 13.9998175,14 C13.9998175,14.3681903 13.7013403,14.6666675 13.33315,14.6666675 C12.9649597,14.6666675 12.6664825,14.3681903 12.6664825,14 L12.6640256,13.3960709 C12.6580401,12.8409856 12.6393951,12.6310411 12.5900167,12.4526034 L12.5803937,12.419439 C12.386479,11.7802442 11.8862558,11.280021 11.2471259,11.0861259 L11.1800423,11.0675953 C10.9734469,11.0162737 10.7022067,11.0024315 9.9197247,11.0003236 L6.07993303,11.0003236 C5.21053273,11.0026658 4.97225363,11.0194943 4.75260982,11.0861075 C4.11340442,11.2800209 3.61319215,11.7802363 3.41929425,12.4194127 L3.40076088,12.4864918 C3.34943169,12.6930748 3.33558696,12.9643091 3.33347867,13.7467791 L3.3331725,14 C3.3331725,14.3681903 3.03469529,14.6666675 2.666505,14.6666675 C2.29831471,14.6666675 1.9998375,14.3681903 1.9998375,14 L2.00245287,13.3571889 C2.01046916,12.6290074 2.04076996,12.3706206 2.1433706,12.0323713 C2.46654043,10.9670552 3.30021406,10.1333765 4.36559149,9.81017689 L4.51425297,9.76872961 C4.85721397,9.68261565 5.20306105,9.66792013 6.1880245,9.66676209 L9.81162762,9.66676209 Z M7.99985,1.3333325 C5.97480632,1.3333325 4.3331675,2.97495809 4.3331675,5 C4.3331675,7.02503846 5.97480788,8.6666675 7.99985,8.6666675 C10.0248903,8.6666675 11.6665175,7.02504029 11.6665175,5 C11.6665175,2.97495626 10.0248918,1.3333325 7.99985,1.3333325 Z M7.99985,2.6666675 C9.28851161,2.6666675 10.3331825,3.71133719 10.3331825,5 C10.3331825,6.28865971 9.28850971,7.3333325 7.99985,7.3333325 C6.7111864,7.3333325 5.6665025,6.28865581 5.6665025,5 C5.6665025,3.71134108 6.7111845,2.6666675 7.99985,2.6666675 Z"></path>
	</symbol>
	<symbol id="rocket" viewBox="0 0 16 16" version="1.1"
		xmlns="http://www.w3.org/2000/svg"
		xmlns:xlink="http://www.w3.org/1999/xlink">
		<path d="M4.00188493,9.99229976 C4.52415405,10.0084181 5.02209194,10.2169041 5.40822878,10.5855527 C6.18010098,11.3476567 6.20993473,12.6009877 5.51030555,13.4287453 C5.11422061,13.9002749 4.48878615,14.2506015 3.68839155,14.5289558 C3.26326162,14.6768039 2.81317537,14.7947901 2.36382927,14.8869308 C2.16148605,14.9284222 1.99158662,14.9583958 1.86567358,14.9779568 L1.75485017,14.9940879 C1.31926585,15.0523241 0.947483987,14.6805456 1.00571628,14.2449607 C1.01633405,14.1655385 1.03392662,14.0528981 1.05913372,13.9137193 L1.11286838,13.6359788 C1.20500533,13.1866305 1.32298803,12.7365421 1.47083281,12.3114101 C1.74918262,11.511007 2.09950732,10.8855667 2.57021409,10.4901741 C2.96980101,10.1534165 3.47967546,9.97611038 4.00188493,9.99229976 Z M14.6706345,0.66664032 C15.0372041,0.668913708 15.3331675,0.966718286 15.3331675,1.333295 C15.3331675,4.20850016 14.2292413,6.90357635 11.4322419,8.94447748 C11.4467992,9.00761723 11.4626222,9.07757078 11.4784065,9.15132733 C11.5838336,9.64396457 11.6488618,10.1378897 11.652966,10.6096184 C11.6590113,11.3044647 11.5336509,11.9010755 11.2206226,12.3706166 C10.8995687,12.8505715 10.3722309,13.2142269 9.69574916,13.5063327 C9.34918192,13.6559809 8.98323115,13.7773612 8.61796674,13.8741345 L8.44148156,13.9190465 C8.3046641,13.9523681 8.19452626,13.9755248 8.11891136,13.9892497 C7.70974125,14.0635181 7.3331825,13.7491557 7.3331825,13.3333 L7.33268304,10.2754623 L5.72368304,8.66646233 L2.666505,8.6666175 C2.25064734,8.6666175 1.93628449,8.29005542 2.0105562,7.88088393 L2.03160081,7.77407772 C2.05298893,7.6721 2.08410214,7.5387367 2.12567332,7.38183115 C2.22244752,7.01656815 2.34382749,6.65061882 2.49347358,6.30405306 C2.78557548,5.62757351 3.1492206,5.10023823 3.63003618,4.77859793 C4.09871187,4.46614964 4.69532075,4.34078827 5.39016271,4.3468317 C5.86189775,4.35093464 6.35582939,4.41596358 6.84847284,4.52139255 C6.92545899,4.53786809 6.9983018,4.55438577 7.06651166,4.57061862 C7.87133561,3.42991102 8.92700326,2.486674 10.1538722,1.81187937 C11.5371298,1.05109305 13.0920024,0.656849978 14.6706345,0.66664032 Z M3.96066211,11.3249974 C3.76689106,11.3189901 3.57772162,11.3847728 3.42863026,11.5104205 C3.18222009,11.7174051 2.93651667,12.1560633 2.73018847,12.7493662 C2.65431196,12.9675513 2.58668364,13.1970349 2.52719277,13.4311978 L2.514005,13.4854517 L2.56859655,13.4726049 C2.72470439,13.4329431 2.87873258,13.3896646 3.02871988,13.3427368 L3.250425,13.2696038 C3.84372321,13.0632717 4.28237892,12.8175661 4.49067211,12.5696028 C4.74980776,12.2630079 4.73874531,11.7982687 4.47956263,11.5422309 C4.33927353,11.4083438 4.15450063,11.3309796 3.96066211,11.3249974 Z M10.2272093,9.69912873 L10.1256971,9.75627621 C9.65170468,10.0133951 9.16455773,10.2457758 8.66623122,10.45243 L8.66635,12.46915 L8.73160444,12.4486725 C8.80634259,12.4234081 8.88026696,12.3969004 8.95299211,12.3691588 L9.16718447,12.2822405 C9.62945962,12.0826295 9.96296906,11.8526393 10.1117991,11.6301494 C10.2502107,11.4225321 10.3236137,11.0731947 10.3196814,10.6212183 C10.3171601,10.3314211 10.2837419,10.0184976 10.2272093,9.69912873 Z M13.97435,2.02612983 L13.9496382,2.02764505 C12.9248968,2.11380713 11.9251083,2.39888183 11.0068647,2.86851882 L10.7964357,2.98016631 C9.61251276,3.63134006 8.61484896,4.57458132 7.89460297,5.72611643 C7.46436501,6.39810792 7.09249742,7.10544736 6.78295521,7.84032067 L8.15968304,9.21746233 L8.20455337,9.20034069 C8.93368823,8.89477384 9.63640145,8.52885572 10.3052496,8.10631112 L10.2952301,8.11293145 C12.6830492,6.5118919 13.7573442,4.4415861 13.9626751,2.17202327 L13.97435,2.02612983 Z M5.3785664,5.68011627 C4.92659203,5.6761852 4.57725478,5.74958906 4.37051084,5.88741639 C4.14716412,6.03682405 3.91717767,6.37033594 3.71756765,6.83261331 C3.65716645,6.97249661 3.60166481,7.11871852 3.55113575,7.26819553 L3.530505,7.33279778 L5.55068304,7.33246233 L5.57119286,7.28249329 C5.79040654,6.766142 6.03757895,6.26259138 6.31095312,5.77507209 L6.56944827,5.82520523 C6.15792213,5.7371359 5.74931864,5.6833409 5.3785664,5.68011627 Z"></path>
	</symbol>
	<symbol id="money" viewBox="0 0 16 16" version="1.1"
		xmlns="http://www.w3.org/2000/svg"
		xmlns:xlink="http://www.w3.org/1999/xlink">
		<path d="M11.3335,1.9999575 C12.8032332,1.9999575 13.8530578,2.18966016 14.5573104,2.50029431 C14.6994884,2.56301059 14.7895594,2.62211454 14.9207677,2.74730237 C15.04591,2.8667563 15.1952748,3.09591977 15.2542169,3.25886533 C15.3100843,3.41353279 15.3305954,3.5392908 15.3332003,3.70943274 L15.3326614,11.2909477 C15.3280809,11.8739106 15.3004354,12.0864725 15.1517742,12.34125 C14.9796389,12.6361796 14.7649304,12.8135506 14.4426144,12.9270132 C14.1828532,13.0183612 14.0418751,13.0248615 13.4413927,12.9172806 L12.895838,12.814748 C12.3992322,12.7193542 11.8767246,12.6666175 11.3335,12.6666175 C10.7295021,12.6666175 10.3170628,12.7429709 9.20473721,13.0735406 L8.21169294,13.3752403 C6.75425409,13.8142329 5.81463506,13.9999575 4.66683,13.9999575 C3.19706447,13.9999575 2.14720539,13.8102504 1.44308746,13.4996384 L1.42186945,13.4902011 L1.33770417,13.4486507 C1.24549327,13.3980756 1.17030079,13.339192 1.07962486,13.2526831 C0.95438053,13.1331553 0.80492596,12.903833 0.746141242,12.7410712 C0.690263661,12.5864037 0.669749773,12.4606387 0.667045981,12.2904871 L0.667045981,4.83060691 C0.669115919,4.15416302 0.690000919,3.93043158 0.848534263,3.65874114 C1.02064601,3.36376826 1.23542611,3.1863288 1.55757393,3.07296808 C1.83037783,2.97696934 1.97222249,2.97458984 2.65252525,3.09962003 L3.10450351,3.18516709 C3.60098168,3.28055723 4.12353816,3.3332925 4.66683,3.3332925 L4.80871587,3.33173007 C5.34142456,3.3194246 5.77236043,3.23046873 6.79564724,2.92636231 L7.55412112,2.69610575 C9.14776279,2.20575404 10.1252918,1.9999575 11.3335,1.9999575 Z M11.3335,3.3332925 C10.2917236,3.3332925 9.42204816,3.51638293 7.94623638,3.97047925 L7.60244925,4.07580649 C6.18204916,4.50866902 5.63638036,4.64024164 4.92247821,4.66285591 L4.66703667,4.6666275 L4.39814368,4.66291408 C3.86376631,4.64812763 3.34755083,4.58958687 2.85292234,4.49455211 C2.4668887,4.42037954 2.29756176,4.38905461 2.16650798,4.36952732 L2.013995,4.349125 L2.00581634,4.48377535 L2.00080255,4.74595592 L1.999995,12.279625 C2.00402587,12.2834414 2.00599893,12.2864729 2.007495,12.290625 L2.06195063,12.3136232 C2.56247588,12.5137873 3.34794541,12.6515214 4.475693,12.6654653 L4.66683,12.6666325 C5.70861269,12.6666325 6.57829639,12.483539 8.05410483,12.0294388 L8.55799172,11.8754814 C9.91272834,11.4654826 10.4327973,11.3494019 11.1612273,11.3349108 L11.3335,11.3332825 C11.9638229,11.3332825 12.5702012,11.3944843 13.1473799,11.5053554 C13.4983744,11.5727885 13.6702045,11.6048019 13.7970039,11.624736 L13.985995,11.650125 L13.9945289,11.5161373 L13.9995425,11.2539476 L13.9999485,3.71997271 C13.9963606,3.71656909 13.9943782,3.71351946 13.992495,3.709125 L13.938402,3.68629351 C13.437824,3.48612877 12.6523668,3.34840269 11.5246344,3.33445968 L11.3335,3.3332925 Z M4.000165,6.6666325 C4.36835529,6.6666325 4.6668325,6.96510971 4.6668325,7.3333 L4.6668325,9.99995 C4.6668325,10.3681403 4.36835529,10.6666175 4.000165,10.6666175 C3.63197471,10.6666175 3.3334975,10.3681403 3.3334975,9.99995 L3.3334975,7.3333 C3.3334975,6.96510971 3.63197471,6.6666325 4.000165,6.6666325 Z M8.00015,5.6666325 C9.28882947,5.6666325 10.3335175,6.71129888 10.3335175,7.99995 C10.3335175,9.28863694 9.28884365,10.3332675 8.00015,10.3332675 C6.71149553,10.3332675 5.6668325,9.28862612 5.6668325,7.99995 C5.6668325,6.71130971 6.71150971,5.6666325 8.00015,5.6666325 Z M12.00015,5.3332825 C12.3683403,5.3332825 12.6668175,5.63175971 12.6668175,5.99995 L12.6668175,8.6666 C12.6668175,9.03479029 12.3683403,9.3332675 12.00015,9.3332675 C11.6319597,9.3332675 11.3334825,9.03479029 11.3334825,8.6666 L11.3334825,5.99995 C11.3334825,5.63175971 11.6319597,5.3332825 12.00015,5.3332825 Z M8.00015,6.9999675 C7.44789029,6.9999675 7.0001675,7.44769029 7.0001675,7.99995 C7.0001675,8.55223935 7.44786993,8.9999325 8.00015,8.9999325 C8.55247543,8.9999325 9.0001825,8.55224398 9.0001825,7.99995 C9.0001825,7.44768565 8.55245507,6.9999675 8.00015,6.9999675 Z"></path>
	</symbol>
	<symbol id="telegram" viewBox="0 0 16 16" version="1.1"
		xmlns="http://www.w3.org/2000/svg"
		xmlns:xlink="http://www.w3.org/1999/xlink">
		<path d="M1.92805047,6.8162877 C5.55193047,5.2374277 7.96841047,4.1965377 9.17750047,3.6936377 C12.6297005,2.2577477 13.3470005,2.0083177 13.8146005,2 C13.9174005,1.9982777 14.1474005,2.0237577 14.2963005,2.1446077 C14.4221005,2.2466577 14.4567005,2.3845077 14.4732005,2.4812577 C14.4898005,2.5780077 14.5104005,2.7984077 14.4940005,2.9706177 C14.3069005,4.9362477 13.4974005,9.7062877 13.0856005,11.9077977 C12.9114005,12.8393977 12.5683005,13.1516977 12.2361005,13.1822977 C11.5142005,13.2486977 10.9660005,12.7051977 10.2669005,12.2468977 C9.17277047,11.5296977 8.55468047,11.0832977 7.49268047,10.3833977 C6.26536047,9.5746277 7.06098047,9.1300977 7.76043047,8.4036277 C7.94348047,8.2135077 11.1241005,5.3204577 11.1857005,5.0580177 C11.1934005,5.0251877 11.2005005,4.9028377 11.1279005,4.8382377 C11.0552005,4.7736277 10.9479005,4.7957277 10.8705005,4.8132977 C10.7607005,4.8381977 9.01293047,5.9934377 5.62703047,8.2790077 C5.13092047,8.6196777 4.68156047,8.7856577 4.27895047,8.7769677 C3.83510047,8.7673777 2.98131047,8.5260077 2.34661047,8.3196877 C1.56812047,8.0666377 0.949393472,7.9328377 1.00327047,7.5030777 C1.03133047,7.2792277 1.33959047,7.0502977 1.92805047,6.8162877 Z"></path>
	</symbol>
	<symbol id="refresh" viewBox="0 0 16 16" version="1.1"
		xmlns="http://www.w3.org/2000/svg"
		xmlns:xlink="http://www.w3.org/1999/xlink">
		<path d="M10.0000005,7.3333327 C9.63181156,7.3333327 9.33333547,7.03485661 9.33333547,6.6666677 C9.33333547,6.29847878 9.63181156,6.0000027 10.0000005,6.0000027 L12.6458516,5.99950585 C12.4409796,5.74236777 12.2341013,5.48959704 12.0294635,5.2479245 L11.7455673,4.91849601 L11.6082315,4.76372349 C11.4296951,4.56465595 11.2615688,4.38581016 11.1059344,4.23006827 C10.1116587,3.23510585 8.76836362,2.6666627 7.33337047,2.6666627 C4.38785576,2.6666627 2.00003547,5.05448023 2.00003547,7.9999977 C2.00003547,10.9455088 4.38785938,13.3333327 7.33337047,13.3333327 C9.72495441,13.3333327 11.8052069,11.7451005 12.4583755,9.48181647 C12.560466,9.12806429 12.9299995,8.92405221 13.2837517,9.02614272 C13.6375039,9.12823323 13.841516,9.49776674 13.7394254,9.85151892 C12.9226241,12.6818041 10.3228738,14.6666627 7.33337047,14.6666627 C3.65148156,14.6666627 0.666705472,11.6818866 0.666705472,7.9999977 C0.666705472,4.31810206 3.65147828,1.3333327 7.33337047,1.3333327 C9.1257804,1.3333327 10.8071954,2.04485831 12.0490665,3.28758712 C12.2229046,3.46154528 12.4071756,3.65756515 12.6008345,3.87349419 C12.7453735,4.03465478 12.8943471,4.20602531 13.0470069,4.38631303 L13.3323705,4.7289977 L13.3333355,2.6666677 C13.3333355,2.29847878 13.6318116,2.0000027 14.0000005,2.0000027 C14.3681894,2.0000027 14.6666655,2.29847878 14.6666655,2.6666677 L14.6666655,6.6666677 C14.6666655,6.769532 14.6433686,6.86695504 14.6017633,6.95394831 L14.5537662,7.03798647 L14.5089127,7.09735316 L14.4558441,7.15322341 L14.3944455,7.20412037 L14.3433298,7.23817901 L14.2603025,7.28059728 L14.2005103,7.302655 L14.1568616,7.31477718 L14.0985153,7.32610433 C14.0673419,7.33072166 14.0354652,7.33318109 14.0030418,7.3333327 L10.0000005,7.3333327 Z"></path>
	</symbol>
	<symbol id="link" viewBox="0 0 16 16" version="1.1"
		xmlns="http://www.w3.org/2000/svg"
		xmlns:xlink="http://www.w3.org/1999/xlink">
		<path d="M6.7046535,5.33006938 L6.94985634,5.34008533 C7.52197598,5.38105301 8.07858738,5.54458704 8.58194599,5.81959465 C9.08529383,6.09459638 9.52361915,6.47464515 9.86718252,6.93394966 C10.0877198,7.22878248 10.0274913,7.64657248 9.73265851,7.86710974 C9.43782569,8.087647 9.02003569,8.02741855 8.79949843,7.73258573 C8.57045405,7.42637987 8.27823576,7.1730128 7.94267496,6.98968074 C7.60710377,6.80634299 7.23603383,6.69732158 6.85460974,6.670009 C6.47320837,6.64268947 6.09038763,6.69772023 5.73212035,6.83136647 C5.37383629,6.96502196 5.04849502,7.17415582 4.77808381,7.44467104 L2.78620086,9.43641176 C2.30046075,9.93932717 2.03166022,10.6129752 2.03774034,11.3121085 C2.04381242,12.0113184 2.32427557,12.6802021 2.81867237,13.1745829 C3.31312369,13.6690102 3.98197243,13.9494781 4.68113741,13.9555579 C5.38031505,13.9616378 6.05392389,13.6928436 6.54860713,13.2151944 L7.68860713,12.0751944 C7.94895601,11.8148455 8.37106494,11.8148455 8.63141381,12.0751944 C8.89176269,12.3355432 8.89176269,12.7576522 8.63141381,13.018001 L7.48315453,14.1661181 C6.72874345,14.8947649 5.71832699,15.2979575 4.66954354,15.2888375 C3.62078669,15.2797178 2.6175384,14.8590263 1.87588476,14.1174087 C1.13425739,13.3758053 0.713568671,12.372494 0.704460681,11.3236952 C0.695340284,10.2749696 1.09853533,9.26451185 1.83527713,8.50186435 L3.83518648,6.50195502 C4.24067929,6.09630621 4.72868936,5.7826066 5.26610516,5.58212721 C5.64997113,5.43893177 6.05262647,5.35590279 6.45987024,5.33508115 L6.7046535,5.33006938 Z M11.3304897,0.711047832 C12.3792781,0.720155732 13.3824949,1.14083141 14.1240771,1.88243766 C14.8657622,2.62403874 15.2864197,3.62728177 15.2955403,4.67613076 C15.3046602,5.72491421 14.9014677,6.73533068 14.1647038,7.49800104 L12.1648084,9.49789642 C11.7593417,9.90354312 11.2713099,10.2172617 10.7339241,10.4177314 C10.1965078,10.6182244 9.62221987,10.70079 9.05014974,10.659789 C8.47803634,10.6188089 7.9214213,10.4552716 7.41807496,10.1802707 C6.91471506,9.90526242 6.47639098,9.52521777 6.13283342,9.06590904 C5.91229986,8.77107346 5.97253354,8.35328421 6.26736913,8.13275065 C6.56220471,7.91221708 6.97999396,7.97245077 7.20052752,8.26728635 C7.42956185,8.57348676 7.72177399,8.82684647 8.05734599,9.01018465 C8.3929107,9.19351886 8.76399444,9.30254576 9.14543896,9.32986838 C9.5267812,9.35719967 9.90961814,9.30215902 10.2678891,9.16849946 C10.6261524,9.03485077 10.9515055,8.82570596 11.2218971,8.55519435 L13.2137801,6.56345363 C13.6995464,6.06051111 13.9683406,5.38690228 13.9622607,4.68772463 C13.9561802,3.98847261 13.6757532,3.3196711 13.1812895,2.82526341 C12.686884,2.33084195 12.0180917,2.05039939 11.3189036,2.04432749 C10.6197117,2.03824756 9.94609968,2.30703498 9.45003678,2.78604407 L8.30336678,3.92604407 C8.0422596,4.18563242 7.62015246,4.18440118 7.3605641,3.923294 C7.10097574,3.66218682 7.10220699,3.24007968 7.36331417,2.98049133 L8.51687417,1.83373982 C9.27129493,1.10510722 10.2817082,0.701927993 11.3304897,0.711047832 Z"></path>
	</symbol>
	<symbol id="info-square" viewBox="0 0 16 16" version="1.1"
		xmlns="http://www.w3.org/2000/svg"
		xmlns:xlink="http://www.w3.org/1999/xlink">
		<path d="M10.8112405,1.3349977 C13.1206186,1.3349977 14.6650005,2.99356589 14.6650005,5.3509177 L14.6650005,10.6490777 C14.6650005,13.0065179 13.1204899,14.6649977 10.8106005,14.6649977 L5.18811047,14.6649977 C2.87879762,14.6649977 1.33500047,13.006536 1.33500047,10.6490777 L1.33500047,5.3509177 C1.33500047,2.99551653 2.88277218,1.3349977 5.18811047,1.3349977 L10.8112405,1.3349977 Z M10.8112405,2.6649977 L5.18811047,2.6649977 C3.63902199,2.6649977 2.66500047,3.70997162 2.66500047,5.3509177 L2.66500047,10.6490777 C2.66500047,12.2924441 3.63547285,13.3349977 5.18811047,13.3349977 L10.8106005,13.3349977 C12.3639588,13.3349977 13.3350005,12.292303 13.3350005,10.6490777 L13.3350005,5.3509177 C13.3350005,3.7077435 12.3640439,2.6649977 10.8112405,2.6649977 Z M7.99306047,6.9308277 C8.36032983,6.9308277 8.65806047,7.22855834 8.65806047,7.5958277 L8.65806047,10.4622077 C8.65806047,10.8294771 8.36032983,11.1272077 7.99306047,11.1272077 C7.62579111,11.1272077 7.32806047,10.8294771 7.32806047,10.4622077 L7.32806047,7.5958277 C7.32806047,7.22855834 7.62579111,6.9308277 7.99306047,6.9308277 Z M7.99306047,4.9308277 C8.36032983,4.9308277 8.65806047,5.22855834 8.65806047,5.5958277 C8.65806047,5.96726705 8.36032983,6.2649977 7.99306047,6.2649977 C7.62579111,6.2649977 7.32806047,5.96726705 7.32806047,5.5999977 C7.32806047,5.22855834 7.62579111,4.9308277 7.99306047,4.9308277 Z"></path>
	</symbol>
	<symbol id="info-circle" viewBox="0 0 16 16" version="1.1"
		xmlns="http://www.w3.org/2000/svg"
		xmlns:xlink="http://www.w3.org/1999/xlink">
		<path d="M8.00004047,0.666702695 C12.050101,0.666702695 15.3333655,3.94996038 15.3333655,8.0000377 C15.3333655,12.0500866 12.0500894,15.3333627 8.00004047,15.3333627 C3.94996316,15.3333627 0.666705472,12.0500982 0.666705472,8.0000377 C0.666705472,3.94994878 3.94995156,0.666702695 8.00004047,0.666702695 Z M8.00003547,2.0000327 C4.68632938,2.0000327 2.00003547,4.68632661 2.00003547,8.0000327 C2.00003547,11.313721 4.6863416,14.0000327 8.00003547,14.0000327 C11.3137116,14.0000327 14.0000355,11.3137088 14.0000355,8.0000327 C14.0000355,4.68633882 11.3137238,2.0000327 8.00003547,2.0000327 Z M8.00004047,7.3333727 C8.36822938,7.3333727 8.66670547,7.63184878 8.66670547,8.0000377 L8.66670547,10.6666977 C8.66670547,11.0348866 8.36822938,11.3333727 8.00004047,11.3333727 C7.63185156,11.3333727 7.33337547,11.0348866 7.33337547,10.6666977 L7.33337547,8.0000377 C7.33337547,7.63184878 7.63185156,7.3333727 8.00004047,7.3333727 Z M7.99732312,5.33337258 C8.33203762,5.33203384 8.61012932,5.57759344 8.65903616,5.8988753 L8.66670559,6.00732035 C8.66817875,6.37550629 8.37090376,6.67517866 8.00271782,6.67666281 C7.66800333,6.67800155 7.38991162,6.43244195 7.34100479,6.11116009 L7.33333536,6.00271504 C7.33186219,5.6345291 7.62913718,5.33485673 7.99732312,5.33337258 Z"></path>
	</symbol>
	<symbol id="home" viewBox="0 0 16 16" version="1.1"
		xmlns="http://www.w3.org/2000/svg"
		xmlns:xlink="http://www.w3.org/1999/xlink">
		<path d="M3.93754422,14.6666627 C3.09507056,14.6650674 2.78882197,14.6338641 2.42521886,14.4486333 C2.04893261,14.2568005 1.74303764,13.9509288 1.55132042,13.5746628 C1.3795398,13.2375321 1.33944507,12.9174526 1.33420893,12.2387717 L1.33480161,6.73557473 C1.33928328,6.45242368 1.35605985,6.29627942 1.40736497,6.1129845 C1.47294382,5.87871859 1.58070454,5.65838694 1.72535625,5.46281316 C1.76177122,5.41357752 1.80079004,5.36658048 1.84326029,5.32055668 C1.93739968,5.21854052 2.01518678,5.14812252 2.19546055,5.00474874 L6.93583931,1.31643299 C7.27584142,1.05198852 7.36707466,0.988958121 7.56458885,0.91821323 L7.65155742,0.890897864 C7.74283282,0.866187107 7.83607952,0.851360653 7.92972047,0.846418502 L8.06934271,0.845442782 L8.21024908,0.861244956 L8.34300047,0.890230195 L8.43541209,0.91821323 C8.58354774,0.971271898 8.67190035,1.01999116 8.85025736,1.15259776 L13.5856474,4.83314858 C14.0200148,5.17092925 14.1278177,5.26423246 14.2744713,5.46264641 C14.4192388,5.65825503 14.5270214,5.87866254 14.5925435,6.11283277 C14.6592171,6.35079295 14.6666655,6.49284193 14.6666655,7.0433677 L14.6650613,12.2657848 C14.6575485,13.0068466 14.6186495,13.2410809 14.4486458,13.5747701 C14.2568459,13.9510219 13.9510247,14.2568431 13.5746325,14.4487146 C13.187455,14.6459687 12.9341286,14.6666627 11.8666913,14.6666627 Z M5.33320893,13.3324428 L5.33379437,8.89961 L5.33945418,8.63417075 C5.35129227,8.36978673 5.3850618,8.24502602 5.47865767,8.061338 C5.60648895,7.81045511 5.81045768,7.60649156 6.06134537,7.47864765 C6.32376223,7.3449365 6.46591388,7.3333227 7.06667047,7.3333227 L9.10037817,7.33378159 L9.36581742,7.3394414 C9.63020144,7.35127949 9.75496215,7.38504902 9.93865017,7.47864489 C10.1895412,7.6064803 10.3935079,7.81044701 10.5213405,8.06133259 C10.6550517,8.32374946 10.6666655,8.4659011 10.6666655,9.0666577 L10.6662089,13.3314428 L12.1736048,13.3323007 C12.6645751,13.3284506 12.8386482,13.3131139 12.9383981,13.2745014 L12.969228,13.2607524 C13.0947762,13.1967523 13.1967551,13.0947734 13.2606836,12.9693657 C13.3095565,12.8734361 13.3280242,12.7191274 13.3323032,12.1736024 L13.3324992,6.81542567 C13.3310136,6.65883381 13.3273267,6.57899772 13.3197175,6.526089 L13.3085936,6.47233465 C13.2867374,6.39422252 13.2508694,6.32087509 13.2024844,6.25549741 C13.1686156,6.20967499 13.118202,6.16237337 12.9464656,6.02618767 L8.24557931,2.3689024 L8.00000047,2.1822302 C7.99330914,2.18705681 7.98519568,2.19296731 7.97535172,2.20022553 L3.23288801,5.88564744 C2.95418253,6.10242247 2.87733343,6.16604374 2.82313642,6.2247755 L2.79733924,6.25566961 C2.74912105,6.32086216 2.71319923,6.39430928 2.69134076,6.4723938 C2.67436118,6.53305582 2.66761564,6.62584925 2.66680934,6.89038046 L2.66751893,12.2335185 C2.67115271,12.7027809 2.6932053,12.8788285 2.73932327,12.969338 C2.80322675,13.0947556 2.90521726,13.1967383 3.03062566,13.2606722 C3.13220783,13.3124214 3.32575836,13.332142 3.93872859,13.3332235 L5.33320893,13.3324428 Z M8.93333047,8.6666527 L6.66800047,8.6679877 L6.66666547,9.0666577 L6.66620893,13.3324428 L9.33320893,13.3314428 L9.33100047,8.6679877 L8.93333047,8.6666527 Z"></path>
	</symbol>
	<symbol id="hat" viewBox="0 0 16 16" version="1.1"
		xmlns="http://www.w3.org/2000/svg"
		xmlns:xlink="http://www.w3.org/1999/xlink">
		<path d="M8.06172823,1.70792203 L8.18438644,1.72315444 L8.27123988,1.74299655 C8.34812956,1.76376049 8.40440683,1.79016931 8.53669249,1.85630458 L14.9648425,5.07038458 C15.4562065,5.31606694 15.4562065,6.01726845 14.9648425,6.26295081 L13.3327055,7.07892203 L13.3329649,10.8068725 C13.3308489,11.0887487 13.318736,11.1872138 13.2603537,11.3565855 C13.1957873,11.5432884 13.0907038,11.7133557 12.9524531,11.8544034 C12.8938833,11.9141716 12.8304464,11.9659588 12.7593386,12.0138496 L12.6671826,12.0720345 C12.6190058,12.1002351 12.5625279,12.1300218 12.4745615,12.1745511 L8.66509533,14.079076 L8.47325333,14.1669887 C8.39436309,14.198796 8.33210353,14.2155671 8.24635501,14.2316454 C8.08357537,14.2623018 7.91650557,14.2623018 7.75424744,14.2317434 C7.61088986,14.2048628 7.5332277,14.1761586 7.33493206,14.0790461 L3.44712939,12.1344164 C3.35444826,12.0862332 3.30397756,12.0564457 3.24075315,12.0138692 C3.16962034,11.965967 3.10616308,11.9141644 3.04745792,11.8542504 C2.90919489,11.7130677 2.80403014,11.5429018 2.73961161,11.356164 C2.6813299,11.1872687 2.66922242,11.0888337 2.6671062,10.806901 L2.66670547,7.07892203 L1.03522882,6.262951 C0.576621987,6.03364758 0.546048198,5.40753571 0.943507454,5.1253245 L1.03522882,5.07038439 L7.4634161,1.85629076 C7.62874553,1.77363549 7.6753395,1.75303898 7.79188285,1.72794949 L7.93835272,1.70792203 L8.06172823,1.70792203 Z M11.9997055,7.74492203 L8.53666485,9.47704464 C8.37133541,9.5596999 8.32474145,9.58029641 8.2081981,9.6053859 L8.06172867,9.62541345 C7.97955759,9.63049183 7.89691805,9.62541411 7.8156945,9.61018095 L7.72884107,9.59033884 C7.6519514,9.56957491 7.59567419,9.54316612 7.46338882,9.477031 L3.99970547,7.74592203 L4.00107382,10.9177647 L4.22115212,11.0319144 L8.00037047,12.9206677 L11.9989556,10.917788 C12.0050349,10.9141446 12.0100847,10.910937 12.0145196,10.9079502 L11.9991492,10.8623164 L11.9997055,7.74492203 Z M8.00037047,3.0786827 L2.82437047,5.6666827 L8.00037047,8.2536827 L13.1753705,5.6666827 L8.00037047,3.0786827 Z"></path>
	</symbol>
	<symbol id="transaction" viewBox="0 0 18 18" version="1.1"
		xmlns="http://www.w3.org/2000/svg"
		xmlns:xlink="http://www.w3.org/1999/xlink">
		<path d="M13.7979509,0.646664124 L17.3535554,4.2022186 L17.3910407,4.24410995 L17.4332528,4.30600515 L17.4761888,4.40286857 L17.4921193,4.46688497 L17.5,4.55577 L17.4936843,4.63432183 L17.4834867,4.68355566 L17.4612534,4.74909685 L17.4105072,4.84136566 L17.3535514,4.90932538 L13.7979514,8.46488538 C13.6026882,8.66014643 13.2861057,8.66014465 13.0908446,8.4648814 C12.8955836,8.26961816 12.8955854,7.95303567 13.0908486,7.75777462 L15.792,5.05522 L1.88889,5.05577 C1.61274763,5.05577 1.38889,4.83191237 1.38889,4.55577 C1.38889,4.27962763 1.61274763,4.05577 1.88889,4.05577 L15.792,4.05522 L13.0908491,1.35377588 C12.8955856,1.1585151 12.8955834,0.841932614 13.0908441,0.646669095 C13.2861049,0.451405577 13.6026874,0.451403351 13.7979509,0.646664124 Z M0.507869235,12.6446167 L0.500391294,12.575639 L0.50283096,12.5022784 L0.516787508,12.4269728 L0.537792237,12.3647634 L0.566741131,12.306056 L0.60150006,12.2537109 L0.646443626,12.2022496 L4.20200562,8.6466676 C4.39726721,8.45140491 4.7138497,8.45140402 4.9091124,8.64666562 C5.10437509,8.84192721 5.10437598,9.1585097 4.90911438,9.3537724 L2.207,12.05522 L16.1111,12.0558 C16.3872424,12.0558 16.6111,12.2796576 16.6111,12.5558 C16.6111,12.8319424 16.3872424,13.0558 16.1111,13.0558 L2.207,13.05522 L4.90911041,15.7577436 C5.1043742,15.9530041 5.10437687,16.2695866 4.90911637,16.4648504 C4.71385588,16.6601142 4.39727339,16.6601169 4.20200959,16.4648564 L0.608963645,12.8674655 L0.556376455,12.78667 L0.522958827,12.7060186 L0.507869235,12.6446167 Z"></path>
	</symbol>
	<symbol id="stickynote" viewBox="0 0 18 18" version="1.1"
		xmlns="http://www.w3.org/2000/svg"
		xmlns:xlink="http://www.w3.org/1999/xlink">
		<path d="M12.9355,1.5 C14.8684584,1.5 16.4355,3.0670236 16.4355,5 L16.4325088,9.02274672 L16.4185929,9.09701288 L16.3894407,9.17767448 L16.3554999,9.23914314 L16.2890534,9.32129339 L9.28133238,16.3249889 L9.21639413,16.3693957 L9.16206927,16.3963342 L9.09696587,16.4186026 L9.03359749,16.4311697 L8.96774,16.4355 L5,16.4355 C3.0670236,16.4355 1.5,14.8684584 1.5,12.9355 L1.5,5 C1.5,3.06700763 3.06700763,1.5 5,1.5 L12.9355,1.5 Z M12.9355,2.5 L5,2.5 C3.61929237,2.5 2.5,3.61929237 2.5,5 L2.5,12.9355 C2.5,14.3161762 3.61931093,15.4355 5,15.4355 L8.467,15.435 L8.46774,11.9677 C8.46774,10.0347476 10.0347476,8.46774 11.9677,8.46774 L15.435,8.467 L15.4355,5 C15.4355,3.61931093 14.3161762,2.5 12.9355,2.5 Z M14.728,9.467 L11.9677,9.46774 C10.5870324,9.46774 9.46774,10.5870324 9.46774,11.9677 L9.467,14.728 L14.728,9.467 Z"></path>
	</symbol>
	<symbol id="signin" viewBox="0 0 18 18" version="1.1"
		xmlns="http://www.w3.org/2000/svg"
		xmlns:xlink="http://www.w3.org/1999/xlink">
		<path d="M13,0.5 C14.3807332,0.5 15.5,1.61927842 15.5,3 L15.5,15 C15.5,16.3807424 14.3807424,17.5 13,17.5 L7,17.5 C6.72385763,17.5 6.5,17.2761424 6.5,17 C6.5,16.7238576 6.72385763,16.5 7,16.5 L13,16.5 C13.8284576,16.5 14.5,15.8284576 14.5,15 L14.5,3 C14.5,2.17156085 13.8284461,1.5 13,1.5 L7,1.5 C6.72385763,1.5 6.5,1.27614237 6.5,1 C6.5,0.723857625 6.72385763,0.5 7,0.5 L13,0.5 Z M8.4,4.7 L11.4262021,8.7383029 L11.4770169,8.84969752 L11.499081,8.96953486 L11.4949772,9.07135495 L11.4735474,9.16089751 L11.4481653,9.22189294 L11.4,9.3 L8.4,13.3 C8.23431458,13.5209139 7.9209139,13.5656854 7.7,13.4 C7.4790861,13.2343146 7.43431458,12.9209139 7.6,12.7 L10,9.5 L1,9.5 C0.723857625,9.5 0.5,9.27614237 0.5,9 C0.5,8.72385763 0.723857625,8.5 1,8.5 L10,8.5 L7.6,5.3 C7.43431458,5.0790861 7.4790861,4.76568542 7.7,4.6 C7.9209139,4.43431458 8.23431458,4.4790861 8.4,4.7 Z"></path>
	</symbol>
	<symbol id="medal" viewBox="0 0 18 18" version="1.1"
		xmlns="http://www.w3.org/2000/svg"
		xmlns:xlink="http://www.w3.org/1999/xlink">
		<path d="M8.77778,0.5 C12.2477814,0.5 15.0556,3.37978758 15.0556,6.92593 C15.0556,8.78812449 14.2758405,10.5193638 12.9527765,11.725118 L12.744,11.906 L12.7444,17 C12.7444,17.4485135 12.1994986,17.6701852 11.8863954,17.3490454 L8.777,14.16 L5.66911208,17.349048 C5.37688144,17.6487752 4.88273285,17.4756556 4.81814517,17.0865842 L4.81111,17 L4.811,11.906 C3.35964551,10.6921625 2.5,8.88124011 2.5,6.92593 C2.5,3.3797808 5.3077851,0.5 8.77778,0.5 Z M5.81065203,12.5902703 L5.811,15.77 L8.19505294,13.3245179 C7.35204496,13.2449575 6.54388992,12.9935467 5.81065203,12.5902703 Z M9.3595125,13.3246116 L11.744,15.77 L11.7448899,12.590266 C11.0113794,12.9937029 10.2028811,13.2451547 9.3595125,13.3246116 Z M8.77778,1.5 C5.86581556,1.5 3.5,3.92647852 3.5,6.92593 C3.5,8.57145726 4.2167418,10.092735 5.4219291,11.1139682 L5.61624679,11.2710046 C6.52238685,11.9690604 7.62142627,12.3519 8.77778,12.3519 C9.93413453,12.3519 11.0331614,11.9690599 11.9392553,11.2710107 C13.2613907,10.2525124 14.0556,8.65804901 14.0556,6.92593 C14.0556,3.92648738 11.6897532,1.5 8.77778,1.5 Z"></path>
	</symbol>
	<symbol id="lightbulb" viewBox="0 0 18 18" version="1.1"
		xmlns="http://www.w3.org/2000/svg"
		xmlns:xlink="http://www.w3.org/1999/xlink">
		<path d="M12.48968,10.5806 L12.01818,10.4142 L12.48968,10.5806 Z M5.52194,10.5806 L5.99343,10.4142 L5.52194,10.5806 Z M9.50581,9.70968 C9.50581,9.43353 9.28195,9.20968 9.00581,9.20968 C8.72966,9.20968 8.50581,9.43353 8.50581,9.70968 L9.50581,9.70968 Z M4.28,6.22581 C4.28,3.61582 6.39582,1.5 9.00581,1.5 L9.00581,0.5 C5.84353,0.5 3.28,3.06353 3.28,6.22581 L4.28,6.22581 Z M9.00581,1.5 C11.6158,1.5 13.7316,3.61582 13.7316,6.22581 L14.7316,6.22581 C14.7316,3.06353 12.16808,0.5 9.00581,0.5 L9.00581,1.5 Z M5.8929,13.1935 L5.8929,14.0645 L6.8929,14.0645 L6.8929,13.1935 L5.8929,13.1935 Z M12.11871,14.0645 L12.11871,13.1935 L11.11871,13.1935 L11.11871,14.0645 L12.11871,14.0645 Z M13.7316,6.22581 C13.7316,7.58225 13.4456,8.21159 13.1367,8.66692 C12.9534,8.93719 12.7991,9.10187 12.57506,9.40142 C12.37034,9.67509 12.1674,9.99146 12.01818,10.4142 L12.9612,10.7471 C13.0651,10.4526 13.2065,10.2268 13.3758,10.0004 C13.5258,9.79993 13.7754,9.5067 13.9643,9.22833 C14.3998,8.58638 14.7316,7.7555 14.7316,6.22581 L13.7316,6.22581 Z M12.01818,10.4142 C11.72803,11.2363 11.50892,11.8936 11.36213,12.3461 C11.28873,12.5724 11.23341,12.7475 11.19631,12.8664 C11.17776,12.9258 11.16377,12.9712 11.15436,13.002 C11.14965,13.0174 11.14609,13.0291 11.14367,13.0371 C11.14246,13.041 11.14154,13.0441 11.14091,13.0462 C11.14059,13.0472 11.14034,13.0481 11.14017,13.0486 C11.14008,13.0489 11.14002,13.0491 11.13996,13.0493 C11.13994,13.0494 11.13992,13.0495 11.1399,13.0495 C11.1398799,13.0496 11.1398799,13.0496 11.1398799,13.0496 C11.1398799,13.0496 11.1398799,13.0496 11.61871,13.1935 C12.09755,13.3375 12.09755,13.3375 12.09754,13.3375 C12.09755,13.3375 12.09754,13.3375 12.09754,13.3375 C12.09754,13.3375 12.09755,13.3375 12.09756,13.3374 C12.09758,13.3374 12.09762,13.3372 12.09768,13.337 C12.09779,13.3367 12.09798,13.3361 12.09823,13.3352 C12.09874,13.3335 12.09954,13.3309 12.10063,13.3273 C12.10279,13.3201 12.10611,13.3093 12.11056,13.2947 C12.11946,13.2656 12.13293,13.2219 12.15094,13.1642 C12.18696,13.0487 12.24114,12.8772 12.31333,12.6547 C12.45772,12.2096 12.6741,11.5604 12.9612,10.7471 L12.01818,10.4142 Z M6.3929,13.1935 C6.87175,13.0496 6.87173,13.0496 6.87173,13.0496 C6.87173,13.0496 6.87173,13.0496 6.87171,13.0495 C6.87169,13.0495 6.87167,13.0494 6.87165,13.0493 C6.8716,13.0491 6.87153,13.0489 6.87144,13.0486 C6.87127,13.0481 6.87102,13.0472 6.8707,13.0462 C6.87007,13.0441 6.86915,13.041 6.86794,13.0371 C6.86552,13.0291 6.86196,13.0174 6.85725,13.002 C6.84784,12.9712 6.83385,12.9258 6.8153,12.8664 C6.77821,12.7475 6.72288,12.5724 6.64948,12.3461 C6.50269,11.8936 6.28358,11.2363 5.99343,10.4142 L5.05044,10.7471 C5.33752,11.5604 5.55389,12.2096 5.69828,12.6547 C5.77047,12.8772 5.82465,13.0487 5.86067,13.1642 C5.87868,13.2219 5.89215,13.2656 5.90105,13.2947 C5.90551,13.3093 5.90882,13.3201 5.91099,13.3273 C5.91207,13.3309 5.91287,13.3335 5.91338,13.3352 C5.91364,13.3361 5.91382,13.3367 5.91393,13.337 C5.91399,13.3372 5.91403,13.3374 5.91405,13.3374 C5.91406,13.3375 5.91407,13.3375 5.91407,13.3375 C5.91407,13.3375 5.91407,13.3375 5.91407,13.3375 C5.91406,13.3375 5.91406,13.3375 6.3929,13.1935 Z M5.99343,10.4142 C5.84422,9.99146 5.64128,9.67509 5.43655,9.40142 C5.21246,9.10187 5.05824,8.93719 4.87489,8.66692 C4.56599,8.21159 4.28,7.58225 4.28,6.22581 L3.28,6.22581 C3.28,7.7555 3.611847,8.58638 4.04735,9.22833 C4.2362,9.5067 4.48582,9.79993 4.63581,10.0004 C4.80516,10.2268 4.94652,10.4526 5.05044,10.7471 L5.99343,10.4142 Z M11.61871,12.6935 L9.00581,12.6935 L9.00581,13.6935 L11.61871,13.6935 L11.61871,12.6935 Z M9.00581,12.6935 L6.3929,12.6935 L6.3929,13.6935 L9.00581,13.6935 L9.00581,12.6935 Z M9.50581,13.1935 L9.50581,9.70968 L8.50581,9.70968 L8.50581,13.1935 L9.50581,13.1935 Z M9.00581,17.1774 C10.72501,17.1774 12.11871,15.7837 12.11871,14.0645 L11.11871,14.0645 C11.11871,15.2314 10.17273,16.1774 9.00581,16.1774 L9.00581,17.1774 Z M5.8929,14.0645 C5.8929,15.7837 7.2866,17.1774 9.00581,17.1774 L9.00581,16.1774 C7.83888,16.1774 6.8929,15.2314 6.8929,14.0645 L5.8929,14.0645 Z"></path>
	</symbol>
	<symbol id="gift" viewBox="0 0 18 18" version="1.1"
		xmlns="http://www.w3.org/2000/svg"
		xmlns:xlink="http://www.w3.org/1999/xlink">
		<path d="M11.1761,0.66 C12.6548276,0.66 13.8535,1.85870284 13.8535,3.33742 C13.8535,3.97242876 13.6324478,4.55580158 13.2630926,5.0147826 L14.8374,5.01484 C16.2181332,5.01484 17.3374,6.13411842 17.3374,7.51484 L17.3374,8.12774 C17.3374,9.19395176 16.5931095,10.0863361 15.5957708,10.3136533 L15.5955,14.8374 C15.5955,16.2181424 14.4762424,17.3374 13.0955,17.3374 L4.90194,17.3374 C3.52121842,17.3374 2.40194,16.2181332 2.40194,14.8374 L2.40098941,10.313502 C1.40396013,10.0859417 0.66,9.19372401 0.66,8.12774 L0.66,7.51484 C0.66,6.13412763 1.77928763,5.01484 3.16,5.01484 L4.73429323,5.0147764 C4.36493056,4.55579433 4.14387,3.97242241 4.14387,3.33742 C4.14387,1.85871763 5.34258763,0.66 6.82129,0.66 C7.71872173,0.66 8.51302567,1.10152794 8.99882512,1.77920709 C9.48438697,1.10153004 10.278683,0.66 11.1761,0.66 Z M8.498,10.369 L3.401,10.369 L3.40194,14.8374 C3.40194,15.6658461 4.07350085,16.3374 4.90194,16.3374 L8.498,16.337 L8.498,10.369 Z M14.595,10.369 L9.498,10.369 L9.498,16.337 L13.0955,16.3374 C13.9239576,16.3374 14.5955,15.6658576 14.5955,14.8374 L14.595,10.369 Z M8.498,6.014 L3.16,6.01484 C2.33157237,6.01484 1.66,6.68641237 1.66,7.51484 L1.66,8.12774 C1.66,8.7707784 2.14870033,9.29966863 2.77495834,9.36326804 L2.90194,9.36968 L8.498,9.369 L8.498,6.014 Z M14.8374,6.01484 L9.498,6.014 L9.498,9.369 L15.0955,9.36968 C15.7813659,9.36968 16.3374,8.81363932 16.3374,8.12774 L16.3374,7.51484 C16.3374,6.68640085 15.6658461,6.01484 14.8374,6.01484 Z M11.1761,1.66 C10.2984662,1.66 9.57824836,2.33403304 9.50486707,3.1926857 L9.49871,3.33742 L9.498,5.014 L11.1761,5.01484 C12.1025333,5.01484 12.8535,4.2638519 12.8535,3.33742 C12.8535,2.4109819 12.1025372,1.66 11.1761,1.66 Z M6.82129,1.66 C5.89487237,1.66 5.14387,2.41100237 5.14387,3.33742 C5.14387,4.26383143 5.89487618,5.01484 6.82129,5.01484 L8.498,5.014 L8.49871,3.33742 C8.49871,2.41100237 7.74770763,1.66 6.82129,1.66 Z"></path>
	</symbol>
	<symbol id="conversation" viewBox="0 0 18 18" version="1.1"
		xmlns="http://www.w3.org/2000/svg"
		xmlns:xlink="http://www.w3.org/1999/xlink">
		<path d="M2,14.1935 L1.5,14.1935 C1.5,14.3958 1.621821,14.5781 1.808658,14.6555 C1.995495,14.7329 2.21055,14.6901 2.35355,14.5471 L2,14.1935 Z M15.9355,16.8065 L15.5819,17.16 C15.7249,17.303 15.94,17.3458 16.1268,17.2684 C16.3137,17.191 16.4355,17.0087 16.4355,16.8065 L15.9355,16.8065 Z M4.6129,4.98387 C4.33676,4.98387 4.1129,5.20773 4.1129,5.48387 C4.1129,5.76001 4.33676,5.98387 4.6129,5.98387 L4.6129,4.98387 Z M9.83871,5.98387 C10.11485,5.98387 10.33871,5.76001 10.33871,5.48387 C10.33871,5.20773 10.11485,4.98387 9.83871,4.98387 L9.83871,5.98387 Z M4.6129,7.59677 C4.33676,7.59677 4.1129,7.82063 4.1129,8.09677 C4.1129,8.37292 4.33676,8.59677 4.6129,8.59677 L4.6129,7.59677 Z M8.09677,8.59677 C8.37292,8.59677 8.59677,8.37292 8.59677,8.09677 C8.59677,7.82063 8.37292,7.59677 8.09677,7.59677 L8.09677,8.59677 Z M4.02712,12.1664 L4.38067,12.52 L4.02712,12.1664 Z M2.5,14.1935 L2.5,4 L1.5,4 L1.5,14.1935 L2.5,14.1935 Z M4,2.5 L10.45161,2.5 L10.45161,1.5 L4,1.5 L4,2.5 Z M3.67356,11.8129 L1.646447,13.84 L2.35355,14.5471 L4.38067,12.52 L3.67356,11.8129 Z M16.289,16.4529 L14.2619,14.4258 L13.5548,15.1329 L15.5819,17.16 L16.289,16.4529 Z M12.4942,13.6935 L7.48387,13.6935 L7.48387,14.6935 L12.4942,14.6935 L12.4942,13.6935 Z M10.45161,11.0806 L5.48387,11.0806 L5.48387,12.0806 L10.45161,12.0806 L10.45161,11.0806 Z M5.48387,11.0806 L5.44133,11.0806 L5.44133,12.0806 L5.48387,12.0806 L5.48387,11.0806 Z M5.98387,12.1935 L5.98387,11.5806 L4.98387,11.5806 L4.98387,12.1935 L5.98387,12.1935 Z M16.4355,16.8065 L16.4355,7.48387 L15.4355,7.48387 L15.4355,16.8065 L16.4355,16.8065 Z M11.9516,4 L11.9516,5.48387 L12.9516,5.48387 L12.9516,4 L11.9516,4 Z M11.9516,5.48387 L11.9516,9.58064 L12.9516,9.58064 L12.9516,5.48387 L11.9516,5.48387 Z M13.9355,4.98387 L12.4516,4.98387 L12.4516,5.98387 L13.9355,5.98387 L13.9355,4.98387 Z M4.6129,5.98387 L9.83871,5.98387 L9.83871,4.98387 L4.6129,4.98387 L4.6129,5.98387 Z M4.6129,8.59677 L8.09677,8.59677 L8.09677,7.59677 L4.6129,7.59677 L4.6129,8.59677 Z M16.4355,7.48387 C16.4355,6.10316 15.3162,4.98387 13.9355,4.98387 L13.9355,5.98387 C14.7639,5.98387 15.4355,6.65544 15.4355,7.48387 L16.4355,7.48387 Z M7.48387,13.6935 C6.65544,13.6935 5.98387,13.022 5.98387,12.1935 L4.98387,12.1935 C4.98387,13.5743 6.10316,14.6935 7.48387,14.6935 L7.48387,13.6935 Z M4.38067,12.52 C4.66197,12.2387 5.04351,12.0806 5.44133,12.0806 L5.44133,11.0806 C4.77829,11.0806 4.1424,11.344 3.67356,11.8129 L4.38067,12.52 Z M10.45161,12.0806 C11.8323,12.0806 12.9516,10.96136 12.9516,9.58064 L11.9516,9.58064 C11.9516,10.40907 11.28,11.0806 10.45161,11.0806 L10.45161,12.0806 Z M10.45161,2.5 C11.28,2.5 11.9516,3.17157 11.9516,4 L12.9516,4 C12.9516,2.61929 11.8323,1.5 10.45161,1.5 L10.45161,2.5 Z M14.2619,14.4258 C13.7931,13.9569 13.1572,13.6935 12.4942,13.6935 L12.4942,14.6935 C12.892,14.6935 13.2735,14.8516 13.5548,15.1329 L14.2619,14.4258 Z M2.5,4 C2.5,3.17157 3.17157,2.5 4,2.5 L4,1.5 C2.61929,1.5 1.5,2.61929 1.5,4 L2.5,4 Z"></path>
	</symbol>
	<symbol id="attach" viewBox="0 0 18 18" version="1.1"
		xmlns="http://www.w3.org/2000/svg"
		xmlns:xlink="http://www.w3.org/1999/xlink">
		<path d="M6.33333,4.95 C6.60947237,4.95 6.83333,5.17385763 6.83333,5.45 C6.83333,5.72614237 6.60947237,5.95 6.33333,5.95 L4.55556,5.95 C2.86802237,5.95 1.5,7.31802237 1.5,9.00556 C1.5,10.6930953 2.86802003,12.06111 4.55556,12.06111 L6.33333,12.06111 C6.60947237,12.06111 6.83333,12.2849676 6.83333,12.56111 C6.83333,12.8372524 6.60947237,13.06111 6.33333,13.06111 L4.55556,13.06111 C2.31573615,13.06111 0.5,11.2453809 0.5,9.00556 C0.5,6.76573763 2.31573763,4.95 4.55556,4.95 L6.33333,4.95 Z M13.4444,4.95 C15.6842418,4.95 17.5,6.76573704 17.5,9.00556 C17.5,11.2453815 15.6842433,13.06111 13.4444,13.06111 L11.6667,13.06111 C11.3905576,13.06111 11.1667,12.8372524 11.1667,12.56111 C11.1667,12.2849676 11.3905576,12.06111 11.6667,12.06111 L13.4444,12.06111 C15.131962,12.06111 16.5,10.6930933 16.5,9.00556 C16.5,7.3180244 15.1319597,5.95 13.4444,5.95 L11.6667,5.95 C11.3905576,5.95 11.1667,5.72614237 11.1667,5.45 C11.1667,5.17385763 11.3905576,4.95 11.6667,4.95 L13.4444,4.95 Z M11.6667,8.50556 C11.9428424,8.50556 12.1667,8.72941763 12.1667,9.00556 C12.1667,9.28170237 11.9428424,9.50556 11.6667,9.50556 L6.33333,9.50556 C6.05718763,9.50556 5.83333,9.28170237 5.83333,9.00556 C5.83333,8.72941763 6.05718763,8.50556 6.33333,8.50556 L11.6667,8.50556 Z"></path>
	</symbol>
	<symbol id="reset" viewBox="0 0 18 18" version="1.1"
		xmlns="http://www.w3.org/2000/svg"
		xmlns:xlink="http://www.w3.org/1999/xlink">
		<path d="M15.94,9 L15.6627,9.41603 C15.8924,9.5692 16.2028,9.50711 16.356,9.27735 L15.94,9 Z M13.884,7.02842 C13.6543,6.87524 13.3438,6.93733 13.1906,7.16709 C13.0375,7.39686 13.0996,7.70729 13.3293,7.86047 L13.884,7.02842 Z M17.9116,6.94402 C18.0648,6.71425 18.0027,6.40382 17.7729,6.25064 C17.5431,6.09747 17.2327,6.15955 17.0795,6.38932 L17.9116,6.94402 Z M15.6094,12.3347 C15.7329,12.0877 15.6328,11.7874 15.3858,11.6639 C15.1388,11.5404 14.8385,11.6405 14.715,11.8875 L15.6094,12.3347 Z M8.94,15.5 C5.35015,15.5 2.44,12.5899 2.44,9 L1.44,9 C1.44,13.1421 4.79786,16.5 8.94,16.5 L8.94,15.5 Z M2.44,9 C2.44,5.41015 5.35015,2.5 8.94,2.5 L8.94,1.5 C4.79786,1.5 1.44,4.85786 1.44,9 L2.44,9 Z M8.94,2.5 C12.5299,2.5 15.44,5.41015 15.44,9 L16.44,9 C16.44,4.85786 13.0821,1.5 8.94,1.5 L8.94,2.5 Z M16.2174,8.58397 L13.884,7.02842 L13.3293,7.86047 L15.6627,9.41603 L16.2174,8.58397 Z M16.356,9.27735 L17.9116,6.94402 L17.0795,6.38932 L15.524,8.72265 L16.356,9.27735 Z M8.94,16.5 C10.58305,16.5 11.9458,16.0878 13.0576,15.3466 C14.1663,14.6074 14.9964,13.5607 15.6094,12.3347 L14.715,11.8875 C14.1613,12.9949 13.4359,13.8926 12.5029,14.5145 C11.5731,15.1344 10.40806,15.5 8.94,15.5 L8.94,16.5 Z"></path>
	</symbol>
	<symbol id="ticket" viewBox="0 0 18 18" version="1.1"
		xmlns="http://www.w3.org/2000/svg"
		xmlns:xlink="http://www.w3.org/1999/xlink">
		<path d="M1,1 L1.27735,0.583975 C1.12392,0.481689 0.92665,0.472153 0.764071,0.559163 C0.601492,0.646172 0.5,0.815602 0.5,1 L1,1 Z M4,3 L3.72265,3.41603 C3.8906,3.52799 4.1094,3.52799 4.27735,3.41603 L4,3 Z M7,1 L7.27735,0.583975 C7.1094,0.472008 6.8906,0.472008 6.72265,0.583975 L7,1 Z M10,3 L9.72265,3.41603 C9.8906,3.52799 10.1094,3.52799 10.2774,3.41603 L10,3 Z M13,1 L13.5,1 C13.5,0.815602 13.3985,0.646172 13.2359,0.559163 C13.0733,0.472153 12.8761,0.481689 12.7226,0.583975 L13,1 Z M17,9 L17.5,9 C17.5,8.72386 17.2761,8.5 17,8.5 L17,9 Z M5,5.5 C4.72386,5.5 4.5,5.72386 4.5,6 C4.5,6.27614 4.72386,6.5 5,6.5 L5,5.5 Z M9,6.5 C9.27614,6.5 9.5,6.27614 9.5,6 C9.5,5.72386 9.27614,5.5 9,5.5 L9,6.5 Z M5,9.5 C4.72386,9.5 4.5,9.72386 4.5,10 C4.5,10.2761 4.72386,10.5 5,10.5 L5,9.5 Z M9,10.5 C9.27614,10.5 9.5,10.2761 9.5,10 C9.5,9.72386 9.27614,9.5 9,9.5 L9,10.5 Z M5,13.5 C4.72386,13.5 4.5,13.7239 4.5,14 C4.5,14.2761 4.72386,14.5 5,14.5 L5,13.5 Z M9,14.5 C9.27614,14.5 9.5,14.2761 9.5,14 C9.5,13.7239 9.27614,13.5 9,13.5 L9,14.5 Z M0.72265,1.41603 L3.72265,3.41603 L4.27735,2.583975 L1.27735,0.583975 L0.72265,1.41603 Z M4.27735,3.41603 L7.27735,1.41603 L6.72265,0.583975 L3.72265,2.583975 L4.27735,3.41603 Z M6.72265,1.41603 L9.72265,3.41603 L10.2774,2.583975 L7.27735,0.583975 L6.72265,1.41603 Z M10.2774,3.41603 L13.2774,1.41603 L12.7226,0.583975 L9.72265,2.583975 L10.2774,3.41603 Z M13,16.5 L5,16.5 L5,17.5 L13,17.5 L13,16.5 Z M1.5,13 L1.5,1 L0.5,1 L0.5,13 L1.5,13 Z M12.5,1 L12.5,9 L13.5,9 L13.5,1 L12.5,1 Z M12.5,9 L12.5,17 L13.5,17 L13.5,9 L12.5,9 Z M13,9.5 L17,9.5 L17,8.5 L13,8.5 L13,9.5 Z M16.5,9 L16.5,13 L17.5,13 L17.5,9 L16.5,9 Z M5,6.5 L9,6.5 L9,5.5 L5,5.5 L5,6.5 Z M5,10.5 L9,10.5 L9,9.5 L5,9.5 L5,10.5 Z M5,14.5 L9,14.5 L9,13.5 L5,13.5 L5,14.5 Z M16.5,13 C16.5,14.933 14.933,16.5 13,16.5 L13,17.5 C15.4853,17.5 17.5,15.4853 17.5,13 L16.5,13 Z M5,16.5 C3.067,16.5 1.5,14.933 1.5,13 L0.5,13 C0.5,15.4853 2.51472,17.5 5,17.5 L5,16.5 Z"></path>
	</symbol>
	<symbol id="chevrondown" viewBox="0 0 18 18" version="1.1"
		xmlns="http://www.w3.org/2000/svg"
		xmlns:xlink="http://www.w3.org/1999/xlink">
		<path d="M12.707329,6.43944136 C13.016917,6.16425387 13.4909712,6.19214099 13.7661586,6.50172898 C14.0413461,6.81131696 14.013459,7.28537115 13.703871,7.56055864 L9.20384102,11.5605586 C8.91967638,11.8131477 8.49146093,11.813147 8.20729712,11.560557 L3.70729712,7.56055699 C3.39771004,7.28536848 3.3698245,6.8113142 3.64501301,6.50172712 C3.92020152,6.19214004 4.3942558,6.1642545 4.70384288,6.43944301 L8.70557,9.996 L12.707329,6.43944136 Z"></path>
	</symbol>
	<symbol id="search" viewBox="0 0 20 20" version="1.1"
		xmlns="http://www.w3.org/2000/svg"
		xmlns:xlink="http://www.w3.org/1999/xlink">
		<path d="M9,0 C13.9705782,0 18,4.02942873 18,9 C18,11.1247884 17.2636938,13.0775944 16.0323143,14.6171849 L19.7071068,18.2928932 C20.0976311,18.6834175 20.0976311,19.3165825 19.7071068,19.7071068 C19.3165825,20.0976311 18.6834175,20.0976311 18.2928932,19.7071068 L14.6171849,16.0323143 C13.0775944,17.2636938 11.1247884,18 9,18 C4.02942873,18 0,13.9705782 0,9 C0,4.02943525 4.02943525,0 9,0 Z M9,2 C5.13400475,2 2,5.13400475 2,9 C2,12.866008 5.13399746,16 9,16 C10.8904855,16 12.6059263,15.2505953 13.8654599,14.0326485 C13.8886352,14.0004394 13.9147502,13.9710363 13.9428932,13.9428932 L14.0326485,13.8654599 C15.2505953,12.6059263 16,10.8904855 16,9 C16,5.13399746 12.866008,2 9,2 Z"></path>
	</symbol>
	<symbol id="settings" viewBox="0 0 20 20" version="1.1"
		xmlns="http://www.w3.org/2000/svg"
		xmlns:xlink="http://www.w3.org/1999/xlink">
		<path d="M10.6883,0.25 C11.8269213,0.25 12.75,1.17306415 12.75,2.3117 L12.75,2.71976 L12.765165,2.75974222 L12.8309034,2.78216765 C12.8625271,2.78973348 12.8827459,2.78451193 12.8901866,2.77707326 L13.2085554,2.45872448 C14.0476519,1.61958184 15.4081481,1.61958184 16.2472218,2.45870167 L17.2121191,3.42356893 C17.988026,4.19944375 17.988026,5.45740019 17.2121301,6.23328009 L17.1676442,6.27776598 C17.0311062,6.41431125 16.9967573,6.65379698 17.0846138,6.85551968 L17.1259229,6.94104893 C17.2327523,7.13625581 17.4071747,7.25 17.5725,7.25 L17.6883,7.25 C18.8269213,7.25 19.75,8.17306415 19.75,9.3117 L19.75,10.6883 C19.75,11.8269136 18.8269136,12.75 17.6883,12.75 L17.4312,12.75 C17.3307227,12.75 17.2174768,12.8322118 17.17652,12.9273003 L17.1438075,13.0176677 C17.1103136,13.1376857 17.1353102,13.2461711 17.1991301,13.3099699 L17.2862301,13.3970699 C18.0212233,14.1320631 18.0212233,15.3237369 17.2862301,16.0587301 L16.0587301,17.2862301 C15.3237369,18.0212233 14.1320631,18.0212233 13.3970699,17.2862301 L13.3098823,17.1990425 C13.2369746,17.1261107 13.1043547,17.1045086 13.0068732,17.1437823 L12.9279632,17.1804518 C12.813515,17.2432702 12.75,17.3423823 12.75,17.4312 L12.75,17.6883 C12.75,18.8269136 11.8269136,19.75 10.6883,19.75 L9.3117,19.75 C8.17306415,19.75 7.25,18.8269213 7.25,17.6883 L7.25,17.5725 C7.25,17.3903782 7.11077465,17.1975399 6.91931515,17.1124139 L6.81955577,17.0733609 C6.60616107,17.0038223 6.40070739,17.0447093 6.2777205,17.1676897 L6.23327558,17.2121246 C5.4573911,17.9880251 4.1994289,17.9880251 3.42356091,17.2121411 L2.45868079,16.247301 C1.61957831,15.4081063 1.61957831,14.0476401 2.45869326,13.2085866 L2.77702071,12.8902391 L2.7951653,12.856787 L2.76922985,12.7973686 C2.75100617,12.7638013 2.72923693,12.75 2.71977,12.75 L2.3117,12.75 C1.17306415,12.75 0.25,11.8269213 0.25,10.6883 L0.25,9.3117 C0.25,8.17305644 1.17305644,7.25 2.3117,7.25 L2.56877,7.25 C2.669239,7.25 2.78248924,7.1677793 2.82347927,7.07263278 L2.85618831,6.98228891 C2.88967538,6.86230527 2.86466532,6.75375549 2.80089991,6.68999009 L2.52423991,6.41333009 C1.6489267,5.53801687 1.6489267,4.11884313 2.52423991,3.24352991 L3.24351991,2.52424991 C4.11884389,1.64892594 5.53802114,1.64892594 6.4133205,2.52424033 L6.68999885,2.80090868 C6.7629544,2.87386664 6.89563459,2.89547825 6.99305268,2.85622406 L7.07198061,2.8195404 C7.18648251,2.75668746 7.25,2.65757792 7.25,2.56876 L7.25,2.3117 C7.25,1.17305644 8.17305644,0.25 9.3117,0.25 L10.6883,0.25 Z M10.6883,1.75 L9.3117,1.75 C9.00148356,1.75 8.75,2.00148356 8.75,2.3117 L8.75,2.56876 C8.75,3.22668827 8.37144937,3.81735989 7.7575842,4.15306652 L7.60535277,4.22495904 C6.92787545,4.50624428 6.14676603,4.3790133 5.6293395,3.86156967 L5.35266536,3.58490553 C5.06313886,3.29537406 4.59371611,3.29537406 4.30418009,3.58491009 L3.58490009,4.30419009 C3.2953733,4.59371687 3.2953733,5.06314313 3.58490009,5.35266991 L3.86156009,5.62932991 C4.32103975,6.08880958 4.47562498,6.75974707 4.28739118,7.42903358 L4.22496641,7.60533501 C3.94373886,8.28272241 3.30011383,8.75 2.56877,8.75 L2.3117,8.75 C2.00148356,8.75 1.75,9.00148356 1.75,9.3117 L1.75,10.6883 C1.75,10.9984995 2.00149658,11.25 2.3117,11.25 L2.71977,11.25 C3.29627686,11.25 3.81424095,11.5783798 4.1086829,12.1238411 L4.17427934,12.2687152 C4.40018116,12.8482549 4.27925054,13.5092144 3.83776674,13.9508134 L3.51935067,14.2692495 C3.26602169,14.5225599 3.26602169,14.9332937 3.51935909,15.1866589 L4.48421558,16.1514754 C4.6743111,16.3415749 4.9825089,16.3415749 5.1726695,16.1514103 L5.21713402,16.1069558 C5.756104,15.5680145 6.55406769,15.4092129 7.31932539,15.6595538 L7.48841118,15.7250586 C8.23570468,16.0534095 8.75,16.7657498 8.75,17.5725 L8.75,17.6883 C8.75,17.9984995 9.00149658,18.25 9.3117,18.25 L10.6883,18.25 C10.9984864,18.25 11.25,17.9984864 11.25,17.6883 L11.25,17.4312 C11.25,16.7732833 11.628548,16.1825775 12.2424159,15.8468971 L12.394647,15.7750144 C13.0722028,15.4937422 13.8533047,15.6209735 14.3706301,16.1384699 L14.4577301,16.2255699 C14.6069369,16.3747767 14.8488631,16.3747767 14.9980699,16.2255699 L16.2255699,14.9980699 C16.3747767,14.8488631 16.3747767,14.6069369 16.2255699,14.4577301 L16.1385575,14.3707177 C15.6789546,13.9112666 15.5243564,13.2403112 15.7125912,12.5709648 L15.7750039,12.3946724 C16.0561782,11.7172823 16.6998544,11.25 17.4312,11.25 L17.6883,11.25 C17.9984864,11.25 18.25,10.9984864 18.25,10.6883 L18.25,9.3117 C18.25,9.00149658 17.9984995,8.75 17.6883,8.75 L17.5725,8.75 C16.8326605,8.75 16.1691788,8.31733086 15.7950882,7.63229488 L15.7250506,7.48839289 C15.3843904,6.71302863 15.5138742,5.81024714 16.1069699,5.21711991 L16.1514754,5.17261442 C16.341574,4.98251981 16.341574,4.67433625 16.1514782,4.48424833 L15.1865554,3.51935552 C14.9332519,3.26603816 14.5225481,3.26603816 14.2692134,3.51938674 L13.9507609,3.83781929 C13.5651425,4.22333699 13.008705,4.3670375 12.432329,4.22733057 L12.2687796,4.17430444 C11.6662626,3.93951012 11.25,3.36944204 11.25,2.71976 L11.25,2.3117 C11.25,2.00149658 10.9984995,1.75 10.6883,1.75 Z M10,6.25 C12.0710982,6.25 13.75,7.9289211 13.75,10 C13.75,12.0711136 12.0711136,13.75 10,13.75 C7.9289211,13.75 6.25,12.0710982 6.25,10 C6.25,7.92893644 7.92893644,6.25 10,6.25 Z M10,7.75 C8.75736356,7.75 7.75,8.75736356 7.75,10 C7.75,11.2426672 8.75734436,12.25 10,12.25 C11.2426864,12.25 12.25,11.2426864 12.25,10 C12.25,8.75734436 11.2426672,7.75 10,7.75 Z"></path>
	</symbol>
	<symbol id="help" viewBox="0 0 22 22" version="1.1"
		xmlns="http://www.w3.org/2000/svg"
		xmlns:xlink="http://www.w3.org/1999/xlink">
		<path d="M10.99996,0.25 C16.9370569,0.25 21.74996,5.06291975 21.74996,11 C21.74996,16.9370469 16.9370402,21.75 10.99996,21.75 C5.06295314,21.75 0.25,16.9370203 0.25,11 C0.25,5.06294642 5.06293645,0.25 10.99996,0.25 Z M10.99996,1.75 C5.89136427,1.75 1.75,5.89137285 1.75,11 C1.75,16.108595 5.89138212,20.25 10.99996,20.25 C16.1086107,20.25 20.24996,16.1086221 20.24996,11 C20.24996,5.89134571 16.1086286,1.75 10.99996,1.75 Z M10.55486,14.9854 C11.18516,14.9854 11.72266,15.5044 11.72266,16.1532 C11.72266,16.8019 11.18516,17.321 10.55486,17.321 C9.92466,17.321 9.38708,16.8019 9.38708,16.1532 C9.38708,15.5044 9.92466,14.9854 10.55486,14.9854 Z M10.98126,4.67906 C12.83486,4.67906 14.24366,6.01369 14.24366,7.77466 C14.24366,8.81271 13.78026,9.62831 12.48266,10.7776 C11.44466,11.7044 11.18516,12.1122 11.18516,12.7054 L11.18516,12.9093 C11.18516,13.3171 10.90706,13.6137 10.51776,13.6137 C10.14706,13.6137 9.83196,13.3171 9.83196,12.9278 L9.83196,12.6683 C9.83196,11.8156 10.22126,11.1668 11.31486,10.1473 C12.48266,9.05368 12.76076,8.62734 12.76076,7.86734 C12.76076,6.79223 11.98216,5.99515 10.94416,5.99515 C10.09146,5.99515 9.38708,6.4771 9.03488,7.32979 C8.90513,7.64491 8.66415,7.81173 8.40464,7.81173 C8.03391,7.81173 7.75586,7.51515 7.75586,7.16296 C7.75586,6.99613 7.79294,6.88491 7.83001,6.79223 C8.34903,5.4576 9.49826,4.67906 10.98126,4.67906 Z"></path>
	</symbol>
	<symbol id="coins" viewBox="0 0 32 32" version="1.1"
		xmlns="http://www.w3.org/2000/svg"
		xmlns:xlink="http://www.w3.org/1999/xlink">
		<path d="M10.91463,11.41986 L10.96908,11.42894 C11.2073,11.47658 11.4421,11.53443 11.6735,11.60249 C11.7348,11.61951 11.7972,11.63652 11.8584,11.65581 C12.0524,11.71706 12.2441,11.78739 12.4324,11.86226 C13.5162,12.29748 14.4972,12.9543 15.3125,13.79063 L15.3533,13.83147 C15.5851,14.071 15.8025,14.324 16.0044,14.5892 C16.0555,14.6561 16.1031,14.7253 16.1519,14.7934 C16.2801,14.9738 16.4026,15.1586 16.516,15.3481 C16.8897,15.9737 17.1795,16.6457 17.3781,17.3468 C17.4099,17.4602 17.4394,17.5736 17.4666,17.6871 C17.5029,17.8402 17.5346,17.9945 17.563,18.1499 C17.58,18.2486 17.597,18.3461 17.6106,18.446 C17.6333,18.607 17.6503,18.7692 17.664,18.9337 C17.6719,19.0233 17.6844,19.1129 17.6844,19.2037 C17.6912,19.3413 17.6946001,19.4767 17.6946001,19.6098 C17.6946001,20.1506 17.6419,20.6901 17.5369,21.2206 C17.4881,21.4712 17.428,21.7117 17.3554,21.9601 C17.2828,22.2086 17.1977,22.4513 17.1036,22.6884 C16.8124,23.4207 16.419,24.1081 15.9352,24.7302 C15.7613,24.9533 15.5775,25.1662 15.3839,25.3688 C15.1833,25.5788 14.972,25.7783 14.751,25.9666 C13.6768,26.881 12.3884,27.508 11.0061,27.7892 C9.62374,28.0704 8.19271,27.9965 6.84672,27.5744 C5.50072,27.1523 4.28373,26.3959 3.30948,25.3757 C2.33523,24.3556 1.635542,23.1051 1.275827,21.7411 C0.9161115,20.3771 0.9081053,18.9442 1.252564,17.5763 C1.597023,16.2084 2.2827,14.9501 3.24549,13.91917 C4.20829,12.88821 5.41676,12.1182 6.75796,11.68112 C8.09915,11.24403 9.52927,11.15414 10.91463,11.41986 Z M7.32842,13.32199 C7.13224,13.32199 6.94368,13.39797 6.8023,13.53399 C6.66091,13.67 6.57771,13.85549 6.57012,14.0515 L6.57012,14.8104 L5.81124,14.8104 C5.6152,14.818 5.42972,14.9012 5.2937,15.0426 C5.15768,15.184 5.08171,15.3725 5.08171,15.5687 C5.08171,15.7649 5.15768,15.9535 5.2937,16.0948 C5.42972,16.2362 5.6152,16.3194 5.81124,16.327 L6.57012,16.327 L6.57012,22.9062 L5.81124,22.9062 C5.60998,22.9062 5.41695,22.9861 5.27463,23.1284 C5.13232,23.2708 5.05238,23.4638 5.05238,23.6651 C5.05238,23.8663 5.13232,24.0593 5.27463,24.2017 C5.41695,24.344 5.60998,24.4239 5.81124,24.4239 L6.57012,24.4239 L6.57012,25.1817 C6.56618,25.2837 6.58287,25.3855 6.6192,25.481 C6.65553,25.5764 6.71075,25.6635 6.78155,25.7371 C6.85236,25.8107 6.93728,25.8693 7.03125,25.9093 C7.12522,25.9493 7.2263,25.9699 7.32842,25.9699 C7.43055,25.9699 7.53162,25.9493 7.62559,25.9093 C7.71956,25.8693 7.8045,25.8107 7.87531,25.7371 C7.94611,25.6635 8.00133,25.5764 8.03766,25.481 C8.07399,25.3855 8.09068,25.2837 8.08673,25.1817 L8.08673,24.4239 L9.60787,24.4239 L9.60787,25.1817 C9.60393,25.2837 9.62062,25.3855 9.65695,25.481 C9.69328,25.5764 9.7485,25.6635 9.8193,25.7371 C9.89011,25.8107 9.97505,25.8693 10.06902,25.9093 C10.16299,25.9493 10.26406,25.9699 10.36619,25.9699 C10.46831,25.9699 10.56938,25.9493 10.66335,25.9093 C10.75732,25.8693 10.84225,25.8107 10.91306,25.7371 C10.98386,25.6635 11.0391,25.5764 11.0754,25.481 C11.1117,25.3855 11.1284,25.2837 11.1245,25.1817 L11.1245,24.3423 C11.2941,24.3033 11.46,24.2494 11.6202,24.1812 C11.8576,24.0809 12.0777,23.9439 12.2724,23.7751 C12.4673,23.6069 12.6316,23.4061 12.7579,23.1818 C12.9339,22.8678 13.0403,22.5196 13.0699,22.1609 C13.0928,21.9041 13.0806,21.6454 13.0336,21.3918 C12.945,20.9319 12.7586,20.4979 12.4846,20.1202 L12.4301,20.0476 C12.3109,19.8931 12.1776,19.75 12.032,19.62 C12.2009,19.4702 12.353,19.3024 12.4857,19.1198 C12.505,19.0937 12.522,19.0664 12.5402,19.0404 C12.6662,18.8545 12.7719,18.6556 12.8555,18.4471 C12.9532,18.2035 13.0195,17.9485 13.0529,17.6882 C13.0619,17.6451 13.0665,17.602 13.0665,17.5589 C13.0807,17.3985 13.0807,17.2372 13.0665,17.0768 C13.0531,16.9278 13.0269,16.7801 12.9882,16.6356 C12.8923,16.2537 12.7011,15.9024 12.4324,15.6147 C12.2252,15.3968 11.9789,15.2198 11.7064,15.0929 L11.6735,15.0781 C11.4962,14.9977 11.3111,14.9358 11.1211,14.8932 L11.1211,14.0527 C11.1135,13.85662 11.0303,13.67114 10.88891,13.53512 C10.74753,13.3991 10.55897,13.32313 10.36278,13.32313 C10.16659,13.32313 9.97803,13.3991 9.83665,13.53512 C9.69527,13.67114 9.61206,13.85662 9.60448,14.0527 L9.60448,14.8115 L8.08673,14.8115 L8.08673,14.0515 C8.07915,13.85549 7.99593,13.67 7.85455,13.53399 C7.71317,13.39797 7.52461,13.32199 7.32842,13.32199 Z M30.3878,21.0266 L30.3878,22.5149 C30.3878,23.1195 29.4837,23.8318 28.0295,24.3752 C26.2735,25.0354 23.922,25.3961 21.4095,25.3961 C20.1176,25.4008 18.8275,25.2976 17.5527,25.0876 C18.0046,24.4106 18.3714,23.6807 18.6451,22.9142 C19.5634,23.0106 20.4861,23.0587 21.4095,23.0582 C24.099,23.0582 26.6377,22.6635 28.5604,21.9454 C29.2046,21.7146 29.8183,21.4061 30.3878,21.0266 Z M10.28639,20.3767 L10.36239,20.3983 C10.56147,20.451 10.74887,20.5406 10.91481,20.6626 C11.1282,20.8171 11.2989,21.0233 11.411,21.2617 C11.523,21.5002 11.5728,21.7631 11.5557,22.026 C11.5481,22.2063 11.4845,22.3796 11.3737,22.522 C11.2629,22.6643 11.1104,22.7685 10.93751,22.8201 C10.75215,22.8798 10.55823,22.9085 10.36353,22.9051 L8.08691,22.9051 L8.08691,20.3767 L10.28639,20.3767 Z M30.3844,17.1724 L30.3844,18.6663 C30.3735,18.8646 30.2978,19.0539 30.1689,19.2051 C29.8195,19.6645 29.064,20.1387 28.0261,20.5266 C26.2702,21.1868 23.9187,21.5475 21.4061,21.5475 C20.5701,21.5475 19.7795,21.5055 19.041,21.4341 C19.1521,20.8355 19.2079,20.2279 19.2078,19.6191 C19.2078,19.4796 19.1987,19.3424 19.1987,19.204 L19.1987,19.1121 C19.9179,19.1722 20.6574,19.204 21.4095,19.204 C23.6113,19.204 25.7223,18.9374 27.468,18.4462 C27.8503,18.3385 28.2201,18.2205 28.5604,18.0912 C28.8797,17.9726 29.1929,17.8378 29.4985,17.6874 C29.8058,17.5372 30.1019,17.3651 30.3844,17.1724 Z M10.36353,16.3315 C10.55022,16.329 10.73617,16.3554 10.91481,16.4097 C11.0933,16.4585 11.2517,16.5628 11.3669,16.7076 C11.4822,16.8524 11.5483,17.0302 11.5557,17.2151 C11.5695,17.3798 11.5546,17.5456 11.5115,17.7051 C11.4157,18.0535 11.2056,18.3596 10.91481,18.574 C10.74893,18.6963 10.56154,18.7864 10.36239,18.8395 C10.33744,18.8463 10.31247,18.8542 10.28639,18.8599 L8.08691,18.8599 L8.08691,16.3315 L10.36353,16.3315 Z M30.3878,13.31763 L30.3878,14.8036 C30.3765,15.0019 30.3008,15.191 30.1723,15.3424 C29.8229,15.8018 29.0674,16.276 28.0295,16.6639 C26.2736,17.3241 23.9221,17.6848 21.4095,17.6848 C20.5554,17.6848 19.75,17.6451 18.9968,17.5714 C18.8345,16.8029 18.5801,16.0568 18.2391,15.3492 L18.137,15.145 C19.2224,15.2824 20.3154,15.3506 21.4095,15.3492 C23.6113,15.3492 25.7212,15.0827 27.468,14.5904 C27.8503,14.4837 28.2201,14.3658 28.5604,14.2364 C28.8809,14.118 29.1951,13.98317 29.5019,13.83261 C29.809,13.68203 30.105,13.50994 30.3878,13.31763 Z M30.3925,9.23608 L30.3925,10.94894 C30.3811,11.1472 30.3055,11.33636 30.1769,11.48775 C29.8276,11.94716 29.0721,12.42131 28.0342,12.80812 C26.2782,13.46717 23.9267,13.82903 21.4142,13.82903 C19.9403,13.83682 18.4692,13.70004 17.022,13.42066 C16.4232,12.68111 15.721,12.03165 14.9371,11.49229 C14.5232,11.2062 14.0878,10.95249 13.6349,10.73341 C13.2465,10.54615 12.8464,10.38436 12.437,10.24905 L12.437,9.24063 C12.8653,9.53003 13.3213,9.77625 13.7982,9.97568 C13.9468,10.0392 14.0999,10.10045 14.2599,10.16057 C14.8989,10.39519 15.553,10.58656 16.2178,10.73341 C19.6416,11.45335 23.1777,11.45335 26.6015,10.73341 C27.2666,10.58672 27.9211,10.39534 28.5605,10.16057 C28.7193,10.10272 28.8736,10.04714 29.0312,9.97114 C29.508,9.77147 29.964,9.52526 30.3925,9.23608 Z M21.4098,4 C25.7827,4 28.8896,5.08443 29.9695,6.11894 C30.2429,6.38098 30.3881,6.63507 30.3881,6.87668 C30.3881,7.1183 30.2417,7.37693 29.9752,7.63555 C29.5759,8.0235 28.9032,8.41031 28.0298,8.737 C26.2738,9.39719 23.9223,9.75791 21.4098,9.75791 C17.038,9.75791 13.9311,8.67461 12.8512,7.63896 C12.5778,7.37693 12.4326,7.1217 12.4326,6.88009 C12.4326,6.63847 12.5789,6.37985 12.8444,6.12235 C13.2448,5.73441 13.9175,5.34646 14.7909,5.02091 C16.5469,4.361854 18.8972,4 21.4098,4 Z"></path>
	</symbol>
	<symbol id="lock" viewBox="0 0 32 32" version="1.1"
		xmlns="http://www.w3.org/2000/svg"
		xmlns:xlink="http://www.w3.org/1999/xlink">
		<path d="M17.6571,0.5 C21.0892,0.5 23.8714,3.31335 23.8714,6.78378 L23.8714,12.2297 L25.9429,12.2297 C28.4597,12.2297 30.5,14.2928 30.5,16.8378 L30.5,26.8919 C30.5,29.4369 28.4597,31.5 25.9429,31.5 L6.05714,31.5 C3.5403,31.5 1.5,29.4369 1.5,26.8919 L1.5,16.8378 C1.5,14.2928 3.5403,12.2297 6.05714,12.2297 L8.12857,12.2297 L8.12857,6.78378 C8.12857,3.31335 10.9108,0.5 14.3429,0.5 Z M16,18.9324 C15.3136,18.9324 14.7571,19.4951 14.7571,20.1892 L14.7571,23.5405 C14.7571,24.2346 15.3136,24.7973 16,24.7973 C16.6864,24.7973 17.2429,24.2346 17.2429,23.5405 L17.2429,20.1892 C17.2429,19.4951 16.6864,18.9324 16,18.9324 Z M17.6571,3.01351 L14.3429,3.01351 C12.2836,3.01351 10.61429,4.70152 10.61429,6.78378 L10.61429,12.2297 L21.3857,12.2297 L21.3857,6.78378 C21.3857,4.70152 19.7164,3.01351 17.6571,3.01351 Z"></path>
	</symbol>
	<symbol id="bot" viewBox="0 0 16 20" version="1.1"
		xmlns="http://www.w3.org/2000/svg"
		xmlns:xlink="http://www.w3.org/1999/xlink">
		<path d="M12.6667 2.99997H8.46667V1.59997C8.46667 1.4762 8.4175 1.3575 8.32998 1.26998C8.24247 1.18247 8.12377 1.1333 8 1.1333C7.87623 1.1333 7.75753 1.18247 7.67002 1.26998C7.5825 1.3575 7.53333 1.4762 7.53333 1.59997V2.99997H3.33333C2.71465 3.00046 2.12144 3.24645 1.68396 3.68393C1.24649 4.12141 1.00049 4.71461 1 5.3333V13.7333C1.00049 14.352 1.24649 14.9452 1.68396 15.3827C2.12144 15.8201 2.71465 16.0661 3.33333 16.0666H5.8832L7.61173 18.6585C7.65435 18.7224 7.71209 18.7748 7.77982 18.8111C7.84755 18.8473 7.92318 18.8663 8 18.8663C8.07682 18.8663 8.15245 18.8473 8.22018 18.8111C8.28791 18.7748 8.34565 18.7224 8.38827 18.6585L10.1168 16.0666H12.6667C13.2854 16.0661 13.8786 15.8201 14.316 15.3827C14.7535 14.9452 14.9995 14.352 15 13.7333V5.3333C14.9995 4.71461 14.7535 4.12141 14.316 3.68393C13.8786 3.24645 13.2854 3.00046 12.6667 2.99997ZM14.0667 13.7333C14.0662 14.1045 13.9185 14.4603 13.6561 14.7227C13.3936 14.9852 13.0378 15.1328 12.6667 15.1333H9.86667C9.78983 15.1334 9.71421 15.1525 9.64649 15.1888C9.57877 15.2251 9.52104 15.2775 9.4784 15.3414L8 17.559L6.5216 15.3414C6.47896 15.2775 6.42123 15.2251 6.35351 15.1888C6.28579 15.1525 6.21017 15.1334 6.13333 15.1333H3.33333C2.96218 15.1328 2.60637 14.9852 2.34393 14.7227C2.08149 14.4603 1.93383 14.1045 1.93333 13.7333V12.3333H14.0667V13.7333ZM14.0667 11.4H1.93333V5.3333C1.93383 4.96215 2.08149 4.60634 2.34393 4.3439C2.60637 4.08145 2.96218 3.93379 3.33333 3.9333H12.6667C13.0378 3.93379 13.3936 4.08145 13.6561 4.3439C13.9185 4.60634 14.0662 4.96215 14.0667 5.3333V11.4ZM6.13333 8.1333C6.13333 8.3179 6.07859 8.49835 5.97604 8.65183C5.87348 8.80532 5.72772 8.92495 5.55717 8.99559C5.38663 9.06623 5.19896 9.08471 5.01792 9.0487C4.83687 9.01269 4.67056 8.9238 4.54003 8.79327C4.40951 8.66274 4.32061 8.49643 4.2846 8.31539C4.24859 8.13434 4.26707 7.94667 4.33771 7.77613C4.40835 7.60559 4.52798 7.45982 4.68147 7.35726C4.83495 7.25471 5.0154 7.19997 5.2 7.19997C5.44754 7.19997 5.68493 7.2983 5.85997 7.47334C6.035 7.64837 6.13333 7.88577 6.13333 8.1333ZM11.7333 8.1333C11.7333 8.3179 11.6786 8.49835 11.576 8.65183C11.4735 8.80532 11.3277 8.92495 11.1572 8.99559C10.9866 9.06623 10.799 9.08471 10.6179 9.0487C10.4369 9.01269 10.2706 8.9238 10.14 8.79327C10.0095 8.66274 9.92061 8.49643 9.8846 8.31539C9.84859 8.13434 9.86707 7.94667 9.93771 7.77613C10.0084 7.60559 10.128 7.45982 10.2815 7.35726C10.435 7.25471 10.6154 7.19997 10.8 7.19997C11.0475 7.19997 11.2849 7.2983 11.46 7.47334C11.635 7.64837 11.7333 7.88577 11.7333 8.1333Z" fill="#909199" stroke="#909199" stroke-width="0.4"/>
	</symbol>
	<symbol id="play-min" viewBox="0 0 24 24" version="1.1"
		xmlns="http://www.w3.org/2000/svg"
		xmlns:xlink="http://www.w3.org/1999/xlink">
		<path fill-rule="evenodd" clip-rule="evenodd" d="M12 24C18.6274 24 24 18.6274 24 12C24 5.37258 18.6274 0 12 0C5.37258 0 0 5.37258 0 12C0 18.6274 5.37258 24 12 24ZM9.78276 6.3245L18.4265 11.1266C19.1123 11.5076 19.1123 12.4939 18.4265 12.8749L9.78276 17.677C8.98292 18.1213 7.99999 17.543 7.99999 16.628V7.37349C7.99999 6.45851 8.98292 5.88014 9.78276 6.3245Z" fill="white"/>
	</symbol>
	<symbol id="turn-phone" viewBox="0 0 122.88 106.43"
		xmlns="http://www.w3.org/2000/svg"
		xmlns:xlink="http://www.w3.org/1999/xlink" xml:space="preserve">
		<path fill="white" d="M11.1,0h35.63c3.05,0,5.85,1.25,7.85,3.25c2.03,2.03,3.25,4.8,3.25,7.85v31.46h-3.19V12.18H3.15v75.26l0,0 h7.61v11.61c0,1.58,0.27,3.1,0.77,4.51H11.1c-3.05,0-5.85-1.25-7.85-3.25C1.22,98.27,0,95.51,0,92.45V11.1 c0-3.05,1.25-5.85,3.25-7.85C5.28,1.22,8.04,0,11.1,0L11.1,0L11.1,0z M100.09,30.42c0.75-0.86,2.06-0.95,2.91-0.19 c0.86,0.75,0.95,2.06,0.19,2.91l-5.89,6.71c-0.74,0.85-2.02,0.94-2.88,0.22l0,0l-6.85-5.72c-0.88-0.73-0.99-2.04-0.26-2.91 c0.73-0.88,2.04-0.99,2.91-0.26l3.01,2.51c-0.82-3.89-2.71-7.43-5.48-10.2c-3.58-3.59-8.66-5.91-14.85-6.1 c-1.14-0.03-2.04-0.98-2.01-2.12s0.98-2.04,2.12-2.01c7.33,0.22,13.37,3.01,17.67,7.31c3.48,3.49,5.8,7.98,6.71,12.9L100.09,30.42 L100.09,30.42z M122.88,59.7v35.63c0,3.05-1.25,5.85-3.25,7.85c-2.03,2.03-4.8,3.25-7.85,3.25h-78.9c-3.05,0-5.85-1.25-7.85-3.25 c-2.03-2.03-3.25-4.8-3.25-7.85V59.7c0-3.05,1.25-5.85,3.25-7.85c2.03-2.03,4.79-3.25,7.85-3.25h78.9c3.05,0,5.85,1.25,7.85,3.25 C121.66,53.88,122.88,56.64,122.88,59.7L122.88,59.7L122.88,59.7z M35.41,77.49c0,2.51-2.03,4.57-4.57,4.57 c-2.51,0-4.57-2.03-4.57-4.57c0-2.51,2.03-4.57,4.57-4.57C33.36,72.92,35.41,74.95,35.41,77.49L35.41,77.49L35.41,77.49z M37.88,51.75v51.49h72.82V51.75H37.88L37.88,51.75z"/>
	</symbol>
</svg>
