<svg>
		<symbol id="back" viewBox="0 0 24 24" version="1.1" xmlns="http://www.w3.org/2000/svg" xmlns:xlink="http://www.w3.org/1999/xlink">
				<path d="M21.9999993,12.854773 C22.3865993,12.854773 22.6999993,12.541373 22.6999993,12.154773 C22.6999993,11.768173 22.3865993,11.454773 21.9999993,11.454773 L21.9999993,12.854773 Z M1.50502525,11.659803 C1.23165825,11.933163 1.23165825,12.376383 1.50502525,12.649743 L5.95979925,17.104473 C6.23315925,17.377873 6.67637925,17.377873 6.94974925,17.104473 C7.22310925,16.831173 7.22310925,16.387973 6.94974925,16.114573 L2.98994925,12.154773 L6.94974925,8.194973 C7.22310925,7.921613 7.22310925,7.478393 6.94974925,7.205023 C6.67637925,6.931659 6.23315925,6.931659 5.95979925,7.205023 L1.50502525,11.659803 Z M21.9999992,11.454773 L1.99999925,11.454773 L1.99999925,12.854773 L21.9999992,12.854773 L21.9999992,11.454773 Z"></path>
		</symbol>
		<symbol id="email" viewBox="0 0 24 24" version="1.1" xmlns="http://www.w3.org/2000/svg" xmlns:xlink="http://www.w3.org/1999/xlink">
				<path d="M2.565,7.16129 C2.565,5.6915 3.7565,4.5 5.22629,4.5 L18.7747,4.5 C20.2445,4.5 21.436,5.6915 21.436,7.16129 L21.436,16.8387 C21.436,18.3085 20.2445,19.5 18.7747,19.5 L5.22629,19.5 C3.7565,19.5 2.565,18.3085 2.565,16.8387 L2.565,7.16129 Z M4.66115,7.20256 C4.32762,6.98021 3.87699,7.07034 3.65464,7.40387 C3.432288,7.7374 3.522415,8.18803 3.85594,8.41038 L10.52427,12.85593 C11.41819,13.45188 12.5828,13.45188 13.4767,12.85593 L20.145,8.41038 C20.4786,8.18803 20.5687,7.7374 20.3463,7.40387 C20.124,7.07034 19.6733,6.98021 19.3398,7.20256 L12.6715,11.64811 C12.26516,11.919 11.73581,11.919 11.32948,11.64811 L4.66115,7.20256 Z"></path>
		</symbol>
</svg>
