<?xml version="1.0" encoding="UTF-8"?>
<svg width="930px" height="204px" viewBox="0 0 930 204" version="1.1" xmlns="http://www.w3.org/2000/svg" xmlns:xlink="http://www.w3.org/1999/xlink">
    <title>Group 2</title>
    <g id="Page-1" stroke="none" stroke-width="1" fill="none" fill-rule="evenodd">
        <g id="gb" transform="translate(-2434.540000, -446.440000)" fill-rule="nonzero">
            <g id="Group-2" transform="translate(2434.540000, 447.230000)">
                <g id="Group" transform="translate(0.000000, 0.000000)" fill="#4472EE">
                    <polygon id="Path" points="25.62 61.7 -5.68434189e-14 61.7 -5.68434189e-14 157.14 -5.68434189e-14 157.14 25.62 157.14 25.62 157.14"></polygon>
                    <polygon id="Path" points="68.22 45.53 42.6 45.53 42.6 202.63 42.6 202.63 68.22 202.63 68.22 202.63"></polygon>
                    <polygon id="Path" points="153.42 45.49 127.8 45.49 127.8 45.49 127.8 140.93 127.8 140.93 153.42 140.93 153.42 140.93"></polygon>
                    <polygon id="Path" points="110.82 0 85.2 0 85.2 0 85.2 157.09 85.2 157.09 110.82 157.09 110.82 157.09"></polygon>
                </g>
                <g id="Group" transform="translate(236.260000, 22.900000)" fill="#FFFFFF">
                    <path d="M447.19,29.08 C429.99,29.08 415.73,34.89 406.26,44.08 L406.26,-5.68434189e-14 L381.02,-5.68434189e-14 L381.02,116.56 L406.26,116.56 L406.26,103.39 C415.36,112.08 429.18,117.52 447.19,117.52 C483.1,117.52 500.75,97.72 500.75,73.3 C500.74,48.88 482.23,29.08 447.19,29.08 Z M447.19,95.6 L433.25,95.6 C415.15,95.6 406.25,85.62 406.25,73.31 C406.25,61 415.58,51.02 433.25,51.02 L447.19,51.02 C464.86,51.02 474.19,61 474.19,73.31 C474.19,85.62 465.29,95.6 447.19,95.6 Z" id="Shape"></path>
                    <path d="M95.66,44.98 C86.6,35.62 72.36,29.69 53.56,29.69 C17.65,29.69 -1.13686838e-13,49.49 -1.13686838e-13,73.91 C-1.13686838e-13,98.33 18.51,118.13 53.56,118.13 C71.48,118.13 86.22,111.83 95.66,101.96 L95.66,120.16 L95.6,120.16 L95.6,123.68 C95.6,130.37 90.12,136.18 83.43,135.99 L43.05,136.05 L43.05,156.82 L95.6,156.66 C108.93,156.66 119.73,145.86 119.73,132.53 L119.73,121.92 L119.73,120.16 L119.73,30.64 L95.66,30.64 L95.66,44.98 Z M67.49,96.2 L53.56,96.2 C35.89,96.2 26.56,86.22 26.56,73.91 C26.56,61.6 35.46,51.62 53.56,51.62 L67.49,51.62 C85.59,51.62 94.49,61.6 94.49,73.91 C94.49,86.22 85.16,96.2 67.49,96.2 Z" id="Shape"></path>
                    <path d="M346.31,44.08 C336.84,34.88 322.58,29.08 305.38,29.08 C270.34,29.08 251.82,48.88 251.82,73.3 C251.82,97.72 269.47,117.52 305.38,117.52 C323.39,117.52 337.22,112.08 346.31,103.39 L346.31,116.56 L371.55,116.56 L371.55,-5.68434189e-14 L346.31,-5.68434189e-14 L346.31,44.08 Z M319.32,95.6 L305.38,95.6 C287.28,95.6 278.38,85.62 278.38,73.31 C278.38,61 287.71,51.02 305.38,51.02 L319.32,51.02 C336.99,51.02 346.32,61 346.32,73.31 C346.31,85.62 337.42,95.6 319.32,95.6 Z" id="Shape"></path>
                    <path d="M693.74,51.01 L693.74,30.19 L653.12,30.19 L653.12,5.94 L628.99,13.98 L628.99,91.17 L628.99,92.28 C628.99,105.61 639.79,116.41 653.12,116.41 L693.74,115.29 L693.74,94.52 L665.33,95.3 C658.64,95.48 653.12,90.11 653.12,83.42 L653.12,51.01 L693.74,51.01 Z" id="Path"></path>
                    <path d="M570.04,30.19 L556.52,30.19 C522.36,30.19 504.31,49.49 504.31,73.3 C504.31,97.11 521.51,116.41 556.52,116.41 L570.04,116.41 C605.04,116.41 622.25,97.11 622.25,73.3 C622.25,49.49 604.2,30.19 570.04,30.19 Z M570.25,95.6 L556.31,95.6 C538.21,95.6 529.31,85.62 529.31,73.31 C529.31,61 538.64,51.02 556.31,51.02 L570.25,51.02 C587.92,51.02 597.25,61 597.25,73.31 C597.25,85.62 588.35,95.6 570.25,95.6 Z" id="Shape"></path>
                    <path d="M192.82,30.19 L179.3,30.19 C145.14,30.19 127.09,49.49 127.09,73.3 C127.09,97.11 144.29,116.41 179.3,116.41 L192.82,116.41 C227.82,116.41 245.03,97.11 245.03,73.3 C245.03,49.49 226.98,30.19 192.82,30.19 Z M193.03,95.6 L179.09,95.6 C160.99,95.6 152.09,85.62 152.09,73.31 C152.09,61 161.42,51.02 179.09,51.02 L193.03,51.02 C210.7,51.02 220.03,61 220.03,73.31 C220.03,85.62 211.13,95.6 193.03,95.6 Z" id="Shape"></path>
                </g>
            </g>
        </g>
    </g>
</svg>