<?xml version="1.0" encoding="UTF-8"?>
<svg width="22px" height="21px" viewBox="0 0 22 21" version="1.1" xmlns="http://www.w3.org/2000/svg" xmlns:xlink="http://www.w3.org/1999/xlink">
    <title>Star (1)</title>
    <g id="Page-1" stroke="none" stroke-width="1" fill="none" fill-rule="evenodd">
        <g id="Star-(1)" transform="translate(1.238925, 1.428664)" stroke="#858585">
            <path d="M6.470865,5.879096 L6.730575,5.841576 L6.847235,5.606526 L9.520095,0.22108 L9.074655,0 L9.520095,0.22108 C9.565755,0.129093 9.659225,0.071336 9.761075,0.071336 C9.862875,0.071336 9.956375,0.129092 10.002075,0.221081 L12.674875,5.606526 L12.791575,5.841576 L13.051275,5.879096 L19.030175,6.743016 C19.131475,6.757656 19.216175,6.828826 19.247875,6.927136 C19.279675,7.025516 19.252775,7.133306 19.178875,7.204956 L14.855675,11.395336 L14.666075,11.579136 L14.710975,11.839336 L15.731275,17.754936 C15.748775,17.856636 15.707175,17.959136 15.624375,18.019536 C15.541775,18.079936 15.432275,18.088136 15.341675,18.040736 L9.992675,15.244436 L9.761075,15.123336 L9.529425,15.244436 L4.180515,18.040736 C4.089925,18.088136 3.980385,18.079936 3.897735,18.019536 C3.814975,17.959136 3.773345,17.856636 3.790875,17.754936 L4.811205,11.839336 L4.856085,11.579136 L4.666475,11.395336 L0.343318,7.204956 L0,7.559146 L0.343318,7.204956 C0.2694,7.133306 0.242445,7.025516 0.274232,6.927136 C0.305996,6.828826 0.390647,6.757656 0.49197,6.743016 L6.470865,5.879096 Z" id="Path"></path>
        </g>
    </g>
</svg>