<svg width="30" height="30" viewBox="0 0 30 30" fill="none" xmlns="http://www.w3.org/2000/svg">
<path fill-rule="evenodd" clip-rule="evenodd" d="M0 15C0 6.71573 6.71573 0 15 0C23.2843 0 30 6.71573 30 15C30 23.2843 23.2843 30 15 30C6.71573 30 0 23.2843 0 15ZM11.2005 9.56872C10.7499 9.11812 10.0193 9.11812 9.56872 9.56872C9.11812 10.0193 9.11812 10.7499 9.56872 11.2005L13.3682 15L9.56872 18.7995C9.11812 19.2501 9.11812 19.9807 9.56872 20.4313C10.0193 20.8819 10.7499 20.8819 11.2005 20.4313L15 16.6318L18.7995 20.4313C19.2501 20.8819 19.9807 20.8819 20.4313 20.4313C20.8819 19.9807 20.8819 19.2501 20.4313 18.7995L16.6318 15L20.4313 11.2005C20.8819 10.7499 20.8819 10.0193 20.4313 9.56872C19.9807 9.11812 19.2501 9.11812 18.7995 9.56872L15 13.3682L11.2005 9.56872Z" fill="#CA390C"/>
</svg>
