<svg width="272" height="159" viewBox="0 0 272 159" fill="none" xmlns="http://www.w3.org/2000/svg">
<line x1="28" y1="132.749" x2="265.646" y2="132.749" stroke="#AFCDEB" stroke-width="0.5" stroke-dasharray="2 2"/>
<line x1="28" y1="99.7493" x2="265.646" y2="99.7493" stroke="#AFCDEB" stroke-width="0.5" stroke-dasharray="2 2"/>
<line x1="28" y1="66.7493" x2="265.646" y2="66.7493" stroke="#AFCDEB" stroke-width="0.5" stroke-dasharray="2 2"/>
<line x1="28" y1="0.749268" x2="265.751" y2="0.749268" stroke="#AFCDEB" stroke-width="0.5" stroke-dasharray="2 2"/>
<line x1="28" y1="33.7493" x2="265.751" y2="33.7493" stroke="#AFCDEB" stroke-width="0.5" stroke-dasharray="2 2"/>
<line x1="28.25" y1="0.999512" x2="28.25" y2="133" stroke="#AFCDEB" stroke-width="0.5" stroke-dasharray="2 2"/>
<line x1="164.25" y1="0.999512" x2="164.25" y2="133" stroke="#AFCDEB" stroke-width="0.5" stroke-dasharray="2 2"/>
<line x1="62.25" y1="0.999512" x2="62.25" y2="133" stroke="#AFCDEB" stroke-width="0.5" stroke-dasharray="2 2"/>
<line x1="198.25" y1="0.999512" x2="198.25" y2="133" stroke="#AFCDEB" stroke-width="0.5" stroke-dasharray="2 2"/>
<line x1="96.25" y1="0.999512" x2="96.25" y2="133" stroke="#AFCDEB" stroke-width="0.5" stroke-dasharray="2 2"/>
<line x1="266.25" y1="0.999512" x2="266.25" y2="133" stroke="#AFCDEB" stroke-width="0.5" stroke-dasharray="2 2"/>
<line x1="232.25" y1="0.999512" x2="232.25" y2="133" stroke="#AFCDEB" stroke-width="0.5" stroke-dasharray="2 2"/>
<line x1="130.25" y1="0.999512" x2="130.25" y2="133" stroke="#AFCDEB" stroke-width="0.5" stroke-dasharray="2 2"/>
<path d="M29.2277 88.9137C29.1157 88.3729 28.5865 88.0253 28.0457 88.1373C27.5049 88.2494 27.1573 88.7786 27.2693 89.3194L29.2277 88.9137ZM36.1957 115.603L35.8697 116.548L36.1957 115.603ZM27.2693 89.3194C28.1549 93.5939 29.6167 100.055 31.1254 105.547C31.8787 108.29 32.6503 110.815 33.3739 112.711C33.7344 113.656 34.0949 114.477 34.449 115.099C34.6257 115.41 34.8161 115.698 35.0223 115.935C35.2155 116.157 35.4951 116.419 35.8697 116.548L36.5216 114.658C36.6313 114.695 36.6309 114.737 36.5309 114.622C36.4439 114.522 36.328 114.357 36.1873 114.11C35.9068 113.617 35.5885 112.905 35.2425 111.998C34.5533 110.192 33.8017 107.74 33.0539 105.018C31.5603 99.5802 30.1082 93.1636 29.2277 88.9137L27.2693 89.3194ZM35.8697 116.548C36.3608 116.718 36.8528 116.752 37.3294 116.641C37.798 116.532 38.19 116.296 38.5129 116.019C39.1309 115.489 39.5976 114.713 39.9715 114.026C40.3857 113.264 40.6842 112.62 41.0541 112.014C41.4249 111.405 41.7073 111.125 41.9114 111.032L41.0761 109.214C40.2868 109.577 39.7414 110.325 39.3465 110.972C38.9506 111.622 38.5454 112.462 38.2145 113.07C37.8434 113.753 37.5237 114.233 37.2104 114.502C37.0676 114.624 36.9577 114.674 36.8754 114.693C36.8009 114.711 36.6928 114.717 36.5216 114.658L35.8697 116.548ZM41.9114 111.032C41.775 111.094 41.6404 111.031 41.6435 111.033C41.6999 111.072 41.8315 111.202 42.0199 111.506C42.39 112.103 42.7496 112.983 43.1341 113.926C43.3186 114.378 43.508 114.841 43.696 115.25C43.879 115.648 44.088 116.056 44.325 116.373C44.4437 116.532 44.6022 116.713 44.8073 116.856C45.0192 117.004 45.3324 117.146 45.7168 117.113C46.103 117.08 46.3953 116.885 46.5919 116.686C46.7817 116.494 46.9215 116.262 47.0299 116.038L45.2292 115.168C45.1721 115.286 45.1463 115.304 45.1702 115.28C45.2009 115.249 45.327 115.139 45.5464 115.12C45.7639 115.102 45.9095 115.186 45.953 115.217C45.9896 115.242 45.9786 115.245 45.9267 115.175C45.8221 115.036 45.6845 114.787 45.5131 114.415C45.3466 114.053 45.1739 113.631 44.9859 113.17C44.6253 112.286 44.1986 111.225 43.7201 110.453C43.4842 110.072 43.176 109.659 42.7745 109.384C42.3198 109.072 41.7091 108.923 41.0761 109.214L41.9114 111.032ZM47.0299 116.038C47.1673 115.754 47.2781 115.346 47.3751 114.922C47.4785 114.471 47.5866 113.906 47.6986 113.251C47.9229 111.939 48.1706 110.223 48.4349 108.243C48.9636 104.283 49.565 99.2214 50.1851 94.147C50.8061 89.0656 51.4462 83.9695 52.0544 79.9177C52.3586 77.8908 52.6531 76.138 52.931 74.7849C53.0701 74.1079 53.2028 73.5423 53.3276 73.0983C53.4573 72.6369 53.5625 72.3664 53.6307 72.2411L51.8737 71.2856C51.6934 71.617 51.54 72.0672 51.4022 72.557C51.2597 73.0642 51.1161 73.6805 50.972 74.3824C50.6834 75.7871 50.3828 77.5805 50.0765 79.6208C49.4637 83.7033 48.8206 88.825 48.1999 93.9044C47.5783 98.9907 46.9793 104.033 46.4525 107.979C46.1891 109.952 45.9453 111.639 45.7272 112.914C45.6181 113.552 45.5172 114.076 45.4256 114.476C45.3276 114.904 45.2574 115.11 45.2292 115.168L47.0299 116.038ZM53.6307 72.2411C55.7389 68.3645 57.7257 62.6797 57.7257 43.4503H55.7257C55.7257 62.5806 53.739 67.8557 51.8737 71.2856L53.6307 72.2411ZM57.7257 43.4503C57.7257 33.8884 58.2213 26.8585 58.7926 22.6939C59.0838 20.5709 59.3814 19.3031 59.5984 18.8042C59.6545 18.6753 59.6624 18.7021 59.5924 18.7722C59.5523 18.8125 59.4392 18.9146 59.2468 18.9679C59.0239 19.0296 58.7916 18.9985 58.6022 18.898C58.3195 18.748 58.2652 18.5192 58.3056 18.6217C58.3224 18.6641 58.3548 18.7704 58.3908 18.9689L60.3587 18.6122C60.3119 18.354 60.2513 18.1036 60.1661 17.8878C60.1047 17.7321 59.9398 17.3435 59.5394 17.1312C59.2911 16.9995 58.9982 16.9614 58.7131 17.0404C58.4585 17.1109 58.2816 17.2543 58.1763 17.3599C57.976 17.5607 57.8481 17.8141 57.7645 18.0063C57.4227 18.7918 57.0994 20.3209 56.8112 22.4221C56.2235 26.7057 55.7257 33.8324 55.7257 43.4503H57.7257ZM58.3908 18.9689C58.5498 19.8458 58.7523 21.5183 59.0031 23.5644C59.2512 25.5894 59.5426 27.9438 59.8763 30.1297C60.2077 32.3009 60.5891 34.3634 61.0269 35.7821C61.2365 36.4616 61.4984 37.1316 61.8564 37.5748C62.0368 37.7981 62.347 38.0963 62.8101 38.1779C63.3282 38.2691 63.751 38.0452 64.0251 37.7932L62.6715 36.3209C62.6973 36.2972 62.8769 36.1589 63.157 36.2082C63.3821 36.2479 63.4595 36.3766 63.4123 36.3181C63.3149 36.1975 63.1422 35.8543 62.938 35.1924C62.5479 33.9282 62.1842 31.9949 61.8534 29.8279C61.5248 27.6754 61.2367 25.349 60.9882 23.3211C60.7423 21.3144 60.5309 19.5619 60.3587 18.6122L58.3908 18.9689ZM64.0251 37.7932C64.5279 37.3309 64.9224 36.9902 65.2408 36.7875C65.6136 36.5503 65.5809 36.6956 65.3824 36.6174C65.1788 36.5372 65.305 36.4236 65.4485 37.0303C65.5766 37.5721 65.6596 38.4498 65.6596 39.797H67.6596C67.6596 38.4043 67.5771 37.3411 67.3948 36.5701C67.2278 35.8638 66.8987 35.0652 66.1156 34.7567C65.3377 34.4501 64.6013 34.8238 64.1669 35.1003C63.6782 35.4114 63.1621 35.8698 62.6715 36.3209L64.0251 37.7932ZM65.6596 39.797C65.6596 42.5652 65.8264 47.3911 66.2434 51.877C66.4518 54.1189 66.7245 56.2961 67.075 58.0975C67.2501 58.9978 67.4478 59.8208 67.6724 60.5192C67.8919 61.2017 68.1583 61.8338 68.4991 62.3038L70.1182 61.1298C69.9624 60.9148 69.7734 60.5194 69.5764 59.9069C69.3845 59.3101 69.2045 58.5705 69.0382 57.7156C68.7057 56.0063 68.4403 53.9024 68.2348 51.6918C67.824 47.2727 67.6596 42.5088 67.6596 39.797H65.6596ZM68.4991 62.3038C69.5806 63.7953 71.2767 65.1579 73.0393 65.4439C73.958 65.5929 74.9216 65.4489 75.7633 64.8379C76.5884 64.239 77.1832 63.2737 77.5539 61.9954L75.6331 61.4382C75.3416 62.4432 74.943 62.962 74.5885 63.2194C74.2505 63.4646 73.8482 63.549 73.3596 63.4697C72.3075 63.299 71.0235 62.3783 70.1182 61.1298L68.4991 62.3038ZM77.5539 61.9954C77.9066 60.7793 78.1629 59.2326 78.3905 57.6492C78.6227 56.0334 78.8238 54.3901 79.0709 52.8568C79.3184 51.3207 79.5953 50.0133 79.9472 49.1065C80.1238 48.6513 80.2929 48.3688 80.4323 48.2144C80.4974 48.1423 80.5404 48.1157 80.5563 48.1076C80.5671 48.1021 80.5666 48.1036 80.5671 48.1036V46.1036C79.8776 46.1036 79.3363 46.4439 78.9479 46.874C78.5751 47.2869 78.2992 47.8249 78.0826 48.3829C77.6481 49.5026 77.3455 50.9922 77.0963 52.5386C76.8467 54.0878 76.6339 55.8124 76.4108 57.3647C76.1831 58.9494 75.9427 60.3709 75.6331 61.4382L77.5539 61.9954ZM80.5671 48.1036C80.5062 48.1036 80.5402 48.058 80.6821 48.2263C80.8349 48.4075 81.0146 48.7291 81.2057 49.2297C81.5861 50.2266 81.9029 51.631 82.2369 53.2431C82.5637 54.8204 82.9028 56.574 83.3265 58.1516C83.7449 59.7093 84.2787 61.2325 85.0556 62.3038L86.6747 61.1298C86.1271 60.3745 85.6676 59.1576 85.2581 57.6329C84.8539 56.128 84.5308 54.4566 84.1953 52.8373C83.8671 51.2528 83.5216 49.6889 83.0742 48.5166C82.8514 47.9327 82.5758 47.3695 82.2112 46.9371C81.8357 46.4917 81.2903 46.1036 80.5671 46.1036V48.1036ZM85.0556 62.3038C85.6243 63.0882 86.0822 64.1671 86.463 65.3835C86.8411 66.5909 87.1224 67.8624 87.3715 69.0076C87.6093 70.1011 87.836 71.1796 88.1027 71.8484C88.1733 72.0253 88.2626 72.2163 88.3795 72.3888C88.488 72.5488 88.6828 72.7868 88.9993 72.9238C89.3754 73.0865 89.7646 73.0403 90.0764 72.8736C90.3417 72.7317 90.526 72.5191 90.6483 72.3504L89.0292 71.1764C88.9859 71.236 89.0149 71.1732 89.1334 71.1098C89.2985 71.0216 89.5493 70.9826 89.7934 71.0882C89.8909 71.1304 89.9547 71.1825 89.988 71.2141C90.0053 71.2305 90.0172 71.244 90.0242 71.2525C90.0312 71.261 90.0346 71.2661 90.0349 71.2664C90.0352 71.2668 90.0331 71.2639 90.029 71.2567C90.0249 71.2496 90.0193 71.2393 90.0124 71.2255C89.9983 71.1972 89.9808 71.1586 89.9604 71.1075C89.7719 70.6347 89.5846 69.7724 89.3258 68.5825C89.0782 67.4444 88.78 66.0901 88.3716 64.7859C87.9661 63.4906 87.4305 62.1721 86.6747 61.1298L85.0556 62.3038ZM90.6483 72.3504C91.0167 71.8423 91.3738 71.224 91.7113 70.6315C92.0596 70.0203 92.3937 69.4243 92.7457 68.8849C93.1001 68.3419 93.4344 67.9173 93.7566 67.6355C94.0744 67.3576 94.3047 67.2834 94.4745 67.2834V65.2834C93.651 65.2834 92.9706 65.6659 92.44 66.13C91.9136 66.5904 91.4615 67.1933 91.0708 67.7919C90.6778 68.3942 90.3083 69.054 89.9736 69.6415C89.6282 70.2478 89.323 70.7711 89.0292 71.1764L90.6483 72.3504ZM94.4745 67.2834C96.0795 67.2834 96.8442 66.0788 97.3885 65.2208C97.9871 64.2774 98.5487 63.3188 99.678 62.5401L98.5427 60.8935C97.023 61.9415 96.2601 63.2661 95.6997 64.1494C95.0851 65.1181 94.8563 65.2834 94.4745 65.2834V67.2834ZM99.678 62.5401C100.209 62.174 100.565 61.6445 100.816 61.1025C101.068 60.558 101.245 59.9353 101.381 59.3019C101.648 58.0651 101.807 56.5401 102.003 55.2446C102.21 53.8734 102.462 52.7118 102.884 51.905C103.087 51.5152 103.307 51.2569 103.535 51.096C103.751 50.9437 104.023 50.8436 104.408 50.8436V48.8436C103.635 48.8436 102.955 49.0574 102.382 49.4617C101.821 49.8573 101.414 50.3982 101.111 50.9788C100.519 52.1128 100.232 53.577 100.026 54.9458C99.8074 56.3903 99.6768 57.7194 99.4263 58.88C99.3043 59.4454 99.1653 59.9073 99.0011 60.2618C98.8357 60.6189 98.6741 60.8029 98.5427 60.8935L99.678 62.5401ZM104.408 50.8436C107.319 50.8436 108.739 48.766 109.728 47.1748C110.26 46.3181 110.651 45.6316 111.113 45.1173C111.538 44.6439 111.909 44.4503 112.356 44.4503V42.4503C111.146 42.4503 110.276 43.0559 109.625 43.7812C109.01 44.4657 108.49 45.3774 108.029 46.1191C107.032 47.7245 106.134 48.8436 104.408 48.8436V50.8436ZM112.356 44.4503C112.229 44.4503 112.307 44.3454 112.527 44.7302C112.735 45.0968 112.937 45.6923 113.117 46.517C113.472 48.1505 113.676 50.3664 113.842 52.6559C114.005 54.9073 114.132 57.2385 114.343 58.9826C114.448 59.8497 114.581 60.6425 114.772 61.2377C114.865 61.5297 114.996 61.8476 115.193 62.1113C115.395 62.38 115.768 62.7168 116.329 62.7168V60.7168C116.642 60.7168 116.793 60.9109 116.794 60.912C116.797 60.916 116.783 60.8983 116.759 60.8454C116.735 60.7941 116.707 60.7224 116.676 60.6262C116.546 60.2224 116.431 59.5881 116.329 58.7427C116.125 57.0619 116.004 54.8264 115.836 52.5112C115.671 50.2341 115.461 47.8834 115.071 46.0919C114.878 45.2041 114.625 44.3725 114.264 43.7402C113.915 43.1261 113.31 42.4503 112.356 42.4503V44.4503ZM116.329 62.7168C117.119 62.7168 117.816 62.3596 118.354 62.0198C118.633 61.8431 118.905 61.6472 119.155 61.4639C119.414 61.2742 119.644 61.1023 119.877 60.9417C120.359 60.6097 120.702 60.4365 120.969 60.3904C121.151 60.3591 121.337 60.3728 121.613 60.6263L122.966 59.154C122.249 58.4941 121.441 58.2795 120.629 58.4195C119.903 58.5447 119.253 58.9423 118.742 59.2952C118.478 59.4772 118.211 59.6763 117.973 59.8505C117.727 60.0311 117.502 60.192 117.285 60.3292C116.829 60.6174 116.533 60.7168 116.329 60.7168V62.7168ZM121.613 60.6263C122.106 61.0795 122.312 61.355 122.676 61.7219C122.922 61.9691 123.497 62.5413 124.335 62.3489C124.689 62.2675 124.97 62.07 125.184 61.8842C125.403 61.693 125.625 61.4474 125.855 61.1678C126.315 60.61 126.916 59.7795 127.735 58.6505L126.116 57.4765C125.279 58.6308 124.721 59.3986 124.311 59.8968C124.107 60.1453 123.967 60.2921 123.871 60.3756C123.768 60.4646 123.781 60.424 123.887 60.3997C124.227 60.3214 124.389 60.6082 124.096 60.3132C123.922 60.1378 123.467 59.6141 122.966 59.154L121.613 60.6263ZM127.735 58.6505C128.137 58.0955 128.382 57.8635 128.49 57.7916C128.538 57.7596 128.469 57.8212 128.31 57.825C128.108 57.8299 127.939 57.7397 127.843 57.6437C127.774 57.5743 127.774 57.5345 127.801 57.6095C127.825 57.6752 127.855 57.7862 127.883 57.9561C127.94 58.2974 127.975 58.7647 127.995 59.3538C128.016 59.9375 128.021 60.6006 128.027 61.328C128.034 62.0498 128.042 62.8281 128.068 63.6195C128.12 65.1926 128.247 66.8733 128.602 68.345L130.546 67.8751C130.24 66.6068 130.118 65.0909 130.067 63.553C130.041 62.7889 130.034 62.0331 130.027 61.3101C130.021 60.5925 130.015 59.8999 129.994 59.2848C129.973 58.6752 129.935 58.1008 129.856 57.6251C129.816 57.3865 129.761 57.1452 129.679 56.9232C129.602 56.7105 129.476 56.4478 129.257 56.2285C129.01 55.9827 128.667 55.8158 128.262 55.8256C127.899 55.8343 127.598 55.9824 127.381 56.127C126.959 56.4083 126.541 56.8899 126.116 57.4765L127.735 58.6505ZM128.602 68.345C129.243 70.9974 129.933 74.7642 130.937 77.9967C131.444 79.6286 132.051 81.1945 132.81 82.4874C133.563 83.7706 134.522 84.8806 135.779 85.4585L136.615 83.6413C135.885 83.3059 135.189 82.5893 134.534 81.475C133.886 80.3704 133.333 78.968 132.847 77.4032C131.865 74.2425 131.23 70.7027 130.546 67.8751L128.602 68.345ZM135.779 85.4585C136.106 85.6085 136.481 85.6518 136.857 85.533C137.207 85.4224 137.466 85.2005 137.648 84.9889C137.996 84.5833 138.242 84.0061 138.435 83.4097C138.83 82.1805 139.144 80.3771 139.404 78.2342C139.927 73.9235 140.259 67.9798 140.507 61.8716C140.756 55.7683 140.922 49.4303 141.108 44.3861C141.201 41.8548 141.299 39.6448 141.414 37.9286C141.532 36.1654 141.664 35.0417 141.793 34.5956L139.872 34.0385C139.671 34.7341 139.533 36.0934 139.418 37.7945C139.301 39.5425 139.202 41.7778 139.109 44.3126C138.922 49.4007 138.758 55.6779 138.509 61.7903C138.261 67.8979 137.931 73.7703 137.419 77.9935C137.161 80.1175 136.864 81.7605 136.531 82.7967C136.358 83.3331 136.21 83.5934 136.131 83.6851C136.099 83.7221 136.135 83.6637 136.255 83.6259C136.4 83.5801 136.537 83.6055 136.615 83.6413L135.779 85.4585ZM141.793 34.5956C141.822 34.4975 141.836 34.4849 141.817 34.5155C141.804 34.5365 141.691 34.7142 141.424 34.7976C141.118 34.8935 140.87 34.7876 140.764 34.7201C140.678 34.6645 140.657 34.6207 140.692 34.6686C140.856 34.8938 141.135 35.5336 141.494 36.6609C142.182 38.8233 143.001 42.2357 143.829 46.0593C145.48 53.6894 147.133 62.8064 147.796 66.4618L149.764 66.105C149.102 62.4539 147.443 53.3044 145.784 45.6362C144.956 41.8108 144.119 38.3161 143.4 36.0546C143.055 34.97 142.693 34.0186 142.308 33.491C142.206 33.3507 142.054 33.1712 141.843 33.0356C141.612 32.8881 141.246 32.7579 140.827 32.8888C140.449 33.0073 140.231 33.2792 140.12 33.457C140.003 33.6444 139.927 33.8512 139.872 34.0385L141.793 34.5956ZM147.796 66.4618C147.966 67.3974 148.141 68.1345 148.329 68.6981C148.508 69.2321 148.735 69.7305 149.075 70.0719C149.261 70.2576 149.508 70.4256 149.821 70.4965C150.141 70.5686 150.437 70.5193 150.678 70.422C151.107 70.2495 151.423 69.9023 151.624 69.6555C151.847 69.382 152.066 69.0547 152.259 68.761C152.464 68.4509 152.651 68.1651 152.842 67.9074C153.036 67.6466 153.197 67.4676 153.33 67.36C153.464 67.2514 153.485 67.2834 153.416 67.2834V65.2834C152.85 65.2834 152.395 65.5438 152.071 65.8062C151.746 66.0696 151.467 66.4044 151.237 66.7144C151.004 67.0275 150.782 67.3697 150.591 67.6589C150.389 67.9646 150.224 68.2082 150.075 68.3913C149.903 68.6012 149.857 68.5965 149.931 68.5667C149.996 68.5407 150.117 68.5128 150.262 68.5457C150.402 68.5773 150.477 68.6454 150.492 68.6598C150.501 68.6696 150.472 68.6424 150.417 68.536C150.363 68.4331 150.299 68.2811 150.226 68.0644C150.081 67.6289 149.925 66.9961 149.764 66.105L147.796 66.4618ZM153.416 67.2834C153.908 67.2834 154.27 67.0255 154.491 66.8022C154.713 66.5778 154.885 66.2992 155.022 66.0309C155.298 65.4892 155.539 64.7686 155.756 63.9801C156.194 62.3893 156.594 60.2914 156.966 58.2419C157.342 56.1681 157.688 54.1449 158.024 52.6286C158.193 51.8662 158.349 51.2798 158.491 50.898C158.564 50.7007 158.613 50.6146 158.627 50.5955C158.68 50.5175 158.501 50.8436 158.052 50.8436V48.8436C157.436 48.8436 157.092 49.2981 156.979 49.4609C156.827 49.6826 156.71 49.9497 156.616 50.202C156.424 50.7192 156.244 51.4172 156.071 52.196C155.724 53.7622 155.367 55.8489 154.998 57.8851C154.624 59.9455 154.238 61.9577 153.828 63.4493C153.621 64.202 153.422 64.7657 153.24 65.1232C153.148 65.3044 153.086 65.379 153.07 65.3954C153.053 65.4129 153.171 65.2834 153.416 65.2834V67.2834ZM158.052 50.8436C157.91 50.8436 157.833 50.7971 157.847 50.8044C157.855 50.8091 157.897 50.8346 157.975 50.9025C158.131 51.04 158.333 51.26 158.584 51.5641C158.83 51.8634 159.093 52.2051 159.38 52.5753C159.661 52.9388 159.963 53.3253 160.268 53.6861C160.572 54.0449 160.897 54.3997 161.23 54.695C161.552 54.9804 161.947 55.2686 162.394 55.4166C162.884 55.5789 163.465 55.5751 163.993 55.2152C164.464 54.8943 164.755 54.3802 164.952 53.8377L163.072 53.156C162.937 53.5269 162.836 53.5836 162.867 53.5624C162.955 53.5021 163.049 53.5269 163.022 53.5179C162.952 53.4947 162.798 53.4118 162.556 53.1978C162.326 52.9936 162.071 52.7205 161.795 52.3944C161.521 52.0701 161.243 51.7146 160.961 51.3503C160.684 50.9927 160.398 50.6208 160.127 50.2922C159.86 49.9684 159.575 49.6461 159.293 49.3982C159.15 49.2735 158.984 49.1456 158.798 49.0451C158.617 48.9471 158.359 48.8436 158.052 48.8436V50.8436ZM164.952 53.8377C165.299 52.8799 165.642 51.6384 165.958 50.4963C166.285 49.3203 166.58 48.2651 166.847 47.5815C166.994 47.2058 167.077 47.0925 167.069 47.1018C167.068 47.1031 166.885 47.3114 166.532 47.3127C166.135 47.3141 165.933 47.0606 165.903 47.0199C165.871 46.9753 165.889 46.9836 165.932 47.118C165.971 47.239 166.015 47.4185 166.062 47.6718C166.155 48.1784 166.245 48.9107 166.326 49.9239L168.32 49.7633C168.236 48.7214 168.14 47.9126 168.029 47.3095C167.973 47.0081 167.911 46.7407 167.838 46.5126C167.77 46.2978 167.674 46.0546 167.522 45.8459C167.374 45.641 167.049 45.3109 166.525 45.3127C166.045 45.3144 165.733 45.6003 165.598 45.7461C165.323 46.0444 165.127 46.4877 164.984 46.8541C164.672 47.6546 164.347 48.8256 164.031 49.9615C163.707 51.1313 163.387 52.2872 163.072 53.156L164.952 53.8377ZM166.326 49.9239C166.655 53.9997 166.989 59.7542 167.571 64.7997C167.863 67.3256 168.22 69.7108 168.678 71.6508C168.907 72.6206 169.167 73.5008 169.465 74.2418C169.757 74.9681 170.116 75.6339 170.578 76.1117L172.016 74.7216C171.815 74.5145 171.574 74.1242 171.32 73.4948C171.073 72.88 170.84 72.1049 170.625 71.191C170.193 69.3634 169.846 67.0679 169.558 64.5705C168.981 59.5694 168.654 53.9074 168.32 49.7633L166.326 49.9239ZM170.578 76.1117C170.988 76.5359 171.433 76.8469 171.925 77.0054C172.432 77.1684 172.916 77.1468 173.351 77.0173C174.134 76.7844 174.787 76.1749 175.185 75.8258C175.42 75.6197 175.595 75.4706 175.753 75.3647C175.913 75.2575 175.97 75.2548 175.956 75.2561C175.764 75.2746 175.925 75.0602 176.379 75.8944L178.136 74.9389C177.596 73.9465 176.846 73.1612 175.764 73.2653C175.305 73.3095 174.923 73.5137 174.64 73.7027C174.356 73.8928 174.086 74.1291 173.866 74.3226C173.353 74.7726 173.053 75.0193 172.781 75.1004C172.689 75.1279 172.619 75.1277 172.538 75.1016C172.443 75.071 172.268 74.9824 172.016 74.7216L170.578 76.1117ZM176.379 75.8944C176.695 76.4766 177.167 77.0004 177.866 77.1603C178.557 77.3185 179.175 77.052 179.63 76.7434C180.51 76.1454 181.373 74.9797 182.15 73.7961C182.947 72.5805 183.78 71.1393 184.536 69.9016C185.321 68.6174 186.012 67.5714 186.585 66.9785L185.147 65.5883C184.396 66.3654 183.597 67.6027 182.83 68.8588C182.034 70.1612 181.253 71.517 180.477 72.699C179.681 73.9128 179.012 74.7451 178.506 75.0889C178.267 75.2512 178.229 75.1917 178.312 75.2107C178.402 75.2314 178.316 75.27 178.136 74.9389L176.379 75.8944ZM186.585 66.9785C187.07 66.4769 187.428 65.7232 187.717 64.9236C188.017 64.0951 188.286 63.0899 188.539 61.9814C189.042 59.7676 189.503 57.0212 189.997 54.2425C190.494 51.4446 191.026 48.5981 191.677 46.1157C192.335 43.604 193.085 41.5924 193.961 40.384L192.342 39.21C191.231 40.7416 190.408 43.0683 189.742 45.6084C189.068 48.1778 188.524 51.0967 188.028 53.8929C187.528 56.7083 187.078 59.3848 186.588 61.5378C186.344 62.6127 186.096 63.5269 185.837 64.2433C185.567 64.9884 185.325 65.4049 185.147 65.5883L186.585 66.9785ZM193.961 40.384C194.934 39.0423 195.932 37.8338 196.914 36.8725C197.905 35.9023 198.83 35.2323 199.65 34.9023C200.444 34.5829 201.073 34.6028 201.615 34.8966C202.2 35.2132 202.867 35.9455 203.486 37.4398L205.334 36.6742C204.628 34.9719 203.722 33.7634 202.568 33.1381C201.372 32.4901 200.097 32.567 198.904 33.0468C197.738 33.516 196.593 34.3872 195.515 35.4435C194.427 36.5085 193.356 37.8117 192.342 39.21L193.961 40.384ZM203.486 37.4398C204.804 40.6201 206.327 44.1327 207.793 46.392C208.163 46.9631 208.545 47.4786 208.936 47.8979C209.319 48.3086 209.759 48.6799 210.255 48.8929C210.784 49.1201 211.393 49.1696 211.987 48.8844C212.537 48.6199 212.936 48.1324 213.235 47.5814L211.478 46.6258C211.281 46.9882 211.142 47.0714 211.12 47.0817C211.116 47.0837 211.117 47.083 211.121 47.0821C211.123 47.0817 211.125 47.0814 211.126 47.0812C211.128 47.081 211.129 47.0811 211.129 47.0811C211.129 47.081 211.127 47.081 211.124 47.0806C211.121 47.0803 211.117 47.0795 211.11 47.0779C211.096 47.0747 211.074 47.0683 211.044 47.0553C210.909 46.9972 210.691 46.8476 210.399 46.5341C210.115 46.2292 209.804 45.817 209.471 45.3035C208.122 43.2246 206.665 39.8872 205.334 36.6742L203.486 37.4398ZM213.235 47.5814C213.283 47.493 213.324 47.4288 213.355 47.3838C213.388 47.3378 213.405 47.3208 213.405 47.321C213.404 47.3217 213.396 47.3291 213.381 47.34C213.367 47.3509 213.342 47.367 213.309 47.3836C213.239 47.4183 213.131 47.453 212.997 47.4505C212.707 47.4452 212.554 47.2826 212.535 47.2613C212.518 47.2424 212.548 47.2721 212.604 47.4057C212.844 47.9751 213.059 49.1473 213.27 50.6667C213.471 52.103 213.666 53.8209 213.883 55.2202C213.994 55.9304 214.116 56.6011 214.257 57.1631C214.39 57.686 214.57 58.2531 214.859 58.6505L216.478 57.4765C216.435 57.4172 216.326 57.1851 216.197 56.6734C216.077 56.2008 215.966 55.6014 215.859 54.9131C215.642 53.5154 215.465 51.9224 215.251 50.3905C215.049 48.9415 214.809 47.4879 214.448 46.6303C214.354 46.4071 214.225 46.1549 214.038 45.9425C213.85 45.7277 213.516 45.4598 213.034 45.4509C212.564 45.4422 212.217 45.6859 212.009 45.8881C211.798 46.0941 211.625 46.3561 211.478 46.6258L213.235 47.5814ZM214.859 58.6505C215.333 59.3049 216.151 59.8046 216.874 60.2353C217.664 60.7067 218.515 61.1867 219.372 61.8309C221.038 63.0841 222.685 64.9341 223.294 68.2884L225.261 67.9317C224.545 63.9795 222.551 61.7195 220.574 60.2327C219.609 59.5069 218.639 58.9594 217.898 58.5175C217.089 58.0349 216.665 57.7354 216.478 57.4765L214.859 58.6505ZM223.294 68.2884C223.962 71.9775 225.149 75.7857 226.413 77.7791C226.731 78.28 227.104 78.7486 227.541 79.0582C228.002 79.3846 228.652 79.6026 229.338 79.2998C229.936 79.036 230.312 78.4741 230.567 77.913C230.834 77.3223 231.049 76.5476 231.222 75.595L229.254 75.2383C229.095 76.1124 228.917 76.7076 228.745 77.0874C228.559 77.4967 228.45 77.5056 228.53 77.4701C228.699 77.3957 228.801 77.4995 228.697 77.4263C228.57 77.3364 228.364 77.12 228.102 76.7076C227.049 75.0476 225.917 71.5492 225.261 67.9317L223.294 68.2884ZM231.222 75.595C231.301 75.1582 231.376 74.8319 231.445 74.5973C231.48 74.4806 231.51 74.3951 231.535 74.335C231.56 74.2723 231.574 74.2534 231.569 74.2609C231.567 74.2628 231.52 74.3372 231.409 74.4112C231.278 74.4978 231.075 74.5702 230.837 74.5363C230.44 74.4797 230.309 74.1897 230.373 74.2909C230.44 74.3995 230.568 74.7278 230.724 75.3416C230.869 75.915 231.015 76.6309 231.158 77.4217C231.447 79.0153 231.709 80.8005 231.952 82.2599C232.071 82.9738 232.187 83.6161 232.298 84.0863C232.351 84.3151 232.413 84.5444 232.486 84.7314C232.52 84.8187 232.578 84.953 232.67 85.0826C232.72 85.1529 233.003 85.5499 233.549 85.5499V83.5499C234.054 83.5499 234.294 83.9148 234.3 83.9233C234.348 83.9912 234.361 84.0341 234.349 84.0028C234.329 83.9525 234.293 83.8357 234.245 83.6292C234.151 83.229 234.044 82.644 233.925 81.9309C233.692 80.536 233.416 78.6679 233.126 77.0649C232.979 76.2574 232.825 75.4891 232.662 74.8496C232.51 74.2504 232.322 73.6368 232.069 73.2316C231.972 73.076 231.679 72.6361 231.12 72.5563C230.436 72.4588 230.035 72.9526 229.898 73.1618C229.734 73.4113 229.618 73.7223 229.527 74.033C229.43 74.3603 229.34 74.7619 229.254 75.2383L231.222 75.595ZM233.549 85.5499C233.844 85.5499 234.061 85.4295 234.162 85.3645C234.276 85.2911 234.365 85.208 234.427 85.1448C234.551 85.0173 234.666 84.8638 234.767 84.7182C234.973 84.4197 235.212 84.0138 235.469 83.5511C235.986 82.6199 236.637 81.3455 237.336 79.9835C238.758 77.2158 240.375 74.1005 241.644 72.3504L240.024 71.1763C238.644 73.0796 236.95 76.3575 235.557 79.0698C234.849 80.4477 234.217 81.685 233.72 82.5804C233.47 83.0311 233.269 83.3672 233.121 83.5825C233.085 83.6344 233.055 83.6743 233.032 83.704C233.021 83.7186 233.012 83.7296 233.005 83.7374C232.998 83.7452 232.995 83.7485 232.995 83.7481C232.995 83.748 233.001 83.7418 233.013 83.7316C233.025 83.7219 233.047 83.7038 233.08 83.6827C233.126 83.6525 233.295 83.5499 233.549 83.5499V85.5499ZM241.644 72.3504C241.912 71.9806 241.985 72.076 241.83 72.0813C241.665 72.087 241.692 71.9783 241.904 72.2442C242.329 72.7761 242.805 73.9562 243.262 75.6736C244.151 79.0188 244.807 83.7494 245.136 87.3802L247.128 87.1996C246.795 83.5238 246.126 78.6644 245.195 75.1597C244.741 73.4522 244.182 71.8923 243.468 70.9971C243.111 70.5495 242.543 70.0554 241.76 70.0825C240.987 70.1093 240.419 70.6328 240.024 71.1763L241.644 72.3504ZM245.136 87.3802C245.463 90.9816 245.8 96.7644 246.552 101.489C246.927 103.845 247.418 106.034 248.103 107.599C248.443 108.376 248.87 109.089 249.429 109.581C250.027 110.107 250.792 110.382 251.654 110.184L251.206 108.235C251.075 108.265 250.95 108.256 250.749 108.079C250.509 107.867 250.226 107.461 249.935 106.796C249.358 105.478 248.897 103.5 248.527 101.175C247.789 96.5386 247.464 90.9048 247.128 87.1996L245.136 87.3802ZM251.654 110.184C252.682 109.948 253.435 109.705 253.951 109.557C254.511 109.397 254.708 109.379 254.838 109.399C254.931 109.413 255.107 109.465 255.516 109.829C255.932 110.199 256.473 110.782 257.312 111.708L258.794 110.365C257.977 109.464 257.359 108.791 256.844 108.334C256.322 107.869 255.794 107.522 255.141 107.422C254.527 107.328 253.938 107.481 253.4 107.635C252.82 107.801 252.165 108.015 251.206 108.235L251.654 110.184ZM257.312 111.708C257.798 112.244 258.332 112.641 258.933 112.814C259.564 112.996 260.156 112.898 260.665 112.648C261.147 112.412 261.552 112.045 261.887 111.68C262.226 111.31 262.544 110.884 262.836 110.482C263.46 109.621 263.949 108.903 264.472 108.461C264.716 108.255 264.897 108.173 265.029 108.148C265.136 108.128 265.284 108.13 265.517 108.259L266.483 106.507C265.888 106.179 265.27 106.067 264.658 106.183C264.07 106.294 263.58 106.597 263.181 106.933C262.421 107.576 261.752 108.57 261.217 109.308C260.929 109.704 260.668 110.049 260.412 110.329C260.152 110.612 259.946 110.774 259.786 110.852C259.654 110.916 259.573 110.918 259.486 110.892C259.368 110.858 259.135 110.742 258.794 110.365L257.312 111.708Z" fill="#4F9E7D"/>
<path d="M30.812 152.059C31.3347 152.427 31.596 152.947 31.596 153.619C31.596 154.285 31.3347 154.808 30.812 155.187C30.284 155.555 29.58 155.739 28.7 155.739C27.8147 155.739 27.1133 155.555 26.596 155.187C26.068 154.808 25.804 154.285 25.804 153.619C25.804 152.947 26.068 152.427 26.596 152.059C27.1133 151.685 27.8147 151.499 28.7 151.499C29.5853 151.499 30.2893 151.685 30.812 152.059ZM30.436 154.771C30.8467 154.488 31.052 154.104 31.052 153.619C31.052 153.128 30.8467 152.747 30.436 152.475C30.0307 152.197 29.452 152.059 28.7 152.059C27.948 152.059 27.3693 152.197 26.964 152.475C26.5533 152.747 26.348 153.128 26.348 153.619C26.348 154.104 26.5533 154.488 26.964 154.771C27.3747 155.043 27.9533 155.179 28.7 155.179C29.4467 155.179 30.0253 155.043 30.436 154.771ZM26.412 151.136L25.9 149.656L25.9 149.176L31.5 149.176L31.5 149.736L26.516 149.736L26.892 150.992L26.412 151.136ZM31.14 147.177C31.2627 147.177 31.3667 147.22 31.452 147.305C31.5373 147.39 31.58 147.494 31.58 147.617C31.58 147.74 31.5373 147.844 31.452 147.929C31.3667 148.014 31.2627 148.057 31.14 148.057C31.0173 148.057 30.9133 148.014 30.828 147.929C30.7427 147.844 30.7 147.74 30.7 147.617C30.7 147.494 30.7427 147.39 30.828 147.305C30.9133 147.22 31.0173 147.177 31.14 147.177ZM31.5 142.813L31.5 146.373L30.996 146.373L28.964 144.357C28.388 143.781 27.8947 143.493 27.484 143.493C27.1373 143.493 26.8627 143.603 26.66 143.821C26.452 144.035 26.348 144.301 26.348 144.621C26.348 145.192 26.612 145.611 27.14 145.877L26.86 146.349C26.5187 146.179 26.2573 145.941 26.076 145.637C25.8947 145.333 25.804 144.995 25.804 144.621C25.804 144.173 25.956 143.781 26.26 143.445C26.5533 143.104 26.9613 142.933 27.484 142.933C27.7933 142.933 28.0973 143.019 28.396 143.189C28.6893 143.36 29.012 143.621 29.364 143.973L30.956 145.573L30.956 142.813L31.5 142.813ZM31.5 138.61L31.5 142.17L30.996 142.17L28.964 140.154C28.388 139.578 27.8947 139.29 27.484 139.29C27.1373 139.29 26.8627 139.4 26.66 139.618C26.452 139.832 26.348 140.098 26.348 140.418C26.348 140.989 26.612 141.408 27.14 141.674L26.86 142.146C26.5187 141.976 26.2573 141.738 26.076 141.434C25.8947 141.13 25.804 140.792 25.804 140.418C25.804 139.97 25.956 139.578 26.26 139.242C26.5533 138.901 26.9613 138.73 27.484 138.73C27.7933 138.73 28.0973 138.816 28.396 138.986C28.6893 139.157 29.012 139.418 29.364 139.77L30.956 141.37L30.956 138.61L31.5 138.61Z" fill="#818184"/>
<path d="M11.4091 95.1244L12.8891 94.6124H13.3691V100.212H12.8091V95.2284L11.5531 95.6044L11.4091 95.1244ZM18.0878 99.5244C17.7198 100.047 17.1998 100.308 16.5278 100.308C15.8611 100.308 15.3385 100.047 14.9598 99.5244C14.5918 98.9964 14.4078 98.2924 14.4078 97.4124C14.4078 96.5271 14.5918 95.8257 14.9598 95.3084C15.3385 94.7804 15.8611 94.5164 16.5278 94.5164C17.1998 94.5164 17.7198 94.7804 18.0878 95.3084C18.4611 95.8257 18.6478 96.5271 18.6478 97.4124C18.6478 98.2977 18.4611 99.0017 18.0878 99.5244ZM15.3758 99.1484C15.6585 99.5591 16.0425 99.7644 16.5278 99.7644C17.0185 99.7644 17.3998 99.5591 17.6718 99.1484C17.9491 98.7431 18.0878 98.1644 18.0878 97.4124C18.0878 96.6604 17.9491 96.0817 17.6718 95.6764C17.3998 95.2657 17.0185 95.0604 16.5278 95.0604C16.0425 95.0604 15.6585 95.2657 15.3758 95.6764C15.1038 96.0871 14.9678 96.6657 14.9678 97.4124C14.9678 98.1591 15.1038 98.7377 15.3758 99.1484ZM20.6949 98.1324L22.8389 100.212H22.1349L20.1349 98.2844V100.212H19.6069V96.2124H20.1349V97.9804L22.0389 96.2124H22.7589L20.6949 98.1324Z" fill="#818184"/>
<path d="M13.7628 67.2124H10.2028V66.7084L12.2188 64.6764C12.7948 64.1004 13.0828 63.6071 13.0828 63.1964C13.0828 62.8497 12.9735 62.5751 12.7548 62.3724C12.5415 62.1644 12.2748 62.0604 11.9548 62.0604C11.3841 62.0604 10.9655 62.3244 10.6988 62.8524L10.2268 62.5724C10.3975 62.2311 10.6348 61.9697 10.9388 61.7884C11.2428 61.6071 11.5815 61.5164 11.9548 61.5164C12.4028 61.5164 12.7948 61.6684 13.1308 61.9724C13.4721 62.2657 13.6428 62.6737 13.6428 63.1964C13.6428 63.5057 13.5575 63.8097 13.3868 64.1084C13.2161 64.4017 12.9548 64.7244 12.6028 65.0764L11.0028 66.6684H13.7628V67.2124ZM18.0878 66.5244C17.7198 67.0471 17.1998 67.3084 16.5278 67.3084C15.8611 67.3084 15.3385 67.0471 14.9598 66.5244C14.5918 65.9964 14.4078 65.2924 14.4078 64.4124C14.4078 63.5271 14.5918 62.8257 14.9598 62.3084C15.3385 61.7804 15.8611 61.5164 16.5278 61.5164C17.1998 61.5164 17.7198 61.7804 18.0878 62.3084C18.4611 62.8257 18.6478 63.5271 18.6478 64.4124C18.6478 65.2977 18.4611 66.0017 18.0878 66.5244ZM15.3758 66.1484C15.6585 66.5591 16.0425 66.7644 16.5278 66.7644C17.0185 66.7644 17.3998 66.5591 17.6718 66.1484C17.9491 65.7431 18.0878 65.1644 18.0878 64.4124C18.0878 63.6604 17.9491 63.0817 17.6718 62.6764C17.3998 62.2657 17.0185 62.0604 16.5278 62.0604C16.0425 62.0604 15.6585 62.2657 15.3758 62.6764C15.1038 63.0871 14.9678 63.6657 14.9678 64.4124C14.9678 65.1591 15.1038 65.7377 15.3758 66.1484ZM20.6949 65.1324L22.8389 67.2124H22.1349L20.1349 65.2844V67.2124H19.6069V63.2124H20.1349V64.9804L22.0389 63.2124H22.7589L20.6949 65.1324Z" fill="#818184"/>
<path d="M13.4456 30.1404L12.1416 31.9404C12.5843 31.9937 12.9523 32.1671 13.2456 32.4604C13.539 32.7377 13.6856 33.1137 13.6856 33.5884C13.6856 34.1164 13.5016 34.5377 13.1336 34.8524C12.7763 35.1564 12.3336 35.3084 11.8056 35.3084C11.3843 35.3084 11.011 35.2124 10.6856 35.0204C10.3603 34.8231 10.1336 34.5484 10.0056 34.1964L10.4696 33.9244C10.5603 34.1964 10.7203 34.4044 10.9496 34.5484C11.1843 34.6924 11.4696 34.7644 11.8056 34.7644C12.2003 34.7644 12.5176 34.6604 12.7576 34.4524C13.003 34.2391 13.1256 33.9511 13.1256 33.5884C13.1256 33.2257 13.003 32.9404 12.7576 32.7324C12.5176 32.5191 12.2003 32.4124 11.8056 32.4124V32.4044L11.7976 32.4124H11.6456L11.4056 32.0444L12.7976 30.1404H10.1656V29.6124H13.4456V30.1404ZM18.0878 34.5244C17.7198 35.0471 17.1998 35.3084 16.5278 35.3084C15.8611 35.3084 15.3385 35.0471 14.9598 34.5244C14.5918 33.9964 14.4078 33.2924 14.4078 32.4124C14.4078 31.5271 14.5918 30.8257 14.9598 30.3084C15.3385 29.7804 15.8611 29.5164 16.5278 29.5164C17.1998 29.5164 17.7198 29.7804 18.0878 30.3084C18.4611 30.8257 18.6478 31.5271 18.6478 32.4124C18.6478 33.2977 18.4611 34.0017 18.0878 34.5244ZM15.3758 34.1484C15.6585 34.5591 16.0425 34.7644 16.5278 34.7644C17.0185 34.7644 17.3998 34.5591 17.6718 34.1484C17.9491 33.7431 18.0878 33.1644 18.0878 32.4124C18.0878 31.6604 17.9491 31.0817 17.6718 30.6764C17.3998 30.2657 17.0185 30.0604 16.5278 30.0604C16.0425 30.0604 15.6585 30.2657 15.3758 30.6764C15.1038 31.0871 14.9678 31.6657 14.9678 32.4124C14.9678 33.1591 15.1038 33.7377 15.3758 34.1484ZM20.6949 33.1324L22.8389 35.2124H22.1349L20.1349 33.2844V35.2124H19.6069V31.2124H20.1349V32.9804L22.0389 31.2124H22.7589L20.6949 33.1324Z" fill="#818184"/>
<path d="M165.812 152.859C166.335 153.227 166.596 153.747 166.596 154.419C166.596 155.086 166.335 155.609 165.812 155.987C165.284 156.355 164.58 156.539 163.7 156.539C162.815 156.539 162.113 156.355 161.596 155.987C161.068 155.609 160.804 155.086 160.804 154.419C160.804 153.747 161.068 153.227 161.596 152.859C162.113 152.486 162.815 152.299 163.7 152.299C164.585 152.299 165.289 152.486 165.812 152.859ZM165.436 155.571C165.847 155.289 166.052 154.905 166.052 154.419C166.052 153.929 165.847 153.547 165.436 153.275C165.031 152.998 164.452 152.859 163.7 152.859C162.948 152.859 162.369 152.998 161.964 153.275C161.553 153.547 161.348 153.929 161.348 154.419C161.348 154.905 161.553 155.289 161.964 155.571C162.375 155.843 162.953 155.979 163.7 155.979C164.447 155.979 165.025 155.843 165.436 155.571ZM163.156 150.724L163.156 149.78C163.156 149.252 163.311 148.81 163.62 148.452C163.924 148.084 164.343 147.9 164.876 147.9C165.404 147.9 165.825 148.084 166.14 148.452C166.444 148.81 166.596 149.252 166.596 149.78C166.596 150.212 166.492 150.594 166.284 150.924C166.071 151.25 165.777 151.468 165.404 151.58L165.132 151.108C165.425 151.028 165.652 150.871 165.812 150.636C165.972 150.402 166.052 150.116 166.052 149.78C166.052 149.386 165.948 149.068 165.74 148.828C165.527 148.583 165.239 148.46 164.876 148.46C164.513 148.46 164.228 148.583 164.02 148.828C163.807 149.068 163.7 149.386 163.7 149.78L163.7 151.3L160.9 151.1L160.9 148.1L161.428 148.1L161.428 150.604L163.156 150.724ZM166.14 146.376C166.263 146.376 166.367 146.419 166.452 146.504C166.537 146.59 166.58 146.694 166.58 146.816C166.58 146.939 166.537 147.043 166.452 147.128C166.367 147.214 166.263 147.256 166.14 147.256C166.017 147.256 165.913 147.214 165.828 147.128C165.743 147.043 165.7 146.939 165.7 146.816C165.7 146.694 165.743 146.59 165.828 146.504C165.913 146.419 166.017 146.376 166.14 146.376ZM166.5 142.013L166.5 145.573L165.996 145.573L163.964 143.557C163.388 142.981 162.895 142.693 162.484 142.693C162.137 142.693 161.863 142.802 161.66 143.021C161.452 143.234 161.348 143.501 161.348 143.821C161.348 144.391 161.612 144.81 162.14 145.077L161.86 145.549C161.519 145.378 161.257 145.141 161.076 144.837C160.895 144.533 160.804 144.194 160.804 143.821C160.804 143.373 160.956 142.981 161.26 142.645C161.553 142.303 161.961 142.133 162.484 142.133C162.793 142.133 163.097 142.218 163.396 142.389C163.689 142.559 164.012 142.821 164.364 143.173L165.956 144.773L165.956 142.013L166.5 142.013ZM166.5 137.809L166.5 141.369L165.996 141.369L163.964 139.353C163.388 138.777 162.895 138.489 162.484 138.489C162.137 138.489 161.863 138.599 161.66 138.817C161.452 139.031 161.348 139.297 161.348 139.617C161.348 140.188 161.612 140.607 162.14 140.873L161.86 141.345C161.519 141.175 161.257 140.937 161.076 140.633C160.895 140.329 160.804 139.991 160.804 139.617C160.804 139.169 160.956 138.777 161.26 138.441C161.553 138.1 161.961 137.929 162.484 137.929C162.793 137.929 163.097 138.015 163.396 138.185C163.689 138.356 164.012 138.617 164.364 138.969L165.956 140.569L165.956 137.809L166.5 137.809Z" fill="#818184"/>
<path d="M62.812 152.84C63.3347 153.208 63.596 153.728 63.596 154.4C63.596 155.067 63.3347 155.589 62.812 155.968C62.284 156.336 61.58 156.52 60.7 156.52C59.8147 156.52 59.1133 156.336 58.596 155.968C58.068 155.589 57.804 155.067 57.804 154.4C57.804 153.728 58.068 153.208 58.596 152.84C59.1133 152.467 59.8147 152.28 60.7 152.28C61.5853 152.28 62.2893 152.467 62.812 152.84ZM62.436 155.552C62.8467 155.269 63.052 154.885 63.052 154.4C63.052 153.909 62.8467 153.528 62.436 153.256C62.0307 152.979 61.452 152.84 60.7 152.84C59.948 152.84 59.3693 152.979 58.964 153.256C58.5533 153.528 58.348 153.909 58.348 154.4C58.348 154.885 58.5533 155.269 58.964 155.552C59.3747 155.824 59.9533 155.96 60.7 155.96C61.4467 155.96 62.0253 155.824 62.436 155.552ZM63.5 148.079L63.5 151.639L62.996 151.639L60.964 149.623C60.388 149.047 59.8947 148.759 59.484 148.759C59.1373 148.759 58.8627 148.868 58.66 149.087C58.452 149.3 58.348 149.567 58.348 149.887C58.348 150.458 58.612 150.876 59.14 151.143L58.86 151.615C58.5187 151.444 58.2573 151.207 58.076 150.903C57.8947 150.599 57.804 150.26 57.804 149.887C57.804 149.439 57.956 149.047 58.26 148.711C58.5533 148.37 58.9613 148.199 59.484 148.199C59.7933 148.199 60.0973 148.284 60.396 148.455C60.6893 148.626 61.012 148.887 61.364 149.239L62.956 150.839L62.956 148.079L63.5 148.079ZM63.14 146.396C63.2627 146.396 63.3667 146.439 63.452 146.524C63.5373 146.609 63.58 146.713 63.58 146.836C63.58 146.959 63.5373 147.063 63.452 147.148C63.3667 147.233 63.2627 147.276 63.14 147.276C63.0173 147.276 62.9133 147.233 62.828 147.148C62.7427 147.063 62.7 146.959 62.7 146.836C62.7 146.713 62.7427 146.609 62.828 146.524C62.9133 146.439 63.0173 146.396 63.14 146.396ZM63.5 142.032L63.5 145.592L62.996 145.592L60.964 143.576C60.388 143 59.8947 142.712 59.484 142.712C59.1373 142.712 58.8627 142.821 58.66 143.04C58.452 143.253 58.348 143.52 58.348 143.84C58.348 144.411 58.612 144.829 59.14 145.096L58.86 145.568C58.5187 145.397 58.2573 145.16 58.076 144.856C57.8947 144.552 57.804 144.213 57.804 143.84C57.804 143.392 57.956 143 58.26 142.664C58.5533 142.323 58.9613 142.152 59.484 142.152C59.7933 142.152 60.0973 142.237 60.396 142.408C60.6893 142.579 61.012 142.84 61.364 143.192L62.956 144.792L62.956 142.032L63.5 142.032ZM63.5 137.829L63.5 141.389L62.996 141.389L60.964 139.373C60.388 138.797 59.8947 138.509 59.484 138.509C59.1373 138.509 58.8627 138.618 58.66 138.837C58.452 139.05 58.348 139.317 58.348 139.637C58.348 140.208 58.612 140.626 59.14 140.893L58.86 141.365C58.5187 141.194 58.2573 140.957 58.076 140.653C57.8947 140.349 57.804 140.01 57.804 139.637C57.804 139.189 57.956 138.797 58.26 138.461C58.5533 138.12 58.9613 137.949 59.484 137.949C59.7933 137.949 60.0973 138.034 60.396 138.205C60.6893 138.376 61.012 138.637 61.364 138.989L62.956 140.589L62.956 137.829L63.5 137.829Z" fill="#818184"/>
<path d="M199.812 152.82C200.335 153.188 200.596 153.708 200.596 154.38C200.596 155.047 200.335 155.57 199.812 155.948C199.284 156.316 198.58 156.5 197.7 156.5C196.815 156.5 196.113 156.316 195.596 155.948C195.068 155.57 194.804 155.047 194.804 154.38C194.804 153.708 195.068 153.188 195.596 152.82C196.113 152.447 196.815 152.26 197.7 152.26C198.585 152.26 199.289 152.447 199.812 152.82ZM199.436 155.532C199.847 155.25 200.052 154.866 200.052 154.38C200.052 153.89 199.847 153.508 199.436 153.236C199.031 152.959 198.452 152.82 197.7 152.82C196.948 152.82 196.369 152.959 195.964 153.236C195.553 153.508 195.348 153.89 195.348 154.38C195.348 154.866 195.553 155.25 195.964 155.532C196.375 155.804 196.953 155.94 197.7 155.94C198.447 155.94 199.025 155.804 199.436 155.532ZM196.9 149.741C196.9 149.197 197.073 148.747 197.42 148.389C197.767 148.037 198.209 147.861 198.748 147.861C199.297 147.861 199.743 148.037 200.084 148.389C200.425 148.736 200.596 149.187 200.596 149.741C200.596 150.296 200.425 150.747 200.084 151.093C199.743 151.445 199.297 151.621 198.748 151.621C198.327 151.621 197.953 151.507 197.628 151.277L194.9 149.445L194.9 148.813L196.948 150.189C196.916 150.045 196.9 149.896 196.9 149.741ZM199.692 150.701C199.932 150.451 200.052 150.131 200.052 149.741C200.052 149.347 199.932 149.029 199.692 148.789C199.452 148.544 199.137 148.421 198.748 148.421C198.359 148.421 198.044 148.544 197.804 148.789C197.564 149.029 197.444 149.347 197.444 149.741C197.444 150.131 197.564 150.451 197.804 150.701C198.044 150.941 198.359 151.061 198.748 151.061C199.137 151.061 199.452 150.941 199.692 150.701ZM200.14 146.415C200.263 146.415 200.367 146.458 200.452 146.543C200.537 146.629 200.58 146.733 200.58 146.855C200.58 146.978 200.537 147.082 200.452 147.167C200.367 147.253 200.263 147.295 200.14 147.295C200.017 147.295 199.913 147.253 199.828 147.167C199.743 147.082 199.7 146.978 199.7 146.855C199.7 146.733 199.743 146.629 199.828 146.543C199.913 146.458 200.017 146.415 200.14 146.415ZM200.5 142.052L200.5 145.612L199.996 145.612L197.964 143.596C197.388 143.02 196.895 142.732 196.484 142.732C196.137 142.732 195.863 142.841 195.66 143.06C195.452 143.273 195.348 143.54 195.348 143.86C195.348 144.43 195.612 144.849 196.14 145.116L195.86 145.588C195.519 145.417 195.257 145.18 195.076 144.876C194.895 144.572 194.804 144.233 194.804 143.86C194.804 143.412 194.956 143.02 195.26 142.684C195.553 142.342 195.961 142.172 196.484 142.172C196.793 142.172 197.097 142.257 197.396 142.428C197.689 142.598 198.012 142.86 198.364 143.212L199.956 144.812L199.956 142.052L200.5 142.052ZM200.5 137.849L200.5 141.409L199.996 141.409L197.964 139.393C197.388 138.817 196.895 138.529 196.484 138.529C196.137 138.529 195.863 138.638 195.66 138.857C195.452 139.07 195.348 139.337 195.348 139.657C195.348 140.227 195.612 140.646 196.14 140.913L195.86 141.385C195.519 141.214 195.257 140.977 195.076 140.673C194.895 140.369 194.804 140.03 194.804 139.657C194.804 139.209 194.956 138.817 195.26 138.481C195.553 138.139 195.961 137.969 196.484 137.969C196.793 137.969 197.097 138.054 197.396 138.225C197.689 138.395 198.012 138.657 198.364 139.009L199.956 140.609L199.956 137.849L200.5 137.849Z" fill="#818184"/>
<path d="M96.812 152.742C97.3347 153.11 97.596 153.63 97.596 154.302C97.596 154.969 97.3347 155.492 96.812 155.87C96.284 156.238 95.58 156.422 94.7 156.422C93.8147 156.422 93.1133 156.238 92.596 155.87C92.068 155.492 91.804 154.969 91.804 154.302C91.804 153.63 92.068 153.11 92.596 152.742C93.1133 152.369 93.8147 152.182 94.7 152.182C95.5853 152.182 96.2893 152.369 96.812 152.742ZM96.436 155.454C96.8467 155.172 97.052 154.788 97.052 154.302C97.052 153.812 96.8467 153.43 96.436 153.158C96.0307 152.881 95.452 152.742 94.7 152.742C93.948 152.742 93.3693 152.881 92.964 153.158C92.5533 153.43 92.348 153.812 92.348 154.302C92.348 154.788 92.5533 155.172 92.964 155.454C93.3747 155.726 93.9533 155.862 94.7 155.862C95.4467 155.862 96.0253 155.726 96.436 155.454ZM92.428 148.259L94.228 149.563C94.2813 149.121 94.4547 148.753 94.748 148.459C95.0253 148.166 95.4013 148.019 95.876 148.019C96.404 148.019 96.8253 148.203 97.14 148.571C97.444 148.929 97.596 149.371 97.596 149.899C97.596 150.321 97.5 150.694 97.308 151.019C97.1107 151.345 96.836 151.571 96.484 151.699L96.212 151.235C96.484 151.145 96.692 150.985 96.836 150.755C96.98 150.521 97.052 150.235 97.052 149.899C97.052 149.505 96.948 149.187 96.74 148.947C96.5267 148.702 96.2387 148.579 95.876 148.579C95.5133 148.579 95.228 148.702 95.02 148.947C94.8067 149.187 94.7 149.505 94.7 149.899L94.692 149.899L94.7 149.907L94.7 150.059L94.332 150.299L92.428 148.907L92.428 151.539L91.9 151.539L91.9 148.259L92.428 148.259ZM97.14 146.494C97.2627 146.494 97.3667 146.536 97.452 146.622C97.5373 146.707 97.58 146.811 97.58 146.934C97.58 147.056 97.5373 147.16 97.452 147.246C97.3667 147.331 97.2627 147.374 97.14 147.374C97.0173 147.374 96.9133 147.331 96.828 147.246C96.7427 147.16 96.7 147.056 96.7 146.934C96.7 146.811 96.7427 146.707 96.828 146.622C96.9133 146.536 97.0173 146.494 97.14 146.494ZM97.5 142.13L97.5 145.69L96.996 145.69L94.964 143.674C94.388 143.098 93.8947 142.81 93.484 142.81C93.1373 142.81 92.8627 142.919 92.66 143.138C92.452 143.351 92.348 143.618 92.348 143.938C92.348 144.508 92.612 144.927 93.14 145.194L92.86 145.666C92.5187 145.495 92.2573 145.258 92.076 144.954C91.8947 144.65 91.804 144.311 91.804 143.938C91.804 143.49 91.956 143.098 92.26 142.762C92.5533 142.42 92.9613 142.25 93.484 142.25C93.7933 142.25 94.0973 142.335 94.396 142.506C94.6893 142.676 95.012 142.938 95.364 143.29L96.956 144.89L96.956 142.13L97.5 142.13ZM97.5 137.927L97.5 141.487L96.996 141.487L94.964 139.471C94.388 138.895 93.8947 138.607 93.484 138.607C93.1373 138.607 92.8627 138.716 92.66 138.935C92.452 139.148 92.348 139.415 92.348 139.735C92.348 140.305 92.612 140.724 93.14 140.991L92.86 141.463C92.5187 141.292 92.2573 141.055 92.076 140.751C91.8947 140.447 91.804 140.108 91.804 139.735C91.804 139.287 91.956 138.895 92.26 138.559C92.5533 138.217 92.9613 138.047 93.484 138.047C93.7933 138.047 94.0973 138.132 94.396 138.303C94.6893 138.473 95.012 138.735 95.364 139.087L96.956 140.687L96.956 137.927L97.5 137.927Z" fill="#818184"/>
<path d="M234.812 152.059C235.335 152.427 235.596 152.947 235.596 153.619C235.596 154.285 235.335 154.808 234.812 155.187C234.284 155.555 233.58 155.739 232.7 155.739C231.815 155.739 231.113 155.555 230.596 155.187C230.068 154.808 229.804 154.285 229.804 153.619C229.804 152.947 230.068 152.427 230.596 152.059C231.113 151.685 231.815 151.499 232.7 151.499C233.585 151.499 234.289 151.685 234.812 152.059ZM234.436 154.771C234.847 154.488 235.052 154.104 235.052 153.619C235.052 153.128 234.847 152.747 234.436 152.475C234.031 152.197 233.452 152.059 232.7 152.059C231.948 152.059 231.369 152.197 230.964 152.475C230.553 152.747 230.348 153.128 230.348 153.619C230.348 154.104 230.553 154.488 230.964 154.771C231.375 155.043 231.953 155.179 232.7 155.179C233.447 155.179 234.025 155.043 234.436 154.771ZM230.428 151.096L229.9 151.096L229.9 147.656L230.428 147.656L235.5 149.768L235.5 150.352L230.428 148.24L230.428 151.096ZM235.14 147.177C235.263 147.177 235.367 147.22 235.452 147.305C235.537 147.39 235.58 147.494 235.58 147.617C235.58 147.74 235.537 147.844 235.452 147.929C235.367 148.014 235.263 148.057 235.14 148.057C235.017 148.057 234.913 148.014 234.828 147.929C234.743 147.844 234.7 147.74 234.7 147.617C234.7 147.494 234.743 147.39 234.828 147.305C234.913 147.22 235.017 147.177 235.14 147.177ZM235.5 142.813L235.5 146.373L234.996 146.373L232.964 144.357C232.388 143.781 231.895 143.493 231.484 143.493C231.137 143.493 230.863 143.603 230.66 143.821C230.452 144.035 230.348 144.301 230.348 144.621C230.348 145.192 230.612 145.611 231.14 145.877L230.86 146.349C230.519 146.179 230.257 145.941 230.076 145.637C229.895 145.333 229.804 144.995 229.804 144.621C229.804 144.173 229.956 143.781 230.26 143.445C230.553 143.104 230.961 142.933 231.484 142.933C231.793 142.933 232.097 143.019 232.396 143.189C232.689 143.36 233.012 143.621 233.364 143.973L234.956 145.573L234.956 142.813L235.5 142.813ZM235.5 138.61L235.5 142.17L234.996 142.17L232.964 140.154C232.388 139.578 231.895 139.29 231.484 139.29C231.137 139.29 230.863 139.4 230.66 139.618C230.452 139.832 230.348 140.098 230.348 140.418C230.348 140.989 230.612 141.408 231.14 141.674L230.86 142.146C230.519 141.976 230.257 141.738 230.076 141.434C229.895 141.13 229.804 140.792 229.804 140.418C229.804 139.97 229.956 139.578 230.26 139.242C230.553 138.901 230.961 138.73 231.484 138.73C231.793 138.73 232.097 138.816 232.396 138.986C232.689 139.157 233.012 139.418 233.364 139.77L234.956 141.37L234.956 138.61L235.5 138.61Z" fill="#818184"/>
<path d="M130.812 153.098C131.335 153.466 131.596 153.986 131.596 154.658C131.596 155.324 131.335 155.847 130.812 156.226C130.284 156.594 129.58 156.778 128.7 156.778C127.815 156.778 127.113 156.594 126.596 156.226C126.068 155.847 125.804 155.324 125.804 154.658C125.804 153.986 126.068 153.466 126.596 153.098C127.113 152.724 127.815 152.538 128.7 152.538C129.585 152.538 130.289 152.724 130.812 153.098ZM130.436 155.81C130.847 155.527 131.052 155.143 131.052 154.658C131.052 154.167 130.847 153.786 130.436 153.514C130.031 153.236 129.452 153.098 128.7 153.098C127.948 153.098 127.369 153.236 126.964 153.514C126.553 153.786 126.348 154.167 126.348 154.658C126.348 155.143 126.553 155.527 126.964 155.81C127.375 156.082 127.953 156.218 128.7 156.218C129.447 156.218 130.025 156.082 130.436 155.81ZM129.852 148.419L129.852 147.699L130.38 147.699L130.38 148.419L131.5 148.419L131.5 148.979L130.38 148.979L130.38 151.939L129.852 151.939L125.9 149.859L125.9 149.243L129.852 151.323L129.852 148.979L128.14 148.979L128.14 148.419L129.852 148.419ZM131.14 146.138C131.263 146.138 131.367 146.181 131.452 146.266C131.537 146.351 131.58 146.455 131.58 146.578C131.58 146.701 131.537 146.805 131.452 146.89C131.367 146.975 131.263 147.018 131.14 147.018C131.017 147.018 130.913 146.975 130.828 146.89C130.743 146.805 130.7 146.701 130.7 146.578C130.7 146.455 130.743 146.351 130.828 146.266C130.913 146.181 131.017 146.138 131.14 146.138ZM131.5 141.774L131.5 145.334L130.996 145.334L128.964 143.318C128.388 142.742 127.895 142.454 127.484 142.454C127.137 142.454 126.863 142.564 126.66 142.782C126.452 142.996 126.348 143.262 126.348 143.582C126.348 144.153 126.612 144.572 127.14 144.838L126.86 145.31C126.519 145.14 126.257 144.902 126.076 144.598C125.895 144.294 125.804 143.956 125.804 143.582C125.804 143.134 125.956 142.742 126.26 142.406C126.553 142.065 126.961 141.894 127.484 141.894C127.793 141.894 128.097 141.98 128.396 142.15C128.689 142.321 129.012 142.582 129.364 142.934L130.956 144.534L130.956 141.774L131.5 141.774ZM131.5 137.571L131.5 141.131L130.996 141.131L128.964 139.115C128.388 138.539 127.895 138.251 127.484 138.251C127.137 138.251 126.863 138.361 126.66 138.579C126.452 138.793 126.348 139.059 126.348 139.379C126.348 139.95 126.612 140.369 127.14 140.635L126.86 141.107C126.519 140.937 126.257 140.699 126.076 140.395C125.895 140.091 125.804 139.753 125.804 139.379C125.804 138.931 125.956 138.539 126.26 138.203C126.553 137.862 126.961 137.691 127.484 137.691C127.793 137.691 128.097 137.777 128.396 137.947C128.689 138.118 129.012 138.379 129.364 138.731L130.956 140.331L130.956 137.571L131.5 137.571Z" fill="#818184"/>
<path d="M267.812 152.969C268.335 153.337 268.596 153.857 268.596 154.529C268.596 155.195 268.335 155.718 267.812 156.097C267.284 156.465 266.58 156.649 265.7 156.649C264.815 156.649 264.113 156.465 263.596 156.097C263.068 155.718 262.804 155.195 262.804 154.529C262.804 153.857 263.068 153.337 263.596 152.969C264.113 152.595 264.815 152.409 265.7 152.409C266.585 152.409 267.289 152.595 267.812 152.969ZM267.436 155.681C267.847 155.398 268.052 155.014 268.052 154.529C268.052 154.038 267.847 153.657 267.436 153.385C267.031 153.107 266.452 152.969 265.7 152.969C264.948 152.969 264.369 153.107 263.964 153.385C263.553 153.657 263.348 154.038 263.348 154.529C263.348 155.014 263.553 155.398 263.964 155.681C264.375 155.953 264.953 156.089 265.7 156.089C266.447 156.089 267.025 155.953 267.436 155.681ZM265.612 148.874C265.745 148.586 265.932 148.359 266.172 148.194C266.412 148.028 266.681 147.946 266.98 147.946C267.487 147.946 267.884 148.124 268.172 148.482C268.455 148.844 268.596 149.29 268.596 149.818C268.596 150.346 268.455 150.791 268.172 151.154C267.884 151.511 267.487 151.69 266.98 151.69C266.681 151.69 266.412 151.607 266.172 151.442C265.932 151.276 265.745 151.05 265.612 150.762C265.329 151.258 264.911 151.506 264.356 151.506C263.855 151.506 263.471 151.34 263.204 151.01C262.937 150.668 262.804 150.271 262.804 149.818C262.804 149.359 262.937 148.964 263.204 148.634C263.471 148.298 263.855 148.13 264.356 148.13C264.911 148.13 265.329 148.378 265.612 148.874ZM264.356 150.946C264.665 150.946 264.911 150.839 265.092 150.626C265.273 150.407 265.364 150.138 265.364 149.818C265.364 149.498 265.273 149.231 265.092 149.018C264.911 148.799 264.665 148.69 264.356 148.69C264.031 148.69 263.783 148.794 263.612 149.002C263.436 149.21 263.348 149.482 263.348 149.818C263.348 150.154 263.436 150.426 263.612 150.634C263.783 150.842 264.031 150.946 264.356 150.946ZM267.78 150.77C267.961 150.535 268.052 150.218 268.052 149.818C268.052 149.418 267.961 149.1 267.78 148.866C267.593 148.626 267.327 148.506 266.98 148.506C266.639 148.506 266.375 148.626 266.188 148.866C266.001 149.111 265.908 149.428 265.908 149.818C265.908 150.207 266.001 150.524 266.188 150.77C266.375 151.01 266.639 151.13 266.98 151.13C267.332 151.13 267.599 151.01 267.78 150.77ZM268.14 146.267C268.263 146.267 268.367 146.31 268.452 146.395C268.537 146.48 268.58 146.584 268.58 146.707C268.58 146.83 268.537 146.934 268.452 147.019C268.367 147.104 268.263 147.147 268.14 147.147C268.017 147.147 267.913 147.104 267.828 147.019C267.743 146.934 267.7 146.83 267.7 146.707C267.7 146.584 267.743 146.48 267.828 146.395C267.913 146.31 268.017 146.267 268.14 146.267ZM268.5 141.903L268.5 145.463L267.996 145.463L265.964 143.447C265.388 142.871 264.895 142.583 264.484 142.583C264.137 142.583 263.863 142.693 263.66 142.911C263.452 143.125 263.348 143.391 263.348 143.711C263.348 144.282 263.612 144.701 264.14 144.967L263.86 145.439C263.519 145.269 263.257 145.031 263.076 144.727C262.895 144.423 262.804 144.085 262.804 143.711C262.804 143.263 262.956 142.871 263.26 142.535C263.553 142.194 263.961 142.023 264.484 142.023C264.793 142.023 265.097 142.109 265.396 142.279C265.689 142.45 266.012 142.711 266.364 143.063L267.956 144.663L267.956 141.903L268.5 141.903ZM268.5 137.7L268.5 141.26L267.996 141.26L265.964 139.244C265.388 138.668 264.895 138.38 264.484 138.38C264.137 138.38 263.863 138.489 263.66 138.708C263.452 138.921 263.348 139.188 263.348 139.508C263.348 140.079 263.612 140.497 264.14 140.764L263.86 141.236C263.519 141.065 263.257 140.828 263.076 140.524C262.895 140.22 262.804 139.881 262.804 139.508C262.804 139.06 262.956 138.668 263.26 138.332C263.553 137.991 263.961 137.82 264.484 137.82C264.793 137.82 265.097 137.905 265.396 138.076C265.689 138.247 266.012 138.508 266.364 138.86L267.956 140.46L267.956 137.7L268.5 137.7Z" fill="#818184"/>
</svg>
