<svg width="14" height="12" viewBox="0 0 14 12" fill="none" xmlns="http://www.w3.org/2000/svg">
<path fill-rule="evenodd" clip-rule="evenodd" d="M0.928055 5.56629C4.55193 3.98743 6.96841 2.94654 8.1775 2.44364C11.6297 1.00775 12.347 0.758324 12.8146 0.750088C12.9174 0.748276 13.1474 0.773761 13.2963 0.894614C13.4221 0.996659 13.4567 1.13451 13.4732 1.23126C13.4898 1.32801 13.5104 1.54841 13.494 1.72062C13.3069 3.68625 12.4974 8.45629 12.0856 10.6578C11.9114 11.5894 11.5683 11.9017 11.2361 11.9323C10.5142 11.9987 9.96604 11.4552 9.26685 10.9969C8.17277 10.2797 7.55468 9.83325 6.49268 9.13341C5.26536 8.32463 6.06098 7.8801 6.76043 7.15363C6.94348 6.96351 10.1241 4.07046 10.1857 3.80802C10.1934 3.77519 10.2005 3.65284 10.1279 3.58824C10.0552 3.52363 9.94789 3.54573 9.87047 3.5633C9.76074 3.5882 8.01293 4.74344 4.62703 7.02901C4.13092 7.36968 3.68156 7.53566 3.27895 7.52697C2.8351 7.51738 1.98131 7.27601 1.34661 7.06969C0.56812 6.81664 -0.0506068 6.68284 0.0032705 6.25308C0.0313331 6.02923 0.339594 5.8003 0.928055 5.56629Z" fill="#37AEE2"/>
</svg>
