<svg width="14" height="12" viewBox="0 0 14 12" fill="none" xmlns="http://www.w3.org/2000/svg">
<path d="M4.49696 11.4844C9.59005 11.4844 12.3765 7.26382 12.3765 3.60484C12.3765 3.48619 12.3739 3.3649 12.3686 3.24625C12.9107 2.85424 13.3785 2.36869 13.75 1.8124C13.2452 2.03701 12.7092 2.1837 12.1603 2.24746C12.7382 1.90106 13.1709 1.35687 13.3782 0.71579C12.8346 1.03798 12.24 1.26526 11.6201 1.38789C11.2023 0.944049 10.6501 0.650174 10.0486 0.551699C9.44709 0.453225 8.82992 0.555637 8.29248 0.8431C7.75504 1.13056 7.32726 1.58707 7.07529 2.14203C6.82332 2.697 6.76118 3.31952 6.89849 3.91334C5.79765 3.8581 4.72071 3.57213 3.73749 3.07398C2.75427 2.57582 1.8867 1.8766 1.19104 1.02165C0.837475 1.63125 0.729282 2.3526 0.888455 3.0391C1.04763 3.7256 1.46222 4.32573 2.04798 4.71754C1.60823 4.70358 1.17811 4.58518 0.793164 4.37213V4.4064C0.79277 5.04613 1.01393 5.66625 1.41905 6.16135C1.82417 6.65646 2.38824 6.99599 3.01539 7.12222C2.60803 7.23368 2.18049 7.24992 1.76585 7.16969C1.94282 7.71985 2.28713 8.20105 2.75075 8.54611C3.21436 8.89117 3.77413 9.08288 4.35194 9.09449C3.37099 9.86504 2.15922 10.283 0.911816 10.281C0.690599 10.2807 0.469599 10.2671 0.25 10.2404C1.51723 11.0534 2.99136 11.4852 4.49696 11.4844Z" fill="#55ACEE"/>
</svg>
